<svg width="20" height="20" viewBox="0 0 20 20" fill="none" xmlns="http://www.w3.org/2000/svg">
<path opacity="0.3" d="M10.0003 18.3332C14.6027 18.3332 18.3337 14.6022 18.3337 9.99984C18.3337 5.39746 14.6027 1.6665 10.0003 1.6665C5.39795 1.6665 1.66699 5.39746 1.66699 9.99984C1.66699 14.6022 5.39795 18.3332 10.0003 18.3332Z" fill="#E7E7E7"/>
<path d="M14.1667 10.8332H5.83333C5.37333 10.8332 5 10.4598 5 9.99984C5 9.53984 5.37333 9.1665 5.83333 9.1665H14.1667C14.6267 9.1665 15 9.53984 15 9.99984C15 10.4598 14.6267 10.8332 14.1667 10.8332Z" fill="#E7E7E7"/>
<path d="M9.16699 14.1667V5.83333C9.16699 5.37333 9.54033 5 10.0003 5C10.4603 5 10.8337 5.37333 10.8337 5.83333V14.1667C10.8337 14.6267 10.4603 15 10.0003 15C9.54033 15 9.16699 14.6267 9.16699 14.1667Z" fill="#E7E7E7"/>
</svg>
