<svg width="20" height="20" viewBox="0 0 20 20" fill="none" xmlns="http://www.w3.org/2000/svg">
<path opacity="0.3" d="M9.99935 18.3332C14.6017 18.3332 18.3327 14.6022 18.3327 9.99984C18.3327 5.39746 14.6017 1.6665 9.99935 1.6665C5.39698 1.6665 1.66602 5.39746 1.66602 9.99984C1.66602 14.6022 5.39698 18.3332 9.99935 18.3332Z" fill="#DC3545"/>
<path d="M9.16602 14.1665V9.99984C9.16602 9.53984 9.53935 9.1665 9.99935 9.1665C10.4593 9.1665 10.8327 9.53984 10.8327 9.99984V14.1665C10.8327 14.6265 10.4593 14.9998 9.99935 14.9998C9.53935 14.9998 9.16602 14.6265 9.16602 14.1665Z" fill="#DC3545"/>
<path d="M10 7.5C10.6904 7.5 11.25 6.94036 11.25 6.25C11.25 5.55964 10.6904 5 10 5C9.30964 5 8.75 5.55964 8.75 6.25C8.75 6.94036 9.30964 7.5 10 7.5Z" fill="#DC3545"/>
</svg>
