<svg width="28" height="28" viewBox="0 0 28 28" fill="none" xmlns="http://www.w3.org/2000/svg">
<path opacity="0.3" d="M13.9997 25.6667C20.443 25.6667 25.6663 20.4434 25.6663 14C25.6663 7.55672 20.443 2.33337 13.9997 2.33337C7.55635 2.33337 2.33301 7.55672 2.33301 14C2.33301 20.4434 7.55635 25.6667 13.9997 25.6667Z" fill="#ADB5BD"/>
<path d="M17.7375 16.0872L16.376 14.3267C15.9677 13.7982 15.7192 13.1635 15.6585 12.4985L15.1674 7.00004C15.1674 6.35604 14.6447 5.83337 14.0007 5.83337C13.3567 5.83337 12.834 6.35604 12.834 7.00004L12.3895 12.6992C12.302 13.8192 12.7582 14.9135 13.6157 15.6404L16.0879 17.7369C16.544 18.193 17.2825 18.193 17.7375 17.7369C18.1937 17.2819 18.1937 16.5422 17.7375 16.0872Z" fill="#ADB5BD"/>
</svg>
