<svg width="28" height="28" viewBox="0 0 28 28" fill="none" xmlns="http://www.w3.org/2000/svg">
<path opacity="0.3" d="M14.0002 25.6668C20.4435 25.6668 25.6668 20.4435 25.6668 14.0002C25.6668 7.55684 20.4435 2.3335 14.0002 2.3335C7.55684 2.3335 2.3335 7.55684 2.3335 14.0002C2.3335 20.4435 7.55684 25.6668 14.0002 25.6668Z" fill="#495057"/>
<path d="M17.7375 16.0873L16.376 14.3268C15.9677 13.7983 15.7192 13.1637 15.6585 12.4987L15.1674 7.00016C15.1674 6.35616 14.6447 5.8335 14.0007 5.8335C13.3567 5.8335 12.834 6.35616 12.834 7.00016L12.3895 12.6993C12.302 13.8193 12.7582 14.9137 13.6157 15.6405L16.0879 17.737C16.544 18.1932 17.2825 18.1932 17.7375 17.737C18.1937 17.282 18.1937 16.5423 17.7375 16.0873Z" fill="#495057"/>
</svg>
