<svg width="24" height="24" viewBox="0 0 24 24" fill="none" xmlns="http://www.w3.org/2000/svg">
<path opacity="0.3" d="M20.5 17.9999C20.483 17.9999 20.303 17.9999 20 17.9999V8.9999H20.211C21.199 8.9999 22 8.1989 22 7.2109C22 6.4789 21.555 5.8219 20.875 5.5499L13.325 2.5299C12.474 2.1899 11.524 2.1899 10.673 2.5299L3.123 5.5499C2.445 5.8219 2 6.4799 2 7.2109C2 8.1989 2.801 8.9999 3.789 8.9999H4V17.9999C3.697 17.9999 3.517 17.9999 3.5 17.9999C2.672 17.9999 2 18.6719 2 19.4999C2 20.3279 2.672 20.9999 3.5 20.9999C3.676 20.9999 20.324 20.9999 20.5 20.9999C21.328 20.9999 22 20.3279 22 19.4999C22 18.6719 21.328 17.9999 20.5 17.9999Z" fill="#282828"/>
<path d="M20.5 18.0001C20.676 18.0001 20.843 18.0361 21 18.0921V8.80908C20.761 8.92708 20.496 9.00008 20.211 9.00008H18V18.0001C19.471 18.0001 20.458 18.0001 20.5 18.0001Z" fill="#282828"/>
<path d="M3.5 18.0001C3.542 18.0001 4.529 18.0001 6 18.0001V9.00008H3.789C3.504 9.00008 3.239 8.92708 3 8.80908V18.0921C3.157 18.0361 3.324 18.0001 3.5 18.0001Z" fill="#282828"/>
<path d="M14.3789 14.6849C14.3789 12.0949 11.5199 12.4489 11.5199 11.0989C11.5199 10.3039 12.1449 10.2199 12.3609 10.2199C12.5739 10.2199 12.7629 10.2709 12.9229 10.3429C13.2989 10.5129 13.7449 10.3549 13.9829 10.0179C14.2879 9.58586 14.1299 8.97886 13.6479 8.76186C13.3839 8.64286 13.0539 8.54686 12.6539 8.50886V8.13286C12.6539 7.78686 12.3729 7.50586 12.0269 7.50586C11.6809 7.50586 11.3999 7.78686 11.3999 8.13286V8.64086C10.3509 8.99086 9.66891 9.95086 9.66891 11.1799C9.66891 13.8979 12.4929 13.4069 12.4929 14.8199C12.4929 15.0919 12.3639 15.6849 11.6639 15.6849C11.3529 15.6849 11.0839 15.5969 10.8649 15.4829C10.4939 15.2889 10.0329 15.4319 9.79591 15.7779L9.77091 15.8149C9.49691 16.2149 9.60791 16.7749 10.0289 17.0139C10.3829 17.2149 10.8159 17.3709 11.3389 17.4259V17.8659C11.3389 18.2119 11.6199 18.4929 11.9659 18.4929C12.3119 18.4929 12.5929 18.2119 12.5929 17.8659V17.3129C13.7539 16.9579 14.3789 15.8999 14.3789 14.6849Z" fill="#282828"/>
</svg>
