<svg width="24" height="24" viewBox="0 0 24 24" fill="none" xmlns="http://www.w3.org/2000/svg">
<path opacity="0.3" d="M18.239 7.94478L19.832 5.55478C20.139 5.09578 20.015 4.47378 19.555 4.16778C19.093 3.85978 18.474 3.98578 18.168 4.44478L16.489 6.96378C15.117 6.34978 13.601 5.99978 12 5.99978C10.399 5.99978 8.883 6.34978 7.511 6.96378L5.832 4.44478C5.526 3.98578 4.907 3.85978 4.445 4.16778C3.985 4.47378 3.861 5.09478 4.168 5.55478L5.761 7.94478C2.887 9.92878 1 13.2428 1 16.9998V17.9998C1 19.1048 1.895 19.9998 3 19.9998H21C22.105 19.9998 23 19.1048 23 17.9998V16.9998C23 13.2428 21.113 9.92878 18.239 7.94478Z" fill="#E7E7E7"/>
<path d="M16.5 16C17.3284 16 18 15.3284 18 14.5C18 13.6716 17.3284 13 16.5 13C15.6716 13 15 13.6716 15 14.5C15 15.3284 15.6716 16 16.5 16Z" fill="#E7E7E7"/>
<path d="M7.5 16C8.32843 16 9 15.3284 9 14.5C9 13.6716 8.32843 13 7.5 13C6.67157 13 6 13.6716 6 14.5C6 15.3284 6.67157 16 7.5 16Z" fill="#E7E7E7"/>
</svg>
