<svg width="42" height="12" viewBox="0 0 42 12" fill="none" xmlns="http://www.w3.org/2000/svg">
<path d="M0.0722656 0.547751H3.98426C4.3399 0.547751 5.40681 0.429205 5.88099 2.08884C6.23663 3.15575 6.71081 4.81538 7.42208 7.30484H7.65917C8.37044 4.69684 8.96317 2.91866 9.20026 2.08884C9.67444 0.429205 10.8599 0.547751 11.3341 0.547751H15.009V11.9281H11.2155V5.17102H10.9784L8.96317 11.9281H6.11808L4.10281 5.17102H3.74717V11.9281H0.0722656M16.5501 0.547751H20.3435V7.30484H20.6992L23.1886 1.7332C23.6628 0.666296 24.7297 0.547751 24.7297 0.547751H28.2861V11.9281H24.4926V5.17102H24.2555L21.7661 10.7427C21.2919 11.8096 20.1064 11.9281 20.1064 11.9281H16.5501M33.3835 8.49029V11.9281H29.8272V6.00084H41.4446C40.9704 7.42338 39.3108 8.49029 37.4141 8.49029" fill="#0F754E"/>
<path d="M41.6815 5.29015C42.1557 3.15634 40.7331 0.54834 37.6509 0.54834H29.5898C29.8269 3.03779 31.9608 5.29015 34.2131 5.29015" fill="url(#paint0_linear_6071_18772)"/>
<defs>
<linearGradient id="paint0_linear_6071_18772" x1="40.2589" y1="-0.99275" x2="30.7753" y2="-0.99275" gradientUnits="userSpaceOnUse">
<stop stop-color="#1F5CD7"/>
<stop offset="1" stop-color="#02AEFF"/>
</linearGradient>
</defs>
</svg>
