<svg width="14" height="18" viewBox="0 0 14 18" fill="none" xmlns="http://www.w3.org/2000/svg">
<path d="M0 4.12012L2.03413 7.8607V10.1424L0.00237959 13.8756L0 4.12012Z" fill="#5B57A2"/>
<path d="M7.81055 6.49957L9.71659 5.29769L13.6174 5.29395L7.81055 8.95374V6.49957Z" fill="#D90751"/>
<path d="M7.79959 4.09881L7.81037 9.05121L5.77148 7.76235V0.359375L7.79959 4.09881Z" fill="#FAB718"/>
<path d="M13.6173 5.29464L9.71628 5.29839L7.79959 4.09881L5.77148 0.359375L13.6173 5.29464Z" fill="#ED6F26"/>
<path d="M7.81037 13.8966V11.4939L5.77148 10.2295L5.7726 17.6398L7.81037 13.8966Z" fill="#63B22F"/>
<path d="M9.7115 12.7054L2.03399 7.8607L0 4.12012L13.6088 12.7005L9.7115 12.7054Z" fill="#1487C9"/>
<path d="M5.77148 17.6402L7.80897 13.897L9.71026 12.7061L13.6076 12.7012L5.77148 17.6402Z" fill="#017F36"/>
<path d="M0.00390625 13.876L5.78952 10.2298L3.84442 9.00195L2.03565 10.1428L0.00390625 13.876Z" fill="#984995"/>
</svg>
