<svg width="40" height="40" viewBox="0 0 40 40" fill="none" xmlns="http://www.w3.org/2000/svg">
<g clip-path="url(#clip0_6023_30728)">
<g clip-path="url(#clip1_6023_30728)">
<mask id="mask0_6023_30728" style="mask-type:luminance" maskUnits="userSpaceOnUse" x="0" y="0" width="40" height="40">
<path d="M40 0H0V40H40V0Z" fill="white"/>
</mask>
<g mask="url(#mask0_6023_30728)">
<path d="M20 40C31.0458 40 40 31.0458 40 20C40 8.9543 31.0458 0 20 0C8.9543 0 0 8.9543 0 20C0 31.0458 8.9543 40 20 40Z" fill="url(#paint0_radial_6023_30728)"/>
<path opacity="0.15" d="M20 40C8.97177 40 0 31.0283 0 20C0 8.97177 8.97177 0 20 0C31.0283 0 40 8.97177 40 20C40 31.0283 31.0283 40 20 40ZM20 1.33636C9.70484 1.33636 1.32987 9.71132 1.32987 20.0065C1.32987 30.3016 9.70484 38.6766 20 38.6766C30.2951 38.6766 38.6701 30.2951 38.6701 20C38.6701 9.70484 30.2951 1.33636 20 1.33636Z" fill="black"/>
<path d="M28.2818 15.7718C28.6516 15.8885 29.0278 15.9664 29.3522 16.1155C30.8702 16.8097 31.1297 18.6455 29.8841 19.8782C29.2029 20.5528 28.3467 20.8577 27.4059 20.916C26.4199 20.9744 25.5117 20.7799 24.6424 20.4814C23.5981 20.1182 22.625 19.6445 21.7038 19.0867C21.6908 19.0802 21.6908 19.0673 21.6713 19.0413C22.0087 18.944 22.3459 18.8597 22.6768 18.7559C23.8576 18.3795 24.9863 17.893 25.9009 17.0497C26.0113 16.9459 26.0826 16.8097 26.1734 16.6864C26.0242 16.6734 25.8816 16.6475 25.7323 16.654C24.7722 16.7124 23.8704 17.0368 23.0012 17.4584C22.4692 17.7179 21.9697 18.0423 21.4572 18.3342C21.4248 18.3537 21.386 18.3732 21.3535 18.399C21.334 18.3925 21.3146 18.386 21.2886 18.3795C21.5027 17.666 21.7038 16.9524 21.9438 16.2453C22.2682 15.2917 22.7093 14.3705 23.3644 13.5207C23.9808 12.7358 24.7527 12.1454 25.7842 11.8989C27.2892 11.5356 28.6904 12.353 28.8851 13.6958C29.0018 14.4484 28.7553 15.1295 28.2818 15.7718Z" fill="#111111"/>
<path d="M12.7161 22.7504C12.3463 22.6337 11.9701 22.5558 11.6457 22.4067C10.1277 21.7124 9.86824 19.8767 11.1138 18.644C11.7949 17.9694 12.6512 17.6644 13.5918 17.606C14.578 17.5477 15.4861 17.7423 16.3555 18.0408C17.3998 18.404 18.373 18.8775 19.2941 19.4354C19.3071 19.4419 19.3071 19.4549 19.3266 19.4809C18.9892 19.5782 18.6518 19.6625 18.3211 19.7663C17.1403 20.1425 16.0116 20.6292 15.097 21.4724C14.9866 21.5763 14.9152 21.7125 14.8245 21.8358C14.9736 21.8487 15.1163 21.8747 15.2656 21.8682C16.2257 21.8098 17.1273 21.4854 17.9967 21.0638C18.5286 20.8043 19.0281 20.4799 19.5406 20.188C19.5731 20.1685 19.612 20.149 19.6445 20.1232C19.6638 20.1297 19.6833 20.136 19.7093 20.1425C19.4952 20.8562 19.2941 21.5698 19.0541 22.2769C18.7297 23.2305 18.2886 24.1517 17.6333 25.0015C17.0171 25.7864 16.2451 26.3768 15.2137 26.6233C13.7086 26.9865 12.3074 26.1692 12.1128 24.8263C11.9895 24.0738 12.2361 23.3927 12.7161 22.7504Z" fill="#111111"/>
<path d="M17.0095 11.4769C17.1263 11.1071 17.2042 10.7308 17.3533 10.4065C18.0474 8.88847 19.8833 8.62898 21.1159 9.87453C21.7905 10.5557 22.0954 11.412 22.1538 12.3526C22.2123 13.3387 22.0177 14.2469 21.7192 15.1162C21.3559 16.1606 20.8824 17.1337 20.3244 18.0549C20.3179 18.0679 20.305 18.0679 20.279 18.0874C20.1818 17.75 20.0974 17.4126 19.9937 17.0817C19.6174 15.9011 19.1308 14.7724 18.2875 13.8576C18.1837 13.7474 18.0474 13.676 17.9242 13.5852C17.9113 13.7344 17.8853 13.8771 17.8918 14.0264C17.9502 14.9865 18.2745 15.8881 18.6962 16.7575C18.9557 17.2894 19.28 17.7889 19.5719 18.3014C19.5914 18.3339 19.6109 18.3727 19.6368 18.4052C19.6303 18.4246 19.6238 18.4441 19.6174 18.4701C18.9038 18.256 18.1902 18.0549 17.483 17.8149C16.5294 17.4905 15.6083 17.0494 14.7584 16.3941C13.9735 15.7779 13.3832 15.0059 13.1367 13.9745C12.7734 12.4694 13.5908 11.0682 14.9337 10.8736C15.6862 10.7568 16.3673 11.0033 17.0095 11.4769Z" fill="#111111"/>
<path d="M23.9848 27.046C23.868 27.4157 23.7902 27.792 23.6409 28.1164C22.9468 29.6344 21.1109 29.8939 19.8784 28.6482C19.2037 27.9671 18.8988 27.1109 18.8404 26.1701C18.782 25.1841 18.9767 24.2759 19.275 23.4066C19.6384 22.3622 20.1119 21.3891 20.6698 20.4679C20.6763 20.455 20.6893 20.455 20.7153 20.4355C20.8125 20.7729 20.8969 21.1101 21.0007 21.441C21.3769 22.6216 21.8634 23.7505 22.7068 24.6651C22.8105 24.7754 22.9468 24.8467 23.07 24.9376C23.083 24.7884 23.109 24.6456 23.1025 24.4965C23.0442 23.5364 22.7198 22.6346 22.2982 21.7654C22.0387 21.2334 21.7143 20.7339 21.4223 20.2214C21.4029 20.189 21.3834 20.1501 21.3574 20.1176C21.3639 20.0981 21.3704 20.0787 21.3769 20.0527C22.0905 20.2669 22.8042 20.4679 23.5112 20.708C24.4648 21.0324 25.386 21.4735 26.2358 22.1286C27.0208 22.745 27.6112 23.5169 27.8577 24.5484C28.2209 26.0534 27.4035 27.4546 26.0607 27.6492C25.3147 27.766 24.627 27.5195 23.9848 27.046Z" fill="#111111"/>
<path d="M17.885 25.5471L15.0306 30.5423C14.862 30.8408 15.0048 31.2234 15.3355 31.3273L15.9584 31.5284C16.2503 31.6256 16.5616 31.457 16.646 31.165L18.2419 25.6964C18.3068 25.4758 18.0018 25.346 17.885 25.5471Z" fill="#111111"/>
</g>
</g>
</g>
<defs>
<radialGradient id="paint0_radial_6023_30728" cx="0" cy="0" r="1" gradientUnits="userSpaceOnUse" gradientTransform="translate(32.9412 29.7059) rotate(-135) scale(33.9689)">
<stop offset="0.2" stop-color="#7FFF47"/>
<stop offset="0.55" stop-color="#F9FF20"/>
<stop offset="0.8" stop-color="#FFDAC0"/>
<stop offset="1" stop-color="#FC76E3"/>
</radialGradient>
<clipPath id="clip0_6023_30728">
<rect width="40" height="40" fill="white"/>
</clipPath>
<clipPath id="clip1_6023_30728">
<rect width="40" height="40" fill="white"/>
</clipPath>
</defs>
</svg>
