<svg width="28" height="28" viewBox="0 0 28 28" fill="none" xmlns="http://www.w3.org/2000/svg">
<path opacity="0.3" d="M8.02344 18.9803V7.02771C8.02344 5.37725 9.36114 4.03955 11.0116 4.03955H15.9919L21.9682 10.0159V18.9803C21.9682 20.6308 20.6305 21.9685 18.98 21.9685H11.0116C9.36114 21.9685 8.02344 20.6308 8.02344 18.9803Z" fill="#282828"/>
<path d="M15.9922 8.02376V4.03955L21.9685 10.0159H17.9843C16.8837 10.0159 15.9922 9.1244 15.9922 8.02376Z" fill="#282828"/>
<path d="M11.0115 21.9681C9.36106 21.9681 8.02336 20.6304 8.02336 18.98V7.02734C6.92272 7.02734 6.03125 7.91881 6.03125 9.01945V20.9721C6.03125 22.6225 7.36895 23.9602 9.01941 23.9602H16.9878C18.0885 23.9602 18.9799 23.0688 18.9799 21.9681H11.0115Z" fill="#282828"/>
</svg>
