<svg width="28" height="28" viewBox="0 0 28 28" fill="none" xmlns="http://www.w3.org/2000/svg">
<g clip-path="url(#clip0_6110_16569)">
<g clip-path="url(#clip1_6110_16569)">
<path d="M14 28C21.732 28 28 21.732 28 14C28 6.26801 21.732 0 14 0C6.26801 0 0 6.26801 0 14C0 21.732 6.26801 28 14 28Z" fill="#EF0027"/>
<path d="M18.753 8.449L6.125 6.125L12.7706 22.848L22.0308 11.5658L18.753 8.449ZM18.55 9.47275L20.482 11.3094L15.1988 12.2657L18.55 9.47275V9.47275ZM14.0508 12.0741L8.48225 7.45587L17.584 9.13063L14.0508 12.0741V12.0741ZM13.6544 12.8914L12.7461 20.3989L7.8505 8.07625L13.6544 12.8905V12.8914ZM14.4944 13.2895L20.3455 12.2307L13.6343 20.4059L14.4944 13.2895Z" fill="white"/>
</g>
</g>
<defs>
<clipPath id="clip0_6110_16569">
<rect width="28" height="28" fill="white"/>
</clipPath>
<clipPath id="clip1_6110_16569">
<rect width="28" height="28" fill="white"/>
</clipPath>
</defs>
</svg>
