<svg width="28" height="28" viewBox="0 0 28 28" fill="none" xmlns="http://www.w3.org/2000/svg">
<g clip-path="url(#clip0_6110_16580)">
<g clip-path="url(#clip1_6110_16580)">
<path d="M14 28C21.732 28 28 21.732 28 14C28 6.26801 21.732 0 14 0C6.26801 0 0 6.26801 0 14C0 21.732 6.26801 28 14 28Z" fill="#26A17B"/>
<path fill-rule="evenodd" clip-rule="evenodd" d="M15.4193 15.3685V15.3668C15.323 15.3738 14.8269 15.4035 13.72 15.4035C12.8362 15.4035 12.2141 15.3773 11.9954 15.3668V15.3694C8.59337 15.2198 6.05412 14.6274 6.05412 13.9186C6.05412 13.2108 8.59337 12.6184 11.9954 12.4661V14.7796C12.2176 14.7954 12.8546 14.833 13.7349 14.833C14.791 14.833 15.3204 14.7893 15.4193 14.7805V12.4679C18.8143 12.6192 21.3474 13.2116 21.3474 13.9186C21.3474 14.6274 18.8143 15.218 15.4193 15.3685ZM15.4193 12.2273V10.157H20.1565V7H7.25813V10.157H11.9954V12.2264C8.14537 12.4031 5.25 13.1661 5.25 14.0796C5.25 14.9931 8.14537 15.7552 11.9954 15.9329V22.5671H15.4193V15.9311C19.2631 15.7544 22.1515 14.9922 22.1515 14.0796C22.1515 13.167 19.2631 12.4049 15.4193 12.2273Z" fill="white"/>
</g>
<g clip-path="url(#clip2_6110_16580)">
<path d="M22.1673 27.9997C25.389 27.9997 28.0007 25.388 28.0007 22.1663C28.0007 18.9447 25.389 16.333 22.1673 16.333C18.9457 16.333 16.334 18.9447 16.334 22.1663C16.334 25.388 18.9457 27.9997 22.1673 27.9997Z" fill="#EF0027"/>
<path d="M24.1484 19.8531L18.8867 18.8848L21.6557 25.8527L25.5141 21.1517L24.1484 19.8531ZM24.0638 20.2797L24.8688 21.0449L22.6674 21.4434L24.0638 20.2797ZM22.1891 21.3636L19.8689 19.4393L23.6613 20.1371L22.1891 21.3636ZM22.024 21.7041L21.6455 24.8322L19.6057 19.6978L22.024 21.7037V21.7041ZM22.374 21.87L24.8119 21.4288L22.0156 24.8351L22.374 21.87Z" fill="white"/>
</g>
</g>
<defs>
<clipPath id="clip0_6110_16580">
<rect width="28" height="28" fill="white"/>
</clipPath>
<clipPath id="clip1_6110_16580">
<rect width="28" height="28" fill="white"/>
</clipPath>
<clipPath id="clip2_6110_16580">
<rect width="11.6667" height="11.6667" fill="white" transform="translate(16.334 16.333)"/>
</clipPath>
</defs>
</svg>
