<svg width="28" height="28" viewBox="0 0 28 28" fill="none" xmlns="http://www.w3.org/2000/svg">
<g clip-path="url(#clip0_6110_16712)">
<g clip-path="url(#clip1_6110_16712)">
<path d="M14 28C21.7584 28 28 21.7584 28 14C28 6.24162 21.7584 0 14 0C6.24162 0 0 6.24162 0 14C0 21.7584 6.24162 28 14 28Z" fill="#2775CA"/>
<path d="M17.8498 16.2162C17.8498 14.1746 16.6248 13.4746 14.1748 13.183C12.4248 12.9496 12.0748 12.483 12.0748 11.6662C12.0748 10.8495 12.6582 10.3246 13.8248 10.3246C14.8748 10.3246 15.4582 10.6746 15.7498 11.5496C15.8082 11.7246 15.9831 11.8412 16.1581 11.8412H17.0914C17.3248 11.8412 17.4998 11.6662 17.4998 11.433V11.3746C17.2664 10.0912 16.2164 9.0996 14.8748 8.98298V7.58297C14.8748 7.34959 14.6998 7.17459 14.4082 7.11621H13.5332C13.2998 7.11621 13.1248 7.29121 13.0664 7.58297V8.9246C11.3164 9.15798 10.2082 10.3246 10.2082 11.783C10.2082 13.708 11.3748 14.4662 13.8248 14.758C15.4582 15.0496 15.9831 15.3996 15.9831 16.333C15.9831 17.2664 15.1664 17.908 14.0582 17.908C12.5414 17.908 12.0164 17.2662 11.8414 16.3912C11.7832 16.158 11.6082 16.0412 11.4332 16.0412H10.4414C10.2082 16.0412 10.0332 16.2162 10.0332 16.4496V16.508C10.2664 17.9662 11.1998 19.0162 13.1248 19.308V20.708C13.1248 20.9412 13.2998 21.1162 13.5914 21.1746H14.4664C14.6998 21.1746 14.8748 20.9996 14.9332 20.708V19.308C16.6831 19.0162 17.8498 17.7912 17.8498 16.2162V16.2162Z" fill="white"/>
<path d="M11.0261 22.3422C6.47614 20.709 4.14276 15.634 5.83452 11.1422C6.70952 8.69222 8.63452 6.8256 11.0261 5.9506C11.2595 5.83398 11.3761 5.65898 11.3761 5.36722V4.5506C11.3761 4.31722 11.2595 4.14222 11.0261 4.08398C10.9678 4.08398 10.8511 4.08398 10.7928 4.14222C5.25114 5.89222 2.21776 11.784 3.96776 17.3256C5.01776 20.5922 7.52614 23.1006 10.7928 24.1506C11.0261 24.2672 11.2595 24.1506 11.3178 23.9172C11.3761 23.859 11.3761 23.8006 11.3761 23.684V22.8672C11.3761 22.6922 11.2011 22.459 11.0261 22.3422ZM17.2095 4.14222C16.9761 4.0256 16.7428 4.14222 16.6845 4.3756C16.6261 4.43398 16.6261 4.49222 16.6261 4.60898V5.4256C16.6261 5.65898 16.8011 5.89222 16.9761 6.00898C21.5261 7.64222 23.8595 12.7172 22.1678 17.209C21.2928 19.659 19.3678 21.5256 16.9761 22.4006C16.7428 22.5172 16.6261 22.6922 16.6261 22.984V23.8006C16.6261 24.034 16.7428 24.209 16.9761 24.2672C17.0345 24.2672 17.1511 24.2672 17.2095 24.209C22.7511 22.459 25.7845 16.5672 24.0345 11.0256C22.9845 7.7006 20.4178 5.19222 17.2095 4.14222V4.14222Z" fill="white"/>
</g>
</g>
<defs>
<clipPath id="clip0_6110_16712">
<rect width="28" height="28" fill="white"/>
</clipPath>
<clipPath id="clip1_6110_16712">
<rect width="28" height="28" fill="white"/>
</clipPath>
</defs>
</svg>
