<svg width="28" height="28" viewBox="0 0 28 28" fill="none" xmlns="http://www.w3.org/2000/svg">
<g clip-path="url(#clip0_6110_16558)">
<g clip-path="url(#clip1_6110_16558)">
<path d="M14 28C21.732 28 28 21.732 28 14C28 6.26801 21.732 0 14 0C6.26801 0 0 6.26801 0 14C0 21.732 6.26801 28 14 28Z" fill="#627EEA"/>
<path d="M14 3.5V11.2612L20.5599 14.1925L14 3.5Z" fill="white" fill-opacity="0.602"/>
<path d="M14.4357 3.5L7.875 14.1925L14.4357 11.2612V3.5Z" fill="white"/>
<path d="M14 19.558V24.8316L20.5643 15.75L14 19.558Z" fill="white" fill-opacity="0.602"/>
<path d="M14.4357 24.8316V19.5571L7.875 15.75L14.4357 24.8316Z" fill="white"/>
<path d="M14 18.1134L20.5599 14.3045L14 11.375V18.1134Z" fill="white" fill-opacity="0.2"/>
<path d="M7.875 14.3045L14.4357 18.1134V11.375L7.875 14.3045Z" fill="white" fill-opacity="0.602"/>
</g>
</g>
<defs>
<clipPath id="clip0_6110_16558">
<rect width="28" height="28" fill="white"/>
</clipPath>
<clipPath id="clip1_6110_16558">
<rect width="28" height="28" fill="white"/>
</clipPath>
</defs>
</svg>
