<svg width="20" height="20" viewBox="0 0 20 20" fill="none" xmlns="http://www.w3.org/2000/svg">
<path opacity="0.3" d="M9.99935 18.3337C14.6017 18.3337 18.3327 14.6027 18.3327 10.0003C18.3327 5.39795 14.6017 1.66699 9.99935 1.66699C5.39698 1.66699 1.66602 5.39795 1.66602 10.0003C1.66602 14.6027 5.39698 18.3337 9.99935 18.3337Z" fill="#DC3545"/>
<path d="M12.2591 14.4564C11.5799 14.8014 10.8142 15 10 15C7.23835 15 5.00003 12.7616 5 10C5 9.18583 5.19862 8.42005 5.54362 7.74089L12.2591 14.4564Z" fill="#DC3545"/>
<path d="M10 5C12.7617 5 15 7.23833 15 10C15 10.8142 14.8014 11.5799 14.4564 12.2591L7.74089 5.54362C8.42004 5.19863 9.18585 5.00001 10 5Z" fill="#DC3545"/>
</svg>
