<svg width="24" height="24" viewBox="0 0 24 24" fill="none" xmlns="http://www.w3.org/2000/svg">
<path opacity="0.3" d="M18 21H6C4.343 21 3 19.657 3 18V6C3 4.343 4.343 3 6 3H18C19.657 3 21 4.343 21 6V18C21 19.657 19.657 21 18 21Z" fill="#282828"/>
<path d="M12 17.7422C13.105 17.7422 14 16.8472 14 15.7422V7.16309H16.1309C16.9018 7.16309 17.2898 6.23358 16.7471 5.68555L12.8907 1.79199C12.3997 1.29733 11.6003 1.29728 11.1094 1.79199L7.25297 5.68555C6.71041 6.23359 7.09832 7.16309 7.86918 7.16309H10V15.7422C10 16.8472 10.8951 17.7422 12 17.7422Z" fill="#282828"/>
</svg>
