<svg width="28" height="29" viewBox="0 0 28 29" fill="none" xmlns="http://www.w3.org/2000/svg">
<g clip-path="url(#clip0_7627_9405)">
<path d="M0.661063 9.97591C0.232203 11.3195 -5.46778e-05 12.7508 9.65534e-09 14.2366C-5.46778e-05 15.7225 0.232258 17.1539 0.661117 18.4975L14 19.1063L27.3389 18.4976C27.7677 17.154 28.0001 15.7225 28.0001 14.2367C28 12.7509 27.7677 11.3195 27.3389 9.97586L14 9.36719L0.661063 9.97591Z" fill="#F0F0F0"/>
<path d="M27.3381 9.97586L13.9992 9.36719L0.660266 9.97586C0.533172 10.3742 0.423742 10.7804 0.332031 11.1933H27.6662C27.5746 10.7803 27.4652 10.3741 27.3381 9.97586Z" fill="#D80027"/>
<path d="M0.332031 17.2803C0.423633 17.6932 0.533063 18.0993 0.660156 18.4976L0.661469 18.4977L13.999 19.1063L27.3379 18.4977C27.465 18.0993 27.5744 17.6932 27.666 17.2803H0.332031Z" fill="#D80027"/>
<path d="M13.999 28.2367C20.2452 28.2367 25.5351 24.1459 27.3379 18.4976H0.660156C2.46293 24.1458 7.75296 28.2367 13.999 28.2367V28.2367Z" fill="#6DA544"/>
<path d="M13.999 0.236816C7.75296 0.236871 2.46304 4.32766 0.660156 9.97595L27.3379 9.976C25.5352 4.32761 20.2452 0.236762 13.999 0.236816V0.236816Z" fill="#338AF3"/>
<path d="M6.39853 6.01935C6.39853 4.70811 7.32007 3.61272 8.5507 3.34398C8.36159 3.30264 8.16532 3.28027 7.96374 3.28027C6.45098 3.28027 5.22461 4.50659 5.22461 6.01941C5.22461 7.53223 6.45087 8.75854 7.96374 8.75854C8.16532 8.75854 8.36154 8.73612 8.5507 8.69483C7.32012 8.42598 6.39853 7.33059 6.39853 6.01935V6.01935Z" fill="#F0F0F0"/>
<path d="M10.1703 7.26465L10.3557 7.83531H10.9557L10.4703 8.18805L10.6557 8.75871L10.1703 8.40603L9.68478 8.75871L9.87023 8.18805L9.38477 7.83531H9.9848L10.1703 7.26465Z" fill="#F0F0F0"/>
<path d="M12.0843 7.26465L12.2697 7.83531H12.8697L12.3843 8.18805L12.5697 8.75871L12.0843 8.40603L11.5988 8.75871L11.7842 8.18805L11.2988 7.83531H11.8988L12.0843 7.26465Z" fill="#F0F0F0"/>
<path d="M14.0004 7.26465L14.1858 7.83531H14.7859L14.3004 8.18805L14.4858 8.75871L14.0004 8.40603L13.5149 8.75871L13.7004 8.18805L13.2148 7.83531H13.8149L14.0004 7.26465Z" fill="#F0F0F0"/>
<path d="M15.9144 7.26465L16.0999 7.83531H16.6999L16.2145 8.18805L16.3999 8.75871L15.9144 8.40603L15.4289 8.75871L15.6144 8.18805L15.1289 7.83531H15.7289L15.9144 7.26465Z" fill="#F0F0F0"/>
<path d="M17.8303 7.26465L18.0158 7.83531H18.6158L18.1304 8.18805L18.3159 8.75871L17.8303 8.40603L17.3449 8.75871L17.5303 8.18805L17.0449 7.83531H17.6449L17.8303 7.26465Z" fill="#F0F0F0"/>
<path d="M12.0843 5.27246L12.2697 5.84307H12.8697L12.3843 6.19586L12.5697 6.76647L12.0843 6.41379L11.5988 6.76647L11.7842 6.19586L11.2988 5.84307H11.8988L12.0843 5.27246Z" fill="#F0F0F0"/>
<path d="M14.0004 5.27246L14.1858 5.84307H14.7859L14.3004 6.19586L14.4858 6.76647L14.0004 6.41379L13.5149 6.76647L13.7004 6.19586L13.2148 5.84307H13.8149L14.0004 5.27246Z" fill="#F0F0F0"/>
<path d="M15.9144 5.27246L16.0999 5.84307H16.6999L16.2145 6.19586L16.3999 6.76647L15.9144 6.41379L15.4289 6.76647L15.6144 6.19586L15.1289 5.84307H15.7289L15.9144 5.27246Z" fill="#F0F0F0"/>
<path d="M17.8303 5.27246L18.0158 5.84307H18.6158L18.1304 6.19586L18.3159 6.76647L17.8303 6.41379L17.3449 6.76647L17.5303 6.19586L17.0449 5.84307H17.6449L17.8303 5.27246Z" fill="#F0F0F0"/>
<path d="M14.0004 3.28027L14.1858 3.85099H14.7859L14.3004 4.20367L14.4858 4.77439L14.0004 4.42171L13.5149 4.77439L13.7004 4.20367L13.2148 3.85099H13.8149L14.0004 3.28027Z" fill="#F0F0F0"/>
<path d="M15.9144 3.28027L16.0999 3.85099H16.6999L16.2145 4.20367L16.3999 4.77439L15.9144 4.42171L15.4289 4.77439L15.6144 4.20367L15.1289 3.85099H15.7289L15.9144 3.28027Z" fill="#F0F0F0"/>
<path d="M17.8303 3.28027L18.0158 3.85099H18.6158L18.1304 4.20367L18.3159 4.77439L17.8303 4.42171L17.3449 4.77439L17.5303 4.20367L17.0449 3.85099H17.6449L17.8303 3.28027Z" fill="#F0F0F0"/>
</g>
<defs>
<clipPath id="clip0_7627_9405">
<rect width="28" height="28" fill="white" transform="translate(0 0.236816)"/>
</clipPath>
</defs>
</svg>
