<svg width="25" height="24" viewBox="0 0 25 24" fill="none" xmlns="http://www.w3.org/2000/svg">
<path opacity="0.3" d="M18.5 21H6.5C4.843 21 3.5 19.657 3.5 18V6C3.5 4.343 4.843 3 6.5 3H18.5C20.157 3 21.5 4.343 21.5 6V18C21.5 19.657 20.157 21 18.5 21Z" fill="#282828"/>
<path d="M12.5 1.4209C13.605 1.4209 14.5 2.3159 14.5 3.4209V12H16.6309C17.4018 12 17.7898 12.9295 17.2471 13.4775L13.3907 17.3711C12.8997 17.8658 12.1003 17.8658 11.6094 17.3711L7.75297 13.4775C7.21041 12.9295 7.59832 12 8.36918 12H10.5V3.4209C10.5 2.31592 11.3951 1.42093 12.5 1.4209Z" fill="#282828"/>
</svg>
