<svg width="20" height="20" viewBox="0 0 20 20" fill="none" xmlns="http://www.w3.org/2000/svg">
<path opacity="0.3" d="M15.8327 5.83341H10.1877L10.6577 4.54091C11.161 3.15591 10.546 1.61424 9.22768 0.955906C8.65185 0.668406 7.95102 0.902573 7.66352 1.47841L5.28185 6.25341C4.60935 6.70174 4.16602 7.46507 4.16602 8.33341V14.1667C4.16602 16.0076 5.65852 17.5001 7.49935 17.5001H13.3235C15.2769 17.5001 16.9677 16.1434 17.391 14.2376L18.3327 10.0001V8.33341C18.3327 6.95257 17.2135 5.83341 15.8327 5.83341Z" fill="#198754"/>
<path d="M5.83398 16.2502C5.83398 15.9285 5.83398 7.40516 5.83398 7.0835C5.83398 6.3935 5.27398 5.8335 4.58398 5.8335C3.89398 5.8335 3.33398 6.3935 3.33398 7.0835C3.33398 7.40516 3.33398 15.9285 3.33398 16.2502C3.33398 16.9402 3.89398 17.5002 4.58398 17.5002C5.27398 17.5002 5.83398 16.9402 5.83398 16.2502Z" fill="#198754"/>
</svg>
