<svg width="103" height="33" viewBox="0 0 103 33" fill="none" xmlns="http://www.w3.org/2000/svg">
<mask id="mask0_5548_12961" style="mask-type:luminance" maskUnits="userSpaceOnUse" x="0" y="0" width="32" height="33">
<path d="M31.4638 0.824219H0V32.288H31.4638V0.824219Z" fill="white"/>
</mask>
<g mask="url(#mask0_5548_12961)">
<path d="M15.7319 32.288C24.4204 32.288 31.4638 25.2447 31.4638 16.5561C31.4638 7.86763 24.4204 0.824219 15.7319 0.824219C7.04341 0.824219 0 7.86763 0 16.5561C0 25.2447 7.04341 32.288 15.7319 32.288Z" fill="url(#paint0_radial_5548_12961)"/>
<path opacity="0.15" d="M15.7319 32.288C7.05716 32.288 0 25.2309 0 16.5561C0 7.88138 7.05716 0.824219 15.7319 0.824219C24.4067 0.824219 31.4638 7.88138 31.4638 16.5561C31.4638 25.2309 24.4067 32.288 15.7319 32.288ZM15.7319 1.8754C7.63378 1.8754 1.04607 8.4631 1.04607 16.5612C1.04607 24.6593 7.63378 31.2471 15.7319 31.2471C23.83 31.2471 30.4177 24.6542 30.4177 16.5561C30.4177 8.458 23.83 1.8754 15.7319 1.8754Z" fill="black"/>
<path d="M22.2479 13.2291C22.5388 13.3209 22.8347 13.3822 23.0899 13.4995C24.2839 14.0455 24.4881 15.4896 23.5083 16.4592C22.9725 16.9898 22.299 17.2296 21.559 17.2755C20.7834 17.3215 20.069 17.1685 19.3852 16.9337C18.5637 16.6479 17.7983 16.2754 17.0737 15.8366C17.0635 15.8315 17.0635 15.8213 17.0481 15.8009C17.3135 15.7244 17.5788 15.658 17.8391 15.5764C18.7678 15.2803 19.6557 14.8977 20.3751 14.2343C20.462 14.1527 20.518 14.0455 20.5895 13.9485C20.4721 13.9383 20.3599 13.918 20.2425 13.9231C19.4873 13.969 18.778 14.2241 18.0942 14.5558C17.6757 14.7599 17.2828 15.0151 16.8797 15.2447C16.8542 15.26 16.8237 15.2753 16.7981 15.2957C16.7828 15.2906 16.7675 15.2855 16.7471 15.2803C16.9155 14.7191 17.0737 14.1578 17.2625 13.6016C17.5176 12.8514 17.8646 12.1269 18.3799 11.4584C18.8648 10.841 19.4719 10.3766 20.2833 10.1827C21.4671 9.89695 22.5694 10.5399 22.7224 11.5961C22.8143 12.1881 22.6204 12.7239 22.2479 13.2291Z" fill="#111111"/>
<path d="M10.0014 18.7197C9.71054 18.6279 9.41458 18.5666 9.15944 18.4493C7.96538 17.9032 7.76127 16.4592 8.74101 15.4897C9.2768 14.959 9.95036 14.7191 10.6902 14.6732C11.4659 14.6273 12.1803 14.7803 12.8641 15.0151C13.6856 15.3009 14.4511 15.6733 15.1756 16.1122C15.1858 16.1173 15.1858 16.1275 15.2012 16.1479C14.9358 16.2244 14.6704 16.2908 14.4103 16.3724C13.4815 16.6684 12.5936 17.0512 11.8742 17.7144C11.7874 17.7962 11.7312 17.9033 11.6598 18.0003C11.7771 18.0104 11.8894 18.0309 12.0068 18.0257C12.762 17.9798 13.4713 17.7247 14.1551 17.393C14.5735 17.1889 14.9664 16.9338 15.3695 16.7042C15.3951 16.6888 15.4256 16.6735 15.4512 16.6531C15.4665 16.6582 15.4818 16.6633 15.5022 16.6684C15.3338 17.2297 15.1756 17.791 14.9868 18.3473C14.7317 19.0974 14.3847 19.8219 13.8693 20.4904C13.3845 21.1078 12.7773 21.5722 11.966 21.7661C10.7821 22.0518 9.67992 21.4089 9.52684 20.3526C9.42989 19.7607 9.62379 19.2249 10.0014 18.7197Z" fill="#111111"/>
<path d="M13.3795 9.85125C13.4713 9.5604 13.5326 9.26443 13.6499 9.00929C14.1959 7.81524 15.6399 7.61112 16.6095 8.59087C17.1402 9.12666 17.38 9.80023 17.4259 10.5401C17.4719 11.3158 17.3188 12.0301 17.084 12.714C16.7983 13.5355 16.4259 14.3009 15.9869 15.0255C15.9818 15.0357 15.9717 15.0357 15.9512 15.051C15.8747 14.7857 15.8084 14.5203 15.7268 14.26C15.4308 13.3313 15.048 12.4435 14.3847 11.7239C14.303 11.6372 14.1959 11.5811 14.0989 11.5097C14.0888 11.627 14.0683 11.7393 14.0734 11.8567C14.1194 12.6119 14.3745 13.3211 14.7062 14.005C14.9103 14.4233 15.1654 14.8162 15.395 15.2194C15.4104 15.2449 15.4257 15.2755 15.446 15.3011C15.4409 15.3163 15.4358 15.3317 15.4308 15.3521C14.8695 15.1837 14.3081 15.0255 13.7519 14.8367C13.0018 14.5815 12.2772 14.2346 11.6087 13.7191C10.9914 13.2344 10.527 12.6271 10.3331 11.8159C10.0473 10.632 10.6903 9.52978 11.7466 9.3767C12.3385 9.28484 12.8743 9.47875 13.3795 9.85125Z" fill="#111111"/>
<path d="M18.8652 22.0975C18.7734 22.3884 18.7121 22.6843 18.5947 22.9395C18.0487 24.1335 16.6046 24.3377 15.6352 23.3579C15.1044 22.8221 14.8646 22.1486 14.8187 21.4086C14.7728 20.633 14.9259 19.9186 15.1606 19.2348C15.4464 18.4133 15.8188 17.6479 16.2577 16.9232C16.2628 16.9131 16.273 16.9131 16.2935 16.8977C16.3699 17.1631 16.4363 17.4284 16.5179 17.6887C16.8139 18.6173 17.1966 19.5053 17.86 20.2248C17.9416 20.3115 18.0487 20.3676 18.1457 20.4391C18.1559 20.3217 18.1764 20.2094 18.1713 20.0921C18.1253 19.3369 17.8702 18.6276 17.5385 17.9438C17.3344 17.5254 17.0793 17.1324 16.8496 16.7293C16.8343 16.7039 16.819 16.6733 16.7985 16.6477C16.8037 16.6324 16.8088 16.6171 16.8139 16.5967C17.3752 16.7651 17.9366 16.9232 18.4927 17.1121C19.2428 17.3672 19.9674 17.7142 20.6359 18.2296C21.2533 18.7144 21.7177 19.3215 21.9116 20.1329C22.1973 21.3167 21.5544 22.419 20.4981 22.5721C19.9113 22.6639 19.3704 22.47 18.8652 22.0975Z" fill="#111111"/>
<path d="M14.0681 20.9189L11.8228 24.848C11.6902 25.0828 11.8025 25.3838 12.0626 25.4655L12.5526 25.6237C12.7822 25.7002 13.0271 25.5676 13.0935 25.3379L14.3488 21.0363C14.3998 20.8628 14.1599 20.7607 14.0681 20.9189Z" fill="#111111"/>
</g>
<path d="M78.4406 10.8541L74.9482 18.9432L71.5121 10.8541H68.6957L73.5963 22.1453H76.1875L81.0881 10.8541H78.4406ZM52.3039 20.0667V10.8541H49.6564V22.1453H57.9931V20.0106H52.3039V20.0667ZM44.9247 19.842C44.4741 20.0667 43.9108 20.1792 43.3475 20.1792C42.8406 20.1792 42.3336 20.0668 41.883 19.8983C41.4323 19.7298 41.038 19.5051 40.7564 19.168C40.4184 18.831 40.1931 18.4377 39.9678 18.0445C39.7988 17.5951 39.6861 17.0895 39.6861 16.5839C39.6861 16.0222 39.7988 15.5728 39.9678 15.1234C40.1367 14.674 40.4184 14.2808 40.7564 13.9999C41.0943 13.6629 41.4887 13.4381 41.883 13.2696C42.3336 13.1011 42.7842 12.9887 43.3475 12.9887C43.9108 12.9887 44.4178 13.1011 44.9247 13.3258C45.4317 13.5505 45.826 13.8876 46.2203 14.2808L47.9102 12.7078C47.3469 12.0337 46.7273 11.5282 45.8823 11.1912C45.0937 10.8541 44.1925 10.6855 43.2349 10.6855C42.3336 10.6855 41.545 10.8541 40.8127 11.1349C40.0804 11.4158 39.4045 11.809 38.8412 12.3708C38.2779 12.8764 37.8836 13.4943 37.5456 14.2246C37.264 14.9548 37.095 15.7413 37.095 16.5839C37.095 17.4265 37.264 18.213 37.5456 18.9432C37.8836 19.6735 38.2779 20.2914 38.8412 20.797C39.4045 21.3026 40.0241 21.752 40.8127 22.0329C41.545 22.3137 42.3899 22.4261 43.2349 22.4261C44.2488 22.4261 45.0937 22.2576 45.8823 21.9205C46.6709 21.5835 47.3469 21.0779 47.9102 20.4038L46.2203 18.8309C45.826 19.2803 45.4317 19.6173 44.9247 19.842Z" fill="#2D2D2D"/>
<path d="M68.245 20.0668V22.2014H59.4577V10.8541H68.0197V12.9888H62.0488V15.4043H67.3438V17.4828H62.0488V20.0668H68.245Z" fill="#2D2D2D"/>
<path d="M90.8331 20.0668V22.2014H82.0457V10.8541H90.6078V12.9888H84.6369V15.4043H89.8755V17.4828H84.6369V20.0668H90.8331Z" fill="#2D2D2D"/>
<path d="M100.409 18.5501C101.141 18.213 101.705 17.7636 102.155 17.1457C102.55 16.5278 102.775 15.7975 102.775 14.9549C102.775 14.1123 102.606 13.382 102.155 12.7641C101.761 12.1461 101.198 11.6968 100.465 11.3597C99.7331 11.0227 98.8318 10.8541 97.8179 10.8541H92.9173V22.1453H95.5647V18.9995H97.9869L100.184 22.1453H103L100.409 18.5501ZM99.4515 16.4154C99.0571 16.7525 98.4375 16.921 97.6489 16.921H95.5084V12.9888H97.6489C98.4375 12.9888 99.0571 13.1573 99.4515 13.4943C99.8458 13.8314 100.071 14.337 100.071 14.9549C100.071 15.5728 99.8458 16.0784 99.4515 16.4154Z" fill="#2D2D2D"/>
<defs>
<radialGradient id="paint0_radial_5548_12961" cx="0" cy="0" r="1" gradientUnits="userSpaceOnUse" gradientTransform="translate(25.9114 24.1907) rotate(-135) scale(26.7197)">
<stop offset="0.2" stop-color="#7FFF47"/>
<stop offset="0.55" stop-color="#F9FF20"/>
<stop offset="0.8" stop-color="#FFDAC0"/>
<stop offset="1" stop-color="#FC76E3"/>
</radialGradient>
</defs>
</svg>
