<svg width="25" height="24" viewBox="0 0 25 24" fill="none" xmlns="http://www.w3.org/2000/svg">
<path opacity="0.3" d="M18.75 21H6.75C5.093 21 3.75 19.657 3.75 18V7H21.75V18C21.75 19.657 20.407 21 18.75 21Z" fill="#ADB5BD"/>
<path d="M12.75 21H7.75V14C7.75 13.448 8.198 13 8.75 13H11.75C12.302 13 12.75 13.448 12.75 14V21Z" fill="#ADB5BD"/>
<path d="M17.75 17H15.75C15.198 17 14.75 16.552 14.75 16V14C14.75 13.448 15.198 13 15.75 13H17.75C18.302 13 18.75 13.448 18.75 14V16C18.75 16.552 18.302 17 17.75 17Z" fill="#ADB5BD"/>
<path d="M22.6446 8.553L21.7496 6.764V6C21.7496 4.343 20.4066 3 18.7496 3H6.74962C5.09262 3 3.74962 4.343 3.74962 6V6.764L2.85462 8.553C2.65262 8.957 2.74662 9.445 3.08362 9.746C3.22762 9.874 4.53662 11 6.24962 11C7.35762 11 8.29762 10.528 8.86162 10.161C9.63662 10.495 11.0816 11 12.7496 11C14.4176 11 15.8626 10.495 16.6376 10.161C17.2016 10.528 18.1416 11 19.2496 11C20.9626 11 22.2716 9.874 22.4156 9.746C22.7526 9.445 22.8466 8.957 22.6446 8.553Z" fill="#ADB5BD"/>
</svg>
