<svg width="54" height="54" viewBox="0 0 54 54" fill="none" xmlns="http://www.w3.org/2000/svg">
<path d="M54 27C54 41.9117 41.9117 54 27 54C12.0883 54 0 41.9117 0 27C0 12.0883 12.0883 0 27 0C41.9117 0 54 12.0883 54 27ZM12.15 27C12.15 35.2014 18.7986 41.85 27 41.85C35.2014 41.85 41.85 35.2014 41.85 27C41.85 18.7986 35.2014 12.15 27 12.15C18.7986 12.15 12.15 18.7986 12.15 27Z" fill="#1D1D1D"/>
<path d="M27 0C31.1415 4.93865e-08 35.2274 0.952712 38.9418 2.78444C42.6562 4.61616 45.8994 7.2778 48.4205 10.5634C50.9417 13.8491 52.6732 17.6707 53.4812 21.7326C54.2892 25.7945 54.1519 29.9878 53.08 33.9881L41.344 30.8435C41.9335 28.6433 42.009 26.337 41.5647 24.1029C41.1203 21.8689 40.1679 19.767 38.7813 17.9599C37.3947 16.1528 35.6109 14.6889 33.568 13.6814C31.5251 12.674 29.2778 12.15 27 12.15V0Z" fill="#9DFF73"/>
<path d="M53.08 33.9881C51.8533 38.5661 49.4432 42.7406 46.0919 46.0919C42.7406 49.4432 38.5661 51.8533 33.9881 53.08C29.4101 54.3067 24.5899 54.3067 20.0119 53.08C15.4339 51.8533 11.2594 49.4432 7.90812 46.0919L16.4995 37.5005C18.3427 39.3438 20.6386 40.6693 23.1565 41.344C25.6744 42.0187 28.3256 42.0187 30.8435 41.344C33.3614 40.6693 35.6573 39.3438 37.5005 37.5005C39.3438 35.6573 40.6693 33.3614 41.344 30.8435L53.08 33.9881Z" fill="#F7931A"/>
<path d="M7.90812 46.0919C4.55679 42.7406 2.14667 38.5661 0.920003 33.9881C-0.306668 29.4101 -0.306668 24.5899 0.920003 20.0119L12.656 23.1565C11.9813 25.6744 11.9813 28.3256 12.656 30.8435C13.3307 33.3614 14.6562 35.6573 16.4995 37.5005L7.90812 46.0919Z" fill="#EF0027"/>
<path d="M0.920003 20.0119C1.8377 16.587 3.42098 13.3764 5.57946 10.5634C7.73794 7.75045 10.4293 5.39016 13.5 3.61731L19.575 14.1395C17.8861 15.1146 16.4059 16.4128 15.2187 17.9599C14.0315 19.507 13.1607 21.2729 12.656 23.1565L0.920003 20.0119Z" fill="#BFBBBB"/>
<path d="M13.5 3.61731C17.6045 1.24757 22.2605 -5.65178e-08 27 0V12.15C24.3933 12.15 21.8325 12.8362 19.575 14.1395L13.5 3.61731Z" fill="#627EEA"/>
</svg>
