<svg width="28" height="29" viewBox="0 0 28 29" fill="none" xmlns="http://www.w3.org/2000/svg">
<g clip-path="url(#clip0_6071_18375)">
<g clip-path="url(#clip1_6071_18375)">
<path d="M14 28.7363C21.732 28.7363 28 22.4683 28 14.7363C28 7.00434 21.732 0.736328 14 0.736328C6.26801 0.736328 0 7.00434 0 14.7363C0 22.4683 6.26801 28.7363 14 28.7363Z" fill="#8D8D8D"/>
<path fill-rule="evenodd" clip-rule="evenodd" d="M9.12363 17.5486L7.875 18.0333L8.477 15.6192L9.7405 15.1117L11.5614 7.73633H16.0492L14.7201 13.1578L15.9539 12.6582L15.3589 15.0645L14.1102 15.5641L13.3682 18.6117H20.125L19.3611 21.7363H8.0955L9.12363 17.5486Z" fill="white"/>
</g>
</g>
<defs>
<clipPath id="clip0_6071_18375">
<rect width="28" height="28" fill="white" transform="translate(0 0.736328)"/>
</clipPath>
<clipPath id="clip1_6071_18375">
<rect width="28" height="28" fill="white" transform="translate(0 0.736328)"/>
</clipPath>
</defs>
</svg>
