<svg width="24" height="24" viewBox="0 0 24 24" fill="none" xmlns="http://www.w3.org/2000/svg">
<path opacity="0.3" d="M19 20H5C3.343 20 2 18.657 2 17V7C2 5.343 3.343 4 5 4H19C20.657 4 22 5.343 22 7V17C22 18.657 20.657 20 19 20Z" fill="#282828"/>
<path d="M7.00473 8C7.67173 8 8.25205 8.45747 8.40805 9.10547L9.81332 14.9229C9.94632 15.4709 9.52969 16 8.96469 16H8.88461C8.47687 15.9998 8.12312 15.717 8.03402 15.3193L7.85922 14.543H6.06332L5.88754 15.3193C5.79839 15.7171 5.44481 16 5.03695 16C4.47196 16 4.0553 15.4709 4.1893 14.9209L5.60336 9.10156C5.76052 8.45491 6.34 8.00011 7.00473 8ZM13.4862 8C14.0852 8 15.9382 8.22699 15.9383 10.5078C15.9383 12.6908 14.1726 13.085 13.5536 13.085H12.7743V15.1133C12.7741 15.6032 12.3774 16 11.8875 16C11.3977 15.9999 11.001 15.6031 11.0008 15.1133V9.05469C11.001 8.47188 11.4727 8.00008 12.0555 8H13.4862ZM17.911 8C18.4128 8.00017 18.8211 8.40726 18.8211 8.91016V15.0898C18.8211 15.5917 18.4138 15.9998 17.911 16C17.408 16 17.0008 15.5928 17.0008 15.0898V8.91016C17.0008 8.40716 17.408 8 17.911 8ZM6.26449 13.1406H7.63168L6.9891 9.74023H6.9432L6.26449 13.1406ZM12.7743 11.6162H13.3504C13.5994 11.6162 14.244 11.447 14.244 10.542C14.244 9.637 13.5994 9.52539 13.3504 9.52539H12.7743V11.6162Z" fill="#282828"/>
</svg>
