<svg width="36" height="37" viewBox="0 0 36 37" fill="none" xmlns="http://www.w3.org/2000/svg">
<rect x="1" y="1.23682" width="34" height="34" rx="17" fill="#E9ECEF"/>
<rect x="1" y="1.23682" width="34" height="34" rx="17" stroke="white" stroke-width="2"/>
<path opacity="0.3" d="M23.8327 24.6668H12.166C10.7852 24.6668 9.66602 23.5477 9.66602 22.1668V13.8335C9.66602 12.4527 10.7852 11.3335 12.166 11.3335H23.8327C25.2135 11.3335 26.3327 12.4527 26.3327 13.8335V22.1668C26.3327 23.5477 25.2135 24.6668 23.8327 24.6668Z" fill="#282828"/>
<path d="M16.3327 18.8335C16.1777 18.8335 13.1543 18.8335 12.9993 18.8335C12.5393 18.8335 12.166 19.2068 12.166 19.6668C12.166 20.1268 12.5393 20.5002 12.9993 20.5002C13.1543 20.5002 16.1777 20.5002 16.3327 20.5002C16.7927 20.5002 17.166 20.1268 17.166 19.6668C17.166 19.2068 16.7927 18.8335 16.3327 18.8335Z" fill="#282828"/>
<path d="M26.3327 14.6665H9.66602V17.1665H26.3327V14.6665Z" fill="#282828"/>
</svg>
