<svg width="40" height="40" viewBox="0 0 40 40" fill="none" xmlns="http://www.w3.org/2000/svg">
<rect width="40" height="40" rx="20" fill="#282828" fill-opacity="0.04"/>
<path opacity="0.3" d="M20 30C25.5228 30 30 25.5228 30 20C30 14.4772 25.5228 10 20 10C14.4772 10 10 14.4772 10 20C10 25.5228 14.4772 30 20 30Z" fill="#6C757D"/>
<path d="M23.2025 21.789L22.0355 20.28C21.6855 19.827 21.4725 19.283 21.4205 18.713L20.9995 14C20.9995 13.448 20.5515 13 19.9995 13C19.4475 13 18.9995 13.448 18.9995 14L18.6185 18.885C18.5435 19.845 18.9345 20.783 19.6695 21.406L21.7885 23.203C22.1795 23.594 22.8125 23.594 23.2025 23.203C23.5935 22.813 23.5935 22.179 23.2025 21.789Z" fill="#6C757D"/>
</svg>
