<svg width="36" height="62" viewBox="0 0 36 62" fill="none" xmlns="http://www.w3.org/2000/svg">
<rect x="1" y="26.7368" width="34" height="34" rx="17" fill="#E9ECEF"/>
<rect x="1" y="26.7368" width="34" height="34" rx="17" stroke="white" stroke-width="2"/>
<path d="M11.1914 38.8579L13.2255 42.5985V44.8801L11.1938 48.6134L11.1914 38.8579Z" fill="#5B57A2"/>
<path d="M19.002 41.2374L20.908 40.0355L24.8088 40.0317L19.002 43.6915V41.2374Z" fill="#D90751"/>
<path d="M18.991 38.8361L19.0018 43.7885L16.9629 42.4997V35.0967L18.991 38.8361Z" fill="#FAB718"/>
<path d="M24.8087 40.0319L20.9077 40.0357L18.991 38.8361L16.9629 35.0967L24.8087 40.0319Z" fill="#ED6F26"/>
<path d="M19.0018 48.6344V46.2317L16.9629 44.9673L16.964 52.3776L19.0018 48.6344Z" fill="#63B22F"/>
<path d="M20.9029 47.4432L13.2254 42.5985L11.1914 38.8579L24.8003 47.4383L20.9029 47.4432Z" fill="#1487C9"/>
<path d="M16.9629 52.3775L19.0004 48.6343L20.9017 47.4434L24.799 47.4385L16.9629 52.3775Z" fill="#017F36"/>
<path d="M11.1953 48.6133L16.9809 44.9671L15.0358 43.7393L13.2271 44.8801L11.1953 48.6133Z" fill="#984995"/>
<rect x="1" y="1.73682" width="34" height="34" rx="17" fill="#E9ECEF"/>
<rect x="1" y="1.73682" width="34" height="34" rx="17" stroke="white" stroke-width="2"/>
<path opacity="0.3" d="M26.5685 13.7409L23.9819 11.1784C23.6177 10.8184 22.9993 11.0767 22.9993 11.5884V12.6667H11.3327C10.4118 12.6667 9.66602 13.4125 9.66602 14.3334C9.66602 15.2542 10.4118 16 11.3327 16H22.9993V17.0784C22.9993 17.5909 23.6177 17.8484 23.981 17.4875L26.5677 14.925C26.8977 14.5992 26.8977 14.0675 26.5685 13.7409Z" fill="#282828"/>
<path d="M9.91289 23.2584L12.4996 25.8209C12.8637 26.1818 13.4812 25.9234 13.4812 25.4118V24.3334H25.1479C26.0687 24.3334 26.8146 23.5876 26.8146 22.6668C26.8146 21.7459 26.0687 21.0001 25.1479 21.0001H13.4812V19.9218C13.4812 19.4093 12.8629 19.1518 12.4996 19.5126L9.91289 22.0751C9.58372 22.4009 9.58372 22.9326 9.91289 23.2584Z" fill="#282828"/>
</svg>
