<svg width="28" height="29" viewBox="0 0 28 29" fill="none" xmlns="http://www.w3.org/2000/svg">
<g clip-path="url(#clip0_6071_18360)">
<g clip-path="url(#clip1_6071_18360)">
<path d="M14 28.7363C21.732 28.7363 28 22.4683 28 14.7363C28 7.00434 21.732 0.736328 14 0.736328C6.26801 0.736328 0 7.00434 0 14.7363C0 22.4683 6.26801 28.7363 14 28.7363Z" fill="#26A17B"/>
<path fill-rule="evenodd" clip-rule="evenodd" d="M15.4193 16.1048V16.1031C15.323 16.1101 14.8269 16.1398 13.72 16.1398C12.8362 16.1398 12.2141 16.1136 11.9954 16.1031V16.1057C8.59337 15.9561 6.05412 15.3637 6.05412 14.655C6.05412 13.9471 8.59337 13.3547 11.9954 13.2025V15.516C12.2176 15.5317 12.8546 15.5693 13.7349 15.5693C14.791 15.5693 15.3204 15.5256 15.4193 15.5168V13.2042C18.8143 13.3556 21.3474 13.948 21.3474 14.655C21.3474 15.3637 18.8143 15.9543 15.4193 16.1048ZM15.4193 12.9636V10.8933H20.1565V7.73633H7.25813V10.8933H11.9954V12.9627C8.14537 13.1395 5.25 13.9025 5.25 14.816C5.25 15.7295 8.14537 16.4916 11.9954 16.6692V23.3035H15.4193V16.6675C19.2631 16.4907 22.1515 15.7286 22.1515 14.816C22.1515 13.9033 19.2631 13.1412 15.4193 12.9636Z" fill="white"/>
</g>
<g clip-path="url(#clip2_6071_18360)">
<path d="M22.1673 28.736C25.389 28.736 28.0007 26.1243 28.0007 22.9027C28.0007 19.681 25.389 17.0693 22.1673 17.0693C18.9457 17.0693 16.334 19.681 16.334 22.9027C16.334 26.1243 18.9457 28.736 22.1673 28.736Z" fill="#F3BA2F"/>
<path d="M20.7513 22.3208L22.1673 20.9048L23.5841 22.3215L24.408 21.4976L22.1673 19.2568L19.9273 21.4968L20.7513 22.3208ZM18.5215 22.9027L19.3454 22.0787L20.1694 22.9027L19.3454 23.7266L18.5215 22.9027ZM20.7513 23.4845L22.1673 24.9006L23.5841 23.4838L24.408 24.3074L22.1673 26.5485L19.9273 24.3085L19.9262 24.3074L20.7513 23.4845ZM24.1652 22.9027L24.9892 22.0787L25.8132 22.9027L24.9892 23.7266L24.1652 22.9027ZM23.0029 22.9019H23.0037V22.9027L22.1673 23.739L21.3321 22.9041L21.3306 22.9027L21.3321 22.9016L21.4783 22.755L21.5493 22.6839L22.1673 22.0663L23.0033 22.9023L23.0029 22.9019Z" fill="white"/>
</g>
</g>
<defs>
<clipPath id="clip0_6071_18360">
<rect width="28" height="28" fill="white" transform="translate(0 0.736328)"/>
</clipPath>
<clipPath id="clip1_6071_18360">
<rect width="28" height="28" fill="white" transform="translate(0 0.736328)"/>
</clipPath>
<clipPath id="clip2_6071_18360">
<rect width="11.6667" height="11.6667" fill="white" transform="translate(16.334 17.0693)"/>
</clipPath>
</defs>
</svg>
