<svg width="28" height="29" viewBox="0 0 28 29" fill="none" xmlns="http://www.w3.org/2000/svg">
<g clip-path="url(#clip0_6071_18365)">
<g clip-path="url(#clip1_6071_18365)">
<path d="M14 28.7363C21.7584 28.7363 28 22.4947 28 14.7363C28 6.97795 21.7584 0.736328 14 0.736328C6.24162 0.736328 0 6.97795 0 14.7363C0 22.4947 6.24162 28.7363 14 28.7363Z" fill="#2775CA"/>
<path d="M17.8498 16.9526C17.8498 14.9109 16.6248 14.2109 14.1748 13.9193C12.4248 13.6859 12.0748 13.2193 12.0748 12.4026C12.0748 11.5858 12.6582 11.0609 13.8248 11.0609C14.8748 11.0609 15.4582 11.4109 15.7498 12.2859C15.8082 12.4609 15.9831 12.5776 16.1581 12.5776H17.0914C17.3248 12.5776 17.4998 12.4026 17.4998 12.1693V12.1109C17.2664 10.8275 16.2164 9.83592 14.8748 9.7193V8.3193C14.8748 8.08592 14.6998 7.91092 14.4082 7.85254H13.5332C13.2998 7.85254 13.1248 8.02754 13.0664 8.3193V9.66092C11.3164 9.8943 10.2082 11.0609 10.2082 12.5193C10.2082 14.4443 11.3748 15.2026 13.8248 15.4943C15.4582 15.7859 15.9831 16.1359 15.9831 17.0693C15.9831 18.0027 15.1664 18.6443 14.0582 18.6443C12.5414 18.6443 12.0164 18.0026 11.8414 17.1276C11.7832 16.8943 11.6082 16.7776 11.4332 16.7776H10.4414C10.2082 16.7776 10.0332 16.9526 10.0332 17.1859V17.2443C10.2664 18.7026 11.1998 19.7526 13.1248 20.0443V21.4443C13.1248 21.6776 13.2998 21.8526 13.5914 21.911H14.4664C14.6998 21.911 14.8748 21.736 14.9332 21.4443V20.0443C16.6831 19.7526 17.8498 18.5276 17.8498 16.9526V16.9526Z" fill="white"/>
<path d="M11.0261 23.0786C6.47614 21.4453 4.14276 16.3703 5.83452 11.8786C6.70952 9.42855 8.63452 7.56193 11.0261 6.68693C11.2595 6.57031 11.3761 6.39531 11.3761 6.10355V5.28693C11.3761 5.05355 11.2595 4.87855 11.0261 4.82031C10.9678 4.82031 10.8511 4.82031 10.7928 4.87855C5.25114 6.62855 2.21776 12.5203 3.96776 18.0619C5.01776 21.3286 7.52614 23.8369 10.7928 24.8869C11.0261 25.0036 11.2595 24.8869 11.3178 24.6536C11.3761 24.5953 11.3761 24.5369 11.3761 24.4203V23.6036C11.3761 23.4286 11.2011 23.1953 11.0261 23.0786ZM17.2095 4.87855C16.9761 4.76193 16.7428 4.87855 16.6845 5.11193C16.6261 5.17031 16.6261 5.22855 16.6261 5.34531V6.16193C16.6261 6.39531 16.8011 6.62855 16.9761 6.74531C21.5261 8.37855 23.8595 13.4536 22.1678 17.9453C21.2928 20.3953 19.3678 22.2619 16.9761 23.1369C16.7428 23.2536 16.6261 23.4286 16.6261 23.7203V24.5369C16.6261 24.7703 16.7428 24.9453 16.9761 25.0036C17.0345 25.0036 17.1511 25.0036 17.2095 24.9453C22.7511 23.1953 25.7845 17.3036 24.0345 11.7619C22.9845 8.43693 20.4178 5.92855 17.2095 4.87855V4.87855Z" fill="white"/>
</g>
</g>
<defs>
<clipPath id="clip0_6071_18365">
<rect width="28" height="28" fill="white" transform="translate(0 0.736328)"/>
</clipPath>
<clipPath id="clip1_6071_18365">
<rect width="28" height="28" fill="white" transform="translate(0 0.736328)"/>
</clipPath>
</defs>
</svg>
