<svg width="48" height="49" viewBox="0 0 48 49" fill="none" xmlns="http://www.w3.org/2000/svg">
<rect y="0.5" width="48" height="48" rx="16" fill="#DC3545" fill-opacity="0.12"/>
<path opacity="0.3" d="M33.7335 31.0249L25.7175 17.1399C25.3635 16.5259 24.7075 16.1479 23.9995 16.1479C23.2915 16.1479 22.6355 16.5259 22.2815 17.1399L14.2655 31.0249C13.9115 31.6389 13.9115 32.3939 14.2655 33.0089C14.6195 33.622 15.2745 33.9999 15.9835 33.9999H32.0165C32.7245 33.9999 33.3805 33.6219 33.7345 33.0079C34.0885 32.3939 34.0885 31.6389 33.7335 31.0249Z" fill="#DC3545"/>
<path d="M25.1783 30.7463C25.1783 31.0993 24.9733 32.0003 23.9933 32.0003C23.0133 32.0003 22.8203 31.0983 22.8203 30.7463C22.8203 30.4013 23.0383 29.4773 23.9933 29.4773C24.9483 29.4773 25.1783 30.4013 25.1783 30.7463ZM22.9183 26.9193V22.5683C22.9183 21.9713 23.4023 21.4873 23.9993 21.4873C24.5963 21.4873 25.0803 21.9713 25.0803 22.5683V26.9203C25.0803 27.5163 24.5963 28.0003 23.9993 28.0003C23.4023 28.0003 22.9183 27.5163 22.9183 26.9193Z" fill="#DC3545"/>
</svg>
