<svg width="24" height="24" viewBox="0 0 24 24" fill="none" xmlns="http://www.w3.org/2000/svg">
<rect width="24" height="24" rx="7" fill="#4272D2"/>
<g opacity="0.5">
<path d="M12 18.4165C14.8995 18.4165 17.25 16.066 17.25 13.1665C17.25 10.267 14.8995 7.9165 12 7.9165C9.1005 7.9165 6.75 10.267 6.75 13.1665C6.75 16.066 9.1005 18.4165 12 18.4165Z" fill="white"/>
<path d="M12 18.4165C14.8995 18.4165 17.25 16.066 17.25 13.1665C17.25 10.267 14.8995 7.9165 12 7.9165C9.1005 7.9165 6.75 10.267 6.75 13.1665C6.75 16.066 9.1005 18.4165 12 18.4165Z" fill="white" fill-opacity="0.2"/>
<path d="M12 18.4165C14.8995 18.4165 17.25 16.066 17.25 13.1665C17.25 10.267 14.8995 7.9165 12 7.9165C9.1005 7.9165 6.75 10.267 6.75 13.1665C6.75 16.066 9.1005 18.4165 12 18.4165Z" fill="white" fill-opacity="0.2"/>
</g>
<path d="M11.9997 12C11.3551 12 10.833 12.5221 10.833 13.1667C10.833 13.8112 11.3551 14.3333 11.9997 14.3333C12.6443 14.3333 13.1663 13.8112 13.1663 13.1667C13.1663 12.5221 12.6443 12 11.9997 12Z" fill="white"/>
<path d="M11.9997 12C11.3551 12 10.833 12.5221 10.833 13.1667C10.833 13.8112 11.3551 14.3333 11.9997 14.3333C12.6443 14.3333 13.1663 13.8112 13.1663 13.1667C13.1663 12.5221 12.6443 12 11.9997 12Z" fill="white" fill-opacity="0.2"/>
<path d="M11.9997 12C11.3551 12 10.833 12.5221 10.833 13.1667C10.833 13.8112 11.3551 14.3333 11.9997 14.3333C12.6443 14.3333 13.1663 13.8112 13.1663 13.1667C13.1663 12.5221 12.6443 12 11.9997 12Z" fill="white" fill-opacity="0.2"/>
<path d="M9.67017 8.46733C9.68767 7.19392 10.7225 6.16667 12 6.16667C13.2775 6.16667 14.3123 7.19392 14.3298 8.46733C14.7562 8.67908 15.1488 8.94683 15.5 9.26125V8.5C15.5 6.56683 13.9332 5 12 5C10.0668 5 8.5 6.56683 8.5 8.5V9.26125C8.85117 8.94683 9.24375 8.67908 9.67017 8.46733Z" fill="white"/>
<path d="M9.67017 8.46733C9.68767 7.19392 10.7225 6.16667 12 6.16667C13.2775 6.16667 14.3123 7.19392 14.3298 8.46733C14.7562 8.67908 15.1488 8.94683 15.5 9.26125V8.5C15.5 6.56683 13.9332 5 12 5C10.0668 5 8.5 6.56683 8.5 8.5V9.26125C8.85117 8.94683 9.24375 8.67908 9.67017 8.46733Z" fill="white" fill-opacity="0.2"/>
<path d="M9.67017 8.46733C9.68767 7.19392 10.7225 6.16667 12 6.16667C13.2775 6.16667 14.3123 7.19392 14.3298 8.46733C14.7562 8.67908 15.1488 8.94683 15.5 9.26125V8.5C15.5 6.56683 13.9332 5 12 5C10.0668 5 8.5 6.56683 8.5 8.5V9.26125C8.85117 8.94683 9.24375 8.67908 9.67017 8.46733Z" fill="white" fill-opacity="0.2"/>
</svg>
