<svg width="24" height="24" viewBox="0 0 24 24" fill="none" xmlns="http://www.w3.org/2000/svg">
<rect width="24" height="24" rx="7" fill="#9465EB"/>
<g opacity="0.5">
<path d="M17.25 17.25H6.75C5.78342 17.25 5 16.4666 5 15.5C5 14.5334 5.78342 13.75 6.75 13.75H17.25C18.2166 13.75 19 14.5334 19 15.5C19 16.4666 18.2166 17.25 17.25 17.25Z" fill="white"/>
<path d="M12 11.4167C13.2887 11.4167 14.3333 10.372 14.3333 9.08333C14.3333 7.79467 13.2887 6.75 12 6.75C10.7113 6.75 9.66667 7.79467 9.66667 9.08333C9.66667 10.372 10.7113 11.4167 12 11.4167Z" fill="white"/>
<path d="M16.375 12.5833C17.1804 12.5833 17.8333 11.9304 17.8333 11.125C17.8333 10.3196 17.1804 9.66667 16.375 9.66667C15.5696 9.66667 14.9167 10.3196 14.9167 11.125C14.9167 11.9304 15.5696 12.5833 16.375 12.5833Z" fill="white"/>
<path d="M7.625 12.5833C8.43042 12.5833 9.08333 11.9304 9.08333 11.125C9.08333 10.3196 8.43042 9.66667 7.625 9.66667C6.81958 9.66667 6.16667 10.3196 6.16667 11.125C6.16667 11.9304 6.81958 12.5833 7.625 12.5833Z" fill="white"/>
</g>
<path d="M13.7503 17.2502H10.2503C8.96174 17.2502 7.91699 16.2054 7.91699 14.9168C7.91699 13.6282 8.96174 12.5835 10.2503 12.5835H13.7503C15.0389 12.5835 16.0837 13.6282 16.0837 14.9168C16.0837 16.2054 15.0389 17.2502 13.7503 17.2502Z" fill="white"/>
</svg>
