<svg width="18" height="18" viewBox="0 0 18 18" fill="none" xmlns="http://www.w3.org/2000/svg">
<path d="M16.0596 13.9396C15.8444 13.7244 14.6031 12.4831 13.9589 11.8389C13.4196 12.6954 12.6944 13.4206 11.8379 13.9599C12.4821 14.6041 13.7234 15.8454 13.9386 16.0606C14.5244 16.6464 15.4739 16.6464 16.0596 16.0606C16.6454 15.4749 16.6454 14.5254 16.0596 13.9396Z" fill="#282828"/>
<path opacity="0.3" d="M8.25 15C11.9779 15 15 11.9779 15 8.25C15 4.52208 11.9779 1.5 8.25 1.5C4.52208 1.5 1.5 4.52208 1.5 8.25C1.5 11.9779 4.52208 15 8.25 15Z" fill="#282828"/>
</svg>
