<svg width="20" height="20" viewBox="0 0 20 20" fill="none" xmlns="http://www.w3.org/2000/svg">
<path opacity="0.3" d="M13.3335 15.7732C13.8985 15.4473 14.5493 15.4198 15.1127 15.6365C15.5827 15.8173 16.1202 15.6673 16.4393 15.2782C17.0085 14.584 17.4677 13.7965 17.7902 12.9407C17.9743 12.4515 17.8002 11.914 17.401 11.5757C16.9518 11.1973 16.6668 10.634 16.6668 9.99984C16.6668 9.36567 16.9518 8.80234 17.4002 8.42234C17.7993 8.084 17.9743 7.54734 17.7893 7.05734C17.4668 6.20234 17.0085 5.414 16.4385 4.71984C16.1193 4.33067 15.5818 4.18067 15.1118 4.3615C14.5493 4.57984 13.8985 4.55234 13.3335 4.2265C12.7668 3.899 12.4168 3.3465 12.3252 2.74734C12.2502 2.25734 11.8618 1.86567 11.3727 1.78234C10.926 1.7065 10.4677 1.6665 10.0002 1.6665C9.53267 1.6665 9.07433 1.7065 8.62767 1.78234C8.1385 1.86567 7.751 2.25734 7.67517 2.74734C7.5835 3.3465 7.2335 3.899 6.66683 4.2265C6.10183 4.55234 5.451 4.57984 4.88767 4.36234C4.41767 4.1815 3.88017 4.3315 3.561 4.72067C2.99183 5.41484 2.5335 6.20234 2.211 7.05817C2.026 7.54734 2.201 8.08484 2.60017 8.42234C3.0485 8.80234 3.3335 9.36567 3.3335 9.99984C3.3335 10.634 3.0485 11.1973 2.60017 11.5773C2.201 11.9157 2.026 12.4523 2.211 12.9423C2.5335 13.7973 2.99183 14.5857 3.56183 15.2798C3.881 15.669 4.4185 15.819 4.8885 15.6382C5.451 15.4198 6.10183 15.4473 6.66683 15.7732C7.2335 16.1007 7.5835 16.6532 7.67517 17.2523C7.75017 17.7423 8.1385 18.134 8.62767 18.2173C9.07433 18.2932 9.53267 18.3332 10.0002 18.3332C10.4677 18.3332 10.926 18.2932 11.3727 18.2173C11.8618 18.1348 12.2502 17.7432 12.3252 17.2523C12.4168 16.6532 12.7668 16.1007 13.3335 15.7732Z" fill="#282828"/>
<path d="M9.99984 6.6665C8.159 6.6665 6.6665 8.159 6.6665 9.99984C6.6665 11.8407 8.159 13.3332 9.99984 13.3332C11.8407 13.3332 13.3332 11.8407 13.3332 9.99984C13.3332 8.159 11.8407 6.6665 9.99984 6.6665Z" fill="#282828"/>
</svg>
