<svg width="24" height="24" viewBox="0 0 24 24" fill="none" xmlns="http://www.w3.org/2000/svg">
<g opacity="0.3">
<path d="M8 13C9.657 13 11 14.343 11 16V18C11 19.657 9.657 21 8 21H6C4.343 21 3 19.657 3 18V16C3 14.343 4.343 13 6 13H8Z" fill="#E7E7E7"/>
<path d="M8 3C9.657 3 11 4.343 11 6V8C11 9.657 9.657 11 8 11H6C4.343 11 3 9.657 3 8V6C3 4.343 4.343 3 6 3H8Z" fill="#E7E7E7"/>
<path d="M18 3C19.657 3 21 4.343 21 6V8C21 9.657 19.657 11 18 11H16C14.343 11 13 9.657 13 8V6C13 4.343 14.343 3 16 3H18Z" fill="#E7E7E7"/>
</g>
<path d="M16 19C16.552 19 17 19.448 17 20C17 20.552 16.552 21 16 21C15.448 21 15 20.552 15 20C15 19.448 15.448 19 16 19Z" fill="#E7E7E7"/>
<path d="M20 19C20.552 19 21 19.448 21 20C21 20.552 20.552 21 20 21C19.448 21 19 20.552 19 20C19 19.448 19.448 19 20 19Z" fill="#E7E7E7"/>
<path d="M8 15C8.552 15 9 15.448 9 16V18C9 18.552 8.552 19 8 19H6C5.448 19 5 18.552 5 18V16C5 15.448 5.448 15 6 15H8Z" fill="#E7E7E7"/>
<path d="M14 17C14.552 17 15 17.448 15 18C15 18.552 14.552 19 14 19C13.448 19 13 18.552 13 18C13 17.448 13.448 17 14 17Z" fill="#E7E7E7"/>
<path d="M18 17C18.552 17 19 17.448 19 18C19 18.552 18.552 19 18 19C17.448 19 17 18.552 17 18C17 17.448 17.448 17 18 17Z" fill="#E7E7E7"/>
<path d="M16 15C16.552 15 17 15.448 17 16C17 16.552 16.552 17 16 17C15.448 17 15 16.552 15 16C15 15.448 15.448 15 16 15Z" fill="#E7E7E7"/>
<path d="M20 15C20.552 15 21 15.448 21 16C21 16.552 20.552 17 20 17C19.448 17 19 16.552 19 16C19 15.448 19.448 15 20 15Z" fill="#E7E7E7"/>
<path d="M14 13C14.552 13 15 13.448 15 14C15 14.552 14.552 15 14 15C13.448 15 13 14.552 13 14C13 13.448 13.448 13 14 13Z" fill="#E7E7E7"/>
<path d="M18 13C18.552 13 19 13.448 19 14C19 14.552 18.552 15 18 15C17.448 15 17 14.552 17 14C17 13.448 17.448 13 18 13Z" fill="#E7E7E7"/>
<path d="M8 5C8.552 5 9 5.448 9 6V8C9 8.552 8.552 9 8 9H6C5.448 9 5 8.552 5 8V6C5 5.448 5.448 5 6 5H8Z" fill="#E7E7E7"/>
<path d="M18 5C18.552 5 19 5.448 19 6V8C19 8.552 18.552 9 18 9H16C15.448 9 15 8.552 15 8V6C15 5.448 15.448 5 16 5H18Z" fill="#E7E7E7"/>
</svg>
