<svg width="20" height="20" viewBox="0 0 20 20" fill="none" xmlns="http://www.w3.org/2000/svg">
<path opacity="0.3" d="M15.8327 16.6668H4.16602C2.78518 16.6668 1.66602 15.5477 1.66602 14.1668V5.8335C1.66602 4.45266 2.78518 3.3335 4.16602 3.3335H15.8327C17.2135 3.3335 18.3327 4.45266 18.3327 5.8335V14.1668C18.3327 15.5477 17.2135 16.6668 15.8327 16.6668Z" fill="#6C757D"/>
<path d="M8.33268 10.8335C8.17768 10.8335 5.15435 10.8335 4.99935 10.8335C4.53935 10.8335 4.16602 11.2068 4.16602 11.6668C4.16602 12.1268 4.53935 12.5002 4.99935 12.5002C5.15435 12.5002 8.17768 12.5002 8.33268 12.5002C8.79268 12.5002 9.16602 12.1268 9.16602 11.6668C9.16602 11.2068 8.79268 10.8335 8.33268 10.8335Z" fill="#6C757D"/>
<path d="M18.3327 6.6665H1.66602V9.1665H18.3327V6.6665Z" fill="#6C757D"/>
</svg>
