<svg width="24" height="24" viewBox="0 0 24 24" fill="none" xmlns="http://www.w3.org/2000/svg">
<path opacity="0.3" d="M21.4274 12.015L19.6974 9.909C19.2154 5.505 16.0004 2 11.0004 2C5.36344 2 2.02344 5.928 2.02344 11C2.02344 14.638 3.91044 16.297 4.67944 18.832C5.06744 20.11 6.22244 21 7.55744 21H16.1854C17.6144 21 18.8454 19.991 19.1264 18.59L19.6504 15.976L20.7744 15.365C21.9954 14.7 22.3094 13.089 21.4274 12.015Z" fill="#E7E7E7"/>
<path d="M10 1C10.552 1 11 1.448 11 2V10.1738C12.1647 10.5859 13 11.6941 13 13C13 13.4626 12.8911 13.8988 12.7041 14.29L15.1211 16.707C15.3081 16.8939 15.5652 17 15.8281 17H16.2695C16.6155 16.4027 17.2601 16 18 16C19.1046 16 20 16.8954 20 18C20 19.1046 19.1046 20 18 20C17.2601 20 16.6155 19.5973 16.2695 19H15.8281C15.0272 19 14.273 18.688 13.707 18.1211L11.29 15.7041C10.8988 15.8911 10.4626 16 10 16C8.34315 16 7 14.6569 7 13C7 11.6941 7.83532 10.5859 9 10.1738V2C9 1.448 9.448 1 10 1Z" fill="#E7E7E7"/>
</svg>
