<svg width="20" height="20" viewBox="0 0 20 20" fill="none" xmlns="http://www.w3.org/2000/svg">
<g opacity="0.3">
<path d="M12.9167 4.5835C13.607 4.5835 14.1667 4.02385 14.1667 3.3335C14.1667 2.64314 13.607 2.0835 12.9167 2.0835C12.2263 2.0835 11.6667 2.64314 11.6667 3.3335C11.6667 4.02385 12.2263 4.5835 12.9167 4.5835Z" fill="#6C757D"/>
<path d="M15 6.25016H9.125C9.15167 6.11516 9.16667 5.976 9.16667 5.8335C9.16667 4.68266 8.23417 3.75016 7.08333 3.75016C5.9325 3.75016 5 4.68266 5 5.8335C5 5.976 5.015 6.11516 5.04167 6.25016H5C3.61917 6.25016 2.5 7.36933 2.5 8.75016V16.2502C2.5 17.631 3.61917 18.7502 5 18.7502H15C16.3808 18.7502 17.5 17.631 17.5 16.2502V8.75016C17.5 7.36933 16.3808 6.25016 15 6.25016Z" fill="#6C757D"/>
</g>
<path d="M14.5837 11.25C15.274 11.25 15.8337 11.8096 15.8337 12.5C15.8337 13.1904 15.274 13.75 14.5837 13.75C13.8933 13.75 13.3337 13.1904 13.3337 12.5C13.3337 11.8096 13.8933 11.25 14.5837 11.25Z" fill="#6C757D"/>
<path d="M7.08366 2.91667C8.69449 2.91667 10.0003 4.2225 10.0003 5.83333C10.0003 5.97582 9.97801 6.11251 9.95801 6.25H7.90641C7.90641 6.2425 7.90804 6.2339 7.90804 6.2264C7.90961 5.96043 7.76745 5.35563 7.12516 5.35563C7.09686 5.35564 7.06173 5.35952 7.02181 5.36784C6.98193 5.37616 6.94598 5.38547 6.91439 5.39876L6.93392 4.9235H7.53939C7.68939 4.9235 7.81038 4.80167 7.81038 4.65251C7.81038 4.50251 7.68855 4.38151 7.53939 4.38151H6.71501C6.54515 4.38168 6.40427 4.51596 6.39844 4.68669L6.36426 5.625C6.35926 5.77244 6.49359 5.8909 6.6377 5.86019C6.71936 5.84186 6.81133 5.82845 6.90299 5.82845C7.01479 5.82858 7.30827 5.95858 7.30827 6.24593L7.30745 6.25H5.00033C4.72709 6.25 4.4689 6.30512 4.22314 6.3859C4.18898 6.20674 4.16699 6.0225 4.16699 5.83333C4.16699 4.2225 5.47283 2.91667 7.08366 2.91667Z" fill="#6C757D"/>
<path fill-rule="evenodd" clip-rule="evenodd" d="M12.917 1.25C14.0678 1.25 15.0003 2.1825 15.0003 3.33333C15.0003 4.48417 14.0678 5.41667 12.917 5.41667C11.7662 5.41667 10.8337 4.48417 10.8337 3.33333C10.8337 2.1825 11.7662 1.25 12.917 1.25ZM12.882 2.31771C12.8179 2.31771 12.7562 2.33809 12.7046 2.37549L12.3758 2.61556C12.2934 2.67558 12.2697 2.78849 12.3205 2.87679C12.3796 2.98155 12.5185 3.01 12.6143 2.93783L12.7347 2.84668V4.10726C12.7347 4.23054 12.8344 4.33098 12.9577 4.33105C13.081 4.33105 13.1815 4.23059 13.1815 4.10726L13.1823 2.61719C13.1821 2.4515 13.0477 2.31771 12.882 2.31771Z" fill="#6C757D"/>
</svg>
