<svg width="20" height="20" viewBox="0 0 20 20" fill="none" xmlns="http://www.w3.org/2000/svg">
<path opacity="0.3" d="M5.83366 1.6665C8.13449 1.6665 10.0003 2.599 10.0003 3.74984V7.08317C10.0003 5.93234 11.8662 4.99984 14.167 4.99984C16.4678 4.99984 18.3337 5.93234 18.3337 7.08317V14.5832C18.3337 15.734 16.4678 16.6665 14.167 16.6665C11.8662 16.6665 10.0003 15.734 10.0003 14.5832V16.2498C10.0003 17.4007 8.13449 18.3332 5.83366 18.3332C3.53283 18.3332 1.66699 17.4007 1.66699 16.2498V3.74984C1.66699 2.599 3.53283 1.6665 5.83366 1.6665Z" fill="#6C757D"/>
<path d="M18.3337 14.5833C18.3337 15.7342 16.4678 16.6667 14.167 16.6667C11.8662 16.6667 10.0003 15.7342 10.0003 14.5833V16.25C10.0003 17.4008 8.13449 18.3333 5.83366 18.3333C3.53283 18.3333 1.66699 17.4008 1.66699 16.25V13.75C1.66699 14.9008 3.53283 15.8333 5.83366 15.8333C8.13449 15.8333 10.0003 14.9008 10.0003 13.75V12.0833C10.0003 13.2342 11.8662 14.1667 14.167 14.1667C16.4678 14.1667 18.3337 13.2342 18.3337 12.0833V14.5833Z" fill="#6C757D"/>
<path d="M18.3337 9.58333C18.3337 10.7342 16.4678 11.6667 14.167 11.6667C11.8662 11.6667 10.0003 10.7342 10.0003 9.58333V11.25C10.0003 12.4008 8.13449 13.3333 5.83366 13.3333C3.53283 13.3333 1.66699 12.4008 1.66699 11.25V8.75C1.66699 9.90083 3.53283 10.8333 5.83366 10.8333C8.13449 10.8333 10.0003 9.90083 10.0003 8.75V7.08333C10.0003 8.23417 11.8662 9.16667 14.167 9.16667C16.4678 9.16667 18.3337 8.23417 18.3337 7.08333V9.58333Z" fill="#6C757D"/>
<path d="M10.0003 6.25C10.0003 7.40083 8.13449 8.33333 5.83366 8.33333C3.53283 8.33333 1.66699 7.40083 1.66699 6.25V3.75C1.66699 4.90083 3.53283 5.83333 5.83366 5.83333C8.13449 5.83333 10.0003 4.90083 10.0003 3.75V6.25Z" fill="#6C757D"/>
</svg>
