<svg width="20" height="20" viewBox="0 0 20 20" fill="none" xmlns="http://www.w3.org/2000/svg">
<path opacity="0.3" d="M17.8917 4.70449C17.5775 4.36283 17.1308 4.16699 16.6658 4.16699H3.5625L3.47083 3.47449C3.33333 2.44449 2.44583 1.66699 1.40583 1.66699H0.833333C0.3725 1.66699 0 2.03949 0 2.50033C0 2.96116 0.3725 3.33366 0.833333 3.33366H1.40583C1.61417 3.33366 1.79167 3.48949 1.81917 3.69533L3.1 13.302C3.29167 14.7453 4.53417 15.8337 5.99 15.8337H14.8208C16.3258 15.8337 17.6025 14.6595 17.7275 13.1595L18.3275 5.97116C18.365 5.50783 18.2067 5.04616 17.8917 4.70449Z" fill="#6C757D"/>
<path d="M6.66667 17.5003C7.58714 17.5003 8.33333 16.7541 8.33333 15.8337C8.33333 14.9132 7.58714 14.167 6.66667 14.167C5.74619 14.167 5 14.9132 5 15.8337C5 16.7541 5.74619 17.5003 6.66667 17.5003Z" fill="#6C757D"/>
<path d="M14.1667 17.5003C15.0871 17.5003 15.8333 16.7541 15.8333 15.8337C15.8333 14.9132 15.0871 14.167 14.1667 14.167C13.2462 14.167 12.5 14.9132 12.5 15.8337C12.5 16.7541 13.2462 17.5003 14.1667 17.5003Z" fill="#6C757D"/>
</svg>
