<svg width="24" height="24" viewBox="0 0 24 24" fill="none" xmlns="http://www.w3.org/2000/svg">
<rect width="24" height="24" rx="12" fill="#DC3545" fill-opacity="0.12"/>
<path d="M14.1221 8.82073C14.4117 8.53111 14.8828 8.53111 15.1724 8.82073L15.1805 8.82883C15.4701 9.11843 15.4701 9.58878 15.1805 9.87841L13.0593 11.9989L15.1805 14.1202C15.4702 14.4098 15.4702 14.8809 15.1805 15.1705L15.1724 15.1786C14.8828 15.4682 14.4117 15.4682 14.1221 15.1786L12.0009 13.0573L9.88036 15.1786C9.59073 15.468 9.12035 15.4682 8.83079 15.1786L8.82268 15.1705C8.53306 14.8809 8.53306 14.4098 8.82268 14.1202L10.9432 11.9989L8.82268 9.87841C8.53314 9.58878 8.53309 9.11843 8.82268 8.82883L8.83079 8.82073C9.12038 8.53113 9.59074 8.53118 9.88036 8.82073L12.0009 10.9412L14.1221 8.82073Z" fill="#DC3545"/>
</svg>
