<svg width="24" height="24" viewBox="0 0 24 24" fill="none" xmlns="http://www.w3.org/2000/svg">
<path d="M15.5343 6.70187C16.017 6.21917 16.8021 6.21917 17.2848 6.70187L17.2983 6.71537C17.781 7.19803 17.7809 7.98195 17.2983 8.46467L13.7629 11.9989L17.2983 15.5343C17.781 16.017 17.781 16.8021 17.2983 17.2848L17.2848 17.2983C16.8021 17.781 16.017 17.781 15.5343 17.2983L11.9989 13.7629L8.46467 17.2983C7.98194 17.7807 7.19798 17.7809 6.71537 17.2983L6.70187 17.2848C6.21917 16.8021 6.21917 16.017 6.70187 15.5343L10.2361 11.9989L6.70187 8.46467C6.21929 7.98196 6.21921 7.19804 6.70187 6.71537L6.71537 6.70187C7.19804 6.21921 7.98196 6.21929 8.46467 6.70187L11.9989 10.2361L15.5343 6.70187Z" fill="#DC3545"/>
</svg>
