<svg width="28" height="28" viewBox="0 0 28 28" fill="none" xmlns="http://www.w3.org/2000/svg">
<path d="M20.5934 14.3351C21.0489 14.7907 21.049 15.5293 20.5934 15.9849L14.825 21.7533C14.3694 22.2087 13.6308 22.2088 13.1752 21.7533L7.40685 15.9849C6.95133 15.5293 6.95139 14.7907 7.40685 14.3351C7.86244 13.8795 8.60097 13.8796 9.05659 14.3351L12.8334 18.112L12.8334 7.07194C12.8334 6.42764 13.3558 5.90532 14.0001 5.90527C14.6444 5.90527 15.1668 6.42761 15.1668 7.07194L15.1668 18.112L18.9436 14.3351L19.0325 14.2554C19.4907 13.8816 20.1662 13.908 20.5934 14.3351Z" fill="#1AA179"/>
</svg>
