<svg width="40" height="40" viewBox="0 0 40 40" fill="none" xmlns="http://www.w3.org/2000/svg">
<rect width="40" height="40" rx="20" fill="#1AA179" fill-opacity="0.12"/>
<path d="M26.5934 20.3351C27.0489 20.7907 27.049 21.5293 26.5934 21.9849L20.825 27.7533C20.3694 28.2087 19.6308 28.2088 19.1752 27.7533L13.4068 21.9849C12.9513 21.5293 12.9514 20.7907 13.4068 20.3351C13.8624 19.8795 14.601 19.8796 15.0566 20.3351L18.8334 24.112L18.8334 13.0719C18.8334 12.4276 19.3558 11.9053 20.0001 11.9053C20.6444 11.9053 21.1668 12.4276 21.1668 13.0719L21.1668 24.112L24.9436 20.3351L25.0325 20.2554C25.4907 19.8816 26.1662 19.908 26.5934 20.3351Z" fill="#1AA179"/>
</svg>
