<svg width="20" height="20" viewBox="0 0 20 20" fill="none" xmlns="http://www.w3.org/2000/svg">
<path opacity="0.3" d="M10.0003 18.3332C14.6027 18.3332 18.3337 14.6022 18.3337 9.99984C18.3337 5.39746 14.6027 1.6665 10.0003 1.6665C5.39795 1.6665 1.66699 5.39746 1.66699 9.99984C1.66699 14.6022 5.39795 18.3332 10.0003 18.3332Z" fill="#6C757D"/>
<path d="M9.16699 14.1665V9.99984C9.16699 9.53984 9.54033 9.1665 10.0003 9.1665C10.4603 9.1665 10.8337 9.53984 10.8337 9.99984V14.1665C10.8337 14.6265 10.4603 14.9998 10.0003 14.9998C9.54033 14.9998 9.16699 14.6265 9.16699 14.1665Z" fill="#6C757D"/>
<path d="M10 7.5C10.6904 7.5 11.25 6.94036 11.25 6.25C11.25 5.55964 10.6904 5 10 5C9.30964 5 8.75 5.55964 8.75 6.25C8.75 6.94036 9.30964 7.5 10 7.5Z" fill="#6C757D"/>
</svg>
