<svg width="212" height="212" viewBox="0 0 212 212" fill="none" xmlns="http://www.w3.org/2000/svg">
<path d="M51.7461 5.98975L45.8493 5.98975V2.09785C45.8493 0.990571 46.7469 0.0929403 47.8542 0.0929403L51.7461 0.0929403V5.98975Z" fill="black"/>
<path d="M57.4671 0.0932617H51.5703V5.99007H57.4671V0.0932617Z" fill="black"/>
<path d="M63.1859 0.0932617H57.2891V5.99007H63.1859V0.0932617Z" fill="black"/>
<path d="M68.9066 0.0932617H63.0098V5.99007H68.9066V0.0932617Z" fill="black"/>
<path d="M68.7285 5.99023V0.0934286H72.6204C73.7277 0.0934286 74.6253 0.991059 74.6253 2.09834V5.99023H68.7285Z" fill="black"/>
<path d="M85.8887 1.77975V4.30948C85.8887 5.24117 86.6435 5.99007 87.5752 5.99007H90.1049C91.0425 5.99007 91.7914 5.23528 91.7914 4.30358V1.77975C91.7855 0.842156 91.0307 0.0932617 90.099 0.0932617H87.5752C86.6435 0.0932617 85.8887 0.848053 85.8887 1.77975Z" fill="black"/>
<path d="M103.225 5.98975L99.3327 5.98975C98.2254 5.98975 97.3278 5.09212 97.3278 3.98483V2.09785C97.3278 0.990571 98.2254 0.0929403 99.3327 0.0929403L103.225 0.0929403V5.98975Z" fill="black"/>
<path d="M108.946 0.0932617H103.049V5.99007H108.946V0.0932617Z" fill="black"/>
<path d="M108.768 5.99023V0.0934286H112.659C113.767 0.0934286 114.664 0.991059 114.664 2.09834V5.99023H108.768Z" fill="black"/>
<path d="M126.104 5.99023L120.207 5.99023V2.09834C120.207 0.991059 121.104 0.0934286 122.212 0.0934286L126.104 0.0934286V5.99023Z" fill="black"/>
<path d="M125.928 5.99023V0.0934286H129.82C130.927 0.0934286 131.825 0.991059 131.825 2.09834V5.99023H125.928Z" fill="black"/>
<path d="M143.264 5.99023L137.367 5.99023V2.09834C137.367 0.991059 138.264 0.0934286 139.372 0.0934286L143.264 0.0934286V5.99023Z" fill="black"/>
<path d="M143.088 5.99023V2.09834C143.088 0.991059 143.986 0.0934286 145.093 0.0934286H146.98C148.087 0.0934286 148.985 0.991059 148.985 2.09834V5.99023H143.088Z" fill="black"/>
<path d="M160.248 1.77975V4.30948C160.248 5.24117 161.003 5.99007 161.935 5.99007H164.464C165.402 5.99007 166.151 5.23528 166.151 4.30358V1.77975C166.145 0.842156 165.39 0.0932617 164.458 0.0932617H161.935C161.003 0.0932617 160.248 0.848053 160.248 1.77975Z" fill="black"/>
<path d="M51.7464 5.81299H45.8496V11.7098H51.7464V5.81299Z" fill="black"/>
<path d="M57.4671 5.81299H51.5703V11.7098H57.4671V5.81299Z" fill="black"/>
<path d="M68.9062 5.81299V11.7098H65.0144C63.9071 11.7098 63.0094 10.8122 63.0094 9.70488V5.81299H68.9062Z" fill="black"/>
<path d="M74.6253 5.81299H68.7285V11.7098H74.6253V5.81299Z" fill="black"/>
<path d="M78.5469 11.5922V11.7101H80.3454V9.91162H80.2275C80.2275 10.8433 79.4727 11.5922 78.5469 11.5922Z" fill="black"/>
<path d="M80.1699 11.71V7.81807C80.1699 6.71079 81.0676 5.81316 82.1748 5.81316H84.0618C85.1691 5.81316 86.0667 6.71079 86.0667 7.81807V11.71H80.1699Z" fill="black"/>
<path d="M91.6094 7.49947V10.0292C91.6094 10.9609 92.3642 11.7098 93.2959 11.7098H95.8256C96.7632 11.7098 97.5121 10.955 97.5121 10.0233V7.49947C97.5062 6.56188 96.7514 5.81299 95.8197 5.81299H93.2959C92.3642 5.81299 91.6094 6.56778 91.6094 7.49947Z" fill="black"/>
<path d="M114.664 5.81299H108.768V11.7098H114.664V5.81299Z" fill="black"/>
<path d="M118.586 11.5922V11.7101H120.384V9.91162H120.267C120.267 10.8433 119.512 11.5922 118.586 11.5922Z" fill="black"/>
<path d="M126.106 5.81299H120.209V11.7098H126.106V5.81299Z" fill="black"/>
<path d="M125.928 5.81299H131.825V9.70488C131.825 10.8122 130.927 11.7098 129.82 11.7098H125.928V5.81299Z" fill="black"/>
<path d="M143.264 5.81299H137.367V11.7098H143.264V5.81299Z" fill="black"/>
<path d="M154.703 11.71H148.806V7.81807C148.806 6.71079 149.704 5.81316 150.811 5.81316L154.703 5.81316V11.71Z" fill="black"/>
<path d="M154.527 11.71V7.81807C154.527 6.71079 155.425 5.81316 156.532 5.81316H158.419C159.527 5.81316 160.424 6.71079 160.424 7.81807V11.71H154.527Z" fill="black"/>
<path d="M51.7461 11.5332V17.43H47.8542C46.7469 17.43 45.8493 16.5324 45.8493 15.4251V11.5332H51.7461Z" fill="black"/>
<path d="M51.5703 11.5332H57.4671V15.4251C57.4671 16.5324 56.5695 17.43 55.4622 17.43H51.5703V11.5332Z" fill="black"/>
<path d="M74.625 11.5332V17.43H70.7331C69.6258 17.43 68.7282 16.5324 68.7282 15.4251V11.5332H74.625Z" fill="black"/>
<path d="M80.346 11.5332H74.4492V17.43H80.346V11.5332Z" fill="black"/>
<path d="M86.0667 11.5332H80.1699V17.43H86.0667V11.5332Z" fill="black"/>
<path d="M85.8887 17.4302V11.5334H89.7806C90.8878 11.5334 91.7855 12.431 91.7855 13.5383V17.4302H85.8887Z" fill="black"/>
<path d="M114.664 11.5332V17.43H110.772C109.665 17.43 108.767 16.5324 108.767 15.4251V11.5332H114.664Z" fill="black"/>
<path d="M120.385 11.5332H114.488V17.43H120.385V11.5332Z" fill="black"/>
<path d="M126.106 11.5332H120.209V17.43H126.106V11.5332Z" fill="black"/>
<path d="M135.746 17.3119V17.4299H137.545V15.6313H137.427C137.427 16.563 136.672 17.3119 135.746 17.3119Z" fill="black"/>
<path d="M143.264 11.5332H137.367V17.43H143.264V11.5332Z" fill="black"/>
<path d="M154.705 11.5332V15.4251C154.705 16.5324 153.807 17.43 152.7 17.43H150.813C149.706 17.43 148.808 16.5324 148.808 15.4251V11.5332H154.705Z" fill="black"/>
<path d="M158.625 17.3119V17.4299H160.424V15.6313H160.306C160.306 16.563 159.551 17.3119 158.625 17.3119Z" fill="black"/>
<path d="M160.248 17.4302V13.5383C160.248 12.431 161.146 11.5334 162.253 11.5334H164.14C165.247 11.5334 166.145 12.431 166.145 13.5383V17.4302H160.248Z" fill="black"/>
<path d="M63.1855 23.1494H59.2937C58.1864 23.1494 57.2887 22.2518 57.2887 21.1445V19.2575C57.2887 18.1502 58.1864 17.2526 59.2937 17.2526H63.1855V23.1494Z" fill="black"/>
<path d="M63.0098 23.1499V19.258C63.0098 18.1507 63.9074 17.2531 65.0147 17.2531H66.9017C68.0089 17.2531 68.9066 18.1507 68.9066 19.258V23.1499H63.0098Z" fill="black"/>
<path d="M80.3457 17.2529V23.1497H76.4538C75.3465 23.1497 74.4489 22.2521 74.4489 21.1448V17.2529H80.3457Z" fill="black"/>
<path d="M86.0667 17.2529H80.1699V23.1497H86.0667V17.2529Z" fill="black"/>
<path d="M91.7855 17.2529H85.8887V23.1497H91.7855V17.2529Z" fill="black"/>
<path d="M126.105 17.2529V21.1448C126.105 22.2521 125.208 23.1497 124.101 23.1497H122.214C121.106 23.1497 120.209 22.2521 120.209 21.1448V17.2529H126.105Z" fill="black"/>
<path d="M137.545 23.1499H133.653C132.546 23.1499 131.648 22.2523 131.648 21.145V19.258C131.648 18.1507 132.546 17.2531 133.653 17.2531H137.545V23.1499Z" fill="black"/>
<path d="M143.264 17.2529H137.367V23.1497H143.264V17.2529Z" fill="black"/>
<path d="M143.088 23.1499V17.2531H146.98C148.087 17.2531 148.985 18.1507 148.985 19.258V23.1499H143.088Z" fill="black"/>
<path d="M160.424 23.1499H156.532C155.425 23.1499 154.527 22.2523 154.527 21.145V19.258C154.527 18.1507 155.425 17.2531 156.532 17.2531H160.424V23.1499Z" fill="black"/>
<path d="M166.145 17.2529H160.248V23.1497H166.145V17.2529Z" fill="black"/>
<path d="M51.5703 24.6591V27.1889C51.5703 28.1206 52.3251 28.8695 53.2568 28.8695H55.7865C56.7241 28.8695 57.473 28.1147 57.473 27.183V24.6591C57.4671 23.7216 56.7123 22.9727 55.7806 22.9727H53.2568C52.3251 22.9727 51.5703 23.7274 51.5703 24.6591Z" fill="black"/>
<path d="M68.7285 24.6591V27.1889C68.7285 28.1206 69.4833 28.8695 70.415 28.8695H72.9447C73.8823 28.8695 74.6312 28.1147 74.6312 27.183V24.6591C74.6253 23.7216 73.8705 22.9727 72.9388 22.9727H70.415C69.4833 22.9727 68.7285 23.7274 68.7285 24.6591Z" fill="black"/>
<path d="M86.0664 22.9727V28.8695H82.1745C81.0672 28.8695 80.1696 27.9718 80.1696 26.8645V22.9727H86.0664Z" fill="black"/>
<path d="M91.7855 22.9727H85.8887V28.8695H91.7855V22.9727Z" fill="black"/>
<path d="M108.768 24.6591V27.1889C108.768 28.1206 109.522 28.8695 110.454 28.8695H112.984C113.921 28.8695 114.67 28.1147 114.67 27.183V24.6591C114.664 23.7216 113.91 22.9727 112.978 22.9727H110.454C109.522 22.9727 108.768 23.7274 108.768 24.6591Z" fill="black"/>
<path d="M143.264 22.9727H137.367V28.8695H143.264V22.9727Z" fill="black"/>
<path d="M148.985 22.9727H143.088V28.8695H148.985V22.9727Z" fill="black"/>
<path d="M148.809 28.8696V22.9728H152.7C153.808 22.9728 154.705 23.8705 154.705 24.9777V28.8696H148.809Z" fill="black"/>
<path d="M158.625 28.7519V28.8698H160.424V27.0713H160.306C160.306 28.003 159.551 28.7519 158.625 28.7519Z" fill="black"/>
<path d="M166.145 22.9727H160.248V28.8695H166.145V22.9727Z" fill="black"/>
<path d="M45.8496 34.5898V30.698C45.8496 29.5907 46.7472 28.693 47.8545 28.693H49.7415C50.8488 28.693 51.7464 29.5907 51.7464 30.698V34.5898H45.8496Z" fill="black"/>
<path d="M63.1855 34.5894H57.2887V30.6975C57.2887 29.5902 58.1864 28.6925 59.2937 28.6925H63.1855V34.5894Z" fill="black"/>
<path d="M63.0098 34.5898V30.698C63.0098 29.5907 63.9074 28.693 65.0147 28.693H66.9017C68.0089 28.693 68.9066 29.5907 68.9066 30.698V34.5898H63.0098Z" fill="black"/>
<path d="M74.4492 30.3794V32.9091C74.4492 33.8408 75.204 34.5897 76.1357 34.5897H78.6654C79.603 34.5897 80.3519 33.8349 80.3519 32.9032V30.3794C80.346 29.4418 79.5912 28.6929 78.6595 28.6929H76.1357C75.204 28.6929 74.4492 29.4477 74.4492 30.3794Z" fill="black"/>
<path d="M91.7852 28.6929V34.5897H87.8933C86.786 34.5897 85.8884 33.692 85.8884 32.5848V28.6929H91.7852Z" fill="black"/>
<path d="M97.5062 28.6929H91.6094V34.5897H97.5062V28.6929Z" fill="black"/>
<path d="M103.225 28.6929H97.3281V34.5897H103.225V28.6929Z" fill="black"/>
<path d="M103.049 34.5898V28.693H106.941C108.048 28.693 108.946 29.5907 108.946 30.698V34.5898H103.049Z" fill="black"/>
<path d="M137.545 34.5898H133.653C132.546 34.5898 131.648 33.6922 131.648 32.5849V30.698C131.648 29.5907 132.546 28.693 133.653 28.693H137.545V34.5898Z" fill="black"/>
<path d="M143.264 28.6929H137.367V34.5897H143.264V28.6929Z" fill="black"/>
<path d="M148.985 28.6929H143.088V34.5897H148.985V28.6929Z" fill="black"/>
<path d="M154.705 28.6929H148.809V34.5897H154.705V28.6929Z" fill="black"/>
<path d="M160.424 28.6929H154.527V34.5897H160.424V28.6929Z" fill="black"/>
<path d="M166.145 28.6929H160.248V34.5897H166.145V28.6929Z" fill="black"/>
<path d="M51.7464 34.4126H45.8496V40.3094H51.7464V34.4126Z" fill="black"/>
<path d="M63.1855 34.4126V38.3045C63.1855 39.4118 62.2879 40.3094 61.1806 40.3094H59.2937C58.1864 40.3094 57.2887 39.4118 57.2887 38.3045V34.4126H63.1855Z" fill="black"/>
<path d="M68.7285 36.0991V38.6288C68.7285 39.5605 69.4833 40.3094 70.415 40.3094H72.9447C73.8823 40.3094 74.6312 39.5546 74.6312 38.6229V36.0991C74.6253 35.1615 73.8705 34.4126 72.9388 34.4126H70.415C69.4833 34.4126 68.7285 35.1674 68.7285 36.0991Z" fill="black"/>
<path d="M80.1699 36.0991V38.6288C80.1699 39.5605 80.9247 40.3094 81.8564 40.3094H84.3861C85.3237 40.3094 86.0726 39.5546 86.0726 38.6229V36.0991C86.0667 35.1615 85.3119 34.4126 84.3802 34.4126H81.8564C80.9247 34.4126 80.1699 35.1674 80.1699 36.0991Z" fill="black"/>
<path d="M97.5062 34.4126H91.6094V40.3094H97.5062V34.4126Z" fill="black"/>
<path d="M108.946 34.4126H103.049V40.3094H108.946V34.4126Z" fill="black"/>
<path d="M114.488 36.0991V38.6288C114.488 39.5605 115.243 40.3094 116.175 40.3094H118.704C119.642 40.3094 120.391 39.5546 120.391 38.6229V36.0991C120.385 35.1615 119.63 34.4126 118.699 34.4126H116.175C115.243 34.4126 114.488 35.1674 114.488 36.0991Z" fill="black"/>
<path d="M125.928 36.0991V38.6288C125.928 39.5605 126.683 40.3094 127.614 40.3094H130.144C131.082 40.3094 131.83 39.5546 131.83 38.6229V36.0991C131.825 35.1615 131.07 34.4126 130.138 34.4126H127.614C126.683 34.4126 125.928 35.1674 125.928 36.0991Z" fill="black"/>
<path d="M143.264 34.4126H137.367V40.3094H143.264V34.4126Z" fill="black"/>
<path d="M154.705 34.4126V38.3045C154.705 39.4118 153.807 40.3094 152.7 40.3094H150.813C149.706 40.3094 148.808 39.4118 148.808 38.3045V34.4126H154.705Z" fill="black"/>
<path d="M166.145 34.4126V38.3045C166.145 39.4118 165.247 40.3094 164.14 40.3094H162.253C161.145 40.3094 160.248 39.4118 160.248 38.3045V34.4126H166.145Z" fill="black"/>
<path d="M51.7464 40.1328H45.8496V46.0296H51.7464V40.1328Z" fill="black"/>
<path d="M74.4492 41.8193V44.349C74.4492 45.2807 75.204 46.0296 76.1357 46.0296H78.6654C79.603 46.0296 80.3519 45.2748 80.3519 44.3431V41.8193C80.346 40.8817 79.5912 40.1328 78.6595 40.1328H76.1357C75.204 40.1328 74.4492 40.8876 74.4492 41.8193Z" fill="black"/>
<path d="M84.2676 45.9115V46.0295H86.0661V44.231H85.9482C85.9482 45.1627 85.1934 45.9115 84.2676 45.9115Z" fill="black"/>
<path d="M91.7852 46.0293H85.8884V42.1374C85.8884 41.0301 86.786 40.1325 87.8933 40.1325H91.7852V46.0293Z" fill="black"/>
<path d="M91.6094 40.1328H97.5062V44.0247C97.5062 45.132 96.6086 46.0296 95.5013 46.0296H91.6094V40.1328Z" fill="black"/>
<path d="M108.945 40.1328V44.0247C108.945 45.132 108.048 46.0296 106.94 46.0296H105.053C103.946 46.0296 103.049 45.132 103.049 44.0247V40.1328H108.945Z" fill="black"/>
<path d="M118.586 45.9115V46.0295H120.384V44.231H120.267C120.267 45.1627 119.512 45.9115 118.586 45.9115Z" fill="black"/>
<path d="M120.209 46.0298V42.1379C120.209 41.0306 121.107 40.133 122.214 40.133H124.101C125.208 40.133 126.106 41.0306 126.106 42.1379V46.0298H120.209Z" fill="black"/>
<path d="M143.264 40.1328H137.367V46.0296H143.264V40.1328Z" fill="black"/>
<path d="M143.088 46.0298V42.1379C143.088 41.0306 143.986 40.133 145.093 40.133H146.98C148.087 40.133 148.985 41.0306 148.985 42.1379V46.0298H143.088Z" fill="black"/>
<path d="M9.9082 51.6313V51.7492H11.7067V49.9507H11.5888C11.5888 50.8824 10.834 51.6313 9.9082 51.6313Z" fill="black"/>
<path d="M17.4277 51.749H11.5309V47.8571C11.5309 46.7498 12.4286 45.8522 13.5358 45.8522H17.4277V51.749Z" fill="black"/>
<path d="M23.1468 45.8525H17.25V51.7493H23.1468V45.8525Z" fill="black"/>
<path d="M22.9707 51.7495V45.8527H26.8626C27.9699 45.8527 28.8675 46.7503 28.8675 47.8576V51.7495H22.9707Z" fill="black"/>
<path d="M34.4102 47.539V50.0688C34.4102 51.0005 35.1649 51.7493 36.0966 51.7493H38.6264C39.564 51.7493 40.3129 50.9946 40.3129 50.0629V47.539C40.307 46.6014 39.5522 45.8525 38.6205 45.8525H36.0966C35.1649 45.8525 34.4102 46.6073 34.4102 47.539Z" fill="black"/>
<path d="M51.7461 45.8525V49.7444C51.7461 50.8517 50.8485 51.7493 49.7412 51.7493H47.8542C46.7469 51.7493 45.8493 50.8517 45.8493 49.7444V45.8525H51.7461Z" fill="black"/>
<path d="M86.0664 51.749H80.1696V47.8571C80.1696 46.7498 81.0672 45.8522 82.1745 45.8522H86.0664V51.749Z" fill="black"/>
<path d="M91.7855 45.8525H85.8887V51.7493H91.7855V45.8525Z" fill="black"/>
<path d="M114.666 51.749H110.774C109.667 51.749 108.769 50.8514 108.769 49.7441V47.8571C108.769 46.7498 109.667 45.8522 110.774 45.8522H114.666V51.749Z" fill="black"/>
<path d="M120.385 45.8525H114.488V51.7493H120.385V45.8525Z" fill="black"/>
<path d="M120.209 45.8525H126.106V49.7444C126.106 50.8517 125.208 51.7493 124.101 51.7493H120.209V45.8525Z" fill="black"/>
<path d="M143.264 45.8525H137.367V51.7493H143.264V45.8525Z" fill="black"/>
<path d="M148.809 47.539V50.0688C148.809 51.0005 149.563 51.7493 150.495 51.7493H153.025C153.962 51.7493 154.711 50.9946 154.711 50.0629V47.539C154.705 46.6014 153.951 45.8525 153.019 45.8525H150.495C149.563 45.8525 148.809 46.6073 148.809 47.539Z" fill="black"/>
<path d="M171.865 51.7495H165.968V47.8576C165.968 46.7503 166.866 45.8527 167.973 45.8527H171.865V51.7495Z" fill="black"/>
<path d="M177.584 45.8525H171.688V51.7493H177.584V45.8525Z" fill="black"/>
<path d="M177.408 51.7495V45.8527H181.3C182.407 45.8527 183.305 46.7503 183.305 47.8576V51.7495H177.408Z" fill="black"/>
<path d="M200.465 51.7495H196.573C195.466 51.7495 194.568 50.8519 194.568 49.7446V47.8576C194.568 46.7503 195.466 45.8527 196.573 45.8527H200.465V51.7495Z" fill="black"/>
<path d="M206.184 45.8525H200.287V51.7493H206.184V45.8525Z" fill="black"/>
<path d="M206.006 51.7495V47.8576C206.006 46.7503 206.903 45.8527 208.011 45.8527H209.898C211.005 45.8527 211.903 46.7503 211.903 47.8576V51.7495H206.006Z" fill="black"/>
<path d="M4.18945 57.3515V57.4694H5.98798V55.6709H5.87004C5.87004 56.6026 5.11525 57.3515 4.18945 57.3515Z" fill="black"/>
<path d="M11.707 57.4692H5.81023L5.81023 53.5773C5.81023 52.4701 6.70786 51.5724 7.81514 51.5724H11.707V57.4692Z" fill="black"/>
<path d="M17.4261 51.5723H11.5293V57.4691H17.4261V51.5723Z" fill="black"/>
<path d="M23.1468 51.5723H17.25V57.4691H23.1468V51.5723Z" fill="black"/>
<path d="M28.8675 51.5723H22.9707V57.4691H28.8675V51.5723Z" fill="black"/>
<path d="M28.6895 57.4692V53.5773C28.6895 52.4701 29.5871 51.5724 30.6944 51.5724H32.5813C33.6886 51.5724 34.5863 52.4701 34.5863 53.5773V57.4692H28.6895Z" fill="black"/>
<path d="M57.2891 53.2588V55.7885C57.2891 56.7202 58.0439 57.4691 58.9755 57.4691H61.5053C62.4429 57.4691 63.1918 56.7143 63.1918 55.7826V53.2588C63.1859 52.3212 62.4311 51.5723 61.4994 51.5723H58.9755C58.0439 51.5723 57.2891 52.3271 57.2891 53.2588Z" fill="black"/>
<path d="M86.0664 51.5723V57.4691H82.1745C81.0672 57.4691 80.1696 56.5714 80.1696 55.4642V51.5723H86.0664Z" fill="black"/>
<path d="M85.8887 51.5723H91.7855V55.4642C91.7855 56.5714 90.8878 57.4691 89.7806 57.4691H85.8887V51.5723Z" fill="black"/>
<path d="M103.225 57.4692H97.3278V53.5773C97.3278 52.4701 98.2254 51.5724 99.3327 51.5724H103.225V57.4692Z" fill="black"/>
<path d="M103.049 57.4692V51.5724H106.941C108.048 51.5724 108.946 52.4701 108.946 53.5773V57.4692H103.049Z" fill="black"/>
<path d="M120.385 51.5723V55.4642C120.385 56.5714 119.487 57.4691 118.38 57.4691H116.493C115.386 57.4691 114.488 56.5714 114.488 55.4642V51.5723H120.385Z" fill="black"/>
<path d="M125.928 53.2588V55.7885C125.928 56.7202 126.683 57.4691 127.614 57.4691H130.144C131.082 57.4691 131.83 56.7143 131.83 55.7826V53.2588C131.825 52.3212 131.07 51.5723 130.138 51.5723H127.614C126.683 51.5723 125.928 52.3271 125.928 53.2588Z" fill="black"/>
<path d="M135.746 57.3515V57.4694H137.545V55.6709H137.427C137.427 56.6026 136.672 57.3515 135.746 57.3515Z" fill="black"/>
<path d="M143.264 51.5723H137.367V57.4691H143.264V51.5723Z" fill="black"/>
<path d="M154.527 57.4692V53.5773C154.527 52.4701 155.425 51.5724 156.532 51.5724H158.419C159.527 51.5724 160.424 52.4701 160.424 53.5773V57.4692H154.527Z" fill="black"/>
<path d="M171.863 51.5723V55.4642C171.863 56.5714 170.966 57.4691 169.858 57.4691H167.971C166.864 57.4691 165.966 56.5714 165.966 55.4642V51.5723H171.863Z" fill="black"/>
<path d="M183.305 51.5723H177.408V57.4691H183.305V51.5723Z" fill="black"/>
<path d="M188.848 53.2588V55.7885C188.848 56.7202 189.602 57.4691 190.534 57.4691H193.064C194.001 57.4691 194.75 56.7143 194.75 55.7826V53.2588C194.744 52.3212 193.99 51.5723 193.058 51.5723H190.534C189.602 51.5723 188.848 52.3271 188.848 53.2588Z" fill="black"/>
<path d="M5.98633 63.189H2.09444C0.987153 63.189 0.0895224 62.2913 0.0895224 61.1841L0.0895224 59.2971C0.0895224 58.1898 0.987153 57.2922 2.09444 57.2922H5.98633L5.98633 63.189Z" fill="black"/>
<path d="M11.7074 57.2925H5.81055V63.1893H11.7074V57.2925Z" fill="black"/>
<path d="M34.4102 58.979V61.5087C34.4102 62.4404 35.1649 63.1893 36.0966 63.1893H38.6264C39.564 63.1893 40.3129 62.4345 40.3129 61.5028V58.979C40.307 58.0414 39.5522 57.2925 38.6205 57.2925H36.0966C35.1649 57.2925 34.4102 58.0473 34.4102 58.979Z" fill="black"/>
<path d="M51.7461 63.189H47.8542C46.7469 63.189 45.8493 62.2913 45.8493 61.1841V59.2971C45.8493 58.1898 46.7469 57.2922 47.8542 57.2922H51.7461V63.189Z" fill="black"/>
<path d="M51.5703 63.1895V59.2976C51.5703 58.1903 52.4679 57.2926 53.5752 57.2926H55.4622C56.5695 57.2926 57.4671 58.1903 57.4671 59.2976V63.1895H51.5703Z" fill="black"/>
<path d="M74.625 63.189H70.7331C69.6258 63.189 68.7282 62.2913 68.7282 61.1841V59.2971C68.7282 58.1898 69.6258 57.2922 70.7331 57.2922H74.625V63.189Z" fill="black"/>
<path d="M74.4492 63.1895V59.2976C74.4492 58.1903 75.3468 57.2926 76.4541 57.2926H78.3411C79.4484 57.2926 80.346 58.1903 80.346 59.2976V63.1895H74.4492Z" fill="black"/>
<path d="M95.707 63.0712V63.1892H97.5056V61.3906H97.3876C97.3876 62.3223 96.6328 63.0712 95.707 63.0712Z" fill="black"/>
<path d="M103.225 57.2925H97.3281V63.1893H103.225V57.2925Z" fill="black"/>
<path d="M108.946 57.2925H103.049V63.1893H108.946V57.2925Z" fill="black"/>
<path d="M108.768 63.1895V57.2926H112.659C113.767 57.2926 114.664 58.1903 114.664 59.2976V63.1895H108.768Z" fill="black"/>
<path d="M118.586 63.0712V63.1892H120.384V61.3906H120.267C120.267 62.3223 119.512 63.0712 118.586 63.0712Z" fill="black"/>
<path d="M120.209 63.1895V59.2976C120.209 58.1903 121.107 57.2926 122.214 57.2926H124.101C125.208 57.2926 126.106 58.1903 126.106 59.2976V63.1895H120.209Z" fill="black"/>
<path d="M137.545 63.1895H133.653C132.546 63.1895 131.648 62.2918 131.648 61.1845V59.2976C131.648 58.1903 132.546 57.2926 133.653 57.2926H137.545V63.1895Z" fill="black"/>
<path d="M143.264 57.2925H137.367V63.1893H143.264V57.2925Z" fill="black"/>
<path d="M160.424 57.2925V63.1893H156.532C155.425 63.1893 154.527 62.2917 154.527 61.1844V57.2925H160.424Z" fill="black"/>
<path d="M160.248 63.1895V57.2926H164.14C165.247 57.2926 166.145 58.1903 166.145 59.2976V63.1895H160.248Z" fill="black"/>
<path d="M170.066 63.0712V63.1892H171.865V61.3906H171.747C171.747 62.3223 170.992 63.0712 170.066 63.0712Z" fill="black"/>
<path d="M177.584 63.1895H171.687V59.2976C171.687 58.1903 172.585 57.2926 173.692 57.2926H177.584V63.1895Z" fill="black"/>
<path d="M183.305 57.2925H177.408V63.1893H183.305V57.2925Z" fill="black"/>
<path d="M183.127 63.1895V59.2976C183.127 58.1903 184.025 57.2926 185.132 57.2926H187.019C188.126 57.2926 189.024 58.1903 189.024 59.2976V63.1895H183.127Z" fill="black"/>
<path d="M200.465 63.1895H196.573C195.466 63.1895 194.568 62.2918 194.568 61.1845V59.2976C194.568 58.1903 195.466 57.2926 196.573 57.2926H200.465V63.1895Z" fill="black"/>
<path d="M206.184 57.2925H200.287V63.1893H206.184V57.2925Z" fill="black"/>
<path d="M206.006 63.1895V59.2976C206.006 58.1903 206.903 57.2926 208.011 57.2926H209.898C211.005 57.2926 211.903 58.1903 211.903 59.2976V63.1895H206.006Z" fill="black"/>
<path d="M11.7074 63.0122H5.81055V68.909H11.7074V63.0122Z" fill="black"/>
<path d="M17.25 64.6987V67.2284C17.25 68.1601 18.0048 68.909 18.9365 68.909H21.4662C22.4038 68.909 23.1527 68.1542 23.1527 67.2225V64.6987C23.1468 63.7611 22.392 63.0122 21.4603 63.0122H18.9365C18.0048 63.0122 17.25 63.767 17.25 64.6987Z" fill="black"/>
<path d="M40.1289 64.6987V67.2284C40.1289 68.1601 40.8837 68.909 41.8154 68.909H44.3451C45.2827 68.909 46.0316 68.1542 46.0316 67.2225V64.6987C46.0257 63.7611 45.2709 63.0122 44.3392 63.0122H41.8154C40.8837 63.0122 40.1289 63.767 40.1289 64.6987Z" fill="black"/>
<path d="M61.3867 68.7909V68.9089H63.1852V67.1104H63.0673C63.0673 68.042 62.3125 68.7909 61.3867 68.7909Z" fill="black"/>
<path d="M63.0098 68.9092V65.0173C63.0098 63.91 63.9074 63.0124 65.0147 63.0124H66.9017C68.0089 63.0124 68.9066 63.91 68.9066 65.0173V68.9092H63.0098Z" fill="black"/>
<path d="M91.7852 68.9087H85.8884V65.0168C85.8884 63.9095 86.786 63.0119 87.8933 63.0119H91.7852V68.9087Z" fill="black"/>
<path d="M97.5062 63.0122H91.6094V68.909H97.5062V63.0122Z" fill="black"/>
<path d="M103.225 63.0122H97.3281V68.909H103.225V63.0122Z" fill="black"/>
<path d="M108.946 63.0122H103.049V68.909H108.946V63.0122Z" fill="black"/>
<path d="M114.664 63.0122H108.768V68.909H114.664V63.0122Z" fill="black"/>
<path d="M120.385 63.0122H114.488V68.909H120.385V63.0122Z" fill="black"/>
<path d="M126.106 63.0122H120.209V68.909H126.106V63.0122Z" fill="black"/>
<path d="M143.266 63.0122V66.9041C143.266 68.0114 142.368 68.909 141.261 68.909H139.374C138.266 68.909 137.369 68.0114 137.369 66.9041V63.0122H143.266Z" fill="black"/>
<path d="M148.809 64.6987V67.2284C148.809 68.1601 149.563 68.909 150.495 68.909H153.025C153.962 68.909 154.711 68.1542 154.711 67.2225V64.6987C154.705 63.7611 153.951 63.0122 153.019 63.0122H150.495C149.563 63.0122 148.809 63.767 148.809 64.6987Z" fill="black"/>
<path d="M166.145 63.0122V68.909H162.253C161.145 68.909 160.248 68.0114 160.248 66.9041V63.0122H166.145Z" fill="black"/>
<path d="M171.864 63.0122H165.967V68.909H171.864V63.0122Z" fill="black"/>
<path d="M177.584 63.0122H171.688V68.909H177.584V63.0122Z" fill="black"/>
<path d="M11.707 68.7319V72.6238C11.707 73.7311 10.8094 74.6287 9.70212 74.6287H7.81514C6.70786 74.6287 5.81023 73.7311 5.81023 72.6238V68.7319H11.707Z" fill="black"/>
<path d="M34.5859 74.6289H30.694C29.5868 74.6289 28.6891 73.7313 28.6891 72.624V70.737C28.6891 69.6297 29.5868 68.7321 30.694 68.7321H34.5859V74.6289Z" fill="black"/>
<path d="M34.4102 74.6289V70.737C34.4102 69.6297 35.3078 68.7321 36.4151 68.7321H38.302C39.4093 68.7321 40.307 69.6297 40.307 70.737V74.6289H34.4102Z" fill="black"/>
<path d="M51.7461 74.6289H47.8542C46.7469 74.6289 45.8493 73.7313 45.8493 72.624V70.737C45.8493 69.6297 46.7469 68.7321 47.8542 68.7321H51.7461V74.6289Z" fill="black"/>
<path d="M57.4671 68.7319H51.5703V74.6287H57.4671V68.7319Z" fill="black"/>
<path d="M63.1859 68.7319H57.2891V74.6287H63.1859V68.7319Z" fill="black"/>
<path d="M68.9066 68.7319H63.0098V74.6287H68.9066V68.7319Z" fill="black"/>
<path d="M74.6253 68.7319H68.7285V74.6287H74.6253V68.7319Z" fill="black"/>
<path d="M74.4492 74.6289V68.7321H78.3411C79.4484 68.7321 80.346 69.6297 80.346 70.737V74.6289H74.4492Z" fill="black"/>
<path d="M91.7855 68.7319H85.8887V74.6287H91.7855V68.7319Z" fill="black"/>
<path d="M103.225 68.7319V74.6287H99.3327C98.2254 74.6287 97.3278 73.7311 97.3278 72.6238V68.7319H103.225Z" fill="black"/>
<path d="M108.946 68.7319H103.049V74.6287H108.946V68.7319Z" fill="black"/>
<path d="M108.768 68.7319H114.664V72.6238C114.664 73.7311 113.767 74.6287 112.659 74.6287H108.768V68.7319Z" fill="black"/>
<path d="M126.106 68.7319H120.209V74.6287H126.106V68.7319Z" fill="black"/>
<path d="M131.648 70.4184V72.9481C131.648 73.8798 132.403 74.6287 133.335 74.6287H135.865C136.802 74.6287 137.551 73.8739 137.551 72.9423V70.4184C137.545 69.4808 136.79 68.7319 135.859 68.7319H133.335C132.403 68.7319 131.648 69.4867 131.648 70.4184Z" fill="black"/>
<path d="M143.088 70.4184V72.9481C143.088 73.8798 143.843 74.6287 144.774 74.6287H147.304C148.242 74.6287 148.991 73.8739 148.991 72.9423V70.4184C148.985 69.4808 148.23 68.7319 147.298 68.7319H144.774C143.843 68.7319 143.088 69.4867 143.088 70.4184Z" fill="black"/>
<path d="M154.527 70.4184V72.9481C154.527 73.8798 155.282 74.6287 156.214 74.6287H158.744C159.681 74.6287 160.43 73.8739 160.43 72.9423V70.4184C160.424 69.4808 159.669 68.7319 158.738 68.7319H156.214C155.282 68.7319 154.527 69.4867 154.527 70.4184Z" fill="black"/>
<path d="M171.863 68.7319V74.6287H167.971C166.864 74.6287 165.966 73.7311 165.966 72.6238V68.7319H171.863Z" fill="black"/>
<path d="M177.584 68.7319H171.688V74.6287H177.584V68.7319Z" fill="black"/>
<path d="M183.305 68.7319H177.408V74.6287H183.305V68.7319Z" fill="black"/>
<path d="M183.127 74.6289V70.737C183.127 69.6297 184.025 68.7321 185.132 68.7321H187.019C188.126 68.7321 189.024 69.6297 189.024 70.737V74.6289H183.127Z" fill="black"/>
<path d="M194.566 70.4184V72.9481C194.566 73.8798 195.321 74.6287 196.253 74.6287H198.783C199.72 74.6287 200.469 73.8739 200.469 72.9423V70.4184C200.463 69.4808 199.708 68.7319 198.777 68.7319H196.253C195.321 68.7319 194.566 69.4867 194.566 70.4184Z" fill="black"/>
<path d="M0.0898438 76.1386V78.6684C0.0898438 79.6001 0.844635 80.349 1.77633 80.349H4.30606C5.24365 80.349 5.99255 79.5942 5.99255 78.6625V76.1386C5.98665 75.201 5.23186 74.4521 4.30016 74.4521H1.77633C0.844635 74.4521 0.0898438 75.2069 0.0898438 76.1386Z" fill="black"/>
<path d="M17.4277 80.3486H13.5358C12.4286 80.3486 11.5309 79.451 11.5309 78.3437V76.4567C11.5309 75.3495 12.4286 74.4518 13.5358 74.4518H17.4277V80.3486Z" fill="black"/>
<path d="M17.25 80.3491V74.4523H21.1419C22.2492 74.4523 23.1468 75.3499 23.1468 76.4572V80.3491H17.25Z" fill="black"/>
<path d="M40.1289 76.1386V78.6684C40.1289 79.6001 40.8837 80.349 41.8154 80.349H44.3451C45.2827 80.349 46.0316 79.5942 46.0316 78.6625V76.1386C46.0257 75.201 45.2709 74.4521 44.3392 74.4521H41.8154C40.8837 74.4521 40.1289 75.2069 40.1289 76.1386Z" fill="black"/>
<path d="M74.625 74.4521V80.349H70.7331C69.6258 80.349 68.7282 79.4513 68.7282 78.344V74.4521H74.625Z" fill="black"/>
<path d="M80.346 74.4521H74.4492V80.349H80.346V74.4521Z" fill="black"/>
<path d="M84.2676 80.2309V80.3488H86.0661V78.5503H85.9482C85.9482 79.482 85.1934 80.2309 84.2676 80.2309Z" fill="black"/>
<path d="M91.7855 74.4521H85.8887V80.349H91.7855V74.4521Z" fill="black"/>
<path d="M108.946 74.4521H103.049V80.349H108.946V74.4521Z" fill="black"/>
<path d="M120.385 80.3486H116.493C115.386 80.3486 114.488 79.451 114.488 78.3437V76.4567C114.488 75.3495 115.386 74.4518 116.493 74.4518H120.385V80.3486Z" fill="black"/>
<path d="M126.106 74.4521H120.209V80.349H126.106V74.4521Z" fill="black"/>
<path d="M147.186 80.2309V80.3488H148.984V78.5503H148.866C148.866 79.482 148.111 80.2309 147.186 80.2309Z" fill="black"/>
<path d="M148.809 80.3491V76.4572C148.809 75.3499 149.706 74.4523 150.814 74.4523H152.7C153.808 74.4523 154.705 75.3499 154.705 76.4572V80.3491H148.809Z" fill="black"/>
<path d="M160.248 76.1386V78.6684C160.248 79.6001 161.003 80.349 161.935 80.349H164.464C165.402 80.349 166.151 79.5942 166.151 78.6625V76.1386C166.145 75.201 165.39 74.4521 164.458 74.4521H161.935C161.003 74.4521 160.248 75.2069 160.248 76.1386Z" fill="black"/>
<path d="M183.303 74.4521V78.344C183.303 79.4513 182.405 80.349 181.298 80.349H179.411C178.304 80.349 177.406 79.4513 177.406 78.344V74.4521H183.303Z" fill="black"/>
<path d="M188.848 80.3491V76.4572C188.848 75.3499 189.745 74.4523 190.853 74.4523H192.74C193.847 74.4523 194.744 75.3499 194.744 76.4572V80.3491H188.848Z" fill="black"/>
<path d="M198.666 80.2309V80.3488H200.465V78.5503H200.347C200.347 79.482 199.592 80.2309 198.666 80.2309Z" fill="black"/>
<path d="M200.287 80.3491V76.4572C200.287 75.3499 201.185 74.4523 202.292 74.4523H204.179C205.286 74.4523 206.184 75.3499 206.184 76.4572V80.3491H200.287Z" fill="black"/>
<path d="M23.1465 80.1719V86.0687H19.2546C18.1473 86.0687 17.2497 85.1711 17.2497 84.0638V80.1719H23.1465Z" fill="black"/>
<path d="M22.9707 86.0688V80.172H26.8626C27.9699 80.172 28.8675 81.0697 28.8675 82.177V86.0688H22.9707Z" fill="black"/>
<path d="M34.4102 81.8584V84.3881C34.4102 85.3198 35.1649 86.0687 36.0966 86.0687H38.6264C39.564 86.0687 40.3129 85.3139 40.3129 84.3822V81.8584C40.307 80.9208 39.5522 80.1719 38.6205 80.1719H36.0966C35.1649 80.1719 34.4102 80.9267 34.4102 81.8584Z" fill="black"/>
<path d="M57.2891 86.0688V82.177C57.2891 81.0697 58.1867 80.172 59.294 80.172H61.181C62.2882 80.172 63.1859 81.0697 63.1859 82.177V86.0688H57.2891Z" fill="black"/>
<path d="M80.346 80.1719H74.4492V86.0687H80.346V80.1719Z" fill="black"/>
<path d="M86.0667 80.1719H80.1699V86.0687H86.0667V80.1719Z" fill="black"/>
<path d="M91.7855 80.1719H85.8887V86.0687H91.7855V80.1719Z" fill="black"/>
<path d="M91.6094 86.0688V80.172H95.5013C96.6086 80.172 97.5062 81.0697 97.5062 82.177V86.0688H91.6094Z" fill="black"/>
<path d="M108.946 80.1719H103.049V86.0687H108.946V80.1719Z" fill="black"/>
<path d="M126.106 80.1719H120.209V86.0687H126.106V80.1719Z" fill="black"/>
<path d="M125.928 86.0688V82.177C125.928 81.0697 126.825 80.172 127.933 80.172H129.82C130.927 80.172 131.825 81.0697 131.825 82.177V86.0688H125.928Z" fill="black"/>
<path d="M148.984 86.0688H145.092C143.985 86.0688 143.088 85.1712 143.088 84.0639V82.177C143.088 81.0697 143.985 80.172 145.092 80.172H148.984V86.0688Z" fill="black"/>
<path d="M154.705 80.1719H148.809V86.0687H154.705V80.1719Z" fill="black"/>
<path d="M154.527 86.0688V80.172H158.419C159.527 80.172 160.424 81.0697 160.424 82.177V86.0688H154.527Z" fill="black"/>
<path d="M171.865 86.0688H165.968V82.177C165.968 81.0697 166.866 80.172 167.973 80.172H171.865V86.0688Z" fill="black"/>
<path d="M171.688 86.0688V80.172H175.579C176.687 80.172 177.584 81.0697 177.584 82.177V86.0688H171.688Z" fill="black"/>
<path d="M194.744 80.1719V86.0687H190.852C189.745 86.0687 188.847 85.1711 188.847 84.0638V80.1719H194.744Z" fill="black"/>
<path d="M200.463 80.1719H194.566V86.0687H200.463V80.1719Z" fill="black"/>
<path d="M206.184 80.1719H200.287V86.0687H206.184V80.1719Z" fill="black"/>
<path d="M206.006 86.0688V82.177C206.006 81.0697 206.903 80.172 208.011 80.172H209.898C211.005 80.172 211.903 81.0697 211.903 82.177V86.0688H206.006Z" fill="black"/>
<path d="M5.98633 91.7886H2.09444C0.987153 91.7886 0.0895224 90.8909 0.0895224 89.7837L0.0895224 87.8967C0.0895224 86.7894 0.987153 85.8918 2.09444 85.8918H5.98633L5.98633 91.7886Z" fill="black"/>
<path d="M11.7074 85.8916H5.81055V91.7884H11.7074V85.8916Z" fill="black"/>
<path d="M11.5293 91.7886V85.8918H15.4212C16.5285 85.8918 17.4261 86.7894 17.4261 87.8967V91.7886H11.5293Z" fill="black"/>
<path d="M28.8672 85.8916V91.7884H24.9753C23.868 91.7884 22.9704 90.8908 22.9704 89.7835V85.8916H28.8672Z" fill="black"/>
<path d="M28.6895 91.7886V87.8967C28.6895 86.7894 29.5871 85.8918 30.6944 85.8918H32.5813C33.6886 85.8918 34.5863 86.7894 34.5863 87.8967V91.7886H28.6895Z" fill="black"/>
<path d="M45.8496 91.7886V87.8967C45.8496 86.7894 46.7472 85.8918 47.8545 85.8918H49.7415C50.8488 85.8918 51.7464 86.7894 51.7464 87.8967V91.7886H45.8496Z" fill="black"/>
<path d="M63.1859 85.8916H57.2891V91.7884H63.1859V85.8916Z" fill="black"/>
<path d="M80.3457 85.8916V91.7884H76.4538C75.3465 91.7884 74.4489 90.8908 74.4489 89.7835V85.8916H80.3457Z" fill="black"/>
<path d="M86.0667 85.8916H80.1699V91.7884H86.0667V85.8916Z" fill="black"/>
<path d="M126.106 85.8916H120.209V91.7884H126.106V85.8916Z" fill="black"/>
<path d="M154.705 85.8916H148.809V91.7884H154.705V85.8916Z" fill="black"/>
<path d="M160.424 85.8916H154.527V91.7884H160.424V85.8916Z" fill="black"/>
<path d="M171.863 85.8916V91.7884H167.971C166.864 91.7884 165.966 90.8908 165.966 89.7835V85.8916H171.863Z" fill="black"/>
<path d="M177.584 85.8916H171.688V91.7884H177.584V85.8916Z" fill="black"/>
<path d="M177.408 91.7886V87.8967C177.408 86.7894 178.306 85.8918 179.413 85.8918H181.3C182.407 85.8918 183.305 86.7894 183.305 87.8967V91.7886H177.408Z" fill="black"/>
<path d="M206.184 85.8916H200.287V91.7884H206.184V85.8916Z" fill="black"/>
<path d="M17.4261 91.6118H11.5293V97.5086H17.4261V91.6118Z" fill="black"/>
<path d="M34.4102 93.2983V95.828C34.4102 96.7597 35.1649 97.5086 36.0966 97.5086H38.6264C39.564 97.5086 40.3129 96.7538 40.3129 95.8221V93.2983C40.307 92.3607 39.5522 91.6118 38.6205 91.6118H36.0966C35.1649 91.6118 34.4102 92.3666 34.4102 93.2983Z" fill="black"/>
<path d="M44.2285 97.3906V97.5085H46.027V95.71H45.9091C45.9091 96.6417 45.1543 97.3906 44.2285 97.3906Z" fill="black"/>
<path d="M51.7464 91.6118H45.8496V97.5086H51.7464V91.6118Z" fill="black"/>
<path d="M55.668 97.3906V97.5085H57.4665V95.71H57.3486C57.3486 96.6417 56.5938 97.3906 55.668 97.3906Z" fill="black"/>
<path d="M63.1859 91.6118H57.2891V97.5086H63.1859V91.6118Z" fill="black"/>
<path d="M68.9066 91.6118H63.0098V97.5086H68.9066V91.6118Z" fill="black"/>
<path d="M68.7285 97.5088V91.612H72.6204C73.7277 91.612 74.6253 92.5096 74.6253 93.6169V97.5088H68.7285Z" fill="black"/>
<path d="M86.0667 91.6118H80.1699V97.5086H86.0667V91.6118Z" fill="black"/>
<path d="M131.825 91.6118H125.928V97.5086H131.825V91.6118Z" fill="black"/>
<path d="M131.648 97.5088V91.612H135.54C136.648 91.612 137.545 92.5096 137.545 93.6169V97.5088H131.648Z" fill="black"/>
<path d="M148.984 97.5088H145.092C143.985 97.5088 143.088 96.6112 143.088 95.5039V93.6169C143.088 92.5096 143.985 91.612 145.092 91.612H148.984V97.5088Z" fill="black"/>
<path d="M154.705 91.6118H148.809V97.5086H154.705V91.6118Z" fill="black"/>
<path d="M154.527 91.6118H160.424V95.5037C160.424 96.611 159.527 97.5086 158.419 97.5086H154.527V91.6118Z" fill="black"/>
<path d="M177.584 91.6118V95.5037C177.584 96.611 176.686 97.5086 175.579 97.5086H173.692C172.585 97.5086 171.687 96.611 171.687 95.5037V91.6118H177.584Z" fill="black"/>
<path d="M189.023 97.5088H185.132C184.024 97.5088 183.127 96.6112 183.127 95.5039V93.6169C183.127 92.5096 184.024 91.612 185.132 91.612H189.023V97.5088Z" fill="black"/>
<path d="M194.744 91.6118H188.848V97.5086H194.744V91.6118Z" fill="black"/>
<path d="M200.463 91.6118H194.566V97.5086H200.463V91.6118Z" fill="black"/>
<path d="M206.184 91.6118H200.287V97.5086H206.184V91.6118Z" fill="black"/>
<path d="M206.006 97.5088V93.6169C206.006 92.5096 206.903 91.612 208.011 91.612H209.898C211.005 91.612 211.903 92.5096 211.903 93.6169V97.5088H206.006Z" fill="black"/>
<path d="M17.4258 97.3315V103.228H13.5339C12.4266 103.228 11.529 102.331 11.529 101.223V97.3315H17.4258Z" fill="black"/>
<path d="M17.25 103.229V99.3366C17.25 98.2293 18.1476 97.3317 19.2549 97.3317H21.1419C22.2492 97.3317 23.1468 98.2293 23.1468 99.3366V103.229H17.25Z" fill="black"/>
<path d="M28.6895 99.018V101.548C28.6895 102.479 29.4442 103.228 30.3759 103.228H32.9057C33.8433 103.228 34.5922 102.474 34.5922 101.542V99.018C34.5863 98.0804 33.8315 97.3315 32.8998 97.3315H30.3759C29.4442 97.3315 28.6895 98.0863 28.6895 99.018Z" fill="black"/>
<path d="M38.5078 103.11V103.228H40.3063V101.43H40.1884C40.1884 102.361 39.4336 103.11 38.5078 103.11Z" fill="black"/>
<path d="M46.0254 103.229H40.1286V99.3366C40.1286 98.2293 41.0262 97.3317 42.1335 97.3317H46.0254V103.229Z" fill="black"/>
<path d="M51.7464 97.3315H45.8496V103.228H51.7464V97.3315Z" fill="black"/>
<path d="M57.4671 97.3315H51.5703V103.228H57.4671V97.3315Z" fill="black"/>
<path d="M63.1859 97.3315H57.2891V103.228H63.1859V97.3315Z" fill="black"/>
<path d="M74.6253 97.3315H68.7285V103.228H74.6253V97.3315Z" fill="black"/>
<path d="M78.5469 103.11V103.228H80.3454V101.43H80.2275C80.2275 102.361 79.4727 103.11 78.5469 103.11Z" fill="black"/>
<path d="M86.0667 97.3315H80.1699V103.228H86.0667V97.3315Z" fill="black"/>
<path d="M137.545 97.3315V103.228H133.653C132.546 103.228 131.648 102.331 131.648 101.223V97.3315H137.545Z" fill="black"/>
<path d="M137.367 103.229V97.3317H141.259C142.366 97.3317 143.264 98.2293 143.264 99.3366V103.229H137.367Z" fill="black"/>
<path d="M154.705 97.3315V101.223C154.705 102.331 153.807 103.228 152.7 103.228H150.813C149.706 103.228 148.808 102.331 148.808 101.223V97.3315H154.705Z" fill="black"/>
<path d="M166.145 103.229H162.253C161.145 103.229 160.248 102.331 160.248 101.224V99.3366C160.248 98.2293 161.145 97.3317 162.253 97.3317H166.145V103.229Z" fill="black"/>
<path d="M165.967 103.229V99.3366C165.967 98.2293 166.864 97.3317 167.972 97.3317H169.859C170.966 97.3317 171.864 98.2293 171.864 99.3366V103.229H165.967Z" fill="black"/>
<path d="M177.408 99.018V101.548C177.408 102.479 178.163 103.228 179.095 103.228H181.624C182.562 103.228 183.311 102.474 183.311 101.542V99.018C183.305 98.0804 182.55 97.3315 181.619 97.3315H179.095C178.163 97.3315 177.408 98.0863 177.408 99.018Z" fill="black"/>
<path d="M194.744 97.3315V101.223C194.744 102.331 193.847 103.228 192.739 103.228H190.852C189.745 103.228 188.847 102.331 188.847 101.223V97.3315H194.744Z" fill="black"/>
<path d="M5.98633 108.948H2.09444C0.987153 108.948 0.0895224 108.051 0.0895224 106.943L0.0895224 105.056C0.0895224 103.949 0.987153 103.051 2.09444 103.051H5.98633L5.98633 108.948Z" fill="black"/>
<path d="M5.81055 108.948V103.051H9.70244C10.8097 103.051 11.7074 103.949 11.7074 105.056V108.948H5.81055Z" fill="black"/>
<path d="M40.3066 108.948H36.4147C35.3075 108.948 34.4098 108.051 34.4098 106.943V105.056C34.4098 103.949 35.3075 103.051 36.4147 103.051H40.3066V108.948Z" fill="black"/>
<path d="M46.0257 103.051H40.1289V108.948H46.0257V103.051Z" fill="black"/>
<path d="M51.7464 103.051H45.8496V108.948H51.7464V103.051Z" fill="black"/>
<path d="M57.4671 103.051H51.5703V108.948H57.4671V103.051Z" fill="black"/>
<path d="M63.1859 103.051H57.2891V108.948H63.1859V103.051Z" fill="black"/>
<path d="M68.9066 103.051H63.0098V108.948H68.9066V103.051Z" fill="black"/>
<path d="M74.6253 103.051H68.7285V108.948H74.6253V103.051Z" fill="black"/>
<path d="M80.346 103.051H74.4492V108.948H80.346V103.051Z" fill="black"/>
<path d="M143.266 103.051V108.948H139.374C138.266 108.948 137.369 108.05 137.369 106.943V103.051H143.266Z" fill="black"/>
<path d="M143.088 108.948V105.056C143.088 103.949 143.986 103.051 145.093 103.051H146.98C148.087 103.051 148.985 103.949 148.985 105.056V108.948H143.088Z" fill="black"/>
<path d="M154.527 104.738V107.267C154.527 108.199 155.282 108.948 156.214 108.948H158.744C159.681 108.948 160.43 108.193 160.43 107.262V104.738C160.424 103.8 159.669 103.051 158.738 103.051H156.214C155.282 103.051 154.527 103.806 154.527 104.738Z" fill="black"/>
<path d="M183.127 104.738V107.267C183.127 108.199 183.882 108.948 184.813 108.948H187.343C188.281 108.948 189.03 108.193 189.03 107.262V104.738C189.024 103.8 188.269 103.051 187.337 103.051H184.813C183.882 103.051 183.127 103.806 183.127 104.738Z" fill="black"/>
<path d="M200.465 108.949H196.573C195.466 108.949 194.568 108.051 194.568 106.944V105.057C194.568 103.95 195.466 103.052 196.573 103.052H200.465V108.949Z" fill="black"/>
<path d="M206.184 103.051H200.287V108.948H206.184V103.051Z" fill="black"/>
<path d="M206.006 108.948V103.051H209.898C211.005 103.051 211.903 103.949 211.903 105.056V108.948H206.006Z" fill="black"/>
<path d="M11.7074 108.771H5.81055V114.668H11.7074V108.771Z" fill="black"/>
<path d="M11.5293 114.668V110.777C11.5293 109.669 12.4269 108.772 13.5342 108.772H15.4212C16.5285 108.772 17.4261 109.669 17.4261 110.777V114.668H11.5293Z" fill="black"/>
<path d="M22.9707 114.668V110.777C22.9707 109.669 23.8683 108.772 24.9756 108.772H26.8626C27.9699 108.772 28.8675 109.669 28.8675 110.777V114.668H22.9707Z" fill="black"/>
<path d="M63.1855 108.771V114.668H59.2937C58.1864 114.668 57.2887 113.771 57.2887 112.663V108.771H63.1855Z" fill="black"/>
<path d="M63.0098 108.771H68.9066V112.663C68.9066 113.771 68.0089 114.668 66.9017 114.668H63.0098V108.771Z" fill="black"/>
<path d="M131.648 110.458V112.988C131.648 113.919 132.403 114.668 133.335 114.668H135.865C136.802 114.668 137.551 113.913 137.551 112.982V110.458C137.545 109.52 136.79 108.771 135.859 108.771H133.335C132.403 108.771 131.648 109.526 131.648 110.458Z" fill="black"/>
<path d="M160.248 110.458V112.988C160.248 113.919 161.003 114.668 161.935 114.668H164.464C165.402 114.668 166.151 113.913 166.151 112.982V110.458C166.145 109.52 165.39 108.771 164.458 108.771H161.935C161.003 108.771 160.248 109.526 160.248 110.458Z" fill="black"/>
<path d="M211.904 108.771V112.663C211.904 113.771 211.007 114.668 209.899 114.668H208.012C206.905 114.668 206.007 113.771 206.007 112.663V108.771H211.904Z" fill="black"/>
<path d="M5.98633 120.388H0.0895224L0.0895224 116.496C0.0895224 115.389 0.987153 114.491 2.09444 114.491H5.98633L5.98633 120.388Z" fill="black"/>
<path d="M11.7074 114.491H5.81055V120.388H11.7074V114.491Z" fill="black"/>
<path d="M28.8675 114.491H22.9707V120.388H28.8675V114.491Z" fill="black"/>
<path d="M40.3066 120.388H36.4147C35.3075 120.388 34.4098 119.491 34.4098 118.383V116.496C34.4098 115.389 35.3075 114.491 36.4147 114.491H40.3066V120.388Z" fill="black"/>
<path d="M40.1289 120.388V114.491H44.0208C45.1281 114.491 46.0257 115.389 46.0257 116.496V120.388H40.1289Z" fill="black"/>
<path d="M51.5703 116.178V118.707C51.5703 119.639 52.3251 120.388 53.2568 120.388H55.7865C56.7241 120.388 57.473 119.633 57.473 118.702V116.178C57.4671 115.24 56.7123 114.491 55.7806 114.491H53.2568C52.3251 114.491 51.5703 115.246 51.5703 116.178Z" fill="black"/>
<path d="M72.8281 120.27V120.388H74.6267V118.589H74.5087C74.5087 119.521 73.7539 120.27 72.8281 120.27Z" fill="black"/>
<path d="M80.3457 120.388H74.4489V116.496C74.4489 115.389 75.3465 114.491 76.4538 114.491H80.3457V120.388Z" fill="black"/>
<path d="M86.0667 114.491H80.1699V120.388H86.0667V114.491Z" fill="black"/>
<path d="M125.928 120.388V114.491H129.82C130.927 114.491 131.825 115.389 131.825 116.496V120.388H125.928Z" fill="black"/>
<path d="M143.264 120.388H139.372C138.264 120.388 137.367 119.491 137.367 118.383V116.496C137.367 115.389 138.264 114.491 139.372 114.491H143.264V120.388Z" fill="black"/>
<path d="M148.985 114.491H143.088V120.388H148.985V114.491Z" fill="black"/>
<path d="M154.705 114.491H148.809V120.388H154.705V114.491Z" fill="black"/>
<path d="M154.527 120.388V116.496C154.527 115.389 155.425 114.491 156.532 114.491H158.419C159.527 114.491 160.424 115.389 160.424 116.496V120.388H154.527Z" fill="black"/>
<path d="M171.865 120.388H167.973C166.866 120.388 165.968 119.491 165.968 118.383V116.496C165.968 115.389 166.866 114.491 167.973 114.491H171.865V120.388Z" fill="black"/>
<path d="M177.584 114.491H171.688V120.388H177.584V114.491Z" fill="black"/>
<path d="M183.305 114.491H177.408V120.388H183.305V114.491Z" fill="black"/>
<path d="M189.024 114.491H183.127V120.388H189.024V114.491Z" fill="black"/>
<path d="M194.744 114.491H188.848V120.388H194.744V114.491Z" fill="black"/>
<path d="M194.566 120.388V116.496C194.566 115.389 195.464 114.491 196.571 114.491H198.458C199.566 114.491 200.463 115.389 200.463 116.496V120.388H194.566Z" fill="black"/>
<path d="M5.98665 120.211H0.0898438V126.108H5.98665V120.211Z" fill="black"/>
<path d="M5.81055 120.211H11.7074V124.103C11.7074 125.211 10.8097 126.108 9.70244 126.108H5.81055V120.211Z" fill="black"/>
<path d="M21.3477 125.99V126.108H23.1462V124.31H23.0282C23.0282 125.241 22.2735 125.99 21.3477 125.99Z" fill="black"/>
<path d="M28.8675 120.211H22.9707V126.108H28.8675V120.211Z" fill="black"/>
<path d="M46.0257 120.211H40.1289V126.108H46.0257V120.211Z" fill="black"/>
<path d="M45.8496 126.108V122.217C45.8496 121.109 46.7472 120.212 47.8545 120.212H49.7415C50.8488 120.212 51.7464 121.109 51.7464 122.217V126.108H45.8496Z" fill="black"/>
<path d="M74.625 126.108H68.7282V122.216C68.7282 121.109 69.6258 120.211 70.7331 120.211H74.625V126.108Z" fill="black"/>
<path d="M80.346 120.211H74.4492V126.108H80.346V120.211Z" fill="black"/>
<path d="M86.0667 120.211H80.1699V126.108H86.0667V120.211Z" fill="black"/>
<path d="M85.8887 120.211H91.7855V124.103C91.7855 125.211 90.8878 126.108 89.7806 126.108H85.8887V120.211Z" fill="black"/>
<path d="M131.825 120.211H125.928V126.108H131.825V120.211Z" fill="black"/>
<path d="M154.705 120.211V124.103C154.705 125.211 153.807 126.108 152.7 126.108H150.813C149.706 126.108 148.808 125.211 148.808 124.103V120.211H154.705Z" fill="black"/>
<path d="M160.248 121.898V124.428C160.248 125.359 161.003 126.108 161.935 126.108H164.464C165.402 126.108 166.151 125.353 166.151 124.422V121.898C166.145 120.96 165.39 120.211 164.458 120.211H161.935C161.003 120.211 160.248 120.966 160.248 121.898Z" fill="black"/>
<path d="M183.305 120.211H177.408V126.108H183.305V120.211Z" fill="black"/>
<path d="M200.287 126.108V122.217C200.287 121.109 201.185 120.212 202.292 120.212H204.179C205.286 120.212 206.184 121.109 206.184 122.217V126.108H200.287Z" fill="black"/>
<path d="M5.98633 125.931V129.823C5.98633 130.93 5.0887 131.828 3.98141 131.828H2.09444C0.987153 131.828 0.0895224 130.93 0.0895224 129.823V125.931H5.98633Z" fill="black"/>
<path d="M23.1465 131.828H19.2546C18.1473 131.828 17.2497 130.93 17.2497 129.823V127.936C17.2497 126.828 18.1473 125.931 19.2546 125.931H23.1465V131.828Z" fill="black"/>
<path d="M28.8675 125.931H22.9707V131.828H28.8675V125.931Z" fill="black"/>
<path d="M40.3066 131.828H36.4147C35.3075 131.828 34.4098 130.93 34.4098 129.823V127.936C34.4098 126.828 35.3075 125.931 36.4147 125.931H40.3066V131.828Z" fill="black"/>
<path d="M46.0257 125.931H40.1289V131.828H46.0257V125.931Z" fill="black"/>
<path d="M51.5703 127.618V130.147C51.5703 131.079 52.3251 131.828 53.2568 131.828H55.7865C56.7241 131.828 57.473 131.073 57.473 130.141V127.618C57.4671 126.68 56.7123 125.931 55.7806 125.931H53.2568C52.3251 125.931 51.5703 126.686 51.5703 127.618Z" fill="black"/>
<path d="M74.625 125.931V129.823C74.625 130.93 73.7274 131.828 72.6201 131.828H70.7331C69.6258 131.828 68.7282 130.93 68.7282 129.823V125.931H74.625Z" fill="black"/>
<path d="M120.385 125.931H114.488V131.828H120.385V125.931Z" fill="black"/>
<path d="M126.106 125.931H120.209V131.828H126.106V125.931Z" fill="black"/>
<path d="M131.825 125.931H125.928V131.828H131.825V125.931Z" fill="black"/>
<path d="M131.648 131.828V125.931H135.54C136.648 125.931 137.545 126.829 137.545 127.936V131.828H131.648Z" fill="black"/>
<path d="M152.906 131.71V131.828H154.705V130.029H154.587C154.587 130.961 153.832 131.71 152.906 131.71Z" fill="black"/>
<path d="M154.527 131.828V127.936C154.527 126.829 155.425 125.931 156.532 125.931H158.419C159.527 125.931 160.424 126.829 160.424 127.936V131.828H154.527Z" fill="black"/>
<path d="M177.584 131.828H173.692C172.585 131.828 171.687 130.93 171.687 129.823V127.936C171.687 126.829 172.585 125.931 173.692 125.931H177.584V131.828Z" fill="black"/>
<path d="M177.408 125.931H183.305V129.823C183.305 130.93 182.407 131.828 181.3 131.828H177.408V125.931Z" fill="black"/>
<path d="M206.184 125.931H200.287V131.828H206.184V125.931Z" fill="black"/>
<path d="M206.006 131.828V127.936C206.006 126.829 206.903 125.931 208.011 125.931H209.898C211.005 125.931 211.903 126.829 211.903 127.936V131.828H206.006Z" fill="black"/>
<path d="M11.5293 133.337V135.867C11.5293 136.799 12.2841 137.548 13.2158 137.548H15.7455C16.6831 137.548 17.432 136.793 17.432 135.861V133.337C17.4261 132.4 16.6713 131.651 15.7396 131.651H13.2158C12.2841 131.651 11.5293 132.406 11.5293 133.337Z" fill="black"/>
<path d="M28.8672 131.651V137.548H24.9753C23.868 137.548 22.9704 136.65 22.9704 135.543V131.651H28.8672Z" fill="black"/>
<path d="M28.6895 137.548V133.656C28.6895 132.549 29.5871 131.651 30.6944 131.651H32.5813C33.6886 131.651 34.5863 132.549 34.5863 133.656V137.548H28.6895Z" fill="black"/>
<path d="M46.0257 131.651H40.1289V137.548H46.0257V131.651Z" fill="black"/>
<path d="M45.8496 137.548V131.651H49.7415C50.8488 131.651 51.7464 132.549 51.7464 133.656V137.548H45.8496Z" fill="black"/>
<path d="M74.4492 137.548V133.656C74.4492 132.549 75.3468 131.651 76.4541 131.651H78.3411C79.4484 131.651 80.346 132.549 80.346 133.656V137.548H74.4492Z" fill="black"/>
<path d="M84.2676 137.43V137.548H86.0661V135.75H85.9482C85.9482 136.681 85.1934 137.43 84.2676 137.43Z" fill="black"/>
<path d="M91.7852 137.548H85.8884V133.656C85.8884 132.549 86.786 131.651 87.8933 131.651H91.7852V137.548Z" fill="black"/>
<path d="M97.5062 131.651H91.6094V137.548H97.5062V131.651Z" fill="black"/>
<path d="M103.225 131.651H97.3281V137.548H103.225V131.651Z" fill="black"/>
<path d="M108.946 131.651H103.049V137.548H108.946V131.651Z" fill="black"/>
<path d="M114.664 131.651H108.768V137.548H114.664V131.651Z" fill="black"/>
<path d="M126.105 131.651V135.543C126.105 136.65 125.208 137.548 124.101 137.548H122.214C121.106 137.548 120.209 136.65 120.209 135.543V131.651H126.105Z" fill="black"/>
<path d="M137.545 131.651H131.648V137.548H137.545V131.651Z" fill="black"/>
<path d="M154.703 137.548H150.811C149.704 137.548 148.806 136.65 148.806 135.543V133.656C148.806 132.549 149.704 131.651 150.811 131.651H154.703V137.548Z" fill="black"/>
<path d="M160.424 131.651H154.527V137.548H160.424V131.651Z" fill="black"/>
<path d="M166.145 131.651H160.248V137.548H166.145V131.651Z" fill="black"/>
<path d="M165.967 137.548V131.651H169.859C170.966 131.651 171.864 132.549 171.864 133.656V137.548H165.967Z" fill="black"/>
<path d="M198.666 137.43V137.548H200.465V135.75H200.347C200.347 136.681 199.592 137.43 198.666 137.43Z" fill="black"/>
<path d="M206.184 131.651H200.287V137.548H206.184V131.651Z" fill="black"/>
<path d="M40.3066 143.268H36.4147C35.3075 143.268 34.4098 142.37 34.4098 141.263V139.376C34.4098 138.268 35.3075 137.371 36.4147 137.371H40.3066V143.268Z" fill="black"/>
<path d="M46.0257 137.371H40.1289V143.268H46.0257V137.371Z" fill="black"/>
<path d="M45.8496 137.371H51.7464V141.263C51.7464 142.37 50.8488 143.268 49.7415 143.268H45.8496V137.371Z" fill="black"/>
<path d="M57.2891 143.268V139.376C57.2891 138.269 58.1867 137.371 59.294 137.371H61.181C62.2882 137.371 63.1859 138.269 63.1859 139.376V143.268H57.2891Z" fill="black"/>
<path d="M72.8281 143.15V143.268H74.6267V141.469H74.5087C74.5087 142.401 73.7539 143.15 72.8281 143.15Z" fill="black"/>
<path d="M80.346 137.371H74.4492V143.268H80.346V137.371Z" fill="black"/>
<path d="M86.0667 137.371H80.1699V143.268H86.0667V137.371Z" fill="black"/>
<path d="M91.7855 137.371H85.8887V143.268H91.7855V137.371Z" fill="black"/>
<path d="M97.5062 137.371H91.6094V143.268H97.5062V137.371Z" fill="black"/>
<path d="M114.664 137.371V143.268H110.772C109.665 143.268 108.767 142.37 108.767 141.263V137.371H114.664Z" fill="black"/>
<path d="M114.488 143.268V137.371H118.38C119.487 137.371 120.385 138.269 120.385 139.376V143.268H114.488Z" fill="black"/>
<path d="M137.545 137.371V141.263C137.545 142.37 136.647 143.268 135.54 143.268H133.653C132.546 143.268 131.648 142.37 131.648 141.263V137.371H137.545Z" fill="black"/>
<path d="M160.424 137.371V143.268H156.532C155.425 143.268 154.527 142.37 154.527 141.263V137.371H160.424Z" fill="black"/>
<path d="M166.145 137.371H160.248V143.268H166.145V137.371Z" fill="black"/>
<path d="M171.864 137.371H165.967V143.268H171.864V137.371Z" fill="black"/>
<path d="M177.584 137.371H171.688V143.268H177.584V137.371Z" fill="black"/>
<path d="M183.305 137.371H177.408V143.268H183.305V137.371Z" fill="black"/>
<path d="M183.127 143.268V139.376C183.127 138.269 184.025 137.371 185.132 137.371H187.019C188.126 137.371 189.024 138.269 189.024 139.376V143.268H183.127Z" fill="black"/>
<path d="M192.945 143.15V143.268H194.744V141.469H194.626C194.626 142.401 193.871 143.15 192.945 143.15Z" fill="black"/>
<path d="M200.465 143.268H194.568V139.376C194.568 138.269 195.466 137.371 196.573 137.371H200.465V143.268Z" fill="black"/>
<path d="M206.184 137.371H200.287V143.268H206.184V137.371Z" fill="black"/>
<path d="M206.006 143.268V139.376C206.006 138.269 206.903 137.371 208.011 137.371H209.898C211.005 137.371 211.903 138.269 211.903 139.376V143.268H206.006Z" fill="black"/>
<path d="M0.0898438 148.988L0.0898438 145.096C0.0898438 143.989 0.987474 143.091 2.09476 143.091H3.98174C5.08902 143.091 5.98665 143.989 5.98665 145.096V148.988H0.0898438Z" fill="black"/>
<path d="M21.3477 148.87V148.987H23.1462V147.189H23.0282C23.0282 148.121 22.2735 148.87 21.3477 148.87Z" fill="black"/>
<path d="M28.8672 148.987H22.9704V145.095C22.9704 143.988 23.868 143.09 24.9753 143.09H28.8672V148.987Z" fill="black"/>
<path d="M28.6895 148.988V143.091H32.5813C33.6886 143.091 34.5863 143.989 34.5863 145.096V148.988H28.6895Z" fill="black"/>
<path d="M55.668 148.87V148.987H57.4665V147.189H57.3486C57.3486 148.121 56.5938 148.87 55.668 148.87Z" fill="black"/>
<path d="M63.1859 143.091H57.2891V148.988H63.1859V143.091Z" fill="black"/>
<path d="M68.9066 143.091H63.0098V148.988H68.9066V143.091Z" fill="black"/>
<path d="M74.6253 143.091H68.7285V148.988H74.6253V143.091Z" fill="black"/>
<path d="M80.346 143.091H74.4492V148.988H80.346V143.091Z" fill="black"/>
<path d="M86.0667 143.091H80.1699V148.988H86.0667V143.091Z" fill="black"/>
<path d="M91.7855 143.091H85.8887V148.988H91.7855V143.091Z" fill="black"/>
<path d="M97.5062 143.091H91.6094V148.988H97.5062V143.091Z" fill="black"/>
<path d="M120.385 143.091V146.983C120.385 148.09 119.487 148.988 118.38 148.988H116.493C115.386 148.988 114.488 148.09 114.488 146.983V143.091H120.385Z" fill="black"/>
<path d="M125.928 148.988V145.096C125.928 143.989 126.825 143.091 127.933 143.091H129.82C130.927 143.091 131.825 143.989 131.825 145.096V148.988H125.928Z" fill="black"/>
<path d="M137.367 144.777V147.307C137.367 148.239 138.122 148.988 139.054 148.988H141.583C142.521 148.988 143.27 148.233 143.27 147.301V144.777C143.264 143.84 142.509 143.091 141.578 143.091H139.054C138.122 143.091 137.367 143.846 137.367 144.777Z" fill="black"/>
<path d="M148.809 148.988V145.096C148.809 143.989 149.706 143.091 150.814 143.091H152.7C153.808 143.091 154.705 143.989 154.705 145.096V148.988H148.809Z" fill="black"/>
<path d="M158.625 148.87V148.987H160.424V147.189H160.306C160.306 148.121 159.551 148.87 158.625 148.87Z" fill="black"/>
<path d="M166.145 143.091H160.248V148.988H166.145V143.091Z" fill="black"/>
<path d="M194.744 148.988H188.847V145.096C188.847 143.989 189.745 143.091 190.852 143.091H194.744V148.988Z" fill="black"/>
<path d="M200.463 143.091H194.566V148.988H200.463V143.091Z" fill="black"/>
<path d="M5.98665 148.811H0.0898438V154.707H5.98665V148.811Z" fill="black"/>
<path d="M17.4277 154.708H11.5309V150.816C11.5309 149.708 12.4286 148.811 13.5358 148.811H17.4277V154.708Z" fill="black"/>
<path d="M23.1468 148.811H17.25V154.707H23.1468V148.811Z" fill="black"/>
<path d="M28.8675 148.811H22.9707V154.707H28.8675V148.811Z" fill="black"/>
<path d="M34.5863 148.811H28.6895V154.707H34.5863V148.811Z" fill="black"/>
<path d="M40.307 148.811H34.4102V154.707H40.307V148.811Z" fill="black"/>
<path d="M40.1289 154.708V150.816C40.1289 149.708 41.0265 148.811 42.1338 148.811H44.0208C45.1281 148.811 46.0257 149.708 46.0257 150.816V154.708H40.1289Z" fill="black"/>
<path d="M57.4668 154.708H53.5749C52.4676 154.708 51.57 153.81 51.57 152.703V150.816C51.57 149.708 52.4676 148.811 53.5749 148.811H57.4668V154.708Z" fill="black"/>
<path d="M63.1859 148.811H57.2891V154.707H63.1859V148.811Z" fill="black"/>
<path d="M68.9066 148.811H63.0098V154.707H68.9066V148.811Z" fill="black"/>
<path d="M74.6253 148.811H68.7285V154.707H74.6253V148.811Z" fill="black"/>
<path d="M97.5062 148.811H91.6094V154.707H97.5062V148.811Z" fill="black"/>
<path d="M103.049 150.497V153.027C103.049 153.958 103.804 154.707 104.735 154.707H107.265C108.203 154.707 108.952 153.953 108.952 153.021V150.497C108.946 149.559 108.191 148.811 107.259 148.811H104.735C103.804 148.811 103.049 149.565 103.049 150.497Z" fill="black"/>
<path d="M124.307 154.59V154.708H126.105V152.909H125.987C125.987 153.841 125.232 154.59 124.307 154.59Z" fill="black"/>
<path d="M131.825 148.811H125.928V154.707H131.825V148.811Z" fill="black"/>
<path d="M154.705 148.811H148.809V154.707H154.705V148.811Z" fill="black"/>
<path d="M160.424 148.811H154.527V154.707H160.424V148.811Z" fill="black"/>
<path d="M166.145 148.811H160.248V154.707H166.145V148.811Z" fill="black"/>
<path d="M165.967 154.708V148.811H169.859C170.966 148.811 171.864 149.708 171.864 150.816V154.708H165.967Z" fill="black"/>
<path d="M175.785 154.59V154.708H177.584V152.909H177.466C177.466 153.841 176.711 154.59 175.785 154.59Z" fill="black"/>
<path d="M177.408 154.708V150.816C177.408 149.708 178.306 148.811 179.413 148.811H181.3C182.407 148.811 183.305 149.708 183.305 150.816V154.708H177.408Z" fill="black"/>
<path d="M194.744 148.811H188.848V154.707H194.744V148.811Z" fill="black"/>
<path d="M200.463 148.811H194.566V154.707H200.463V148.811Z" fill="black"/>
<path d="M206.184 148.811H200.287V154.707H206.184V148.811Z" fill="black"/>
<path d="M206.006 154.708V150.816C206.006 149.708 206.903 148.811 208.011 148.811H209.898C211.005 148.811 211.903 149.708 211.903 150.816V154.708H206.006Z" fill="black"/>
<path d="M5.98665 154.531H0.0898438V160.428H5.98665V154.531Z" fill="black"/>
<path d="M17.4261 154.531H11.5293V160.428H17.4261V154.531Z" fill="black"/>
<path d="M28.8675 154.531H22.9707V160.428H28.8675V154.531Z" fill="black"/>
<path d="M45.8496 160.428V156.536C45.8496 155.429 46.7472 154.531 47.8545 154.531H49.7415C50.8488 154.531 51.7464 155.429 51.7464 156.536V160.428H45.8496Z" fill="black"/>
<path d="M63.1855 154.531V160.428H59.2937C58.1864 160.428 57.2887 159.53 57.2887 158.423V154.531H63.1855Z" fill="black"/>
<path d="M68.9066 154.531H63.0098V160.428H68.9066V154.531Z" fill="black"/>
<path d="M74.6253 154.531H68.7285V160.428H74.6253V154.531Z" fill="black"/>
<path d="M80.346 154.531H74.4492V160.428H80.346V154.531Z" fill="black"/>
<path d="M86.0667 154.531H80.1699V160.428H86.0667V154.531Z" fill="black"/>
<path d="M91.7855 154.531H85.8887V160.428H91.7855V154.531Z" fill="black"/>
<path d="M91.6094 154.531H97.5062V158.423C97.5062 159.53 96.6086 160.428 95.5013 160.428H91.6094V154.531Z" fill="black"/>
<path d="M114.666 160.427H110.774C109.667 160.427 108.769 159.53 108.769 158.422V156.535C108.769 155.428 109.667 154.53 110.774 154.53H114.666V160.427Z" fill="black"/>
<path d="M120.385 154.531H114.488V160.428H120.385V154.531Z" fill="black"/>
<path d="M126.106 154.531H120.209V160.428H126.106V154.531Z" fill="black"/>
<path d="M131.825 154.531H125.928V160.428H131.825V154.531Z" fill="black"/>
<path d="M137.367 156.217V158.747C137.367 159.679 138.122 160.428 139.054 160.428H141.583C142.521 160.428 143.27 159.673 143.27 158.741V156.217C143.264 155.28 142.509 154.531 141.578 154.531H139.054C138.122 154.531 137.367 155.286 137.367 156.217Z" fill="black"/>
<path d="M147.186 160.309V160.427H148.984V158.629H148.866C148.866 159.561 148.111 160.309 147.186 160.309Z" fill="black"/>
<path d="M154.705 154.531H148.809V160.428H154.705V154.531Z" fill="black"/>
<path d="M171.864 154.531H165.967V160.428H171.864V154.531Z" fill="black"/>
<path d="M177.584 154.531H171.688V160.428H177.584V154.531Z" fill="black"/>
<path d="M183.305 154.531H177.408V160.428H183.305V154.531Z" fill="black"/>
<path d="M194.744 154.531V158.423C194.744 159.53 193.847 160.428 192.739 160.428H190.852C189.745 160.428 188.847 159.53 188.847 158.423V154.531H194.744Z" fill="black"/>
<path d="M5.98633 160.25V164.142C5.98633 165.25 5.0887 166.147 3.98141 166.147H2.09444C0.987153 166.147 0.0895224 165.25 0.0895224 164.142V160.25H5.98633Z" fill="black"/>
<path d="M17.4258 160.25V166.147H13.5339C12.4266 166.147 11.529 165.25 11.529 164.142V160.25H17.4258Z" fill="black"/>
<path d="M23.1468 160.25H17.25V166.147H23.1468V160.25Z" fill="black"/>
<path d="M22.9707 160.25H28.8675V164.142C28.8675 165.25 27.9699 166.147 26.8626 166.147H22.9707V160.25Z" fill="black"/>
<path d="M34.4102 161.937V164.467C34.4102 165.398 35.1649 166.147 36.0966 166.147H38.6264C39.564 166.147 40.3129 165.393 40.3129 164.461V161.937C40.307 160.999 39.5522 160.25 38.6205 160.25H36.0966C35.1649 160.25 34.4102 161.005 34.4102 161.937Z" fill="black"/>
<path d="M51.7464 160.25H45.8496V166.147H51.7464V160.25Z" fill="black"/>
<path d="M68.9062 160.25V166.147H65.0144C63.9071 166.147 63.0094 165.25 63.0094 164.142V160.25H68.9062Z" fill="black"/>
<path d="M74.6253 160.25H68.7285V166.147H74.6253V160.25Z" fill="black"/>
<path d="M80.346 160.25H74.4492V166.147H80.346V160.25Z" fill="black"/>
<path d="M91.7852 160.25V164.142C91.7852 165.25 90.8875 166.147 89.7802 166.147H87.8933C86.786 166.147 85.8884 165.25 85.8884 164.142V160.25H91.7852Z" fill="black"/>
<path d="M131.825 160.25H125.928V166.147H131.825V160.25Z" fill="black"/>
<path d="M148.984 166.147H145.092C143.985 166.147 143.088 165.25 143.088 164.143V162.256C143.088 161.148 143.985 160.251 145.092 160.251H148.984V166.147Z" fill="black"/>
<path d="M154.705 160.25H148.809V166.147H154.705V160.25Z" fill="black"/>
<path d="M160.424 160.25H154.527V166.147H160.424V160.25Z" fill="black"/>
<path d="M166.145 160.25H160.248V166.147H166.145V160.25Z" fill="black"/>
<path d="M171.864 160.25H165.967V166.147H171.864V160.25Z" fill="black"/>
<path d="M177.584 160.25H171.688V166.147H177.584V160.25Z" fill="black"/>
<path d="M183.305 160.25H177.408V166.147H183.305V160.25Z" fill="black"/>
<path d="M183.127 166.147V160.251H187.019C188.126 160.251 189.024 161.148 189.024 162.256V166.147H183.127Z" fill="black"/>
<path d="M194.566 161.937V164.467C194.566 165.398 195.321 166.147 196.253 166.147H198.783C199.72 166.147 200.469 165.393 200.469 164.461V161.937C200.463 160.999 199.708 160.25 198.777 160.25H196.253C195.321 160.25 194.566 161.005 194.566 161.937Z" fill="black"/>
<path d="M51.7461 165.97V169.862C51.7461 170.969 50.8485 171.867 49.7412 171.867H47.8542C46.7469 171.867 45.8493 170.969 45.8493 169.862V165.97H51.7461Z" fill="black"/>
<path d="M57.2891 171.867V167.975C57.2891 166.868 58.1867 165.97 59.294 165.97H61.181C62.2882 165.97 63.1859 166.868 63.1859 167.975V171.867H57.2891Z" fill="black"/>
<path d="M74.6253 165.97H68.7285V171.867H74.6253V165.97Z" fill="black"/>
<path d="M80.346 165.97H74.4492V171.867H80.346V165.97Z" fill="black"/>
<path d="M80.1699 171.867V165.97H84.0618C85.1691 165.97 86.0667 166.868 86.0667 167.975V171.867H80.1699Z" fill="black"/>
<path d="M89.9863 171.749V171.867H91.7849V170.069H91.6669C91.6669 171.001 90.9121 171.749 89.9863 171.749Z" fill="black"/>
<path d="M91.6094 171.867V167.975C91.6094 166.868 92.507 165.97 93.6143 165.97H95.5013C96.6086 165.97 97.5062 166.868 97.5062 167.975V171.867H91.6094Z" fill="black"/>
<path d="M108.945 171.867H105.053C103.946 171.867 103.049 170.97 103.049 169.862V167.975C103.049 166.868 103.946 165.97 105.053 165.97H108.945V171.867Z" fill="black"/>
<path d="M108.768 171.867V165.97H112.659C113.767 165.97 114.664 166.868 114.664 167.975V171.867H108.768Z" fill="black"/>
<path d="M124.307 171.749V171.867H126.105V170.069H125.987C125.987 171.001 125.232 171.749 124.307 171.749Z" fill="black"/>
<path d="M131.825 165.97H125.928V171.867H131.825V165.97Z" fill="black"/>
<path d="M131.648 171.867V167.975C131.648 166.868 132.546 165.97 133.653 165.97H135.54C136.648 165.97 137.545 166.868 137.545 167.975V171.867H131.648Z" fill="black"/>
<path d="M166.145 165.97H160.248V171.867H166.145V165.97Z" fill="black"/>
<path d="M189.024 165.97H183.127V171.867H189.024V165.97Z" fill="black"/>
<path d="M188.848 171.867V167.975C188.848 166.868 189.745 165.97 190.853 165.97H192.74C193.847 165.97 194.744 166.868 194.744 167.975V171.867H188.848Z" fill="black"/>
<path d="M200.287 167.657V170.186C200.287 171.118 201.042 171.867 201.974 171.867H204.503C205.441 171.867 206.19 171.112 206.19 170.181V167.657C206.184 166.719 205.429 165.97 204.497 165.97H201.974C201.042 165.97 200.287 166.725 200.287 167.657Z" fill="black"/>
<path d="M63.1855 171.69V175.582C63.1855 176.69 62.2879 177.587 61.1806 177.587H59.2937C58.1864 177.587 57.2887 176.69 57.2887 175.582V171.69H63.1855Z" fill="black"/>
<path d="M74.625 171.69V177.587H70.7331C69.6258 177.587 68.7282 176.69 68.7282 175.582V171.69H74.625Z" fill="black"/>
<path d="M80.346 171.69H74.4492V177.587H80.346V171.69Z" fill="black"/>
<path d="M86.0667 171.69H80.1699V177.587H86.0667V171.69Z" fill="black"/>
<path d="M91.7855 171.69H85.8887V177.587H91.7855V171.69Z" fill="black"/>
<path d="M97.5062 171.69H91.6094V177.587H97.5062V171.69Z" fill="black"/>
<path d="M97.3281 177.587V173.696C97.3281 172.588 98.2258 171.691 99.333 171.691H101.22C102.327 171.691 103.225 172.588 103.225 173.696V177.587H97.3281Z" fill="black"/>
<path d="M114.664 171.69H108.768V177.587H114.664V171.69Z" fill="black"/>
<path d="M126.104 177.587H122.212C121.104 177.587 120.207 176.69 120.207 175.582V173.696C120.207 172.588 121.104 171.691 122.212 171.691H126.104V177.587Z" fill="black"/>
<path d="M131.825 171.69H125.928V177.587H131.825V171.69Z" fill="black"/>
<path d="M148.984 177.587H145.092C143.985 177.587 143.088 176.69 143.088 175.582V173.696C143.088 172.588 143.985 171.691 145.092 171.691H148.984V177.587Z" fill="black"/>
<path d="M148.809 177.587V171.691H152.7C153.808 171.691 154.705 172.588 154.705 173.696V177.587H148.809Z" fill="black"/>
<path d="M158.625 177.469V177.587H160.424V175.789H160.306C160.306 176.72 159.551 177.469 158.625 177.469Z" fill="black"/>
<path d="M166.145 171.69H160.248V177.587H166.145V171.69Z" fill="black"/>
<path d="M171.688 173.377V175.907C171.688 176.838 172.442 177.587 173.374 177.587H175.904C176.841 177.587 177.59 176.832 177.59 175.901V173.377C177.584 172.439 176.83 171.69 175.898 171.69H173.374C172.442 171.69 171.688 172.445 171.688 173.377Z" fill="black"/>
<path d="M189.024 171.69H183.127V177.587H189.024V171.69Z" fill="black"/>
<path d="M194.566 173.377V175.907C194.566 176.838 195.321 177.587 196.253 177.587H198.783C199.72 177.587 200.469 176.832 200.469 175.901V173.377C200.463 172.439 199.708 171.69 198.777 171.69H196.253C195.321 171.69 194.566 172.445 194.566 173.377Z" fill="black"/>
<path d="M206.006 173.377V175.907C206.006 176.838 206.761 177.587 207.692 177.587H210.222C211.16 177.587 211.909 176.832 211.909 175.901V173.377C211.903 172.439 211.148 171.69 210.216 171.69H207.692C206.761 171.69 206.006 172.445 206.006 173.377Z" fill="black"/>
<path d="M49.9473 183.189V183.307H51.7458V181.508H51.6279C51.6279 182.44 50.8731 183.189 49.9473 183.189Z" fill="black"/>
<path d="M51.5703 183.307V179.415C51.5703 178.308 52.4679 177.41 53.5752 177.41H55.4622C56.5695 177.41 57.4671 178.308 57.4671 179.415V183.307H51.5703Z" fill="black"/>
<path d="M63.0098 183.307V179.415C63.0098 178.308 63.9074 177.41 65.0147 177.41H66.9017C68.0089 177.41 68.9066 178.308 68.9066 179.415V183.307H63.0098Z" fill="black"/>
<path d="M86.0667 177.41H80.1699V183.307H86.0667V177.41Z" fill="black"/>
<path d="M108.945 183.307H103.049V179.415C103.049 178.308 103.946 177.41 105.053 177.41H108.945V183.307Z" fill="black"/>
<path d="M114.664 177.41H108.768V183.307H114.664V177.41Z" fill="black"/>
<path d="M114.488 183.307V179.415C114.488 178.308 115.386 177.41 116.493 177.41H118.38C119.487 177.41 120.385 178.308 120.385 179.415V183.307H114.488Z" fill="black"/>
<path d="M131.825 177.41H125.928V183.307H131.825V177.41Z" fill="black"/>
<path d="M137.545 177.41H131.648V183.307H137.545V177.41Z" fill="black"/>
<path d="M137.367 183.307V177.41H141.259C142.366 177.41 143.264 178.308 143.264 179.415V183.307H137.367Z" fill="black"/>
<path d="M147.186 183.189V183.307H148.984V181.508H148.866C148.866 182.44 148.111 183.189 147.186 183.189Z" fill="black"/>
<path d="M154.705 177.41H148.809V183.307H154.705V177.41Z" fill="black"/>
<path d="M160.424 177.41H154.527V183.307H160.424V177.41Z" fill="black"/>
<path d="M166.145 177.41H160.248V183.307H166.145V177.41Z" fill="black"/>
<path d="M181.506 183.189V183.307H183.304V181.508H183.186C183.186 182.44 182.432 183.189 181.506 183.189Z" fill="black"/>
<path d="M189.024 177.41H183.127V183.307H189.024V177.41Z" fill="black"/>
<path d="M188.848 183.307V179.415C188.848 178.308 189.745 177.41 190.853 177.41H192.74C193.847 177.41 194.744 178.308 194.744 179.415V183.307H188.848Z" fill="black"/>
<path d="M198.666 183.189V183.307H200.465V181.508H200.347C200.347 182.44 199.592 183.189 198.666 183.189Z" fill="black"/>
<path d="M200.287 183.307V179.415C200.287 178.308 201.185 177.41 202.292 177.41H204.179C205.286 177.41 206.184 178.308 206.184 179.415V183.307H200.287Z" fill="black"/>
<path d="M51.7461 189.027H45.8493V185.135C45.8493 184.028 46.7469 183.13 47.8542 183.13H51.7461V189.027Z" fill="black"/>
<path d="M51.5703 183.13H57.4671V187.022C57.4671 188.129 56.5695 189.027 55.4622 189.027H51.5703V183.13Z" fill="black"/>
<path d="M68.9062 183.13V187.022C68.9062 188.129 68.0086 189.027 66.9013 189.027H65.0144C63.9071 189.027 63.0094 188.129 63.0094 187.022V183.13H68.9062Z" fill="black"/>
<path d="M86.0664 183.13V187.022C86.0664 188.129 85.1688 189.027 84.0615 189.027H82.1745C81.0672 189.027 80.1696 188.129 80.1696 187.022V183.13H86.0664Z" fill="black"/>
<path d="M91.6094 184.816V187.346C91.6094 188.278 92.3642 189.027 93.2959 189.027H95.8256C96.7632 189.027 97.5121 188.272 97.5121 187.34V184.816C97.5062 183.879 96.7514 183.13 95.8197 183.13H93.2959C92.3642 183.13 91.6094 183.885 91.6094 184.816Z" fill="black"/>
<path d="M108.945 183.13V187.022C108.945 188.129 108.048 189.027 106.94 189.027H105.053C103.946 189.027 103.049 188.129 103.049 187.022V183.13H108.945Z" fill="black"/>
<path d="M131.824 183.13V187.022C131.824 188.129 130.927 189.027 129.819 189.027H127.932C126.825 189.027 125.927 188.129 125.927 187.022V183.13H131.824Z" fill="black"/>
<path d="M143.266 183.13V189.027H139.374C138.266 189.027 137.369 188.129 137.369 187.022V183.13H143.266Z" fill="black"/>
<path d="M148.985 183.13H143.088V189.027H148.985V183.13Z" fill="black"/>
<path d="M154.705 183.13H148.809V189.027H154.705V183.13Z" fill="black"/>
<path d="M160.424 183.13H154.527V189.027H160.424V183.13Z" fill="black"/>
<path d="M166.145 183.13H160.248V189.027H166.145V183.13Z" fill="black"/>
<path d="M171.864 183.13H165.967V189.027H171.864V183.13Z" fill="black"/>
<path d="M177.584 183.13H171.688V189.027H177.584V183.13Z" fill="black"/>
<path d="M183.305 183.13H177.408V189.027H183.305V183.13Z" fill="black"/>
<path d="M189.024 183.13H183.127V189.027H189.024V183.13Z" fill="black"/>
<path d="M200.465 189.027H196.573C195.466 189.027 194.568 188.13 194.568 187.022V185.135C194.568 184.028 195.466 183.131 196.573 183.131H200.465V189.027Z" fill="black"/>
<path d="M206.184 183.13H200.287V189.027H206.184V183.13Z" fill="black"/>
<path d="M206.006 189.027V185.135C206.006 184.028 206.903 183.13 208.011 183.13H209.898C211.005 183.13 211.903 184.028 211.903 185.135V189.027H206.006Z" fill="black"/>
<path d="M51.7464 188.85H45.8496V194.747H51.7464V188.85Z" fill="black"/>
<path d="M74.625 194.747H70.7331C69.6258 194.747 68.7282 193.849 68.7282 192.742V190.855C68.7282 189.747 69.6258 188.85 70.7331 188.85H74.625V194.747Z" fill="black"/>
<path d="M74.4492 194.747V190.855C74.4492 189.748 75.3468 188.85 76.4541 188.85H78.3411C79.4484 188.85 80.346 189.748 80.346 190.855V194.747H74.4492Z" fill="black"/>
<path d="M114.666 194.747H110.774C109.667 194.747 108.769 193.849 108.769 192.742V190.855C108.769 189.747 109.667 188.85 110.774 188.85H114.666V194.747Z" fill="black"/>
<path d="M114.488 194.747V188.85H118.38C119.487 188.85 120.385 189.748 120.385 190.855V194.747H114.488Z" fill="black"/>
<path d="M154.705 188.85H148.809V194.747H154.705V188.85Z" fill="black"/>
<path d="M160.424 188.85H154.527V194.747H160.424V188.85Z" fill="black"/>
<path d="M166.145 188.85H160.248V194.747H166.145V188.85Z" fill="black"/>
<path d="M171.864 188.85H165.967V194.747H171.864V188.85Z" fill="black"/>
<path d="M177.584 188.85H171.688V194.747H177.584V188.85Z" fill="black"/>
<path d="M183.305 188.85H177.408V194.747H183.305V188.85Z" fill="black"/>
<path d="M189.024 188.85H183.127V194.747H189.024V188.85Z" fill="black"/>
<path d="M188.848 194.747V190.855C188.848 189.748 189.745 188.85 190.853 188.85H192.74C193.847 188.85 194.744 189.748 194.744 190.855V194.747H188.848Z" fill="black"/>
<path d="M51.7461 194.57V198.462C51.7461 199.569 50.8485 200.467 49.7412 200.467H47.8542C46.7469 200.467 45.8493 199.569 45.8493 198.462V194.57H51.7461Z" fill="black"/>
<path d="M57.2891 196.256V198.786C57.2891 199.718 58.0439 200.467 58.9755 200.467H61.5053C62.4429 200.467 63.1918 199.712 63.1918 198.78V196.256C63.1859 195.319 62.4311 194.57 61.4994 194.57H58.9755C58.0439 194.57 57.2891 195.325 57.2891 196.256Z" fill="black"/>
<path d="M103.049 196.256V198.786C103.049 199.718 103.804 200.467 104.735 200.467H107.265C108.203 200.467 108.952 199.712 108.952 198.78V196.256C108.946 195.319 108.191 194.57 107.259 194.57H104.735C103.804 194.57 103.049 195.325 103.049 196.256Z" fill="black"/>
<path d="M120.385 194.57H114.488V200.467H120.385V194.57Z" fill="black"/>
<path d="M130.027 200.349V200.466H131.826V198.668H131.708C131.708 199.6 130.953 200.349 130.027 200.349Z" fill="black"/>
<path d="M137.545 200.467H131.648V196.575C131.648 195.468 132.546 194.57 133.653 194.57H137.545V200.467Z" fill="black"/>
<path d="M143.264 194.57H137.367V200.467H143.264V194.57Z" fill="black"/>
<path d="M148.985 194.57H143.088V200.467H148.985V194.57Z" fill="black"/>
<path d="M148.809 194.57H154.705V198.462C154.705 199.569 153.808 200.467 152.7 200.467H148.809V194.57Z" fill="black"/>
<path d="M166.145 194.57H160.248V200.467H166.145V194.57Z" fill="black"/>
<path d="M165.967 194.57H171.864V198.462C171.864 199.569 170.966 200.467 169.859 200.467H165.967V194.57Z" fill="black"/>
<path d="M183.303 194.57V198.462C183.303 199.569 182.405 200.467 181.298 200.467H179.411C178.304 200.467 177.406 199.569 177.406 198.462V194.57H183.303Z" fill="black"/>
<path d="M194.566 196.256V198.786C194.566 199.718 195.321 200.467 196.253 200.467H198.783C199.72 200.467 200.469 199.712 200.469 198.78V196.256C200.463 195.319 199.708 194.57 198.777 194.57H196.253C195.321 194.57 194.566 195.325 194.566 196.256Z" fill="black"/>
<path d="M206.006 200.467V196.575C206.006 195.468 206.903 194.57 208.011 194.57H209.898C211.005 194.57 211.903 195.468 211.903 196.575V200.467H206.006Z" fill="black"/>
<path d="M61.3867 206.069V206.187H63.1852V204.388H63.0673C63.0673 205.32 62.3125 206.069 61.3867 206.069Z" fill="black"/>
<path d="M68.9062 206.187H63.0094V202.295C63.0094 201.187 63.9071 200.29 65.0144 200.29H68.9062V206.187Z" fill="black"/>
<path d="M74.6253 200.29H68.7285V206.187H74.6253V200.29Z" fill="black"/>
<path d="M80.346 200.29H74.4492V206.187H80.346V200.29Z" fill="black"/>
<path d="M80.1699 206.187V200.29H84.0618C85.1691 200.29 86.0667 201.188 86.0667 202.295V206.187H80.1699Z" fill="black"/>
<path d="M97.3281 206.187V202.295C97.3281 201.188 98.2258 200.29 99.333 200.29H101.22C102.327 200.29 103.225 201.188 103.225 202.295V206.187H97.3281Z" fill="black"/>
<path d="M114.666 206.187H110.774C109.667 206.187 108.769 205.289 108.769 204.182V202.295C108.769 201.187 109.667 200.29 110.774 200.29H114.666V206.187Z" fill="black"/>
<path d="M120.385 200.29H114.488V206.187H120.385V200.29Z" fill="black"/>
<path d="M126.106 200.29H120.209V206.187H126.106V200.29Z" fill="black"/>
<path d="M131.825 200.29H125.928V206.187H131.825V200.29Z" fill="black"/>
<path d="M137.545 200.29H131.648V206.187H137.545V200.29Z" fill="black"/>
<path d="M166.145 200.29V204.182C166.145 205.289 165.247 206.187 164.14 206.187H162.253C161.145 206.187 160.248 205.289 160.248 204.182V200.29H166.145Z" fill="black"/>
<path d="M171.688 206.187V202.295C171.688 201.188 172.585 200.29 173.692 200.29H175.579C176.687 200.29 177.584 201.188 177.584 202.295V206.187H171.688Z" fill="black"/>
<path d="M204.385 206.069V206.187H206.183V204.388H206.065C206.065 205.32 205.311 206.069 204.385 206.069Z" fill="black"/>
<path d="M211.903 200.29H206.006V206.187H211.903V200.29Z" fill="black"/>
<path d="M63.1855 211.906H59.2937C58.1864 211.906 57.2887 211.009 57.2887 209.901V208.014C57.2887 206.907 58.1864 206.009 59.2937 206.009H63.1855V211.906Z" fill="black"/>
<path d="M63.0098 206.01H68.9066V209.902C68.9066 211.009 68.0089 211.907 66.9017 211.907H63.0098V206.01Z" fill="black"/>
<path d="M86.0664 206.01V209.902C86.0664 211.009 85.1688 211.907 84.0615 211.907H82.1745C81.0672 211.907 80.1696 211.009 80.1696 209.902V206.01H86.0664Z" fill="black"/>
<path d="M103.225 206.01V211.907H99.3327C98.2254 211.907 97.3278 211.009 97.3278 209.902V206.01H103.225Z" fill="black"/>
<path d="M103.049 211.907V208.015C103.049 206.908 103.946 206.01 105.054 206.01H106.941C108.048 206.01 108.946 206.908 108.946 208.015V211.907H103.049Z" fill="black"/>
<path d="M137.545 206.01V209.902C137.545 211.009 136.647 211.907 135.54 211.907H133.653C132.546 211.907 131.648 211.009 131.648 209.902V206.01H137.545Z" fill="black"/>
<path d="M148.984 211.907H145.092C143.985 211.907 143.088 211.009 143.088 209.902V208.015C143.088 206.908 143.985 206.01 145.092 206.01H148.984V211.907Z" fill="black"/>
<path d="M154.705 206.01H148.809V211.907H154.705V206.01Z" fill="black"/>
<path d="M154.527 211.907V208.015C154.527 206.908 155.425 206.01 156.532 206.01H158.419C159.527 206.01 160.424 206.908 160.424 208.015V211.907H154.527Z" fill="black"/>
<path d="M177.584 206.01V209.902C177.584 211.009 176.686 211.907 175.579 211.907H173.692C172.585 211.907 171.687 211.009 171.687 209.902V206.01H177.584Z" fill="black"/>
<path d="M183.127 207.696V210.226C183.127 211.158 183.882 211.907 184.813 211.907H187.343C188.281 211.907 189.03 211.152 189.03 210.22V207.696C189.024 206.759 188.269 206.01 187.337 206.01H184.813C183.882 206.01 183.127 206.765 183.127 207.696Z" fill="black"/>
<path d="M200.465 211.907H196.573C195.466 211.907 194.568 211.009 194.568 209.902V208.015C194.568 206.908 195.466 206.01 196.573 206.01H200.465V211.907Z" fill="black"/>
<path d="M206.184 206.01H200.287V211.907H206.184V206.01Z" fill="black"/>
<path d="M206.006 206.01H211.903V209.902C211.903 211.009 211.005 211.907 209.898 211.907H206.006V206.01Z" fill="black"/>
<path d="M35.4708 27.0611V14.4023C35.4708 8.78352 34.7064 7.41254 34.3777 7.08306C34.0482 6.75432 32.6772 5.98996 27.0577 5.98996H14.3997C8.78011 5.98996 7.40912 6.75432 7.08038 7.08306C6.75164 7.41254 5.98654 8.78352 5.98654 14.4023V27.0611C5.98654 32.6806 6.75164 34.0516 7.08038 34.3811C7.40912 34.7091 8.78011 35.4742 14.3997 35.4742H27.0577C32.6772 35.4742 34.0482 34.7091 34.3777 34.3811C34.7064 34.0516 35.4708 32.6806 35.4708 27.0611ZM27.0577 0.0932617C38.6159 0.0932617 41.3675 2.84481 41.3675 14.4023C41.3675 25.9606 41.3675 15.5036 41.3675 27.0611C41.3675 38.6194 38.6159 41.3709 27.0577 41.3709C15.5001 41.3709 25.9572 41.3709 14.3997 41.3709C2.84139 41.3709 0.0898438 38.6194 0.0898438 27.0611C0.0898438 15.5036 0.0898438 20.857 0.0898438 14.4023C0.0898438 2.84481 2.84139 0.0932617 14.3997 0.0932617C25.9572 0.0932617 15.5001 0.0932617 27.0577 0.0932617ZM23.441 11.8869C28.3948 11.8869 29.5739 13.0667 29.5739 18.019C29.5739 22.9728 29.5739 18.4914 29.5739 23.4444C29.5739 28.3974 28.3948 29.5773 23.441 29.5773C18.488 29.5773 22.9694 29.5773 18.0163 29.5773C13.0633 29.5773 11.8835 28.3974 11.8835 23.4444C11.8835 18.4914 11.8835 20.7855 11.8835 18.019C11.8835 13.0667 13.0633 11.8869 18.0163 11.8869C22.9694 11.8869 18.488 11.8869 23.441 11.8869Z" fill="black"/>
<path d="M205.299 27.0611V14.4023C205.299 8.78352 204.535 7.41254 204.206 7.08306C203.876 6.75432 202.505 5.98996 196.886 5.98996H184.228C178.608 5.98996 177.237 6.75432 176.909 7.08306C176.58 7.41254 175.815 8.78352 175.815 14.4023V27.0611C175.815 32.6806 176.58 34.0516 176.909 34.3811C177.237 34.7091 178.608 35.4742 184.228 35.4742H196.886C202.505 35.4742 203.876 34.7091 204.206 34.3811C204.535 34.0516 205.299 32.6806 205.299 27.0611ZM196.886 0.0932617C208.444 0.0932617 211.196 2.84481 211.196 14.4023C211.196 25.9606 211.196 15.5036 211.196 27.0611C211.196 38.6194 208.444 41.3709 196.886 41.3709C185.328 41.3709 195.785 41.3709 184.228 41.3709C172.67 41.3709 169.918 38.6194 169.918 27.0611C169.918 15.5036 169.918 20.857 169.918 14.4023C169.918 2.84481 172.67 0.0932617 184.228 0.0932617C195.785 0.0932617 185.328 0.0932617 196.886 0.0932617ZM193.269 11.8869C198.223 11.8869 199.402 13.0667 199.402 18.019C199.402 22.9728 199.402 18.4914 199.402 23.4444C199.402 28.3974 198.223 29.5773 193.269 29.5773C188.316 29.5773 192.797 29.5773 187.844 29.5773C182.891 29.5773 181.712 28.3974 181.712 23.4444C181.712 18.4914 181.712 20.7855 181.712 18.019C181.712 13.0667 182.891 11.8869 187.844 11.8869C192.797 11.8869 188.316 11.8869 193.269 11.8869Z" fill="black"/>
<path d="M35.4708 196.889V184.23C35.4708 178.612 34.7064 177.241 34.3777 176.911C34.0482 176.582 32.6772 175.818 27.0577 175.818H14.3997C8.78011 175.818 7.40912 176.582 7.08038 176.911C6.75164 177.241 5.98654 178.612 5.98654 184.23V196.889C5.98654 202.509 6.75164 203.88 7.08038 204.209C7.40912 204.537 8.78011 205.302 14.3997 205.302H27.0577C32.6772 205.302 34.0482 204.537 34.3777 204.209C34.7064 203.88 35.4708 202.509 35.4708 196.889ZM27.0577 169.921C38.6159 169.921 41.3675 172.673 41.3675 184.23C41.3675 195.789 41.3675 185.332 41.3675 196.889C41.3675 208.447 38.6159 211.199 27.0577 211.199C15.5001 211.199 25.9572 211.199 14.3997 211.199C2.84139 211.199 0.0898438 208.447 0.0898438 196.889C0.0898438 185.332 0.0898438 190.685 0.0898438 184.23C0.0898438 172.673 2.84139 169.921 14.3997 169.921C25.9572 169.921 15.5001 169.921 27.0577 169.921ZM23.441 181.715C28.3948 181.715 29.5739 182.895 29.5739 187.847C29.5739 192.801 29.5739 188.32 29.5739 193.273C29.5739 198.226 28.3948 199.405 23.441 199.405C18.488 199.405 22.9694 199.405 18.0163 199.405C13.0633 199.405 11.8835 198.226 11.8835 193.273C11.8835 188.32 11.8835 190.614 11.8835 187.847C11.8835 182.895 13.0633 181.715 18.0163 181.715C22.9694 181.715 18.488 181.715 23.441 181.715Z" fill="black"/>
<mask id="mask0_5926_21238" style="mask-type:luminance" maskUnits="userSpaceOnUse" x="86" y="86" width="40" height="40">
<path d="M126 86H86V126H126V86Z" fill="white"/>
</mask>
<g mask="url(#mask0_5926_21238)">
<path d="M106 126C117.046 126 126 117.046 126 106C126 94.9543 117.046 86 106 86C94.9543 86 86 94.9543 86 106C86 117.046 94.9543 126 106 126Z" fill="url(#paint0_radial_5926_21238)"/>
<path opacity="0.15" d="M106 126C94.9718 126 86 117.028 86 106C86 94.9718 94.9718 86 106 86C117.028 86 126 94.9718 126 106C126 117.028 117.028 126 106 126ZM106 87.3364C95.7048 87.3364 87.3299 95.7113 87.3299 106.007C87.3299 116.302 95.7048 124.677 106 124.677C116.295 124.677 124.67 116.295 124.67 106C124.67 95.7048 116.295 87.3364 106 87.3364Z" fill="black"/>
<path d="M114.284 101.77C114.654 101.887 115.03 101.964 115.355 102.114C116.873 102.808 117.132 104.644 115.887 105.876C115.205 106.551 114.349 106.856 113.408 106.914C112.422 106.972 111.514 106.778 110.645 106.479C109.601 106.116 108.627 105.643 107.706 105.085C107.693 105.078 107.693 105.065 107.674 105.039C108.011 104.942 108.348 104.858 108.679 104.754C109.86 104.378 110.989 103.891 111.903 103.048C112.014 102.944 112.085 102.808 112.176 102.684C112.027 102.671 111.884 102.646 111.735 102.652C110.775 102.71 109.873 103.035 109.004 103.456C108.472 103.716 107.972 104.04 107.46 104.332C107.427 104.352 107.388 104.371 107.356 104.397C107.336 104.391 107.317 104.384 107.291 104.378C107.505 103.664 107.706 102.95 107.946 102.243C108.271 101.29 108.712 100.369 109.367 99.5187C109.983 98.7338 110.755 98.1435 111.787 97.8969C113.292 97.5337 114.693 98.351 114.888 99.6938C115.004 100.446 114.758 101.128 114.284 101.77Z" fill="#111111"/>
<path d="M98.7161 108.75C98.3463 108.634 97.9701 108.556 97.6457 108.407C96.1277 107.712 95.8682 105.877 97.1138 104.644C97.7949 103.969 98.6512 103.664 99.5918 103.606C100.578 103.548 101.486 103.742 102.355 104.041C103.4 104.404 104.373 104.878 105.294 105.435C105.307 105.442 105.307 105.455 105.327 105.481C104.989 105.578 104.652 105.663 104.321 105.766C103.14 106.143 102.012 106.629 101.097 107.472C100.987 107.576 100.915 107.713 100.824 107.836C100.974 107.849 101.116 107.875 101.266 107.868C102.226 107.81 103.127 107.485 103.997 107.064C104.529 106.804 105.028 106.48 105.541 106.188C105.573 106.169 105.612 106.149 105.644 106.123C105.664 106.13 105.683 106.136 105.709 106.143C105.495 106.856 105.294 107.57 105.054 108.277C104.73 109.231 104.289 110.152 103.633 111.002C103.017 111.786 102.245 112.377 101.214 112.623C99.7086 112.987 98.3074 112.169 98.1128 110.826C97.9895 110.074 98.2361 109.393 98.7161 108.75Z" fill="#111111"/>
<path d="M103.008 97.4759C103.125 97.1061 103.203 96.7299 103.352 96.4055C104.046 94.8875 105.882 94.628 107.114 95.8736C107.789 96.5547 108.094 97.411 108.152 98.3517C108.211 99.3378 108.016 100.246 107.718 101.115C107.354 102.16 106.881 103.133 106.323 104.054C106.316 104.067 106.304 104.067 106.278 104.086C106.18 103.749 106.096 103.412 105.992 103.081C105.616 101.9 105.129 100.771 104.286 99.8566C104.182 99.7464 104.046 99.675 103.923 99.5843C103.91 99.7334 103.884 99.8761 103.89 100.025C103.949 100.986 104.273 101.887 104.695 102.757C104.954 103.288 105.279 103.788 105.57 104.3C105.59 104.333 105.609 104.372 105.635 104.404C105.629 104.424 105.622 104.443 105.616 104.469C104.902 104.255 104.189 104.054 103.482 103.814C102.528 103.49 101.607 103.048 100.757 102.393C99.9721 101.777 99.3817 101.005 99.1352 99.9735C98.772 98.4684 99.5893 97.0672 100.932 96.8726C101.685 96.7558 102.366 97.0023 103.008 97.4759Z" fill="#111111"/>
<path d="M109.983 113.045C109.866 113.415 109.788 113.791 109.639 114.115C108.945 115.633 107.109 115.893 105.876 114.647C105.202 113.966 104.897 113.11 104.838 112.169C104.78 111.183 104.975 110.275 105.273 109.406C105.636 108.361 106.11 107.388 106.668 106.467C106.674 106.454 106.687 106.454 106.713 106.435C106.811 106.772 106.895 107.109 106.999 107.44C107.375 108.621 107.861 109.75 108.705 110.664C108.809 110.774 108.945 110.846 109.068 110.937C109.081 110.787 109.107 110.645 109.101 110.496C109.042 109.535 108.718 108.634 108.296 107.764C108.037 107.232 107.712 106.733 107.42 106.22C107.401 106.188 107.381 106.149 107.355 106.117C107.362 106.097 107.368 106.078 107.375 106.052C108.089 106.266 108.802 106.467 109.509 106.707C110.463 107.031 111.384 107.473 112.234 108.128C113.019 108.744 113.609 109.516 113.856 110.547C114.219 112.052 113.402 113.454 112.059 113.648C111.313 113.765 110.625 113.519 109.983 113.045Z" fill="#111111"/>
<path d="M103.886 111.546L101.032 116.541C100.863 116.84 101.006 117.222 101.337 117.326L101.96 117.527C102.252 117.625 102.563 117.456 102.647 117.164L104.243 111.695C104.308 111.475 104.003 111.345 103.886 111.546Z" fill="#111111"/>
</g>
<defs>
<radialGradient id="paint0_radial_5926_21238" cx="0" cy="0" r="1" gradientUnits="userSpaceOnUse" gradientTransform="translate(118.941 115.706) rotate(-135) scale(33.9689)">
<stop offset="0.2" stop-color="#7FFF47"/>
<stop offset="0.55" stop-color="#F9FF20"/>
<stop offset="0.8" stop-color="#FFDAC0"/>
<stop offset="1" stop-color="#FC76E3"/>
</radialGradient>
</defs>
</svg>
