<svg width="20" height="20" viewBox="0 0 20 20" fill="none" xmlns="http://www.w3.org/2000/svg">
<path opacity="0.3" d="M10.0003 18.3337C14.6027 18.3337 18.3337 14.6027 18.3337 10.0003C18.3337 5.39795 14.6027 1.66699 10.0003 1.66699C5.39795 1.66699 1.66699 5.39795 1.66699 10.0003C1.66699 14.6027 5.39795 18.3337 10.0003 18.3337Z" fill="#282828"/>
<path d="M14.1667 10.8337H5.83333C5.37333 10.8337 5 10.4603 5 10.0003C5 9.54033 5.37333 9.16699 5.83333 9.16699H14.1667C14.6267 9.16699 15 9.54033 15 10.0003C15 10.4603 14.6267 10.8337 14.1667 10.8337Z" fill="#282828"/>
<path d="M9.16699 14.1667V5.83333C9.16699 5.37333 9.54033 5 10.0003 5C10.4603 5 10.8337 5.37333 10.8337 5.83333V14.1667C10.8337 14.6267 10.4603 15 10.0003 15C9.54033 15 9.16699 14.6267 9.16699 14.1667Z" fill="#282828"/>
</svg>
