<svg width="24" height="24" viewBox="0 0 24 24" fill="none" xmlns="http://www.w3.org/2000/svg">
<path opacity="0.3" d="M21.7335 18.0249L13.7175 4.13995C13.3635 3.52595 12.7075 3.14795 11.9995 3.14795C11.2915 3.14795 10.6355 3.52595 10.2815 4.13995L2.2655 18.0249C1.9115 18.6389 1.9115 19.3939 2.2655 20.0089C2.6195 20.622 3.2745 20.9999 3.9835 20.9999H20.0165C20.7245 20.9999 21.3805 20.6219 21.7345 20.0079C22.0885 19.3939 22.0885 18.6389 21.7335 18.0249Z" fill="#DC3545"/>
<path d="M13.1783 17.7463C13.1783 18.0993 12.9733 19.0003 11.9933 19.0003C11.0133 19.0003 10.8203 18.0983 10.8203 17.7463C10.8203 17.4013 11.0383 16.4773 11.9933 16.4773C12.9483 16.4773 13.1783 17.4013 13.1783 17.7463ZM10.9183 13.9193V9.5683C10.9183 8.9713 11.4023 8.4873 11.9993 8.4873C12.5963 8.4873 13.0803 8.9713 13.0803 9.5683V13.9203C13.0803 14.5163 12.5963 15.0003 11.9993 15.0003C11.4023 15.0003 10.9183 14.5163 10.9183 13.9193Z" fill="#DC3545"/>
</svg>
