<svg width="25" height="24" viewBox="0 0 25 24" fill="none" xmlns="http://www.w3.org/2000/svg">
<path opacity="0.3" d="M17.488 4.50781C15.57 4.50781 14.768 5.68581 13.439 5.68581C12.072 5.68581 10.823 4.58081 9.169 4.58081C6.919 4.58181 3.5 6.66681 3.5 11.5758C3.5 16.0428 7.547 20.9998 9.831 20.9998C11.219 21.0138 11.556 20.1258 13.439 20.1168C15.324 20.1028 15.73 21.0118 17.12 20.9998C18.685 20.9878 19.908 19.2698 20.801 17.9078C20.951 17.6788 21.08 17.4768 21.197 17.2868C21.746 16.3898 21.529 15.2488 20.717 14.5798C18.789 12.9908 18.51 9.64181 20.661 7.98381C21.431 7.38981 21.395 6.19181 20.586 5.65281C19.569 4.97281 18.353 4.50781 17.488 4.50781Z" fill="#E7E7E7"/>
<path d="M17.1119 0.810918C17.1859 0.329918 16.7669 -0.101082 16.2959 0.020918C15.3689 0.260918 14.4359 0.790918 13.8249 1.42592C13.2939 1.98092 12.8469 2.73592 12.7459 3.52792C12.6889 3.97792 13.0709 4.37992 13.5169 4.30092C14.5139 4.12392 15.4499 3.56492 16.0579 2.89192C16.5709 2.32592 16.9919 1.59692 17.1119 0.810918Z" fill="#E7E7E7"/>
</svg>
