<svg width="29" height="18" viewBox="0 0 29 18" fill="none" xmlns="http://www.w3.org/2000/svg">
<path d="M17.9999 2.63184H10.5332V15.8423H17.9999V2.63184Z" fill="#FF5F00"/>
<path d="M11.0065 9.2369C11.0053 7.96464 11.2981 6.70879 11.8628 5.56442C12.4275 4.42005 13.2492 3.41717 14.2657 2.63168C13.0069 1.6575 11.4951 1.05166 9.90302 0.883432C8.31099 0.7152 6.70299 0.991348 5.26284 1.68033C3.82268 2.3693 2.60845 3.44331 1.75896 4.77958C0.90947 6.11585 0.458984 7.66047 0.458984 9.2369C0.458984 10.8133 0.90947 12.3579 1.75896 13.6942C2.60845 15.0305 3.82268 16.1045 5.26284 16.7935C6.70299 17.4824 8.31099 17.7586 9.90302 17.5904C11.4951 17.4221 13.0069 16.8163 14.2657 15.8421C13.2492 15.0566 12.4275 14.0537 11.8628 12.9094C11.2982 11.765 11.0053 10.5092 11.0065 9.2369Z" fill="#EB001B"/>
<path d="M28.072 9.2369C28.072 10.8133 27.6216 12.3579 26.7721 13.6942C25.9227 15.0305 24.7085 16.1045 23.2684 16.7934C21.8283 17.4824 20.2203 17.7586 18.6283 17.5904C17.0363 17.4221 15.5244 16.8163 14.2656 15.8421C15.2813 15.0558 16.1023 14.0528 16.6669 12.9086C17.2315 11.7644 17.5249 10.509 17.5249 9.2369C17.5249 7.96484 17.2315 6.70938 16.6669 5.56519C16.1023 4.42101 15.2813 3.41796 14.2656 2.63168C15.5244 1.65749 17.0363 1.05166 18.6283 0.88343C20.2203 0.715199 21.8283 0.99136 23.2684 1.68035C24.7085 2.36933 25.9227 3.44334 26.7721 4.77961C27.6216 6.11588 28.072 7.66049 28.072 9.2369Z" fill="#F79E1B"/>
</svg>
