<svg width="40" height="17" viewBox="0 0 40 17" fill="none" xmlns="http://www.w3.org/2000/svg">
<path fill-rule="evenodd" clip-rule="evenodd" d="M30.0881 5.30338C30.0728 5.30342 28.2143 5.30759 27.9661 5.30759C26.8879 5.30759 25.9085 6.17726 25.7716 7.36865C26.3449 6.79223 27.1062 6.45821 28.0286 6.45821C30.0275 6.45821 31.2234 7.77008 31.2234 9.79056C31.2233 11.8781 29.6024 13.255 27.4194 13.255C25.1625 13.255 23.5168 11.7966 23.5168 8.4912C23.5168 5.6539 25.2041 3.31781 27.7022 3.27297C28.7955 3.27297 31.1477 3.21777 31.1477 3.21777L30.0881 5.30338ZM27.4328 8.30551C26.5977 8.30551 26.0358 8.86755 26.0357 9.80459C26.0357 10.6863 26.5976 11.3301 27.4328 11.3301C28.3059 11.3281 28.8051 10.6335 28.8051 9.79033C28.8051 8.85352 28.2433 8.30555 27.4328 8.30551Z" fill="black"/>
<path d="M20.2207 5.4989C21.1518 5.4989 21.9524 5.75569 22.5534 6.22435C22.2259 6.82128 21.5941 8.01368 21.5914 8.0188C21.5808 8.01307 20.7216 7.55227 20.0711 7.55223C19.0036 7.55223 18.226 8.19033 18.226 9.30388C18.226 10.4455 19.1071 11.088 20.0959 11.0579C20.9525 10.9935 21.5273 10.6544 21.5319 10.6517L22.4343 12.3692C21.8564 12.7511 20.9081 12.9995 20.2207 13.0259C17.7615 13.0723 16.0508 11.5328 16.0508 9.28985C16.0508 7.07516 17.8709 5.4989 20.2207 5.4989Z" fill="black"/>
<path d="M39.6528 13.0039H37.2141V8.07539H34.8661V13.0039H32.4277V5.97762H39.6528V13.0039Z" fill="black"/>
<path d="M0.771484 3.5957L2.70629 7.15365V9.3239L0.773748 12.8749L0.771484 3.5957Z" fill="#5B57A2"/>
<path d="M8.20117 5.85868L10.0142 4.71548L13.7245 4.71191L8.20117 8.19302V5.85868Z" fill="#D90751"/>
<path d="M8.1908 3.57492L8.20105 8.28552L6.26172 7.05959V0.0180664L8.1908 3.57492Z" fill="#FAB718"/>
<path d="M13.7244 4.71237L10.0139 4.71593L8.1908 3.57492L6.26172 0.0180664L13.7244 4.71237Z" fill="#ED6F26"/>
<path d="M8.20105 12.8948V10.6094L6.26172 9.40674L6.26278 16.4552L8.20105 12.8948Z" fill="#63B22F"/>
<path d="M10.0088 11.7618L2.70616 7.15365L0.771484 3.5957L13.7159 11.7571L10.0088 11.7618Z" fill="#1487C9"/>
<path d="M6.26172 16.4552L8.19972 12.8948L10.0082 11.762L13.7152 11.7573L6.26172 16.4552Z" fill="#017F36"/>
<path d="M0.775391 12.8749L6.27852 9.40663L4.42839 8.23877L2.70794 9.32389L0.775391 12.8749Z" fill="#984995"/>
</svg>
