<svg width="30" height="13" viewBox="0 0 30 13" fill="none" xmlns="http://www.w3.org/2000/svg">
<path d="M8.28906 8.38281H9.875C9.77604 9.50781 9.27344 10.4323 8.36719 11.1562C7.46094 11.8802 6.34635 12.2422 5.02344 12.2422C4.21094 12.2422 3.48438 12.0964 2.84375 11.8047C2.20312 11.5078 1.67708 11.099 1.26562 10.5781C0.859375 10.0573 0.549479 9.44792 0.335938 8.75C0.122396 8.05208 0.015625 7.28906 0.015625 6.46094C0.015625 5.63802 0.122396 4.88021 0.335938 4.1875C0.549479 3.48958 0.859375 2.88021 1.26562 2.35938C1.67708 1.83854 2.20312 1.43229 2.84375 1.14062C3.48438 0.848958 4.21094 0.703125 5.02344 0.703125C6.29948 0.703125 7.3724 1.03646 8.24219 1.70312C9.11198 2.36979 9.63542 3.23698 9.8125 4.30469H8.21094C8.08073 3.64844 7.72135 3.11198 7.13281 2.69531C6.54427 2.27344 5.84115 2.0625 5.02344 2.0625C4.4401 2.0625 3.92188 2.18229 3.46875 2.42188C3.01562 2.65625 2.65104 2.97917 2.375 3.39062C2.10417 3.80208 1.89844 4.26823 1.75781 4.78906C1.6224 5.30469 1.55469 5.86198 1.55469 6.46094C1.55469 7.0651 1.6224 7.6276 1.75781 8.14844C1.89844 8.66927 2.10417 9.13802 2.375 9.55469C2.65104 9.96615 3.01562 10.2917 3.46875 10.5312C3.92188 10.7656 4.4401 10.8828 5.02344 10.8828C5.90365 10.8828 6.65104 10.6458 7.26562 10.1719C7.88542 9.69792 8.22656 9.10156 8.28906 8.38281ZM11.1519 12V0.945312H18.3081V2.36719H12.6597V5.28125H15.0269C16.5217 5.29688 17.5607 5.64323 18.1441 6.32031C18.7326 7.0026 19.0269 7.79167 19.0269 8.6875C19.0269 9.59896 18.717 10.3724 18.0972 11.0078C17.467 11.6536 16.4435 11.9844 15.0269 12H11.1519ZM12.6597 10.7344H14.8941C15.7482 10.7344 16.3993 10.5391 16.8472 10.1484C17.2951 9.75781 17.5191 9.26042 17.5191 8.65625C17.5191 7.25 16.6779 6.54688 14.9956 6.54688H12.6597V10.7344ZM20.3037 12V0.945312H29.1084V12H27.6006V2.36719H21.8116V12H20.3037Z" fill="#495057"/>
</svg>
