<svg width="25" height="25" viewBox="0 0 25 25" fill="none" xmlns="http://www.w3.org/2000/svg">
<path opacity="0.3" d="M7.37695 17.0818V6.83667C7.37695 5.42199 8.52355 4.27539 9.93823 4.27539H14.207L19.3296 9.39795V17.0818C19.3296 18.4965 18.183 19.6431 16.7683 19.6431H9.93823C8.52355 19.6431 7.37695 18.4965 7.37695 17.0818Z" fill="#E7E7E7"/>
<path d="M14.207 7.69043V4.27539L19.3296 9.39795H15.9146C14.9711 9.39795 14.207 8.63383 14.207 7.69043Z" fill="#E7E7E7"/>
<path d="M9.93872 19.6428C8.52404 19.6428 7.37744 18.4962 7.37744 17.0815V6.83643C6.43404 6.83643 5.66992 7.60054 5.66992 8.54395V18.7891C5.66992 20.2037 6.81652 21.3503 8.2312 21.3503H15.0613C16.0047 21.3503 16.7688 20.5862 16.7688 19.6428H9.93872Z" fill="#E7E7E7"/>
</svg>
