<svg width="28" height="28" viewBox="0 0 28 28" fill="none" xmlns="http://www.w3.org/2000/svg">
<g clip-path="url(#clip0_6110_16726)">
<g clip-path="url(#clip1_6110_16726)">
<path d="M14 28C21.732 28 28 21.732 28 14C28 6.26801 21.732 0 14 0C6.26801 0 0 6.26801 0 14C0 21.732 6.26801 28 14 28Z" fill="#E84142"/>
<path d="M18.9386 14.3638C19.4236 13.526 20.2063 13.526 20.6913 14.3638L23.7118 19.6662C24.1969 20.5039 23.8 21.1874 22.8299 21.1874H16.7449C15.7858 21.1874 15.389 20.5039 15.863 19.6662L18.9386 14.3638ZM13.0961 4.15592C13.5811 3.31812 14.3528 3.31812 14.8378 4.15592L15.5102 5.36852L17.0976 8.15749C17.4835 8.95119 17.4835 9.8882 17.0976 10.6819L11.7732 19.9087C11.2882 20.6583 10.4835 21.1323 9.59055 21.1874H5.17008C4.2 21.1874 3.80315 20.515 4.28819 19.6662L13.0961 4.15592Z" fill="white"/>
</g>
</g>
<defs>
<clipPath id="clip0_6110_16726">
<rect width="28" height="28" fill="white"/>
</clipPath>
<clipPath id="clip1_6110_16726">
<rect width="28" height="28" fill="white"/>
</clipPath>
</defs>
</svg>
