<svg width="28" height="28" viewBox="0 0 28 28" fill="none" xmlns="http://www.w3.org/2000/svg">
<g clip-path="url(#clip0_6110_16662)">
<g clip-path="url(#clip1_6110_16662)">
<path d="M14 28C21.732 28 28 21.732 28 14C28 6.26801 21.732 0 14 0C6.26801 0 0 6.26801 0 14C0 21.732 6.26801 28 14 28Z" fill="#26A17B"/>
<path fill-rule="evenodd" clip-rule="evenodd" d="M15.4193 15.3685V15.3668C15.323 15.3738 14.8269 15.4035 13.72 15.4035C12.8362 15.4035 12.2141 15.3773 11.9954 15.3668V15.3694C8.59337 15.2198 6.05412 14.6274 6.05412 13.9186C6.05412 13.2108 8.59337 12.6184 11.9954 12.4661V14.7796C12.2176 14.7954 12.8546 14.833 13.7349 14.833C14.791 14.833 15.3204 14.7893 15.4193 14.7805V12.4679C18.8143 12.6192 21.3474 13.2116 21.3474 13.9186C21.3474 14.6274 18.8143 15.218 15.4193 15.3685ZM15.4193 12.2273V10.157H20.1565V7H7.25813V10.157H11.9954V12.2264C8.14537 12.4031 5.25 13.1661 5.25 14.0796C5.25 14.9931 8.14537 15.7552 11.9954 15.9329V22.5671H15.4193V15.9311C19.2631 15.7544 22.1515 14.9922 22.1515 14.0796C22.1515 13.167 19.2631 12.4049 15.4193 12.2273Z" fill="white"/>
</g>
<g clip-path="url(#clip2_6110_16662)">
<path d="M22.1673 27.9997C25.389 27.9997 28.0007 25.388 28.0007 22.1663C28.0007 18.9447 25.389 16.333 22.1673 16.333C18.9457 16.333 16.334 18.9447 16.334 22.1663C16.334 25.388 18.9457 27.9997 22.1673 27.9997Z" fill="#F3BA2F"/>
<path d="M20.7513 21.5845L22.1673 20.1684L23.5841 21.5852L24.408 20.7612L22.1673 18.5205L19.9273 20.7605L20.7513 21.5845ZM18.5215 22.1663L19.3454 21.3424L20.1694 22.1663L19.3454 22.9903L18.5215 22.1663ZM20.7513 22.7482L22.1673 24.1643L23.5841 22.7475L24.408 23.5711L22.1673 25.8122L19.9273 23.5722L19.9262 23.5711L20.7513 22.7482ZM24.1652 22.1663L24.9892 21.3424L25.8132 22.1663L24.9892 22.9903L24.1652 22.1663ZM23.0029 22.1656H23.0037V22.1663L22.1673 23.0027L21.3321 22.1678L21.3306 22.1663L21.3321 22.1652L21.4783 22.0187L21.5493 21.9476L22.1673 21.33L23.0033 22.166L23.0029 22.1656Z" fill="white"/>
</g>
</g>
<defs>
<clipPath id="clip0_6110_16662">
<rect width="28" height="28" fill="white"/>
</clipPath>
<clipPath id="clip1_6110_16662">
<rect width="28" height="28" fill="white"/>
</clipPath>
<clipPath id="clip2_6110_16662">
<rect width="11.6667" height="11.6667" fill="white" transform="translate(16.334 16.333)"/>
</clipPath>
</defs>
</svg>
