<svg width="24" height="24" viewBox="0 0 24 24" fill="none" xmlns="http://www.w3.org/2000/svg">
<path opacity="0.3" d="M13.6759 20.1389H7.61339C6.24517 20.1389 5.09127 19.1197 4.92126 17.7624L3.41016 5.66992H17.8791L16.3671 17.7624C16.198 19.1197 15.0441 20.1389 13.6759 20.1389Z" fill="#DC3545"/>
<path d="M19.18 14.2071C19.7099 13.6771 20.5682 13.6771 21.0981 14.2071C21.6277 14.736 21.6277 15.5953 21.0981 16.1243L19.3433 17.8782L21.0981 19.6329C21.6277 20.1619 21.6277 21.0212 21.0981 21.5502C20.8341 21.815 20.487 21.9475 20.1399 21.9476C19.7927 21.9476 19.4449 21.8151 19.18 21.5502L17.4261 19.7963L15.6722 21.5502C15.4083 21.815 15.0612 21.9475 14.7141 21.9476C14.3668 21.9476 14.0191 21.8151 13.7541 21.5502C13.2245 21.0212 13.2245 20.1619 13.7541 19.6329L15.508 17.8782L13.7541 16.1243C13.2245 15.5953 13.2245 14.736 13.7541 14.2071C14.284 13.6771 15.1423 13.6771 15.6722 14.2071L17.4261 15.9609L19.18 14.2071Z" fill="#DC3545"/>
<path d="M13.3576 2.05273C13.8568 2.05273 14.2619 2.45787 14.2619 2.95704H16.9748C17.9741 2.95704 18.7834 3.7664 18.7834 4.76567C18.7834 5.76493 17.9741 6.57429 16.9748 6.57429H4.31448C3.31522 6.57429 2.50586 5.76493 2.50586 4.76567C2.50586 3.7664 3.31522 2.95704 4.31448 2.95704H7.02741C7.02741 2.45787 7.43254 2.05273 7.93172 2.05273H13.3576Z" fill="#DC3545"/>
</svg>
