<svg width="212" height="212" viewBox="0 0 212 212" fill="none" xmlns="http://www.w3.org/2000/svg">
<path d="M51.7451 5.89697L45.8483 5.89697V2.00508C45.8483 0.897798 46.7459 0.000166893 47.8532 0.000166893L51.7451 0.000166893V5.89697Z" fill="black"/>
<path d="M57.4661 0H51.5693V5.89681H57.4661V0Z" fill="black"/>
<path d="M63.1859 0H57.2891V5.89681H63.1859V0Z" fill="black"/>
<path d="M68.9056 0H63.0088V5.89681H68.9056V0Z" fill="black"/>
<path d="M68.7285 5.89648V-0.000321388H72.6204C73.7277 -0.000321388 74.6253 0.897309 74.6253 2.00459V5.89648H68.7285Z" fill="black"/>
<path d="M85.8887 1.68649V4.21622C85.8887 5.14791 86.6435 5.89681 87.5752 5.89681H90.1049C91.0425 5.89681 91.7914 5.14201 91.7914 4.21032V1.68649C91.7855 0.748894 91.0307 0 90.099 0H87.5752C86.6435 0 85.8887 0.754791 85.8887 1.68649Z" fill="black"/>
<path d="M103.225 5.89697L99.3327 5.89697C98.2254 5.89697 97.3278 4.99934 97.3278 3.89206V2.00508C97.3278 0.897798 98.2254 0.000166893 99.3327 0.000166893L103.225 0.000166893V5.89697Z" fill="black"/>
<path d="M108.945 0H103.048V5.89681H108.945V0Z" fill="black"/>
<path d="M108.768 5.89648V-0.000321388H112.659C113.767 -0.000321388 114.664 0.897309 114.664 2.00459V5.89648H108.768Z" fill="black"/>
<path d="M126.104 5.89648L120.208 5.89648V2.00459C120.208 0.897309 121.105 -0.000321388 122.213 -0.000321388L126.104 -0.000321388V5.89648Z" fill="black"/>
<path d="M125.928 5.89648V-0.000321388H129.82C130.927 -0.000321388 131.825 0.897309 131.825 2.00459V5.89648H125.928Z" fill="black"/>
<path d="M143.265 5.89648L137.368 5.89648V2.00459C137.368 0.897309 138.265 -0.000321388 139.373 -0.000321388L143.265 -0.000321388V5.89648Z" fill="black"/>
<path d="M143.087 5.89648V2.00459C143.087 0.897309 143.985 -0.000321388 145.092 -0.000321388H146.979C148.086 -0.000321388 148.984 0.897309 148.984 2.00459V5.89648H143.087Z" fill="black"/>
<path d="M160.247 1.68649V4.21622C160.247 5.14791 161.002 5.89681 161.934 5.89681H164.463C165.401 5.89681 166.15 5.14201 166.15 4.21032V1.68649C166.144 0.748894 165.389 0 164.457 0H161.934C161.002 0 160.247 0.754791 160.247 1.68649Z" fill="black"/>
<path d="M51.7454 5.71973H45.8486V11.6165H51.7454V5.71973Z" fill="black"/>
<path d="M57.4661 5.71973H51.5693V11.6165H57.4661V5.71973Z" fill="black"/>
<path d="M68.9053 5.71973V11.6165H65.0134C63.9061 11.6165 63.0085 10.7189 63.0085 9.61162V5.71973H68.9053Z" fill="black"/>
<path d="M74.6253 5.71973H68.7285V11.6165H74.6253V5.71973Z" fill="black"/>
<path d="M78.5469 11.4989V11.6169H80.3454V9.81836H80.2275C80.2275 10.7501 79.4727 11.4989 78.5469 11.4989Z" fill="black"/>
<path d="M80.1689 11.6167V7.72481C80.1689 6.61752 81.0666 5.71989 82.1739 5.71989H84.0608C85.1681 5.71989 86.0658 6.61752 86.0658 7.72481V11.6167H80.1689Z" fill="black"/>
<path d="M91.6084 7.40621V9.93594C91.6084 10.8676 92.3632 11.6165 93.2949 11.6165H95.8246C96.7622 11.6165 97.5111 10.8617 97.5111 9.93005V7.40621C97.5052 6.46862 96.7504 5.71973 95.8187 5.71973H93.2949C92.3632 5.71973 91.6084 6.47452 91.6084 7.40621Z" fill="black"/>
<path d="M114.664 5.71973H108.768V11.6165H114.664V5.71973Z" fill="black"/>
<path d="M118.586 11.4989V11.6169H120.384V9.81836H120.267C120.267 10.7501 119.512 11.4989 118.586 11.4989Z" fill="black"/>
<path d="M126.105 5.71973H120.208V11.6165H126.105V5.71973Z" fill="black"/>
<path d="M125.928 5.71973H131.825V9.61162C131.825 10.7189 130.927 11.6165 129.82 11.6165H125.928V5.71973Z" fill="black"/>
<path d="M143.264 5.71973H137.367V11.6165H143.264V5.71973Z" fill="black"/>
<path d="M154.704 11.6167H148.807V7.72481C148.807 6.61752 149.705 5.71989 150.812 5.71989L154.704 5.71989V11.6167Z" fill="black"/>
<path d="M154.527 11.6167V7.72481C154.527 6.61752 155.425 5.71989 156.532 5.71989H158.419C159.527 5.71989 160.424 6.61752 160.424 7.72481V11.6167H154.527Z" fill="black"/>
<path d="M51.7451 11.4399V17.3367H47.8532C46.7459 17.3367 45.8483 16.4391 45.8483 15.3318V11.4399H51.7451Z" fill="black"/>
<path d="M51.5693 11.4399H57.4661V15.3318C57.4661 16.4391 56.5685 17.3367 55.4612 17.3367H51.5693V11.4399Z" fill="black"/>
<path d="M74.625 11.4399V17.3367H70.7331C69.6258 17.3367 68.7282 16.4391 68.7282 15.3318V11.4399H74.625Z" fill="black"/>
<path d="M80.345 11.4399H74.4482V17.3367H80.345V11.4399Z" fill="black"/>
<path d="M86.0658 11.4399H80.1689V17.3367H86.0658V11.4399Z" fill="black"/>
<path d="M85.8887 17.3364V11.4396H89.7806C90.8878 11.4396 91.7855 12.3373 91.7855 13.4445V17.3364H85.8887Z" fill="black"/>
<path d="M114.664 11.4399V17.3367H110.772C109.665 17.3367 108.767 16.4391 108.767 15.3318V11.4399H114.664Z" fill="black"/>
<path d="M120.385 11.4399H114.488V17.3367H120.385V11.4399Z" fill="black"/>
<path d="M126.105 11.4399H120.208V17.3367H126.105V11.4399Z" fill="black"/>
<path d="M135.746 17.2187V17.3366H137.545V15.5381H137.427C137.427 16.4698 136.672 17.2187 135.746 17.2187Z" fill="black"/>
<path d="M143.264 11.4399H137.367V17.3367H143.264V11.4399Z" fill="black"/>
<path d="M154.704 11.4399V15.3318C154.704 16.4391 153.806 17.3367 152.699 17.3367H150.812C149.705 17.3367 148.807 16.4391 148.807 15.3318V11.4399H154.704Z" fill="black"/>
<path d="M158.625 17.2187V17.3366H160.424V15.5381H160.306C160.306 16.4698 159.551 17.2187 158.625 17.2187Z" fill="black"/>
<path d="M160.247 17.3364V13.4445C160.247 12.3373 161.145 11.4396 162.252 11.4396H164.139C165.246 11.4396 166.144 12.3373 166.144 13.4445V17.3364H160.247Z" fill="black"/>
<path d="M63.1855 23.0566H59.2937C58.1864 23.0566 57.2887 22.159 57.2887 21.0517V19.1647C57.2887 18.0575 58.1864 17.1598 59.2937 17.1598H63.1855V23.0566Z" fill="black"/>
<path d="M63.0088 23.0562V19.1643C63.0088 18.057 63.9064 17.1593 65.0137 17.1593H66.9007C68.008 17.1593 68.9056 18.057 68.9056 19.1643V23.0562H63.0088Z" fill="black"/>
<path d="M80.3447 17.1597V23.0565H76.4528C75.3456 23.0565 74.4479 22.1588 74.4479 21.0516V17.1597H80.3447Z" fill="black"/>
<path d="M86.0658 17.1597H80.1689V23.0565H86.0658V17.1597Z" fill="black"/>
<path d="M91.7855 17.1597H85.8887V23.0565H91.7855V17.1597Z" fill="black"/>
<path d="M126.104 17.1597V21.0516C126.104 22.1588 125.207 23.0565 124.1 23.0565H122.213C121.105 23.0565 120.208 22.1588 120.208 21.0516V17.1597H126.104Z" fill="black"/>
<path d="M137.544 23.0566H133.652C132.545 23.0566 131.647 22.159 131.647 21.0517V19.1647C131.647 18.0575 132.545 17.1598 133.652 17.1598H137.544V23.0566Z" fill="black"/>
<path d="M143.264 17.1597H137.367V23.0565H143.264V17.1597Z" fill="black"/>
<path d="M143.087 23.0562V17.1593H146.979C148.086 17.1593 148.984 18.057 148.984 19.1643V23.0562H143.087Z" fill="black"/>
<path d="M160.424 23.0566H156.532C155.425 23.0566 154.527 22.159 154.527 21.0517V19.1647C154.527 18.0575 155.425 17.1598 156.532 17.1598H160.424V23.0566Z" fill="black"/>
<path d="M166.144 17.1597H160.247V23.0565H166.144V17.1597Z" fill="black"/>
<path d="M51.5693 24.5659V27.0956C51.5693 28.0273 52.3241 28.7762 53.2558 28.7762H55.7856C56.7231 28.7762 57.472 28.0214 57.472 27.0897V24.5659C57.4661 23.6283 56.7114 22.8794 55.7797 22.8794H53.2558C52.3241 22.8794 51.5693 23.6342 51.5693 24.5659Z" fill="black"/>
<path d="M68.7285 24.5659V27.0956C68.7285 28.0273 69.4833 28.7762 70.415 28.7762H72.9447C73.8823 28.7762 74.6312 28.0214 74.6312 27.0897V24.5659C74.6253 23.6283 73.8705 22.8794 72.9388 22.8794H70.415C69.4833 22.8794 68.7285 23.6342 68.7285 24.5659Z" fill="black"/>
<path d="M86.0654 22.8794V28.7762H82.1735C81.0663 28.7762 80.1686 27.8786 80.1686 26.7713V22.8794H86.0654Z" fill="black"/>
<path d="M91.7855 22.8794H85.8887V28.7762H91.7855V22.8794Z" fill="black"/>
<path d="M108.768 24.5659V27.0956C108.768 28.0273 109.522 28.7762 110.454 28.7762H112.984C113.921 28.7762 114.67 28.0214 114.67 27.0897V24.5659C114.664 23.6283 113.91 22.8794 112.978 22.8794H110.454C109.522 22.8794 108.768 23.6342 108.768 24.5659Z" fill="black"/>
<path d="M143.264 22.8794H137.367V28.7762H143.264V22.8794Z" fill="black"/>
<path d="M148.984 22.8794H143.087V28.7762H148.984V22.8794Z" fill="black"/>
<path d="M148.808 28.7764V22.8796H152.7C153.807 22.8796 154.704 23.7772 154.704 24.8845V28.7764H148.808Z" fill="black"/>
<path d="M158.625 28.6586V28.7766H160.424V26.978H160.306C160.306 27.9097 159.551 28.6586 158.625 28.6586Z" fill="black"/>
<path d="M166.144 22.8794H160.247V28.7762H166.144V22.8794Z" fill="black"/>
<path d="M45.8486 34.4961V30.6042C45.8486 29.4969 46.7463 28.5993 47.8535 28.5993H49.7405C50.8478 28.5993 51.7454 29.4969 51.7454 30.6042V34.4961H45.8486Z" fill="black"/>
<path d="M63.1855 34.4966H57.2887V30.6047C57.2887 29.4974 58.1864 28.5998 59.2937 28.5998H63.1855V34.4966Z" fill="black"/>
<path d="M63.0088 34.4961V30.6042C63.0088 29.4969 63.9064 28.5993 65.0137 28.5993H66.9007C68.008 28.5993 68.9056 29.4969 68.9056 30.6042V34.4961H63.0088Z" fill="black"/>
<path d="M74.4482 30.2861V32.8158C74.4482 33.7475 75.203 34.4964 76.1347 34.4964H78.6645C79.6021 34.4964 80.3509 33.7416 80.3509 32.8099V30.2861C80.345 29.3485 79.5903 28.5996 78.6586 28.5996H76.1347C75.203 28.5996 74.4482 29.3544 74.4482 30.2861Z" fill="black"/>
<path d="M91.7852 28.5996V34.4964H87.8933C86.786 34.4964 85.8884 33.5988 85.8884 32.4915V28.5996H91.7852Z" fill="black"/>
<path d="M97.5052 28.5996H91.6084V34.4964H97.5052V28.5996Z" fill="black"/>
<path d="M103.225 28.5996H97.3281V34.4964H103.225V28.5996Z" fill="black"/>
<path d="M103.048 34.4961V28.5993H106.94C108.047 28.5993 108.945 29.4969 108.945 30.6042V34.4961H103.048Z" fill="black"/>
<path d="M137.544 34.4961H133.652C132.545 34.4961 131.647 33.5985 131.647 32.4912V30.6042C131.647 29.4969 132.545 28.5993 133.652 28.5993H137.544V34.4961Z" fill="black"/>
<path d="M143.264 28.5996H137.367V34.4964H143.264V28.5996Z" fill="black"/>
<path d="M148.984 28.5996H143.087V34.4964H148.984V28.5996Z" fill="black"/>
<path d="M154.704 28.5996H148.808V34.4964H154.704V28.5996Z" fill="black"/>
<path d="M160.424 28.5996H154.527V34.4964H160.424V28.5996Z" fill="black"/>
<path d="M166.144 28.5996H160.247V34.4964H166.144V28.5996Z" fill="black"/>
<path d="M51.7454 34.3193H45.8486V40.2161H51.7454V34.3193Z" fill="black"/>
<path d="M63.1855 34.3193V38.2112C63.1855 39.3185 62.2879 40.2161 61.1806 40.2161H59.2937C58.1864 40.2161 57.2887 39.3185 57.2887 38.2112V34.3193H63.1855Z" fill="black"/>
<path d="M68.7285 36.0058V38.5356C68.7285 39.4672 69.4833 40.2161 70.415 40.2161H72.9447C73.8823 40.2161 74.6312 39.4614 74.6312 38.5297V36.0058C74.6253 35.0682 73.8705 34.3193 72.9388 34.3193H70.415C69.4833 34.3193 68.7285 35.0741 68.7285 36.0058Z" fill="black"/>
<path d="M80.1689 36.0058V38.5356C80.1689 39.4672 80.9237 40.2161 81.8554 40.2161H84.3852C85.3228 40.2161 86.0716 39.4614 86.0716 38.5297V36.0058C86.0658 35.0682 85.311 34.3193 84.3793 34.3193H81.8554C80.9237 34.3193 80.1689 35.0741 80.1689 36.0058Z" fill="black"/>
<path d="M97.5052 34.3193H91.6084V40.2161H97.5052V34.3193Z" fill="black"/>
<path d="M108.945 34.3193H103.048V40.2161H108.945V34.3193Z" fill="black"/>
<path d="M114.488 36.0058V38.5356C114.488 39.4672 115.243 40.2161 116.175 40.2161H118.704C119.642 40.2161 120.391 39.4614 120.391 38.5297V36.0058C120.385 35.0682 119.63 34.3193 118.699 34.3193H116.175C115.243 34.3193 114.488 35.0741 114.488 36.0058Z" fill="black"/>
<path d="M125.928 36.0058V38.5356C125.928 39.4672 126.683 40.2161 127.614 40.2161H130.144C131.082 40.2161 131.83 39.4614 131.83 38.5297V36.0058C131.825 35.0682 131.07 34.3193 130.138 34.3193H127.614C126.683 34.3193 125.928 35.0741 125.928 36.0058Z" fill="black"/>
<path d="M143.264 34.3193H137.367V40.2161H143.264V34.3193Z" fill="black"/>
<path d="M154.704 34.3193V38.2112C154.704 39.3185 153.806 40.2161 152.699 40.2161H150.812C149.705 40.2161 148.807 39.3185 148.807 38.2112V34.3193H154.704Z" fill="black"/>
<path d="M166.144 34.3193V38.2112C166.144 39.3185 165.246 40.2161 164.139 40.2161H162.252C161.144 40.2161 160.247 39.3185 160.247 38.2112V34.3193H166.144Z" fill="black"/>
<path d="M51.7454 40.0396H45.8486V45.9364H51.7454V40.0396Z" fill="black"/>
<path d="M74.4482 41.726V44.2558C74.4482 45.1875 75.203 45.9364 76.1347 45.9364H78.6645C79.6021 45.9364 80.3509 45.1816 80.3509 44.2499V41.726C80.345 40.7884 79.5903 40.0396 78.6586 40.0396H76.1347C75.203 40.0396 74.4482 40.7943 74.4482 41.726Z" fill="black"/>
<path d="M84.2666 45.8183V45.9362H86.0651V44.1377H85.9472C85.9472 45.0694 85.1924 45.8183 84.2666 45.8183Z" fill="black"/>
<path d="M91.7852 45.936H85.8884V42.0441C85.8884 40.9369 86.786 40.0392 87.8933 40.0392H91.7852V45.936Z" fill="black"/>
<path d="M91.6084 40.0396H97.5052V43.9314C97.5052 45.0387 96.6076 45.9364 95.5003 45.9364H91.6084V40.0396Z" fill="black"/>
<path d="M108.944 40.0396V43.9314C108.944 45.0387 108.047 45.9364 106.939 45.9364H105.052C103.945 45.9364 103.048 45.0387 103.048 43.9314V40.0396H108.944Z" fill="black"/>
<path d="M118.586 45.8183V45.9362H120.384V44.1377H120.267C120.267 45.0694 119.512 45.8183 118.586 45.8183Z" fill="black"/>
<path d="M120.208 45.936V42.0441C120.208 40.9369 121.106 40.0392 122.213 40.0392H124.1C125.207 40.0392 126.105 40.9369 126.105 42.0441V45.936H120.208Z" fill="black"/>
<path d="M143.264 40.0396H137.367V45.9364H143.264V40.0396Z" fill="black"/>
<path d="M143.087 45.936V42.0441C143.087 40.9369 143.985 40.0392 145.092 40.0392H146.979C148.086 40.0392 148.984 40.9369 148.984 42.0441V45.936H143.087Z" fill="black"/>
<path d="M9.9082 51.538V51.6559H11.7067V49.8574H11.5888C11.5888 50.7891 10.834 51.538 9.9082 51.538Z" fill="black"/>
<path d="M17.4258 51.6562H11.529V47.7644C11.529 46.6571 12.4266 45.7594 13.5339 45.7594H17.4258V51.6562Z" fill="black"/>
<path d="M23.1468 45.7593H17.25V51.6561H23.1468V45.7593Z" fill="black"/>
<path d="M22.9697 51.6558V45.759H26.8616C27.9689 45.759 28.8665 46.6566 28.8665 47.7639V51.6558H22.9697Z" fill="black"/>
<path d="M34.4092 47.4458V49.9755C34.4092 50.9072 35.164 51.6561 36.0957 51.6561H38.6254C39.563 51.6561 40.3119 50.9013 40.3119 49.9696V47.4458C40.306 46.5082 39.5512 45.7593 38.6195 45.7593H36.0957C35.164 45.7593 34.4092 46.5141 34.4092 47.4458Z" fill="black"/>
<path d="M51.7451 45.7593V49.6512C51.7451 50.7585 50.8475 51.6561 49.7402 51.6561H47.8532C46.7459 51.6561 45.8483 50.7585 45.8483 49.6512V45.7593H51.7451Z" fill="black"/>
<path d="M86.0645 51.6562H80.1676V47.7644C80.1676 46.6571 81.0653 45.7594 82.1726 45.7594H86.0645V51.6562Z" fill="black"/>
<path d="M91.7855 45.7593H85.8887V51.6561H91.7855V45.7593Z" fill="black"/>
<path d="M114.664 51.6562H110.772C109.665 51.6562 108.767 50.7586 108.767 49.6513V47.7644C108.767 46.6571 109.665 45.7594 110.772 45.7594H114.664V51.6562Z" fill="black"/>
<path d="M120.385 45.7593H114.488V51.6561H120.385V45.7593Z" fill="black"/>
<path d="M120.208 45.7593H126.105V49.6512C126.105 50.7585 125.207 51.6561 124.1 51.6561H120.208V45.7593Z" fill="black"/>
<path d="M143.264 45.7593H137.367V51.6561H143.264V45.7593Z" fill="black"/>
<path d="M148.808 47.4458V49.9755C148.808 50.9072 149.562 51.6561 150.494 51.6561H153.024C153.961 51.6561 154.71 50.9013 154.71 49.9696V47.4458C154.704 46.5082 153.95 45.7593 153.018 45.7593H150.494C149.562 45.7593 148.808 46.5141 148.808 47.4458Z" fill="black"/>
<path d="M171.863 51.6558H165.966V47.7639C165.966 46.6566 166.864 45.759 167.971 45.759H171.863V51.6558Z" fill="black"/>
<path d="M177.583 45.7593H171.687V51.6561H177.583V45.7593Z" fill="black"/>
<path d="M177.407 51.6558V45.759H181.299C182.406 45.759 183.304 46.6566 183.304 47.7639V51.6558H177.407Z" fill="black"/>
<path d="M200.463 51.6558H196.571C195.464 51.6558 194.566 50.7581 194.566 49.6508V47.7639C194.566 46.6566 195.464 45.759 196.571 45.759H200.463V51.6558Z" fill="black"/>
<path d="M206.183 45.7593H200.286V51.6561H206.183V45.7593Z" fill="black"/>
<path d="M206.006 51.6558V47.7639C206.006 46.6566 206.903 45.759 208.011 45.759H209.898C211.005 45.759 211.903 46.6566 211.903 47.7639V51.6558H206.006Z" fill="black"/>
<path d="M4.18848 57.2582V57.3762H5.987V55.5776H5.86907C5.86907 56.5093 5.11428 57.2582 4.18848 57.2582Z" fill="black"/>
<path d="M11.7061 57.376H5.80925L5.80925 53.4841C5.80925 52.3768 6.70688 51.4792 7.81416 51.4792H11.7061V57.376Z" fill="black"/>
<path d="M17.4261 51.479H11.5293V57.3758H17.4261V51.479Z" fill="black"/>
<path d="M23.1468 51.479H17.25V57.3758H23.1468V51.479Z" fill="black"/>
<path d="M28.8665 51.479H22.9697V57.3758H28.8665V51.479Z" fill="black"/>
<path d="M28.6895 57.376V53.4841C28.6895 52.3768 29.5871 51.4792 30.6944 51.4792H32.5813C33.6886 51.4792 34.5863 52.3768 34.5863 53.4841V57.376H28.6895Z" fill="black"/>
<path d="M57.2891 53.1655V55.6952C57.2891 56.6269 58.0439 57.3758 58.9755 57.3758H61.5053C62.4429 57.3758 63.1918 56.621 63.1918 55.6893V53.1655C63.1859 52.2279 62.4311 51.479 61.4994 51.479H58.9755C58.0439 51.479 57.2891 52.2338 57.2891 53.1655Z" fill="black"/>
<path d="M86.0654 51.479V57.3758H82.1735C81.0663 57.3758 80.1686 56.4782 80.1686 55.3709V51.479H86.0654Z" fill="black"/>
<path d="M85.8887 51.479H91.7855V55.3709C91.7855 56.4782 90.8878 57.3758 89.7806 57.3758H85.8887V51.479Z" fill="black"/>
<path d="M103.225 57.376H97.3278V53.4841C97.3278 52.3768 98.2254 51.4792 99.3327 51.4792H103.225V57.376Z" fill="black"/>
<path d="M103.048 57.376V51.4792H106.94C108.047 51.4792 108.945 52.3768 108.945 53.4841V57.376H103.048Z" fill="black"/>
<path d="M120.385 51.479V55.3709C120.385 56.4782 119.487 57.3758 118.38 57.3758H116.493C115.386 57.3758 114.488 56.4782 114.488 55.3709V51.479H120.385Z" fill="black"/>
<path d="M125.928 53.1655V55.6952C125.928 56.6269 126.683 57.3758 127.614 57.3758H130.144C131.082 57.3758 131.83 56.621 131.83 55.6893V53.1655C131.825 52.2279 131.07 51.479 130.138 51.479H127.614C126.683 51.479 125.928 52.2338 125.928 53.1655Z" fill="black"/>
<path d="M135.746 57.2582V57.3762H137.545V55.5776H137.427C137.427 56.5093 136.672 57.2582 135.746 57.2582Z" fill="black"/>
<path d="M143.264 51.479H137.367V57.3758H143.264V51.479Z" fill="black"/>
<path d="M154.527 57.376V53.4841C154.527 52.3768 155.425 51.4792 156.532 51.4792H158.419C159.527 51.4792 160.424 52.3768 160.424 53.4841V57.376H154.527Z" fill="black"/>
<path d="M171.863 51.479V55.3709C171.863 56.4782 170.966 57.3758 169.858 57.3758H167.971C166.864 57.3758 165.966 56.4782 165.966 55.3709V51.479H171.863Z" fill="black"/>
<path d="M183.304 51.479H177.407V57.3758H183.304V51.479Z" fill="black"/>
<path d="M188.847 53.1655V55.6952C188.847 56.6269 189.601 57.3758 190.533 57.3758H193.063C194 57.3758 194.749 56.621 194.749 55.6893V53.1655C194.743 52.2279 193.989 51.479 193.057 51.479H190.533C189.601 51.479 188.847 52.2338 188.847 53.1655Z" fill="black"/>
<path d="M5.98633 63.0957H2.09444C0.987153 63.0957 0.0895224 62.1981 0.0895224 61.0908L0.0895224 59.2038C0.0895224 58.0965 0.987153 57.1989 2.09444 57.1989H5.98633L5.98633 63.0957Z" fill="black"/>
<path d="M11.7064 57.1992H5.80957V63.096H11.7064V57.1992Z" fill="black"/>
<path d="M34.4092 58.8857V61.4154C34.4092 62.3471 35.164 63.096 36.0957 63.096H38.6254C39.563 63.096 40.3119 62.3412 40.3119 61.4095V58.8857C40.306 57.9481 39.5512 57.1992 38.6195 57.1992H36.0957C35.164 57.1992 34.4092 57.954 34.4092 58.8857Z" fill="black"/>
<path d="M51.7451 63.0957H47.8532C46.7459 63.0957 45.8483 62.1981 45.8483 61.0908V59.2038C45.8483 58.0965 46.7459 57.1989 47.8532 57.1989H51.7451V63.0957Z" fill="black"/>
<path d="M51.5693 63.0957V59.2038C51.5693 58.0965 52.467 57.1989 53.5742 57.1989H55.4612C56.5685 57.1989 57.4661 58.0965 57.4661 59.2038V63.0957H51.5693Z" fill="black"/>
<path d="M74.625 63.0957H70.7331C69.6258 63.0957 68.7282 62.1981 68.7282 61.0908V59.2038C68.7282 58.0965 69.6258 57.1989 70.7331 57.1989H74.625V63.0957Z" fill="black"/>
<path d="M74.4482 63.0957V59.2038C74.4482 58.0965 75.3459 57.1989 76.4532 57.1989H78.3401C79.4474 57.1989 80.345 58.0965 80.345 59.2038V63.0957H74.4482Z" fill="black"/>
<path d="M95.707 62.978V63.0959H97.5056V61.2974H97.3876C97.3876 62.2291 96.6328 62.978 95.707 62.978Z" fill="black"/>
<path d="M103.225 57.1992H97.3281V63.096H103.225V57.1992Z" fill="black"/>
<path d="M108.945 57.1992H103.048V63.096H108.945V57.1992Z" fill="black"/>
<path d="M108.768 63.0957V57.1989H112.659C113.767 57.1989 114.664 58.0965 114.664 59.2038V63.0957H108.768Z" fill="black"/>
<path d="M118.586 62.978V63.0959H120.384V61.2974H120.267C120.267 62.2291 119.512 62.978 118.586 62.978Z" fill="black"/>
<path d="M120.208 63.0957V59.2038C120.208 58.0965 121.106 57.1989 122.213 57.1989H124.1C125.207 57.1989 126.105 58.0965 126.105 59.2038V63.0957H120.208Z" fill="black"/>
<path d="M137.544 63.0957H133.652C132.545 63.0957 131.647 62.1981 131.647 61.0908V59.2038C131.647 58.0965 132.545 57.1989 133.652 57.1989H137.544V63.0957Z" fill="black"/>
<path d="M143.264 57.1992H137.367V63.096H143.264V57.1992Z" fill="black"/>
<path d="M160.424 57.1992V63.096H156.532C155.425 63.096 154.527 62.1984 154.527 61.0911V57.1992H160.424Z" fill="black"/>
<path d="M160.247 63.0957V57.1989H164.139C165.246 57.1989 166.144 58.0965 166.144 59.2038V63.0957H160.247Z" fill="black"/>
<path d="M170.065 62.978V63.0959H171.864V61.2974H171.746C171.746 62.2291 170.991 62.978 170.065 62.978Z" fill="black"/>
<path d="M177.584 63.0957H171.687V59.2038C171.687 58.0965 172.585 57.1989 173.692 57.1989H177.584V63.0957Z" fill="black"/>
<path d="M183.304 57.1992H177.407V63.096H183.304V57.1992Z" fill="black"/>
<path d="M183.127 63.0957V59.2038C183.127 58.0965 184.025 57.1989 185.132 57.1989H187.019C188.126 57.1989 189.024 58.0965 189.024 59.2038V63.0957H183.127Z" fill="black"/>
<path d="M200.463 63.0957H196.571C195.464 63.0957 194.566 62.1981 194.566 61.0908V59.2038C194.566 58.0965 195.464 57.1989 196.571 57.1989H200.463V63.0957Z" fill="black"/>
<path d="M206.183 57.1992H200.286V63.096H206.183V57.1992Z" fill="black"/>
<path d="M206.006 63.0957V59.2038C206.006 58.0965 206.903 57.1989 208.011 57.1989H209.898C211.005 57.1989 211.903 58.0965 211.903 59.2038V63.0957H206.006Z" fill="black"/>
<path d="M11.7064 62.9189H5.80957V68.8158H11.7064V62.9189Z" fill="black"/>
<path d="M17.25 64.6054V67.1352C17.25 68.0669 18.0048 68.8158 18.9365 68.8158H21.4662C22.4038 68.8158 23.1527 68.061 23.1527 67.1293V64.6054C23.1468 63.6678 22.392 62.9189 21.4603 62.9189H18.9365C18.0048 62.9189 17.25 63.6737 17.25 64.6054Z" fill="black"/>
<path d="M40.1289 64.6054V67.1352C40.1289 68.0669 40.8837 68.8158 41.8154 68.8158H44.3451C45.2827 68.8158 46.0316 68.061 46.0316 67.1293V64.6054C46.0257 63.6678 45.2709 62.9189 44.3392 62.9189H41.8154C40.8837 62.9189 40.1289 63.6737 40.1289 64.6054Z" fill="black"/>
<path d="M61.3867 68.6977V68.8156H63.1852V67.0171H63.0673C63.0673 67.9488 62.3125 68.6977 61.3867 68.6977Z" fill="black"/>
<path d="M63.0088 68.8154V64.9235C63.0088 63.8163 63.9064 62.9186 65.0137 62.9186H66.9007C68.008 62.9186 68.9056 63.8163 68.9056 64.9235V68.8154H63.0088Z" fill="black"/>
<path d="M91.7852 68.8159H85.8884V64.924C85.8884 63.8167 86.786 62.9191 87.8933 62.9191H91.7852V68.8159Z" fill="black"/>
<path d="M97.5052 62.9189H91.6084V68.8158H97.5052V62.9189Z" fill="black"/>
<path d="M103.225 62.9189H97.3281V68.8158H103.225V62.9189Z" fill="black"/>
<path d="M108.945 62.9189H103.048V68.8158H108.945V62.9189Z" fill="black"/>
<path d="M114.664 62.9189H108.768V68.8158H114.664V62.9189Z" fill="black"/>
<path d="M120.385 62.9189H114.488V68.8158H120.385V62.9189Z" fill="black"/>
<path d="M126.105 62.9189H120.208V68.8158H126.105V62.9189Z" fill="black"/>
<path d="M143.264 62.9189V66.8108C143.264 67.9181 142.366 68.8158 141.259 68.8158H139.372C138.264 68.8158 137.367 67.9181 137.367 66.8108V62.9189H143.264Z" fill="black"/>
<path d="M148.808 64.6054V67.1352C148.808 68.0669 149.562 68.8158 150.494 68.8158H153.024C153.961 68.8158 154.71 68.061 154.71 67.1293V64.6054C154.704 63.6678 153.95 62.9189 153.018 62.9189H150.494C149.562 62.9189 148.808 63.6737 148.808 64.6054Z" fill="black"/>
<path d="M166.144 62.9189V68.8158H162.252C161.144 68.8158 160.247 67.9181 160.247 66.8108V62.9189H166.144Z" fill="black"/>
<path d="M171.864 62.9189H165.967V68.8158H171.864V62.9189Z" fill="black"/>
<path d="M177.583 62.9189H171.687V68.8158H177.583V62.9189Z" fill="black"/>
<path d="M11.7061 68.6387V72.5306C11.7061 73.6378 10.8084 74.5355 9.70114 74.5355H7.81416C6.70688 74.5355 5.80925 73.6378 5.80925 72.5306V68.6387H11.7061Z" fill="black"/>
<path d="M34.5859 74.5356H30.694C29.5868 74.5356 28.6891 73.638 28.6891 72.5307V70.6438C28.6891 69.5365 29.5868 68.6388 30.694 68.6388H34.5859V74.5356Z" fill="black"/>
<path d="M34.4092 74.5356V70.6438C34.4092 69.5365 35.3068 68.6388 36.4141 68.6388H38.3011C39.4084 68.6388 40.306 69.5365 40.306 70.6438V74.5356H34.4092Z" fill="black"/>
<path d="M51.7451 74.5356H47.8532C46.7459 74.5356 45.8483 73.638 45.8483 72.5307V70.6438C45.8483 69.5365 46.7459 68.6388 47.8532 68.6388H51.7451V74.5356Z" fill="black"/>
<path d="M57.4661 68.6387H51.5693V74.5355H57.4661V68.6387Z" fill="black"/>
<path d="M63.1859 68.6387H57.2891V74.5355H63.1859V68.6387Z" fill="black"/>
<path d="M68.9056 68.6387H63.0088V74.5355H68.9056V68.6387Z" fill="black"/>
<path d="M74.6253 68.6387H68.7285V74.5355H74.6253V68.6387Z" fill="black"/>
<path d="M74.4482 74.5356V68.6388H78.3401C79.4474 68.6388 80.345 69.5365 80.345 70.6438V74.5356H74.4482Z" fill="black"/>
<path d="M91.7855 68.6387H85.8887V74.5355H91.7855V68.6387Z" fill="black"/>
<path d="M103.225 68.6387V74.5355H99.3327C98.2254 74.5355 97.3278 73.6378 97.3278 72.5306V68.6387H103.225Z" fill="black"/>
<path d="M108.945 68.6387H103.048V74.5355H108.945V68.6387Z" fill="black"/>
<path d="M108.768 68.6387H114.664V72.5306C114.664 73.6378 113.767 74.5355 112.659 74.5355H108.768V68.6387Z" fill="black"/>
<path d="M126.105 68.6387H120.208V74.5355H126.105V68.6387Z" fill="black"/>
<path d="M131.647 70.3252V72.8549C131.647 73.7866 132.402 74.5355 133.334 74.5355H135.864C136.801 74.5355 137.55 73.7807 137.55 72.849V70.3252C137.544 69.3876 136.789 68.6387 135.858 68.6387H133.334C132.402 68.6387 131.647 69.3935 131.647 70.3252Z" fill="black"/>
<path d="M143.087 70.3252V72.8549C143.087 73.7866 143.842 74.5355 144.773 74.5355H147.303C148.241 74.5355 148.99 73.7807 148.99 72.849V70.3252C148.984 69.3876 148.229 68.6387 147.297 68.6387H144.773C143.842 68.6387 143.087 69.3935 143.087 70.3252Z" fill="black"/>
<path d="M154.527 70.3252V72.8549C154.527 73.7866 155.282 74.5355 156.214 74.5355H158.744C159.681 74.5355 160.43 73.7807 160.43 72.849V70.3252C160.424 69.3876 159.669 68.6387 158.738 68.6387H156.214C155.282 68.6387 154.527 69.3935 154.527 70.3252Z" fill="black"/>
<path d="M171.863 68.6387V74.5355H167.971C166.864 74.5355 165.966 73.6378 165.966 72.5306V68.6387H171.863Z" fill="black"/>
<path d="M177.583 68.6387H171.687V74.5355H177.583V68.6387Z" fill="black"/>
<path d="M183.304 68.6387H177.407V74.5355H183.304V68.6387Z" fill="black"/>
<path d="M183.127 74.5356V70.6438C183.127 69.5365 184.025 68.6388 185.132 68.6388H187.019C188.126 68.6388 189.024 69.5365 189.024 70.6438V74.5356H183.127Z" fill="black"/>
<path d="M194.566 70.3252V72.8549C194.566 73.7866 195.321 74.5355 196.253 74.5355H198.783C199.72 74.5355 200.469 73.7807 200.469 72.849V70.3252C200.463 69.3876 199.708 68.6387 198.777 68.6387H196.253C195.321 68.6387 194.566 69.3935 194.566 70.3252Z" fill="black"/>
<path d="M0.0898438 76.0454V78.5751C0.0898438 79.5068 0.844635 80.2557 1.77633 80.2557H4.30606C5.24365 80.2557 5.99255 79.5009 5.99255 78.5692V76.0454C5.98665 75.1078 5.23186 74.3589 4.30016 74.3589H1.77633C0.844635 74.3589 0.0898438 75.1137 0.0898438 76.0454Z" fill="black"/>
<path d="M17.4258 80.2554H13.5339C12.4266 80.2554 11.529 79.3577 11.529 78.2505V76.3635C11.529 75.2562 12.4266 74.3586 13.5339 74.3586H17.4258V80.2554Z" fill="black"/>
<path d="M17.25 80.2554V74.3586H21.1419C22.2492 74.3586 23.1468 75.2562 23.1468 76.3635V80.2554H17.25Z" fill="black"/>
<path d="M40.1289 76.0454V78.5751C40.1289 79.5068 40.8837 80.2557 41.8154 80.2557H44.3451C45.2827 80.2557 46.0316 79.5009 46.0316 78.5692V76.0454C46.0257 75.1078 45.2709 74.3589 44.3392 74.3589H41.8154C40.8837 74.3589 40.1289 75.1137 40.1289 76.0454Z" fill="black"/>
<path d="M74.625 74.3589V80.2557H70.7331C69.6258 80.2557 68.7282 79.3581 68.7282 78.2508V74.3589H74.625Z" fill="black"/>
<path d="M80.345 74.3589H74.4482V80.2557H80.345V74.3589Z" fill="black"/>
<path d="M84.2666 80.1376V80.2556H86.0651V78.457H85.9472C85.9472 79.3887 85.1924 80.1376 84.2666 80.1376Z" fill="black"/>
<path d="M91.7855 74.3589H85.8887V80.2557H91.7855V74.3589Z" fill="black"/>
<path d="M108.945 74.3589H103.048V80.2557H108.945V74.3589Z" fill="black"/>
<path d="M120.384 80.2554H116.492C115.385 80.2554 114.487 79.3577 114.487 78.2505V76.3635C114.487 75.2562 115.385 74.3586 116.492 74.3586H120.384V80.2554Z" fill="black"/>
<path d="M126.105 74.3589H120.208V80.2557H126.105V74.3589Z" fill="black"/>
<path d="M147.186 80.1376V80.2556H148.984V78.457H148.866C148.866 79.3887 148.111 80.1376 147.186 80.1376Z" fill="black"/>
<path d="M148.808 80.2554V76.3635C148.808 75.2562 149.705 74.3586 150.813 74.3586H152.7C153.807 74.3586 154.704 75.2562 154.704 76.3635V80.2554H148.808Z" fill="black"/>
<path d="M160.247 76.0454V78.5751C160.247 79.5068 161.002 80.2557 161.934 80.2557H164.463C165.401 80.2557 166.15 79.5009 166.15 78.5692V76.0454C166.144 75.1078 165.389 74.3589 164.457 74.3589H161.934C161.002 74.3589 160.247 75.1137 160.247 76.0454Z" fill="black"/>
<path d="M183.304 74.3589V78.2508C183.304 79.3581 182.406 80.2557 181.299 80.2557H179.412C178.305 80.2557 177.407 79.3581 177.407 78.2508V74.3589H183.304Z" fill="black"/>
<path d="M188.847 80.2554V76.3635C188.847 75.2562 189.744 74.3586 190.852 74.3586H192.739C193.846 74.3586 194.743 75.2562 194.743 76.3635V80.2554H188.847Z" fill="black"/>
<path d="M198.665 80.1376V80.2556H200.464V78.457H200.346C200.346 79.3887 199.591 80.1376 198.665 80.1376Z" fill="black"/>
<path d="M200.286 80.2554V76.3635C200.286 75.2562 201.184 74.3586 202.291 74.3586H204.178C205.285 74.3586 206.183 75.2562 206.183 76.3635V80.2554H200.286Z" fill="black"/>
<path d="M23.1465 80.0786V85.9754H19.2546C18.1473 85.9754 17.2497 85.0778 17.2497 83.9705V80.0786H23.1465Z" fill="black"/>
<path d="M22.9697 85.9751V80.0783H26.8616C27.9689 80.0783 28.8665 80.9759 28.8665 82.0832V85.9751H22.9697Z" fill="black"/>
<path d="M34.4092 81.7651V84.2948C34.4092 85.2265 35.164 85.9754 36.0957 85.9754H38.6254C39.563 85.9754 40.3119 85.2206 40.3119 84.2889V81.7651C40.306 80.8275 39.5512 80.0786 38.6195 80.0786H36.0957C35.164 80.0786 34.4092 80.8334 34.4092 81.7651Z" fill="black"/>
<path d="M57.2891 85.9751V82.0832C57.2891 80.9759 58.1867 80.0783 59.294 80.0783H61.181C62.2882 80.0783 63.1859 80.9759 63.1859 82.0832V85.9751H57.2891Z" fill="black"/>
<path d="M80.345 80.0786H74.4482V85.9754H80.345V80.0786Z" fill="black"/>
<path d="M86.0658 80.0786H80.1689V85.9754H86.0658V80.0786Z" fill="black"/>
<path d="M91.7855 80.0786H85.8887V85.9754H91.7855V80.0786Z" fill="black"/>
<path d="M91.6084 85.9751V80.0783H95.5003C96.6076 80.0783 97.5052 80.9759 97.5052 82.0832V85.9751H91.6084Z" fill="black"/>
<path d="M126.105 80.0786H120.208V85.9754H126.105V80.0786Z" fill="black"/>
<path d="M125.928 85.9751V82.0832C125.928 80.9759 126.825 80.0783 127.933 80.0783H129.82C130.927 80.0783 131.825 80.9759 131.825 82.0832V85.9751H125.928Z" fill="black"/>
<path d="M148.984 85.9751H145.092C143.985 85.9751 143.088 85.0775 143.088 83.9702V82.0832C143.088 80.9759 143.985 80.0783 145.092 80.0783H148.984V85.9751Z" fill="black"/>
<path d="M154.704 80.0786H148.808V85.9754H154.704V80.0786Z" fill="black"/>
<path d="M154.527 85.9751V80.0783H158.419C159.527 80.0783 160.424 80.9759 160.424 82.0832V85.9751H154.527Z" fill="black"/>
<path d="M171.863 85.9751H165.966V82.0832C165.966 80.9759 166.864 80.0783 167.971 80.0783H171.863V85.9751Z" fill="black"/>
<path d="M171.687 85.9751V80.0783H175.578C176.686 80.0783 177.583 80.9759 177.583 82.0832V85.9751H171.687Z" fill="black"/>
<path d="M194.743 80.0786V85.9754H190.851C189.744 85.9754 188.846 85.0778 188.846 83.9705V80.0786H194.743Z" fill="black"/>
<path d="M200.463 80.0786H194.566V85.9754H200.463V80.0786Z" fill="black"/>
<path d="M206.183 80.0786H200.286V85.9754H206.183V80.0786Z" fill="black"/>
<path d="M206.006 85.9751V82.0832C206.006 80.9759 206.903 80.0783 208.011 80.0783H209.898C211.005 80.0783 211.903 80.9759 211.903 82.0832V85.9751H206.006Z" fill="black"/>
<path d="M5.98633 91.6953H2.09444C0.987153 91.6953 0.0895224 90.7977 0.0895224 89.6904L0.0895224 87.8034C0.0895224 86.6961 0.987153 85.7985 2.09444 85.7985H5.98633L5.98633 91.6953Z" fill="black"/>
<path d="M11.7064 85.7983H5.80957V91.6951H11.7064V85.7983Z" fill="black"/>
<path d="M11.5293 91.6953V85.7985H15.4212C16.5285 85.7985 17.4261 86.6961 17.4261 87.8034V91.6953H11.5293Z" fill="black"/>
<path d="M28.8662 85.7983V91.6951H24.9743C23.867 91.6951 22.9694 90.7975 22.9694 89.6902V85.7983H28.8662Z" fill="black"/>
<path d="M28.6895 91.6953V87.8034C28.6895 86.6961 29.5871 85.7985 30.6944 85.7985H32.5813C33.6886 85.7985 34.5863 86.6961 34.5863 87.8034V91.6953H28.6895Z" fill="black"/>
<path d="M45.8486 91.6953V87.8034C45.8486 86.6961 46.7463 85.7985 47.8535 85.7985H49.7405C50.8478 85.7985 51.7454 86.6961 51.7454 87.8034V91.6953H45.8486Z" fill="black"/>
<path d="M63.1859 85.7983H57.2891V91.6951H63.1859V85.7983Z" fill="black"/>
<path d="M80.3447 85.7983V91.6951H76.4528C75.3456 91.6951 74.4479 90.7975 74.4479 89.6902V85.7983H80.3447Z" fill="black"/>
<path d="M86.0658 85.7983H80.1689V91.6951H86.0658V85.7983Z" fill="black"/>
<path d="M154.704 85.7983H148.808V91.6951H154.704V85.7983Z" fill="black"/>
<path d="M160.424 85.7983H154.527V91.6951H160.424V85.7983Z" fill="black"/>
<path d="M171.863 85.7983V91.6951H167.971C166.864 91.6951 165.966 90.7975 165.966 89.6902V85.7983H171.863Z" fill="black"/>
<path d="M177.583 85.7983H171.687V91.6951H177.583V85.7983Z" fill="black"/>
<path d="M177.407 91.6953V87.8034C177.407 86.6961 178.305 85.7985 179.412 85.7985H181.299C182.406 85.7985 183.304 86.6961 183.304 87.8034V91.6953H177.407Z" fill="black"/>
<path d="M206.183 85.7983H200.286V91.6951H206.183V85.7983Z" fill="black"/>
<path d="M17.4261 91.5186H11.5293V97.4154H17.4261V91.5186Z" fill="black"/>
<path d="M34.4092 93.205V95.7348C34.4092 96.6665 35.164 97.4154 36.0957 97.4154H38.6254C39.563 97.4154 40.3119 96.6606 40.3119 95.7289V93.205C40.306 92.2674 39.5512 91.5186 38.6195 91.5186H36.0957C35.164 91.5186 34.4092 92.2733 34.4092 93.205Z" fill="black"/>
<path d="M44.2275 97.2973V97.4152H46.0261V95.6167H45.9081C45.9081 96.5484 45.1533 97.2973 44.2275 97.2973Z" fill="black"/>
<path d="M51.7454 91.5186H45.8486V97.4154H51.7454V91.5186Z" fill="black"/>
<path d="M55.667 97.2973V97.4152H57.4655V95.6167H57.3476C57.3476 96.5484 56.5928 97.2973 55.667 97.2973Z" fill="black"/>
<path d="M63.1859 91.5186H57.2891V97.4154H63.1859V91.5186Z" fill="black"/>
<path d="M68.9056 91.5186H63.0088V97.4154H68.9056V91.5186Z" fill="black"/>
<path d="M68.7285 97.415V91.5182H72.6204C73.7277 91.5182 74.6253 92.4159 74.6253 93.5231V97.415H68.7285Z" fill="black"/>
<path d="M86.0658 91.5186H80.1689V97.4154H86.0658V91.5186Z" fill="black"/>
<path d="M131.647 97.415V91.5182H135.539C136.647 91.5182 137.544 92.4159 137.544 93.5231V97.415H131.647Z" fill="black"/>
<path d="M148.984 97.415H145.092C143.985 97.415 143.088 96.5174 143.088 95.4101V93.5231C143.088 92.4159 143.985 91.5182 145.092 91.5182H148.984V97.415Z" fill="black"/>
<path d="M154.704 91.5186H148.808V97.4154H154.704V91.5186Z" fill="black"/>
<path d="M154.527 91.5186H160.424V95.4104C160.424 96.5177 159.527 97.4154 158.419 97.4154H154.527V91.5186Z" fill="black"/>
<path d="M177.583 91.5186V95.4104C177.583 96.5177 176.685 97.4154 175.578 97.4154H173.691C172.584 97.4154 171.686 96.5177 171.686 95.4104V91.5186H177.583Z" fill="black"/>
<path d="M189.023 97.415H185.132C184.024 97.415 183.127 96.5174 183.127 95.4101V93.5231C183.127 92.4159 184.024 91.5182 185.132 91.5182H189.023V97.415Z" fill="black"/>
<path d="M194.743 91.5186H188.847V97.4154H194.743V91.5186Z" fill="black"/>
<path d="M200.463 91.5186H194.566V97.4154H200.463V91.5186Z" fill="black"/>
<path d="M206.183 91.5186H200.286V97.4154H206.183V91.5186Z" fill="black"/>
<path d="M206.006 97.415V93.5231C206.006 92.4159 206.903 91.5182 208.011 91.5182H209.898C211.005 91.5182 211.903 92.4159 211.903 93.5231V97.415H206.006Z" fill="black"/>
<path d="M17.4258 97.2383V103.135H13.5339C12.4266 103.135 11.529 102.237 11.529 101.13V97.2383H17.4258Z" fill="black"/>
<path d="M17.25 103.135V99.2429C17.25 98.1356 18.1476 97.238 19.2549 97.238H21.1419C22.2492 97.238 23.1468 98.1356 23.1468 99.2429V103.135H17.25Z" fill="black"/>
<path d="M28.6895 98.9248V101.454C28.6895 102.386 29.4442 103.135 30.3759 103.135H32.9057C33.8433 103.135 34.5922 102.38 34.5922 101.449V98.9248C34.5863 97.9872 33.8315 97.2383 32.8998 97.2383H30.3759C29.4442 97.2383 28.6895 97.9931 28.6895 98.9248Z" fill="black"/>
<path d="M38.5078 103.017V103.135H40.3063V101.336H40.1884C40.1884 102.268 39.4336 103.017 38.5078 103.017Z" fill="black"/>
<path d="M46.0254 103.135H40.1286V99.2434C40.1286 98.1361 41.0262 97.2384 42.1335 97.2384H46.0254V103.135Z" fill="black"/>
<path d="M51.7454 97.2383H45.8486V103.135H51.7454V97.2383Z" fill="black"/>
<path d="M57.4661 97.2383H51.5693V103.135H57.4661V97.2383Z" fill="black"/>
<path d="M63.1859 97.2383H57.2891V103.135H63.1859V97.2383Z" fill="black"/>
<path d="M74.6253 97.2383H68.7285V103.135H74.6253V97.2383Z" fill="black"/>
<path d="M78.5469 103.017V103.135H80.3454V101.336H80.2275C80.2275 102.268 79.4727 103.017 78.5469 103.017Z" fill="black"/>
<path d="M86.0658 97.2383H80.1689V103.135H86.0658V97.2383Z" fill="black"/>
<path d="M137.544 97.2383V103.135H133.652C132.545 103.135 131.647 102.237 131.647 101.13V97.2383H137.544Z" fill="black"/>
<path d="M137.367 103.135V97.238H141.259C142.366 97.238 143.264 98.1356 143.264 99.2429V103.135H137.367Z" fill="black"/>
<path d="M154.704 97.2383V101.13C154.704 102.237 153.806 103.135 152.699 103.135H150.812C149.705 103.135 148.807 102.237 148.807 101.13V97.2383H154.704Z" fill="black"/>
<path d="M166.144 103.135H162.252C161.144 103.135 160.247 102.238 160.247 101.13V99.2434C160.247 98.1361 161.144 97.2384 162.252 97.2384H166.144V103.135Z" fill="black"/>
<path d="M165.967 103.135V99.2429C165.967 98.1356 166.864 97.238 167.972 97.238H169.859C170.966 97.238 171.864 98.1356 171.864 99.2429V103.135H165.967Z" fill="black"/>
<path d="M177.407 98.9248V101.454C177.407 102.386 178.162 103.135 179.094 103.135H181.623C182.561 103.135 183.31 102.38 183.31 101.449V98.9248C183.304 97.9872 182.549 97.2383 181.618 97.2383H179.094C178.162 97.2383 177.407 97.9931 177.407 98.9248Z" fill="black"/>
<path d="M194.743 97.2383V101.13C194.743 102.237 193.846 103.135 192.738 103.135H190.851C189.744 103.135 188.846 102.237 188.846 101.13V97.2383H194.743Z" fill="black"/>
<path d="M5.98633 108.855H2.09444C0.987153 108.855 0.0895224 107.957 0.0895224 106.85L0.0895224 104.963C0.0895224 103.856 0.987153 102.958 2.09444 102.958H5.98633L5.98633 108.855Z" fill="black"/>
<path d="M5.80957 108.855V102.958H9.70146C10.8087 102.958 11.7064 103.856 11.7064 104.963V108.855H5.80957Z" fill="black"/>
<path d="M40.3057 108.855H36.4138C35.3065 108.855 34.4089 107.957 34.4089 106.85V104.963C34.4089 103.856 35.3065 102.958 36.4138 102.958H40.3057V108.855Z" fill="black"/>
<path d="M46.0257 102.958H40.1289V108.855H46.0257V102.958Z" fill="black"/>
<path d="M51.7454 102.958H45.8486V108.855H51.7454V102.958Z" fill="black"/>
<path d="M57.4661 102.958H51.5693V108.855H57.4661V102.958Z" fill="black"/>
<path d="M63.1859 102.958H57.2891V108.855H63.1859V102.958Z" fill="black"/>
<path d="M68.9056 102.958H63.0088V108.855H68.9056V102.958Z" fill="black"/>
<path d="M74.6253 102.958H68.7285V108.855H74.6253V102.958Z" fill="black"/>
<path d="M80.345 102.958H74.4482V108.855H80.345V102.958Z" fill="black"/>
<path d="M143.264 102.958V108.855H139.372C138.264 108.855 137.367 107.957 137.367 106.85V102.958H143.264Z" fill="black"/>
<path d="M143.087 108.855V104.963C143.087 103.856 143.985 102.958 145.092 102.958H146.979C148.086 102.958 148.984 103.856 148.984 104.963V108.855H143.087Z" fill="black"/>
<path d="M154.527 104.644V107.174C154.527 108.106 155.282 108.855 156.214 108.855H158.744C159.681 108.855 160.43 108.1 160.43 107.168V104.644C160.424 103.707 159.669 102.958 158.738 102.958H156.214C155.282 102.958 154.527 103.713 154.527 104.644Z" fill="black"/>
<path d="M183.127 104.644V107.174C183.127 108.106 183.882 108.855 184.813 108.855H187.343C188.281 108.855 189.03 108.1 189.03 107.168V104.644C189.024 103.707 188.269 102.958 187.337 102.958H184.813C183.882 102.958 183.127 103.713 183.127 104.644Z" fill="black"/>
<path d="M200.463 108.855H196.571C195.464 108.855 194.566 107.957 194.566 106.85V104.963C194.566 103.856 195.464 102.958 196.571 102.958H200.463V108.855Z" fill="black"/>
<path d="M206.183 102.958H200.286V108.855H206.183V102.958Z" fill="black"/>
<path d="M206.006 108.855V102.958H209.898C211.005 102.958 211.903 103.856 211.903 104.963V108.855H206.006Z" fill="black"/>
<path d="M11.7064 108.678H5.80957V114.575H11.7064V108.678Z" fill="black"/>
<path d="M11.5293 114.575V110.683C11.5293 109.576 12.4269 108.678 13.5342 108.678H15.4212C16.5285 108.678 17.4261 109.576 17.4261 110.683V114.575H11.5293Z" fill="black"/>
<path d="M22.9697 114.575V110.683C22.9697 109.576 23.8674 108.678 24.9746 108.678H26.8616C27.9689 108.678 28.8665 109.576 28.8665 110.683V114.575H22.9697Z" fill="black"/>
<path d="M63.1855 108.678V114.575H59.2937C58.1864 114.575 57.2887 113.677 57.2887 112.57V108.678H63.1855Z" fill="black"/>
<path d="M63.0088 108.678H68.9056V112.57C68.9056 113.677 68.008 114.575 66.9007 114.575H63.0088V108.678Z" fill="black"/>
<path d="M131.647 110.365V112.894C131.647 113.826 132.402 114.575 133.334 114.575H135.864C136.801 114.575 137.55 113.82 137.55 112.889V110.365C137.544 109.427 136.789 108.678 135.858 108.678H133.334C132.402 108.678 131.647 109.433 131.647 110.365Z" fill="black"/>
<path d="M160.247 110.365V112.894C160.247 113.826 161.002 114.575 161.934 114.575H164.463C165.401 114.575 166.15 113.82 166.15 112.889V110.365C166.144 109.427 165.389 108.678 164.457 108.678H161.934C161.002 108.678 160.247 109.433 160.247 110.365Z" fill="black"/>
<path d="M211.902 108.678V112.57C211.902 113.677 211.005 114.575 209.897 114.575H208.01C206.903 114.575 206.006 113.677 206.006 112.57V108.678H211.902Z" fill="black"/>
<path d="M5.98633 120.295H0.0895224L0.0895224 116.403C0.0895224 115.296 0.987153 114.398 2.09444 114.398H5.98633L5.98633 120.295Z" fill="black"/>
<path d="M11.7064 114.398H5.80957V120.295H11.7064V114.398Z" fill="black"/>
<path d="M28.8665 114.398H22.9697V120.295H28.8665V114.398Z" fill="black"/>
<path d="M40.3057 120.295H36.4138C35.3065 120.295 34.4089 119.397 34.4089 118.29V116.403C34.4089 115.296 35.3065 114.398 36.4138 114.398H40.3057V120.295Z" fill="black"/>
<path d="M40.1289 120.295V114.398H44.0208C45.1281 114.398 46.0257 115.296 46.0257 116.403V120.295H40.1289Z" fill="black"/>
<path d="M51.5693 116.084V118.614C51.5693 119.546 52.3241 120.295 53.2558 120.295H55.7856C56.7231 120.295 57.472 119.54 57.472 118.608V116.084C57.4661 115.147 56.7114 114.398 55.7797 114.398H53.2558C52.3241 114.398 51.5693 115.153 51.5693 116.084Z" fill="black"/>
<path d="M72.8271 120.177V120.295H74.6257V118.496H74.5077C74.5077 119.428 73.7529 120.177 72.8271 120.177Z" fill="black"/>
<path d="M80.3447 120.295H74.4479V116.403C74.4479 115.296 75.3456 114.398 76.4528 114.398H80.3447V120.295Z" fill="black"/>
<path d="M86.0658 114.398H80.1689V120.295H86.0658V114.398Z" fill="black"/>
<path d="M125.928 120.295V114.398H129.82C130.927 114.398 131.825 115.296 131.825 116.403V120.295H125.928Z" fill="black"/>
<path d="M143.265 120.295H139.373C138.265 120.295 137.368 119.397 137.368 118.29V116.403C137.368 115.296 138.265 114.398 139.373 114.398H143.265V120.295Z" fill="black"/>
<path d="M148.984 114.398H143.087V120.295H148.984V114.398Z" fill="black"/>
<path d="M154.704 114.398H148.808V120.295H154.704V114.398Z" fill="black"/>
<path d="M154.527 120.295V116.403C154.527 115.296 155.425 114.398 156.532 114.398H158.419C159.527 114.398 160.424 115.296 160.424 116.403V120.295H154.527Z" fill="black"/>
<path d="M171.863 120.295H167.971C166.864 120.295 165.966 119.397 165.966 118.29V116.403C165.966 115.296 166.864 114.398 167.971 114.398H171.863V120.295Z" fill="black"/>
<path d="M177.583 114.398H171.687V120.295H177.583V114.398Z" fill="black"/>
<path d="M183.304 114.398H177.407V120.295H183.304V114.398Z" fill="black"/>
<path d="M189.024 114.398H183.127V120.295H189.024V114.398Z" fill="black"/>
<path d="M194.743 114.398H188.847V120.295H194.743V114.398Z" fill="black"/>
<path d="M194.566 120.295V116.403C194.566 115.296 195.464 114.398 196.571 114.398H198.458C199.566 114.398 200.463 115.296 200.463 116.403V120.295H194.566Z" fill="black"/>
<path d="M5.98665 120.118H0.0898438V126.015H5.98665V120.118Z" fill="black"/>
<path d="M5.80957 120.118H11.7064V124.01C11.7064 125.117 10.8087 126.015 9.70146 126.015H5.80957V120.118Z" fill="black"/>
<path d="M21.3477 125.897V126.015H23.1462V124.216H23.0282C23.0282 125.148 22.2735 125.897 21.3477 125.897Z" fill="black"/>
<path d="M28.8665 120.118H22.9697V126.015H28.8665V120.118Z" fill="black"/>
<path d="M46.0257 120.118H40.1289V126.015H46.0257V120.118Z" fill="black"/>
<path d="M45.8486 126.015V122.123C45.8486 121.015 46.7463 120.118 47.8535 120.118H49.7405C50.8478 120.118 51.7454 121.015 51.7454 122.123V126.015H45.8486Z" fill="black"/>
<path d="M74.625 126.015H68.7282V122.123C68.7282 121.015 69.6258 120.118 70.7331 120.118H74.625V126.015Z" fill="black"/>
<path d="M80.345 120.118H74.4482V126.015H80.345V120.118Z" fill="black"/>
<path d="M86.0658 120.118H80.1689V126.015H86.0658V120.118Z" fill="black"/>
<path d="M85.8887 120.118H91.7855V124.01C91.7855 125.117 90.8878 126.015 89.7806 126.015H85.8887V120.118Z" fill="black"/>
<path d="M131.825 120.118H125.928V126.015H131.825V120.118Z" fill="black"/>
<path d="M154.704 120.118V124.01C154.704 125.117 153.806 126.015 152.699 126.015H150.812C149.705 126.015 148.807 125.117 148.807 124.01V120.118H154.704Z" fill="black"/>
<path d="M160.247 121.805V124.334C160.247 125.266 161.002 126.015 161.934 126.015H164.463C165.401 126.015 166.15 125.26 166.15 124.328V121.805C166.144 120.867 165.389 120.118 164.457 120.118H161.934C161.002 120.118 160.247 120.873 160.247 121.805Z" fill="black"/>
<path d="M183.304 120.118H177.407V126.015H183.304V120.118Z" fill="black"/>
<path d="M200.286 126.015V122.123C200.286 121.015 201.184 120.118 202.291 120.118H204.178C205.285 120.118 206.183 121.015 206.183 122.123V126.015H200.286Z" fill="black"/>
<path d="M5.98633 125.838V129.73C5.98633 130.837 5.0887 131.735 3.98141 131.735H2.09444C0.987153 131.735 0.0895224 130.837 0.0895224 129.73V125.838H5.98633Z" fill="black"/>
<path d="M23.1455 131.735H19.2536C18.1463 131.735 17.2487 130.837 17.2487 129.73V127.843C17.2487 126.736 18.1463 125.838 19.2536 125.838H23.1455V131.735Z" fill="black"/>
<path d="M28.8665 125.838H22.9697V131.735H28.8665V125.838Z" fill="black"/>
<path d="M40.3057 131.735H36.4138C35.3065 131.735 34.4089 130.837 34.4089 129.73V127.843C34.4089 126.736 35.3065 125.838 36.4138 125.838H40.3057V131.735Z" fill="black"/>
<path d="M46.0257 125.838H40.1289V131.735H46.0257V125.838Z" fill="black"/>
<path d="M51.5693 127.524V130.054C51.5693 130.986 52.3241 131.735 53.2558 131.735H55.7856C56.7231 131.735 57.472 130.98 57.472 130.048V127.524C57.4661 126.587 56.7114 125.838 55.7797 125.838H53.2558C52.3241 125.838 51.5693 126.593 51.5693 127.524Z" fill="black"/>
<path d="M74.625 125.838V129.73C74.625 130.837 73.7274 131.735 72.6201 131.735H70.7331C69.6258 131.735 68.7282 130.837 68.7282 129.73V125.838H74.625Z" fill="black"/>
<path d="M120.385 125.838H114.488V131.735H120.385V125.838Z" fill="black"/>
<path d="M126.105 125.838H120.208V131.735H126.105V125.838Z" fill="black"/>
<path d="M131.825 125.838H125.928V131.735H131.825V125.838Z" fill="black"/>
<path d="M131.647 131.734V125.838H135.539C136.647 125.838 137.544 126.735 137.544 127.842V131.734H131.647Z" fill="black"/>
<path d="M152.905 131.617V131.735H154.704V129.936H154.586C154.586 130.868 153.831 131.617 152.905 131.617Z" fill="black"/>
<path d="M154.527 131.734V127.842C154.527 126.735 155.425 125.838 156.532 125.838H158.419C159.527 125.838 160.424 126.735 160.424 127.842V131.734H154.527Z" fill="black"/>
<path d="M177.584 131.734H173.692C172.585 131.734 171.687 130.837 171.687 129.729V127.842C171.687 126.735 172.585 125.838 173.692 125.838H177.584V131.734Z" fill="black"/>
<path d="M177.407 125.838H183.304V129.73C183.304 130.837 182.406 131.735 181.299 131.735H177.407V125.838Z" fill="black"/>
<path d="M206.183 125.838H200.286V131.735H206.183V125.838Z" fill="black"/>
<path d="M206.006 131.734V127.842C206.006 126.735 206.903 125.838 208.011 125.838H209.898C211.005 125.838 211.903 126.735 211.903 127.842V131.734H206.006Z" fill="black"/>
<path d="M11.5293 133.244V135.774C11.5293 136.706 12.2841 137.454 13.2158 137.454H15.7455C16.6831 137.454 17.432 136.7 17.432 135.768V133.244C17.4261 132.307 16.6713 131.558 15.7396 131.558H13.2158C12.2841 131.558 11.5293 132.312 11.5293 133.244Z" fill="black"/>
<path d="M28.8662 131.558V137.454H24.9743C23.867 137.454 22.9694 136.557 22.9694 135.45V131.558H28.8662Z" fill="black"/>
<path d="M28.6895 137.455V133.563C28.6895 132.455 29.5871 131.558 30.6944 131.558H32.5813C33.6886 131.558 34.5863 132.455 34.5863 133.563V137.455H28.6895Z" fill="black"/>
<path d="M46.0257 131.558H40.1289V137.454H46.0257V131.558Z" fill="black"/>
<path d="M45.8486 137.455V131.558H49.7405C50.8478 131.558 51.7454 132.455 51.7454 133.563V137.455H45.8486Z" fill="black"/>
<path d="M74.4482 137.455V133.563C74.4482 132.455 75.3459 131.558 76.4532 131.558H78.3401C79.4474 131.558 80.345 132.455 80.345 133.563V137.455H74.4482Z" fill="black"/>
<path d="M84.2666 137.337V137.455H86.0651V135.656H85.9472C85.9472 136.588 85.1924 137.337 84.2666 137.337Z" fill="black"/>
<path d="M91.7852 137.455H85.8884V133.563C85.8884 132.455 86.786 131.558 87.8933 131.558H91.7852V137.455Z" fill="black"/>
<path d="M97.5052 131.558H91.6084V137.454H97.5052V131.558Z" fill="black"/>
<path d="M103.225 131.558H97.3281V137.454H103.225V131.558Z" fill="black"/>
<path d="M108.945 131.558H103.048V137.454H108.945V131.558Z" fill="black"/>
<path d="M114.664 131.558H108.768V137.454H114.664V131.558Z" fill="black"/>
<path d="M126.104 131.558V135.45C126.104 136.557 125.207 137.454 124.1 137.454H122.213C121.105 137.454 120.208 136.557 120.208 135.45V131.558H126.104Z" fill="black"/>
<path d="M137.544 131.558H131.647V137.454H137.544V131.558Z" fill="black"/>
<path d="M154.704 137.455H150.812C149.705 137.455 148.807 136.557 148.807 135.45V133.563C148.807 132.455 149.705 131.558 150.812 131.558H154.704V137.455Z" fill="black"/>
<path d="M160.424 131.558H154.527V137.454H160.424V131.558Z" fill="black"/>
<path d="M166.144 131.558H160.247V137.454H166.144V131.558Z" fill="black"/>
<path d="M165.967 137.455V131.558H169.859C170.966 131.558 171.864 132.455 171.864 133.563V137.455H165.967Z" fill="black"/>
<path d="M198.665 137.337V137.455H200.464V135.656H200.346C200.346 136.588 199.591 137.337 198.665 137.337Z" fill="black"/>
<path d="M206.183 131.558H200.286V137.454H206.183V131.558Z" fill="black"/>
<path d="M40.3057 143.174H36.4138C35.3065 143.174 34.4089 142.277 34.4089 141.169V139.282C34.4089 138.175 35.3065 137.278 36.4138 137.278H40.3057V143.174Z" fill="black"/>
<path d="M46.0257 137.278H40.1289V143.175H46.0257V137.278Z" fill="black"/>
<path d="M45.8486 137.278H51.7454V141.17C51.7454 142.277 50.8478 143.175 49.7405 143.175H45.8486V137.278Z" fill="black"/>
<path d="M57.2891 143.174V139.282C57.2891 138.175 58.1867 137.278 59.294 137.278H61.181C62.2882 137.278 63.1859 138.175 63.1859 139.282V143.174H57.2891Z" fill="black"/>
<path d="M72.8271 143.057V143.175H74.6257V141.376H74.5077C74.5077 142.308 73.7529 143.057 72.8271 143.057Z" fill="black"/>
<path d="M80.345 137.278H74.4482V143.175H80.345V137.278Z" fill="black"/>
<path d="M86.0658 137.278H80.1689V143.175H86.0658V137.278Z" fill="black"/>
<path d="M91.7855 137.278H85.8887V143.175H91.7855V137.278Z" fill="black"/>
<path d="M97.5052 137.278H91.6084V143.175H97.5052V137.278Z" fill="black"/>
<path d="M114.664 137.278V143.175H110.772C109.665 143.175 108.767 142.277 108.767 141.17V137.278H114.664Z" fill="black"/>
<path d="M114.488 143.174V137.278H118.38C119.487 137.278 120.385 138.175 120.385 139.282V143.174H114.488Z" fill="black"/>
<path d="M137.544 137.278V141.17C137.544 142.277 136.646 143.175 135.539 143.175H133.652C132.545 143.175 131.647 142.277 131.647 141.17V137.278H137.544Z" fill="black"/>
<path d="M160.424 137.278V143.175H156.532C155.425 143.175 154.527 142.277 154.527 141.17V137.278H160.424Z" fill="black"/>
<path d="M166.144 137.278H160.247V143.175H166.144V137.278Z" fill="black"/>
<path d="M171.864 137.278H165.967V143.175H171.864V137.278Z" fill="black"/>
<path d="M177.583 137.278H171.687V143.175H177.583V137.278Z" fill="black"/>
<path d="M183.304 137.278H177.407V143.175H183.304V137.278Z" fill="black"/>
<path d="M183.127 143.174V139.282C183.127 138.175 184.025 137.278 185.132 137.278H187.019C188.126 137.278 189.024 138.175 189.024 139.282V143.174H183.127Z" fill="black"/>
<path d="M192.945 143.057V143.175H194.744V141.376H194.626C194.626 142.308 193.871 143.057 192.945 143.057Z" fill="black"/>
<path d="M200.463 143.174H194.566V139.282C194.566 138.175 195.464 137.278 196.571 137.278H200.463V143.174Z" fill="black"/>
<path d="M206.183 137.278H200.286V143.175H206.183V137.278Z" fill="black"/>
<path d="M206.006 143.174V139.282C206.006 138.175 206.903 137.278 208.011 137.278H209.898C211.005 137.278 211.903 138.175 211.903 139.282V143.174H206.006Z" fill="black"/>
<path d="M0.0898438 148.894L0.0898438 145.002C0.0898438 143.895 0.987474 142.997 2.09476 142.997H3.98174C5.08902 142.997 5.98665 143.895 5.98665 145.002V148.894H0.0898438Z" fill="black"/>
<path d="M21.3477 148.776V148.894H23.1462V147.096H23.0282C23.0282 148.027 22.2735 148.776 21.3477 148.776Z" fill="black"/>
<path d="M28.8662 148.895H22.9694V145.003C22.9694 143.895 23.867 142.998 24.9743 142.998H28.8662V148.895Z" fill="black"/>
<path d="M28.6895 148.894V142.997H32.5813C33.6886 142.997 34.5863 143.895 34.5863 145.002V148.894H28.6895Z" fill="black"/>
<path d="M55.667 148.776V148.894H57.4655V147.096H57.3476C57.3476 148.027 56.5928 148.776 55.667 148.776Z" fill="black"/>
<path d="M63.1859 142.998H57.2891V148.894H63.1859V142.998Z" fill="black"/>
<path d="M68.9056 142.998H63.0088V148.894H68.9056V142.998Z" fill="black"/>
<path d="M74.6253 142.998H68.7285V148.894H74.6253V142.998Z" fill="black"/>
<path d="M80.345 142.998H74.4482V148.894H80.345V142.998Z" fill="black"/>
<path d="M86.0658 142.998H80.1689V148.894H86.0658V142.998Z" fill="black"/>
<path d="M91.7855 142.998H85.8887V148.894H91.7855V142.998Z" fill="black"/>
<path d="M97.5052 142.998H91.6084V148.894H97.5052V142.998Z" fill="black"/>
<path d="M120.385 142.998V146.889C120.385 147.997 119.487 148.894 118.38 148.894H116.493C115.386 148.894 114.488 147.997 114.488 146.889V142.998H120.385Z" fill="black"/>
<path d="M125.928 148.894V145.002C125.928 143.895 126.825 142.997 127.933 142.997H129.82C130.927 142.997 131.825 143.895 131.825 145.002V148.894H125.928Z" fill="black"/>
<path d="M137.367 144.684V147.214C137.367 148.145 138.122 148.894 139.054 148.894H141.583C142.521 148.894 143.27 148.14 143.27 147.208V144.684C143.264 143.746 142.509 142.998 141.578 142.998H139.054C138.122 142.998 137.367 143.752 137.367 144.684Z" fill="black"/>
<path d="M148.808 148.894V145.002C148.808 143.895 149.705 142.997 150.813 142.997H152.7C153.807 142.997 154.704 143.895 154.704 145.002V148.894H148.808Z" fill="black"/>
<path d="M158.625 148.776V148.894H160.424V147.096H160.306C160.306 148.027 159.551 148.776 158.625 148.776Z" fill="black"/>
<path d="M166.144 142.998H160.247V148.894H166.144V142.998Z" fill="black"/>
<path d="M194.743 148.894H188.846V145.002C188.846 143.895 189.744 142.997 190.851 142.997H194.743V148.894Z" fill="black"/>
<path d="M200.463 142.998H194.566V148.894H200.463V142.998Z" fill="black"/>
<path d="M5.98665 148.717H0.0898438V154.614H5.98665V148.717Z" fill="black"/>
<path d="M17.4258 154.614H11.529V150.722C11.529 149.615 12.4266 148.717 13.5339 148.717H17.4258V154.614Z" fill="black"/>
<path d="M23.1468 148.717H17.25V154.614H23.1468V148.717Z" fill="black"/>
<path d="M28.8665 148.717H22.9697V154.614H28.8665V148.717Z" fill="black"/>
<path d="M34.5863 148.717H28.6895V154.614H34.5863V148.717Z" fill="black"/>
<path d="M40.306 148.717H34.4092V154.614H40.306V148.717Z" fill="black"/>
<path d="M40.1289 154.614V150.722C40.1289 149.615 41.0265 148.717 42.1338 148.717H44.0208C45.1281 148.717 46.0257 149.615 46.0257 150.722V154.614H40.1289Z" fill="black"/>
<path d="M57.4648 154.614H53.573C52.4657 154.614 51.568 153.717 51.568 152.609V150.722C51.568 149.615 52.4657 148.717 53.573 148.717H57.4648V154.614Z" fill="black"/>
<path d="M63.1859 148.717H57.2891V154.614H63.1859V148.717Z" fill="black"/>
<path d="M68.9056 148.717H63.0088V154.614H68.9056V148.717Z" fill="black"/>
<path d="M74.6253 148.717H68.7285V154.614H74.6253V148.717Z" fill="black"/>
<path d="M97.5052 148.717H91.6084V154.614H97.5052V148.717Z" fill="black"/>
<path d="M103.048 150.404V152.934C103.048 153.865 103.803 154.614 104.734 154.614H107.264C108.202 154.614 108.951 153.859 108.951 152.928V150.404C108.945 149.466 108.19 148.717 107.258 148.717H104.734C103.803 148.717 103.048 149.472 103.048 150.404Z" fill="black"/>
<path d="M124.306 154.497V154.614H126.104V152.816H125.986C125.986 153.748 125.231 154.497 124.306 154.497Z" fill="black"/>
<path d="M131.825 148.717H125.928V154.614H131.825V148.717Z" fill="black"/>
<path d="M154.704 148.717H148.808V154.614H154.704V148.717Z" fill="black"/>
<path d="M160.424 148.717H154.527V154.614H160.424V148.717Z" fill="black"/>
<path d="M166.144 148.717H160.247V154.614H166.144V148.717Z" fill="black"/>
<path d="M165.967 154.614V148.717H169.859C170.966 148.717 171.864 149.615 171.864 150.722V154.614H165.967Z" fill="black"/>
<path d="M175.785 154.497V154.614H177.584V152.816H177.466C177.466 153.748 176.711 154.497 175.785 154.497Z" fill="black"/>
<path d="M177.407 154.614V150.722C177.407 149.615 178.305 148.717 179.412 148.717H181.299C182.406 148.717 183.304 149.615 183.304 150.722V154.614H177.407Z" fill="black"/>
<path d="M194.743 148.717H188.847V154.614H194.743V148.717Z" fill="black"/>
<path d="M200.463 148.717H194.566V154.614H200.463V148.717Z" fill="black"/>
<path d="M206.183 148.717H200.286V154.614H206.183V148.717Z" fill="black"/>
<path d="M206.006 154.614V150.722C206.006 149.615 206.903 148.717 208.011 148.717H209.898C211.005 148.717 211.903 149.615 211.903 150.722V154.614H206.006Z" fill="black"/>
<path d="M5.98665 154.438H0.0898438V160.334H5.98665V154.438Z" fill="black"/>
<path d="M17.4261 154.438H11.5293V160.334H17.4261V154.438Z" fill="black"/>
<path d="M28.8665 154.438H22.9697V160.334H28.8665V154.438Z" fill="black"/>
<path d="M45.8486 160.334V156.442C45.8486 155.335 46.7463 154.437 47.8535 154.437H49.7405C50.8478 154.437 51.7454 155.335 51.7454 156.442V160.334H45.8486Z" fill="black"/>
<path d="M63.1855 154.438V160.334H59.2937C58.1864 160.334 57.2887 159.437 57.2887 158.329V154.438H63.1855Z" fill="black"/>
<path d="M68.9056 154.438H63.0088V160.334H68.9056V154.438Z" fill="black"/>
<path d="M74.6253 154.438H68.7285V160.334H74.6253V154.438Z" fill="black"/>
<path d="M80.345 154.438H74.4482V160.334H80.345V154.438Z" fill="black"/>
<path d="M86.0658 154.438H80.1689V160.334H86.0658V154.438Z" fill="black"/>
<path d="M91.7855 154.438H85.8887V160.334H91.7855V154.438Z" fill="black"/>
<path d="M91.6084 154.438H97.5052V158.329C97.5052 159.437 96.6076 160.334 95.5003 160.334H91.6084V154.438Z" fill="black"/>
<path d="M114.664 160.334H110.772C109.665 160.334 108.767 159.436 108.767 158.329V156.442C108.767 155.335 109.665 154.437 110.772 154.437H114.664V160.334Z" fill="black"/>
<path d="M120.385 154.438H114.488V160.334H120.385V154.438Z" fill="black"/>
<path d="M126.105 154.438H120.208V160.334H126.105V154.438Z" fill="black"/>
<path d="M131.825 154.438H125.928V160.334H131.825V154.438Z" fill="black"/>
<path d="M137.367 156.124V158.654C137.367 159.585 138.122 160.334 139.054 160.334H141.583C142.521 160.334 143.27 159.58 143.27 158.648V156.124C143.264 155.186 142.509 154.438 141.578 154.438H139.054C138.122 154.438 137.367 155.192 137.367 156.124Z" fill="black"/>
<path d="M147.186 160.216V160.334H148.984V158.536H148.866C148.866 159.467 148.111 160.216 147.186 160.216Z" fill="black"/>
<path d="M154.704 154.438H148.808V160.334H154.704V154.438Z" fill="black"/>
<path d="M171.864 154.438H165.967V160.334H171.864V154.438Z" fill="black"/>
<path d="M177.583 154.438H171.687V160.334H177.583V154.438Z" fill="black"/>
<path d="M183.304 154.438H177.407V160.334H183.304V154.438Z" fill="black"/>
<path d="M194.743 154.438V158.329C194.743 159.437 193.846 160.334 192.738 160.334H190.851C189.744 160.334 188.846 159.437 188.846 158.329V154.438H194.743Z" fill="black"/>
<path d="M5.98633 160.157V164.049C5.98633 165.156 5.0887 166.054 3.98141 166.054H2.09444C0.987153 166.054 0.0895224 165.156 0.0895224 164.049V160.157H5.98633Z" fill="black"/>
<path d="M17.4258 160.157V166.054H13.5339C12.4266 166.054 11.529 165.156 11.529 164.049V160.157H17.4258Z" fill="black"/>
<path d="M23.1468 160.157H17.25V166.054H23.1468V160.157Z" fill="black"/>
<path d="M22.9697 160.157H28.8665V164.049C28.8665 165.156 27.9689 166.054 26.8616 166.054H22.9697V160.157Z" fill="black"/>
<path d="M34.4092 161.844V164.373C34.4092 165.305 35.164 166.054 36.0957 166.054H38.6254C39.563 166.054 40.3119 165.299 40.3119 164.368V161.844C40.306 160.906 39.5512 160.157 38.6195 160.157H36.0957C35.164 160.157 34.4092 160.912 34.4092 161.844Z" fill="black"/>
<path d="M51.7454 160.157H45.8486V166.054H51.7454V160.157Z" fill="black"/>
<path d="M68.9053 160.157V166.054H65.0134C63.9061 166.054 63.0085 165.156 63.0085 164.049V160.157H68.9053Z" fill="black"/>
<path d="M74.6253 160.157H68.7285V166.054H74.6253V160.157Z" fill="black"/>
<path d="M80.345 160.157H74.4482V166.054H80.345V160.157Z" fill="black"/>
<path d="M91.7852 160.157V164.049C91.7852 165.156 90.8875 166.054 89.7802 166.054H87.8933C86.786 166.054 85.8884 165.156 85.8884 164.049V160.157H91.7852Z" fill="black"/>
<path d="M131.825 160.157H125.928V166.054H131.825V160.157Z" fill="black"/>
<path d="M148.984 166.054H145.092C143.985 166.054 143.088 165.156 143.088 164.049V162.162C143.088 161.055 143.985 160.157 145.092 160.157H148.984V166.054Z" fill="black"/>
<path d="M154.704 160.157H148.808V166.054H154.704V160.157Z" fill="black"/>
<path d="M160.424 160.157H154.527V166.054H160.424V160.157Z" fill="black"/>
<path d="M166.144 160.157H160.247V166.054H166.144V160.157Z" fill="black"/>
<path d="M171.864 160.157H165.967V166.054H171.864V160.157Z" fill="black"/>
<path d="M177.583 160.157H171.687V166.054H177.583V160.157Z" fill="black"/>
<path d="M183.304 160.157H177.407V166.054H183.304V160.157Z" fill="black"/>
<path d="M183.127 166.054V160.157H187.019C188.126 160.157 189.024 161.055 189.024 162.162V166.054H183.127Z" fill="black"/>
<path d="M194.566 161.844V164.373C194.566 165.305 195.321 166.054 196.253 166.054H198.783C199.72 166.054 200.469 165.299 200.469 164.368V161.844C200.463 160.906 199.708 160.157 198.777 160.157H196.253C195.321 160.157 194.566 160.912 194.566 161.844Z" fill="black"/>
<path d="M51.7451 165.877V169.769C51.7451 170.876 50.8475 171.774 49.7402 171.774H47.8532C46.7459 171.774 45.8483 170.876 45.8483 169.769V165.877H51.7451Z" fill="black"/>
<path d="M57.2891 171.774V167.882C57.2891 166.775 58.1867 165.877 59.294 165.877H61.181C62.2882 165.877 63.1859 166.775 63.1859 167.882V171.774H57.2891Z" fill="black"/>
<path d="M74.6253 165.877H68.7285V171.774H74.6253V165.877Z" fill="black"/>
<path d="M80.345 165.877H74.4482V171.774H80.345V165.877Z" fill="black"/>
<path d="M80.1689 171.774V165.877H84.0608C85.1681 165.877 86.0658 166.775 86.0658 167.882V171.774H80.1689Z" fill="black"/>
<path d="M89.9863 171.656V171.774H91.7849V169.976H91.6669C91.6669 170.907 90.9121 171.656 89.9863 171.656Z" fill="black"/>
<path d="M91.6084 171.774V167.882C91.6084 166.775 92.506 165.877 93.6133 165.877H95.5003C96.6076 165.877 97.5052 166.775 97.5052 167.882V171.774H91.6084Z" fill="black"/>
<path d="M108.944 171.774H105.052C103.945 171.774 103.048 170.876 103.048 169.769V167.882C103.048 166.775 103.945 165.877 105.052 165.877H108.944V171.774Z" fill="black"/>
<path d="M108.768 171.774V165.877H112.659C113.767 165.877 114.664 166.775 114.664 167.882V171.774H108.768Z" fill="black"/>
<path d="M124.306 171.656V171.774H126.104V169.976H125.986C125.986 170.907 125.231 171.656 124.306 171.656Z" fill="black"/>
<path d="M131.825 165.877H125.928V171.774H131.825V165.877Z" fill="black"/>
<path d="M131.647 171.774V167.882C131.647 166.775 132.545 165.877 133.652 165.877H135.539C136.647 165.877 137.544 166.775 137.544 167.882V171.774H131.647Z" fill="black"/>
<path d="M166.144 165.877H160.247V171.774H166.144V165.877Z" fill="black"/>
<path d="M189.024 165.877H183.127V171.774H189.024V165.877Z" fill="black"/>
<path d="M188.847 171.774V167.882C188.847 166.775 189.744 165.877 190.852 165.877H192.739C193.846 165.877 194.743 166.775 194.743 167.882V171.774H188.847Z" fill="black"/>
<path d="M200.286 167.563V170.093C200.286 171.025 201.041 171.774 201.973 171.774H204.502C205.44 171.774 206.189 171.019 206.189 170.087V167.563C206.183 166.626 205.428 165.877 204.496 165.877H201.973C201.041 165.877 200.286 166.632 200.286 167.563Z" fill="black"/>
<path d="M63.1855 171.597V175.489C63.1855 176.596 62.2879 177.494 61.1806 177.494H59.2937C58.1864 177.494 57.2887 176.596 57.2887 175.489V171.597H63.1855Z" fill="black"/>
<path d="M74.625 171.597V177.494H70.7331C69.6258 177.494 68.7282 176.596 68.7282 175.489V171.597H74.625Z" fill="black"/>
<path d="M80.345 171.597H74.4482V177.494H80.345V171.597Z" fill="black"/>
<path d="M86.0658 171.597H80.1689V177.494H86.0658V171.597Z" fill="black"/>
<path d="M91.7855 171.597H85.8887V177.494H91.7855V171.597Z" fill="black"/>
<path d="M97.5052 171.597H91.6084V177.494H97.5052V171.597Z" fill="black"/>
<path d="M97.3281 177.494V173.602C97.3281 172.494 98.2258 171.597 99.333 171.597H101.22C102.327 171.597 103.225 172.494 103.225 173.602V177.494H97.3281Z" fill="black"/>
<path d="M114.664 171.597H108.768V177.494H114.664V171.597Z" fill="black"/>
<path d="M126.104 177.494H122.213C121.105 177.494 120.208 176.596 120.208 175.489V173.602C120.208 172.494 121.105 171.597 122.213 171.597H126.104V177.494Z" fill="black"/>
<path d="M131.825 171.597H125.928V177.494H131.825V171.597Z" fill="black"/>
<path d="M148.984 177.494H145.092C143.985 177.494 143.088 176.596 143.088 175.489V173.602C143.088 172.494 143.985 171.597 145.092 171.597H148.984V177.494Z" fill="black"/>
<path d="M148.808 177.494V171.597H152.7C153.807 171.597 154.704 172.494 154.704 173.602V177.494H148.808Z" fill="black"/>
<path d="M158.625 177.376V177.494H160.424V175.695H160.306C160.306 176.627 159.551 177.376 158.625 177.376Z" fill="black"/>
<path d="M166.144 171.597H160.247V177.494H166.144V171.597Z" fill="black"/>
<path d="M171.687 173.284V175.813C171.687 176.745 172.441 177.494 173.373 177.494H175.903C176.84 177.494 177.589 176.739 177.589 175.807V173.284C177.583 172.346 176.829 171.597 175.897 171.597H173.373C172.441 171.597 171.687 172.352 171.687 173.284Z" fill="black"/>
<path d="M189.024 171.597H183.127V177.494H189.024V171.597Z" fill="black"/>
<path d="M194.566 173.284V175.813C194.566 176.745 195.321 177.494 196.253 177.494H198.783C199.72 177.494 200.469 176.739 200.469 175.807V173.284C200.463 172.346 199.708 171.597 198.777 171.597H196.253C195.321 171.597 194.566 172.352 194.566 173.284Z" fill="black"/>
<path d="M206.006 173.284V175.813C206.006 176.745 206.761 177.494 207.692 177.494H210.222C211.16 177.494 211.909 176.739 211.909 175.807V173.284C211.903 172.346 211.148 171.597 210.216 171.597H207.692C206.761 171.597 206.006 172.352 206.006 173.284Z" fill="black"/>
<path d="M49.9473 183.096V183.214H51.7458V181.415H51.6279C51.6279 182.347 50.8731 183.096 49.9473 183.096Z" fill="black"/>
<path d="M51.5693 183.213V179.321C51.5693 178.214 52.467 177.317 53.5742 177.317H55.4612C56.5685 177.317 57.4661 178.214 57.4661 179.321V183.213H51.5693Z" fill="black"/>
<path d="M63.0088 183.213V179.321C63.0088 178.214 63.9064 177.317 65.0137 177.317H66.9007C68.008 177.317 68.9056 178.214 68.9056 179.321V183.213H63.0088Z" fill="black"/>
<path d="M86.0658 177.317H80.1689V183.214H86.0658V177.317Z" fill="black"/>
<path d="M108.944 183.214H103.048V179.322C103.048 178.215 103.945 177.317 105.052 177.317H108.944V183.214Z" fill="black"/>
<path d="M114.664 177.317H108.768V183.214H114.664V177.317Z" fill="black"/>
<path d="M114.488 183.213V179.321C114.488 178.214 115.386 177.317 116.493 177.317H118.38C119.487 177.317 120.385 178.214 120.385 179.321V183.213H114.488Z" fill="black"/>
<path d="M131.825 177.317H125.928V183.214H131.825V177.317Z" fill="black"/>
<path d="M137.544 177.317H131.647V183.214H137.544V177.317Z" fill="black"/>
<path d="M137.367 183.213V177.317H141.259C142.366 177.317 143.264 178.214 143.264 179.321V183.213H137.367Z" fill="black"/>
<path d="M147.186 183.096V183.214H148.984V181.415H148.866C148.866 182.347 148.111 183.096 147.186 183.096Z" fill="black"/>
<path d="M154.704 177.317H148.808V183.214H154.704V177.317Z" fill="black"/>
<path d="M160.424 177.317H154.527V183.214H160.424V177.317Z" fill="black"/>
<path d="M166.144 177.317H160.247V183.214H166.144V177.317Z" fill="black"/>
<path d="M181.505 183.096V183.214H183.303V181.415H183.185C183.185 182.347 182.431 183.096 181.505 183.096Z" fill="black"/>
<path d="M189.024 177.317H183.127V183.214H189.024V177.317Z" fill="black"/>
<path d="M188.847 183.213V179.321C188.847 178.214 189.744 177.317 190.852 177.317H192.739C193.846 177.317 194.743 178.214 194.743 179.321V183.213H188.847Z" fill="black"/>
<path d="M198.665 183.096V183.214H200.464V181.415H200.346C200.346 182.347 199.591 183.096 198.665 183.096Z" fill="black"/>
<path d="M200.286 183.213V179.321C200.286 178.214 201.184 177.317 202.291 177.317H204.178C205.285 177.317 206.183 178.214 206.183 179.321V183.213H200.286Z" fill="black"/>
<path d="M51.7451 188.934H45.8483V185.042C45.8483 183.934 46.7459 183.037 47.8532 183.037H51.7451V188.934Z" fill="black"/>
<path d="M51.5693 183.037H57.4661V186.929C57.4661 188.036 56.5685 188.933 55.4612 188.933H51.5693V183.037Z" fill="black"/>
<path d="M68.9053 183.037V186.929C68.9053 188.036 68.0076 188.933 66.9004 188.933H65.0134C63.9061 188.933 63.0085 188.036 63.0085 186.929V183.037H68.9053Z" fill="black"/>
<path d="M86.0654 183.037V186.929C86.0654 188.036 85.1678 188.933 84.0605 188.933H82.1735C81.0663 188.933 80.1686 188.036 80.1686 186.929V183.037H86.0654Z" fill="black"/>
<path d="M91.6084 184.723V187.253C91.6084 188.185 92.3632 188.933 93.2949 188.933H95.8246C96.7622 188.933 97.5111 188.179 97.5111 187.247V184.723C97.5052 183.786 96.7504 183.037 95.8187 183.037H93.2949C92.3632 183.037 91.6084 183.791 91.6084 184.723Z" fill="black"/>
<path d="M108.944 183.037V186.929C108.944 188.036 108.047 188.933 106.939 188.933H105.052C103.945 188.933 103.048 188.036 103.048 186.929V183.037H108.944Z" fill="black"/>
<path d="M131.824 183.037V186.929C131.824 188.036 130.927 188.933 129.819 188.933H127.932C126.825 188.933 125.927 188.036 125.927 186.929V183.037H131.824Z" fill="black"/>
<path d="M143.264 183.037V188.933H139.372C138.264 188.933 137.367 188.036 137.367 186.929V183.037H143.264Z" fill="black"/>
<path d="M148.984 183.037H143.087V188.933H148.984V183.037Z" fill="black"/>
<path d="M154.704 183.037H148.808V188.933H154.704V183.037Z" fill="black"/>
<path d="M160.424 183.037H154.527V188.933H160.424V183.037Z" fill="black"/>
<path d="M166.144 183.037H160.247V188.933H166.144V183.037Z" fill="black"/>
<path d="M171.864 183.037H165.967V188.933H171.864V183.037Z" fill="black"/>
<path d="M177.583 183.037H171.687V188.933H177.583V183.037Z" fill="black"/>
<path d="M183.304 183.037H177.407V188.933H183.304V183.037Z" fill="black"/>
<path d="M189.024 183.037H183.127V188.933H189.024V183.037Z" fill="black"/>
<path d="M200.463 188.934H196.571C195.464 188.934 194.566 188.036 194.566 186.929V185.042C194.566 183.934 195.464 183.037 196.571 183.037H200.463V188.934Z" fill="black"/>
<path d="M206.183 183.037H200.286V188.933H206.183V183.037Z" fill="black"/>
<path d="M206.006 188.934V185.042C206.006 183.934 206.903 183.037 208.011 183.037H209.898C211.005 183.037 211.903 183.934 211.903 185.042V188.934H206.006Z" fill="black"/>
<path d="M51.7454 188.757H45.8486V194.654H51.7454V188.757Z" fill="black"/>
<path d="M74.625 194.654H70.7331C69.6258 194.654 68.7282 193.756 68.7282 192.649V190.762C68.7282 189.655 69.6258 188.757 70.7331 188.757H74.625V194.654Z" fill="black"/>
<path d="M74.4482 194.653V190.761C74.4482 189.654 75.3459 188.757 76.4532 188.757H78.3401C79.4474 188.757 80.345 189.654 80.345 190.761V194.653H74.4482Z" fill="black"/>
<path d="M114.664 194.654H110.772C109.665 194.654 108.767 193.756 108.767 192.649V190.762C108.767 189.655 109.665 188.757 110.772 188.757H114.664V194.654Z" fill="black"/>
<path d="M114.488 194.653V188.757H118.38C119.487 188.757 120.385 189.654 120.385 190.761V194.653H114.488Z" fill="black"/>
<path d="M154.704 188.757H148.808V194.654H154.704V188.757Z" fill="black"/>
<path d="M160.424 188.757H154.527V194.654H160.424V188.757Z" fill="black"/>
<path d="M166.144 188.757H160.247V194.654H166.144V188.757Z" fill="black"/>
<path d="M171.864 188.757H165.967V194.654H171.864V188.757Z" fill="black"/>
<path d="M177.583 188.757H171.687V194.654H177.583V188.757Z" fill="black"/>
<path d="M183.304 188.757H177.407V194.654H183.304V188.757Z" fill="black"/>
<path d="M189.024 188.757H183.127V194.654H189.024V188.757Z" fill="black"/>
<path d="M188.847 194.653V190.761C188.847 189.654 189.744 188.757 190.852 188.757H192.739C193.846 188.757 194.743 189.654 194.743 190.761V194.653H188.847Z" fill="black"/>
<path d="M51.7451 194.477V198.368C51.7451 199.476 50.8475 200.373 49.7402 200.373H47.8532C46.7459 200.373 45.8483 199.476 45.8483 198.368V194.477H51.7451Z" fill="black"/>
<path d="M57.2891 196.163V198.693C57.2891 199.624 58.0439 200.373 58.9755 200.373H61.5053C62.4429 200.373 63.1918 199.619 63.1918 198.687V196.163C63.1859 195.225 62.4311 194.477 61.4994 194.477H58.9755C58.0439 194.477 57.2891 195.231 57.2891 196.163Z" fill="black"/>
<path d="M103.048 196.163V198.693C103.048 199.624 103.803 200.373 104.734 200.373H107.264C108.202 200.373 108.951 199.619 108.951 198.687V196.163C108.945 195.225 108.19 194.477 107.258 194.477H104.734C103.803 194.477 103.048 195.231 103.048 196.163Z" fill="black"/>
<path d="M120.385 194.477H114.488V200.373H120.385V194.477Z" fill="black"/>
<path d="M130.026 200.255V200.373H131.825V198.575H131.707C131.707 199.506 130.952 200.255 130.026 200.255Z" fill="black"/>
<path d="M137.544 200.374H131.647V196.482C131.647 195.374 132.545 194.477 133.652 194.477H137.544V200.374Z" fill="black"/>
<path d="M143.264 194.477H137.367V200.373H143.264V194.477Z" fill="black"/>
<path d="M148.984 194.477H143.087V200.373H148.984V194.477Z" fill="black"/>
<path d="M148.808 194.477H154.704V198.368C154.704 199.476 153.807 200.373 152.7 200.373H148.808V194.477Z" fill="black"/>
<path d="M166.144 194.477H160.247V200.373H166.144V194.477Z" fill="black"/>
<path d="M165.967 194.477H171.864V198.368C171.864 199.476 170.966 200.373 169.859 200.373H165.967V194.477Z" fill="black"/>
<path d="M183.304 194.477V198.368C183.304 199.476 182.406 200.373 181.299 200.373H179.412C178.305 200.373 177.407 199.476 177.407 198.368V194.477H183.304Z" fill="black"/>
<path d="M194.566 196.163V198.693C194.566 199.624 195.321 200.373 196.253 200.373H198.783C199.72 200.373 200.469 199.619 200.469 198.687V196.163C200.463 195.225 199.708 194.477 198.777 194.477H196.253C195.321 194.477 194.566 195.231 194.566 196.163Z" fill="black"/>
<path d="M206.006 200.374V196.482C206.006 195.374 206.903 194.477 208.011 194.477H209.898C211.005 194.477 211.903 195.374 211.903 196.482V200.374H206.006Z" fill="black"/>
<path d="M61.3867 205.976V206.093H63.1852V204.295H63.0673C63.0673 205.227 62.3125 205.976 61.3867 205.976Z" fill="black"/>
<path d="M68.9053 206.093H63.0085V202.201C63.0085 201.094 63.9061 200.196 65.0134 200.196H68.9053V206.093Z" fill="black"/>
<path d="M74.6253 200.197H68.7285V206.094H74.6253V200.197Z" fill="black"/>
<path d="M80.345 200.197H74.4482V206.094H80.345V200.197Z" fill="black"/>
<path d="M80.1689 206.093V200.196H84.0608C85.1681 200.196 86.0658 201.094 86.0658 202.201V206.093H80.1689Z" fill="black"/>
<path d="M97.3281 206.093V202.201C97.3281 201.094 98.2258 200.196 99.333 200.196H101.22C102.327 200.196 103.225 201.094 103.225 202.201V206.093H97.3281Z" fill="black"/>
<path d="M114.664 206.093H110.772C109.665 206.093 108.767 205.196 108.767 204.088V202.201C108.767 201.094 109.665 200.196 110.772 200.196H114.664V206.093Z" fill="black"/>
<path d="M120.385 200.197H114.488V206.094H120.385V200.197Z" fill="black"/>
<path d="M126.105 200.197H120.208V206.094H126.105V200.197Z" fill="black"/>
<path d="M131.825 200.197H125.928V206.094H131.825V200.197Z" fill="black"/>
<path d="M137.544 200.197H131.647V206.094H137.544V200.197Z" fill="black"/>
<path d="M166.144 200.197V204.089C166.144 205.196 165.246 206.094 164.139 206.094H162.252C161.144 206.094 160.247 205.196 160.247 204.089V200.197H166.144Z" fill="black"/>
<path d="M171.687 206.093V202.201C171.687 201.094 172.584 200.196 173.691 200.196H175.578C176.686 200.196 177.583 201.094 177.583 202.201V206.093H171.687Z" fill="black"/>
<path d="M204.385 205.976V206.093H206.183V204.295H206.065C206.065 205.227 205.311 205.976 204.385 205.976Z" fill="black"/>
<path d="M211.903 200.197H206.006V206.094H211.903V200.197Z" fill="black"/>
<path d="M63.1855 211.813H59.2937C58.1864 211.813 57.2887 210.916 57.2887 209.809V207.922C57.2887 206.814 58.1864 205.917 59.2937 205.917H63.1855V211.813Z" fill="black"/>
<path d="M63.0088 205.917H68.9056V209.808C68.9056 210.916 68.008 211.813 66.9007 211.813H63.0088V205.917Z" fill="black"/>
<path d="M86.0654 205.917V209.808C86.0654 210.916 85.1678 211.813 84.0605 211.813H82.1735C81.0663 211.813 80.1686 210.916 80.1686 209.808V205.917H86.0654Z" fill="black"/>
<path d="M103.225 205.917V211.813H99.3327C98.2254 211.813 97.3278 210.916 97.3278 209.808V205.917H103.225Z" fill="black"/>
<path d="M103.048 211.813V207.921C103.048 206.814 103.945 205.916 105.053 205.916H106.94C108.047 205.916 108.945 206.814 108.945 207.921V211.813H103.048Z" fill="black"/>
<path d="M137.544 205.917V209.808C137.544 210.916 136.646 211.813 135.539 211.813H133.652C132.545 211.813 131.647 210.916 131.647 209.808V205.917H137.544Z" fill="black"/>
<path d="M148.984 211.813H145.092C143.985 211.813 143.088 210.915 143.088 209.808V207.921C143.088 206.814 143.985 205.916 145.092 205.916H148.984V211.813Z" fill="black"/>
<path d="M154.704 205.917H148.808V211.813H154.704V205.917Z" fill="black"/>
<path d="M154.527 211.813V207.921C154.527 206.814 155.425 205.916 156.532 205.916H158.419C159.527 205.916 160.424 206.814 160.424 207.921V211.813H154.527Z" fill="black"/>
<path d="M177.583 205.917V209.808C177.583 210.916 176.685 211.813 175.578 211.813H173.691C172.584 211.813 171.686 210.916 171.686 209.808V205.917H177.583Z" fill="black"/>
<path d="M183.127 207.603V210.133C183.127 211.064 183.882 211.813 184.813 211.813H187.343C188.281 211.813 189.03 211.059 189.03 210.127V207.603C189.024 206.665 188.269 205.917 187.337 205.917H184.813C183.882 205.917 183.127 206.671 183.127 207.603Z" fill="black"/>
<path d="M200.463 211.813H196.571C195.464 211.813 194.566 210.915 194.566 209.808V207.921C194.566 206.814 195.464 205.916 196.571 205.916H200.463V211.813Z" fill="black"/>
<path d="M206.183 205.917H200.286V211.813H206.183V205.917Z" fill="black"/>
<path d="M206.006 205.917H211.903V209.808C211.903 210.916 211.005 211.813 209.898 211.813H206.006V205.917Z" fill="black"/>
<path d="M35.4708 26.9678V14.3091C35.4708 8.69026 34.7064 7.31928 34.3777 6.9898C34.0482 6.66106 32.6772 5.8967 27.0577 5.8967H14.3997C8.78011 5.8967 7.40912 6.66106 7.08038 6.9898C6.75164 7.31928 5.98654 8.69026 5.98654 14.3091V26.9678C5.98654 32.5874 6.75164 33.9584 7.08038 34.2878C7.40912 34.6158 8.78011 35.3809 14.3997 35.3809H27.0577C32.6772 35.3809 34.0482 34.6158 34.3777 34.2878C34.7064 33.9584 35.4708 32.5874 35.4708 26.9678ZM27.0577 0C38.6159 0 41.3675 2.75155 41.3675 14.3091C41.3675 25.8674 41.3675 15.4103 41.3675 26.9678C41.3675 38.5261 38.6159 41.2776 27.0577 41.2776C15.5001 41.2776 25.9572 41.2776 14.3997 41.2776C2.84139 41.2776 0.0898438 38.5261 0.0898438 26.9678C0.0898438 15.4103 0.0898438 20.7638 0.0898438 14.3091C0.0898438 2.75155 2.84139 0 14.3997 0C25.9572 0 15.5001 0 27.0577 0ZM23.441 11.7936C28.3948 11.7936 29.5739 12.9735 29.5739 17.9258C29.5739 22.8795 29.5739 18.3981 29.5739 23.3512C29.5739 28.3042 28.3948 29.484 23.441 29.484C18.488 29.484 22.9694 29.484 18.0163 29.484C13.0633 29.484 11.8835 28.3042 11.8835 23.3512C11.8835 18.3981 11.8835 20.6922 11.8835 17.9258C11.8835 12.9735 13.0633 11.7936 18.0163 11.7936C22.9694 11.7936 18.488 11.7936 23.441 11.7936Z" fill="black"/>
<path d="M205.299 26.9678V14.3091C205.299 8.69026 204.535 7.31928 204.206 6.9898C203.876 6.66106 202.505 5.8967 196.886 5.8967H184.228C178.608 5.8967 177.237 6.66106 176.909 6.9898C176.58 7.31928 175.815 8.69026 175.815 14.3091V26.9678C175.815 32.5874 176.58 33.9584 176.909 34.2878C177.237 34.6158 178.608 35.3809 184.228 35.3809H196.886C202.505 35.3809 203.876 34.6158 204.206 34.2878C204.535 33.9584 205.299 32.5874 205.299 26.9678ZM196.886 0C208.444 0 211.196 2.75155 211.196 14.3091C211.196 25.8674 211.196 15.4103 211.196 26.9678C211.196 38.5261 208.444 41.2776 196.886 41.2776C185.328 41.2776 195.785 41.2776 184.228 41.2776C172.67 41.2776 169.918 38.5261 169.918 26.9678C169.918 15.4103 169.918 20.7638 169.918 14.3091C169.918 2.75155 172.67 0 184.228 0C195.785 0 185.328 0 196.886 0ZM193.269 11.7936C198.223 11.7936 199.402 12.9735 199.402 17.9258C199.402 22.8795 199.402 18.3981 199.402 23.3512C199.402 28.3042 198.223 29.484 193.269 29.484C188.316 29.484 192.797 29.484 187.844 29.484C182.891 29.484 181.712 28.3042 181.712 23.3512C181.712 18.3981 181.712 20.6922 181.712 17.9258C181.712 12.9735 182.891 11.7936 187.844 11.7936C192.797 11.7936 188.316 11.7936 193.269 11.7936Z" fill="black"/>
<path d="M35.4708 196.796V184.137C35.4708 178.518 34.7064 177.147 34.3777 176.818C34.0482 176.489 32.6772 175.725 27.0577 175.725H14.3997C8.78011 175.725 7.40912 176.489 7.08038 176.818C6.75164 177.147 5.98654 178.518 5.98654 184.137V196.796C5.98654 202.416 6.75164 203.786 7.08038 204.116C7.40912 204.444 8.78011 205.209 14.3997 205.209H27.0577C32.6772 205.209 34.0482 204.444 34.3777 204.116C34.7064 203.786 35.4708 202.416 35.4708 196.796ZM27.0577 169.828C38.6159 169.828 41.3675 172.58 41.3675 184.137C41.3675 195.695 41.3675 185.238 41.3675 196.796C41.3675 208.354 38.6159 211.106 27.0577 211.106C15.5001 211.106 25.9572 211.106 14.3997 211.106C2.84139 211.106 0.0898438 208.354 0.0898438 196.796C0.0898438 185.238 0.0898438 190.592 0.0898438 184.137C0.0898438 172.58 2.84139 169.828 14.3997 169.828C25.9572 169.828 15.5001 169.828 27.0577 169.828ZM23.441 181.622C28.3948 181.622 29.5739 182.802 29.5739 187.754C29.5739 192.708 29.5739 188.226 29.5739 193.179C29.5739 198.132 28.3948 199.312 23.441 199.312C18.488 199.312 22.9694 199.312 18.0163 199.312C13.0633 199.312 11.8835 198.132 11.8835 193.179C11.8835 188.226 11.8835 190.52 11.8835 187.754C11.8835 182.802 13.0633 181.622 18.0163 181.622C22.9694 181.622 18.488 181.622 23.441 181.622Z" fill="black"/>
<path d="M89.3271 92.0593L106.83 86.3955V125.605C94.3277 120.376 89.3271 110.356 89.3271 104.694V92.0593Z" fill="#0500FF"/>
<path d="M124.333 92.0593L106.83 86.3955V125.605C119.332 120.376 124.333 110.356 124.333 104.694V92.0593Z" fill="url(#paint0_linear_6013_27568)"/>
<defs>
<linearGradient id="paint0_linear_6013_27568" x1="119.683" y1="83.6498" x2="106.568" y2="125.102" gradientUnits="userSpaceOnUse">
<stop offset="0.02" stop-color="#0000FF"/>
<stop offset="0.08" stop-color="#0094FF"/>
<stop offset="0.16" stop-color="#48FF91"/>
<stop offset="0.42" stop-color="#0094FF"/>
<stop offset="0.68" stop-color="#0038FF"/>
<stop offset="0.9" stop-color="#0500FF"/>
</linearGradient>
</defs>
</svg>
