<svg width="28" height="29" viewBox="0 0 28 29" fill="none" xmlns="http://www.w3.org/2000/svg">
<g clip-path="url(#clip0_6065_15306)">
<g clip-path="url(#clip1_6065_15306)">
<path d="M14 28.2368C21.732 28.2368 28 21.9688 28 14.2368C28 6.50483 21.732 0.236816 14 0.236816C6.26801 0.236816 0 6.50483 0 14.2368C0 21.9688 6.26801 28.2368 14 28.2368Z" fill="#FCFCFC"/>
<path d="M5.7815 13.2224L4.25977 10.4616L5.7815 7.74414L7.30323 10.4616L5.7815 13.2224Z" fill="#A2001D"/>
<path d="M2.73853 13.2224L1.2168 10.4616L2.73853 7.74414L4.26027 10.4616L2.73853 13.2224Z" fill="#A2001D"/>
<path d="M5.7815 20.7297L4.25977 17.9689L5.7815 15.2515L7.30323 17.9689L5.7815 20.7297Z" fill="#A2001D"/>
<path d="M2.73853 20.7297L1.2168 17.9689L2.73853 15.2515L4.26027 17.9689L2.73853 20.7297Z" fill="#A2001D"/>
<path d="M7.30316 2.9544L6.87233 2.18506C6.09959 2.6429 5.37482 3.17299 4.70703 3.76602L5.78142 5.71514L7.30316 2.9544Z" fill="#A2001D"/>
<path d="M5.78108 22.7588L4.69531 24.6978C5.3625 25.2916 6.08678 25.8225 6.85919 26.2813L7.30287 25.4763L5.78108 22.7588Z" fill="#A2001D"/>
<path d="M8.52148 17.8892V27.1239C10.2042 27.8401 12.0555 28.237 13.9997 28.237C20.0193 28.237 25.1509 24.4377 27.129 19.1065L8.52148 17.8892Z" fill="#6DA544"/>
<path d="M27.129 19.1064C27.6917 17.5897 27.9997 15.9493 27.9997 14.2368C27.9997 6.50488 21.7317 0.236816 13.9997 0.236816C12.0557 0.236816 10.2042 0.633465 8.52148 1.3496V19.1064H27.129V19.1064Z" fill="#A2001D"/>
</g>
</g>
<defs>
<clipPath id="clip0_6065_15306">
<rect width="28" height="28" fill="white" transform="translate(0 0.236816)"/>
</clipPath>
<clipPath id="clip1_6065_15306">
<rect width="28" height="28" fill="white" transform="translate(0 0.236816)"/>
</clipPath>
</defs>
</svg>
