<svg width="28" height="29" viewBox="0 0 28 29" fill="none" xmlns="http://www.w3.org/2000/svg">
<g clip-path="url(#clip0_6065_15428)">
<g clip-path="url(#clip1_6065_15428)">
<path d="M14 28.2368C21.732 28.2368 28 21.9688 28 14.2368C28 6.50483 21.732 0.236816 14 0.236816C6.26801 0.236816 0 6.50483 0 14.2368C0 21.9688 6.26801 28.2368 14 28.2368Z" fill="#338AF3"/>
<path d="M21.914 14.3892H6.08789C6.08789 15.4818 7.03951 16.3674 8.132 16.3674H8.06616C8.06616 17.46 8.95182 18.3457 10.0444 18.3457C10.0444 19.4383 10.9301 20.324 12.0227 20.324H15.9792C17.0718 20.324 17.9575 19.4383 17.9575 18.3457C19.0501 18.3457 19.9358 17.46 19.9358 16.3674H19.8699C20.9623 16.3674 21.914 15.4818 21.914 14.3892Z" fill="#FFDA44"/>
<path d="M19.478 11.8022C19.478 14.8278 17.0253 17.2805 13.9997 17.2805C10.9742 17.2805 8.52148 14.8278 8.52148 11.8022" fill="#338AF3"/>
<path d="M18.1852 11.8018L16.4754 12.6061L17.3859 14.2621L15.5293 13.9069L15.294 15.7824L14.0008 14.4029L12.7076 15.7824L12.4724 13.9069L10.6157 14.2619L11.5262 12.6061L9.81641 11.8018L11.5262 10.9976L10.6157 9.34171L12.4723 9.69685L12.7076 7.82129L14.0008 9.20078L15.2941 7.82129L15.5293 9.69685L17.386 9.34171L16.4755 10.9976L18.1852 11.8018Z" fill="#FFDA44"/>
</g>
</g>
<defs>
<clipPath id="clip0_6065_15428">
<rect width="28" height="28" fill="white" transform="translate(0 0.236816)"/>
</clipPath>
<clipPath id="clip1_6065_15428">
<rect width="28" height="28" fill="white" transform="translate(0 0.236816)"/>
</clipPath>
</defs>
</svg>
