<svg width="28" height="29" viewBox="0 0 28 29" fill="none" xmlns="http://www.w3.org/2000/svg">
<g clip-path="url(#clip0_6065_15293)">
<g clip-path="url(#clip1_6065_15293)">
<path d="M14 28.2368C21.732 28.2368 28 21.9688 28 14.2368C28 6.50483 21.732 0.236816 14 0.236816C6.26801 0.236816 0 6.50483 0 14.2368C0 21.9688 6.26801 28.2368 14 28.2368Z" fill="#F0F0F0"/>
<path d="M13.3906 14.2367H27.9993C27.9993 12.9731 27.8309 11.7489 27.517 10.5845H13.3906V14.2367Z" fill="#D80027"/>
<path d="M13.3906 6.93247H25.9445C25.0875 5.534 23.9917 4.2979 22.7141 3.28027H13.3906V6.93247Z" fill="#D80027"/>
<path d="M13.9999 28.2368C17.2948 28.2368 20.3232 27.098 22.7147 25.1934H5.28516C7.67664 27.098 10.7051 28.2368 13.9999 28.2368Z" fill="#D80027"/>
<path d="M2.05496 21.5414H25.9453C26.6333 20.4187 27.1669 19.1915 27.5178 17.8892H0.482422C0.833352 19.1915 1.36694 20.4187 2.05496 21.5414Z" fill="#D80027"/>
<path d="M6.48506 2.42311H7.76087L6.57415 3.28526L7.02745 4.68028L5.84079 3.81814L4.65412 4.68028L5.04569 3.47514C4.00083 4.34549 3.08503 5.36519 2.33034 6.50138H2.73913L1.98373 7.05017C1.86605 7.2465 1.75317 7.44594 1.645 7.64834L2.00572 8.75855L1.33273 8.26959C1.16545 8.62402 1.01243 8.98643 0.874891 9.35639L1.2723 10.5796H2.73913L1.55241 11.4418L2.00572 12.8368L0.819055 11.9747L0.108227 12.4911C0.0370781 13.0631 0 13.6456 0 14.2368H14C14 6.50488 14 5.59335 14 0.236816C11.2343 0.236816 8.65621 1.03908 6.48506 2.42311ZM7.02745 12.8368L5.84079 11.9747L4.65412 12.8368L5.10743 11.4418L3.92071 10.5796H5.38754L5.84079 9.18462L6.29404 10.5796H7.76087L6.57415 11.4418L7.02745 12.8368ZM6.57415 7.36353L7.02745 8.75855L5.84079 7.8964L4.65412 8.75855L5.10743 7.36353L3.92071 6.50138H5.38754L5.84079 5.10636L6.29404 6.50138H7.76087L6.57415 7.36353ZM12.0492 12.8368L10.8625 11.9747L9.67586 12.8368L10.1292 11.4418L8.94244 10.5796H10.4093L10.8625 9.18462L11.3158 10.5796H12.7826L11.5959 11.4418L12.0492 12.8368ZM11.5959 7.36353L12.0492 8.75855L10.8625 7.8964L9.67586 8.75855L10.1292 7.36353L8.94244 6.50138H10.4093L10.8625 5.10636L11.3158 6.50138H12.7826L11.5959 7.36353ZM11.5959 3.28526L12.0492 4.68028L10.8625 3.81814L9.67586 4.68028L10.1292 3.28526L8.94244 2.42311H10.4093L10.8625 1.02809L11.3158 2.42311H12.7826L11.5959 3.28526Z" fill="#0052B4"/>
</g>
</g>
<defs>
<clipPath id="clip0_6065_15293">
<rect width="28" height="28" fill="white" transform="translate(0 0.236816)"/>
</clipPath>
<clipPath id="clip1_6065_15293">
<rect width="28" height="28" fill="white" transform="translate(0 0.236816)"/>
</clipPath>
</defs>
</svg>
