<svg width="28" height="29" viewBox="0 0 28 29" fill="none" xmlns="http://www.w3.org/2000/svg">
<g clip-path="url(#clip0_6065_15344)">
<g clip-path="url(#clip1_6065_15344)">
<path d="M1.38917 8.15002C0.499188 9.99058 0 12.0555 0 14.237C0 16.4184 0.499188 18.4833 1.38917 20.3239L14 21.5413L26.6108 20.3239C27.5008 18.4833 28 16.4184 28 14.237C28 12.0555 27.5008 9.99058 26.6108 8.15002L14 6.93262L1.38917 8.15002Z" fill="#F0F0F0"/>
<path d="M1.39062 20.3237C3.65507 25.0066 8.45056 28.2368 14.001 28.2368C19.5514 28.2368 24.3469 25.0066 26.6113 20.3237H1.39062Z" fill="#6DA544"/>
<path d="M1.39062 8.14988H26.6113C24.3469 3.46699 19.5514 0.236816 14.001 0.236816C8.45056 0.236816 3.65507 3.46699 1.39062 8.14988Z" fill="#D80027"/>
<path d="M11.5645 17.8892H16.434V15.8196L15.4601 16.3066L13.9993 14.8457L12.5384 16.3066L11.5645 15.8196V17.8892Z" fill="#FFDA44"/>
<path d="M8.7784 15.4541L9.00508 16.1516H9.73844L9.14508 16.5827L9.37176 17.2802L8.7784 16.8491L8.18504 17.2802L8.41172 16.5827L7.81836 16.1516H8.55172L8.7784 15.4541Z" fill="#FFDA44"/>
<path d="M9.48152 13.0195L9.7082 13.717H10.4416L9.8482 14.1481L10.0748 14.8456L9.48152 14.4146L8.88816 14.8456L9.11484 14.1481L8.52148 13.717H9.25484L9.48152 13.0195Z" fill="#FFDA44"/>
<path d="M11.4893 11.1934L11.716 11.8908H12.4493L11.8561 12.3219L12.0826 13.0194L11.4893 12.5884L10.896 13.0194L11.1227 12.3219L10.5293 11.8908H11.2627L11.4893 11.1934Z" fill="#FFDA44"/>
<path d="M19.2198 15.4541L18.9931 16.1516H18.2598L18.8531 16.5827L18.6264 17.2802L19.2198 16.8491L19.8131 17.2802L19.5865 16.5827L20.1798 16.1516H19.4465L19.2198 15.4541Z" fill="#FFDA44"/>
<path d="M18.5167 13.0195L18.29 13.717H17.5566L18.15 14.1481L17.9233 14.8456L18.5167 14.4146L19.11 14.8456L18.8834 14.1481L19.4767 13.717H18.7434L18.5167 13.0195Z" fill="#FFDA44"/>
<path d="M16.5088 11.1934L16.2821 11.8908H15.5488L16.1421 12.3219L15.9155 13.0194L16.5088 12.5884L17.1021 13.0194L16.8755 12.3219L17.4688 11.8908H16.7354L16.5088 11.1934Z" fill="#FFDA44"/>
<path d="M13.9991 10.2803L14.2258 10.9778H14.9591L14.3658 11.4089L14.5925 12.1063L13.9991 11.6753L13.4057 12.1063L13.6324 11.4089L13.0391 10.9778H13.7724L13.9991 10.2803Z" fill="#FFDA44"/>
</g>
</g>
<defs>
<clipPath id="clip0_6065_15344">
<rect width="28" height="28" fill="white" transform="translate(0 0.236816)"/>
</clipPath>
<clipPath id="clip1_6065_15344">
<rect width="28" height="28" fill="white" transform="translate(0 0.236816)"/>
</clipPath>
</defs>
</svg>
