<svg width="24" height="24" viewBox="0 0 24 24" fill="none" xmlns="http://www.w3.org/2000/svg">
<rect width="24" height="24" rx="7" fill="#F05160" fill-opacity="0.16"/>
<path opacity="0.5" d="M12.0003 17.8332C15.222 17.8332 17.8337 15.2215 17.8337 11.9998C17.8337 8.77818 15.222 6.1665 12.0003 6.1665C8.77866 6.1665 6.16699 8.77818 6.16699 11.9998C6.16699 15.2215 8.77866 17.8332 12.0003 17.8332Z" fill="#DC3545"/>
<path d="M8.22102 9.23063C8.5407 8.91402 9.08292 9.14038 9.08292 9.59009V10.8331H11.9996C12.6439 10.8331 13.1662 11.3555 13.1663 11.9998C13.1663 12.6441 12.6439 13.1664 11.9996 13.1664H9.08292V14.4094C9.08292 14.8591 8.54071 15.0854 8.22102 14.7689L5.94978 12.5193C5.66126 12.2329 5.66128 11.7666 5.94978 11.4802L8.22102 9.23063Z" fill="#DC3545"/>
</svg>
