<svg width="25" height="24" viewBox="0 0 25 24" fill="none" xmlns="http://www.w3.org/2000/svg">
<path opacity="0.3" d="M12.5005 2C6.97751 2 2.50051 6.477 2.50051 12C2.50051 13.592 2.88251 15.091 3.54351 16.427L2.53851 20.446C2.30951 21.361 3.13851 22.191 4.05451 21.962L8.07351 20.957C9.40951 21.618 10.9085 22 12.5005 22C18.0235 22 22.5005 17.523 22.5005 12C22.5005 6.477 18.0235 2 12.5005 2Z" fill="#367DF0"/>
<path d="M12.5 13.5C13.3284 13.5 14 12.8284 14 12C14 11.1716 13.3284 10.5 12.5 10.5C11.6716 10.5 11 11.1716 11 12C11 12.8284 11.6716 13.5 12.5 13.5Z" fill="#367DF0"/>
<path d="M17.5 13.5C18.3284 13.5 19 12.8284 19 12C19 11.1716 18.3284 10.5 17.5 10.5C16.6716 10.5 16 11.1716 16 12C16 12.8284 16.6716 13.5 17.5 13.5Z" fill="#367DF0"/>
<path d="M7.5 13.5C8.32843 13.5 9 12.8284 9 12C9 11.1716 8.32843 10.5 7.5 10.5C6.67157 10.5 6 11.1716 6 12C6 12.8284 6.67157 13.5 7.5 13.5Z" fill="#367DF0"/>
</svg>
