<svg width="25" height="24" viewBox="0 0 25 24" fill="none" xmlns="http://www.w3.org/2000/svg">
<path opacity="0.3" d="M18.5 21H6.5C4.843 21 3.5 19.657 3.5 18V8.76499C3.5 7.67499 4.091 6.67199 5.043 6.14299L11.043 2.80999C11.949 2.30699 13.051 2.30699 13.957 2.80999L19.957 6.14299C20.909 6.67199 21.5 7.67599 21.5 8.76499V18C21.5 19.657 20.157 21 18.5 21Z" fill="#367DF0"/>
<path d="M15.5 21H9.5V15C9.5 13.895 10.395 13 11.5 13H13.5C14.605 13 15.5 13.895 15.5 15V21Z" fill="#367DF0"/>
<path d="M20.999 9.23001C20.752 9.23001 20.503 9.16901 20.272 9.04101L13.433 5.24101C12.849 4.91701 12.153 4.91701 11.569 5.24101L4.72999 9.04101C4.00499 9.44301 3.09299 9.18301 2.68999 8.45801C2.28799 7.73401 2.54799 6.82101 3.27299 6.41801L10.112 2.61801C11.608 1.78601 13.394 1.78701 14.89 2.61801L21.729 6.41801C22.453 6.82001 22.714 7.73301 22.312 8.45801C22.037 8.95201 21.526 9.23001 20.999 9.23001Z" fill="#367DF0"/>
</svg>
