<svg width="25" height="24" viewBox="0 0 25 24" fill="none" xmlns="http://www.w3.org/2000/svg">
<path opacity="0.35" d="M15.75 4C16.5784 4 17.25 3.32843 17.25 2.5C17.25 1.67157 16.5784 1 15.75 1C14.9216 1 14.25 1.67157 14.25 2.5C14.25 3.32843 14.9216 4 15.75 4Z" fill="#ADB5BD"/>
<path opacity="0.35" d="M18.25 6H11.2C11.232 5.838 11.25 5.671 11.25 5.5C11.25 4.119 10.131 3 8.75 3C7.369 3 6.25 4.119 6.25 5.5C6.25 5.671 6.268 5.838 6.3 6H6.25C4.593 6 3.25 7.343 3.25 9V18C3.25 19.657 4.593 21 6.25 21H18.25C19.907 21 21.25 19.657 21.25 18V9C21.25 7.343 19.907 6 18.25 6Z" fill="#ADB5BD"/>
<path d="M17.75 15C18.5784 15 19.25 14.3284 19.25 13.5C19.25 12.6716 18.5784 12 17.75 12C16.9216 12 16.25 12.6716 16.25 13.5C16.25 14.3284 16.9216 15 17.75 15Z" fill="#ADB5BD"/>
<path d="M15.75 0C14.369 0 13.25 1.119 13.25 2.5C13.25 3.881 14.369 5 15.75 5C17.131 5 18.25 3.881 18.25 2.5C18.25 1.119 17.131 0 15.75 0ZM16.067 3.429C16.067 3.577 15.947 3.697 15.799 3.697C15.651 3.697 15.531 3.577 15.531 3.429V1.916L15.387 2.025C15.272 2.112 15.105 2.078 15.034 1.952C14.973 1.846 15.002 1.711 15.101 1.639L15.495 1.351C15.557 1.306 15.631 1.281 15.708 1.281C15.907 1.281 16.068 1.442 16.068 1.641L16.067 3.429Z" fill="#ADB5BD"/>
<path d="M6.25 6H9.019C9.019 5.998 9.02 5.997 9.02 5.995C9.02 5.65 8.667 5.494 8.533 5.494C8.423 5.494 8.313 5.51 8.215 5.532C8.042 5.569 7.881 5.427 7.887 5.25L7.928 4.124C7.935 3.919 8.104 3.758 8.308 3.758H9.297C9.476 3.758 9.622 3.903 9.622 4.083C9.622 4.262 9.477 4.408 9.297 4.408H8.57L8.547 4.979C8.585 4.963 8.628 4.951 8.676 4.941C8.724 4.931 8.766 4.927 8.8 4.927C9.571 4.927 9.741 5.653 9.739 5.972C9.739 5.981 9.737 5.991 9.737 6H12.199C12.223 5.835 12.25 5.671 12.25 5.5C12.25 3.567 10.683 2 8.75 2C6.817 2 5.25 3.567 5.25 5.5C5.25 5.727 5.276 5.948 5.317 6.163C5.612 6.066 5.922 6 6.25 6Z" fill="#ADB5BD"/>
</svg>
