<svg width="25" height="24" viewBox="0 0 25 24" fill="none" xmlns="http://www.w3.org/2000/svg">
<path opacity="0.35" d="M16 4C16.8284 4 17.5 3.32843 17.5 2.5C17.5 1.67157 16.8284 1 16 1C15.1716 1 14.5 1.67157 14.5 2.5C14.5 3.32843 15.1716 4 16 4Z" fill="#367DF0"/>
<path opacity="0.35" d="M18.5 6H11.45C11.482 5.838 11.5 5.671 11.5 5.5C11.5 4.119 10.381 3 9 3C7.619 3 6.5 4.119 6.5 5.5C6.5 5.671 6.518 5.838 6.55 6H6.5C4.843 6 3.5 7.343 3.5 9V18C3.5 19.657 4.843 21 6.5 21H18.5C20.157 21 21.5 19.657 21.5 18V9C21.5 7.343 20.157 6 18.5 6Z" fill="#367DF0"/>
<path d="M18 15C18.8284 15 19.5 14.3284 19.5 13.5C19.5 12.6716 18.8284 12 18 12C17.1716 12 16.5 12.6716 16.5 13.5C16.5 14.3284 17.1716 15 18 15Z" fill="#367DF0"/>
<path d="M16 0C14.619 0 13.5 1.119 13.5 2.5C13.5 3.881 14.619 5 16 5C17.381 5 18.5 3.881 18.5 2.5C18.5 1.119 17.381 0 16 0ZM16.317 3.429C16.317 3.577 16.197 3.697 16.049 3.697C15.901 3.697 15.781 3.577 15.781 3.429V1.916L15.637 2.025C15.522 2.112 15.355 2.078 15.284 1.952C15.223 1.846 15.252 1.711 15.351 1.639L15.745 1.351C15.807 1.306 15.881 1.281 15.958 1.281C16.157 1.281 16.318 1.442 16.318 1.641L16.317 3.429Z" fill="#367DF0"/>
<path d="M6.5 6H9.269C9.269 5.998 9.27 5.997 9.27 5.995C9.27 5.65 8.917 5.494 8.783 5.494C8.673 5.494 8.563 5.51 8.465 5.532C8.292 5.569 8.131 5.427 8.137 5.25L8.178 4.124C8.185 3.919 8.354 3.758 8.558 3.758H9.547C9.726 3.758 9.872 3.903 9.872 4.083C9.872 4.262 9.727 4.408 9.547 4.408H8.82L8.797 4.979C8.835 4.963 8.878 4.951 8.926 4.941C8.974 4.931 9.016 4.927 9.05 4.927C9.821 4.927 9.991 5.653 9.989 5.972C9.989 5.981 9.987 5.991 9.987 6H12.449C12.473 5.835 12.5 5.671 12.5 5.5C12.5 3.567 10.933 2 9 2C7.067 2 5.5 3.567 5.5 5.5C5.5 5.727 5.526 5.948 5.567 6.163C5.862 6.066 6.172 6 6.5 6Z" fill="#367DF0"/>
</svg>
