<svg width="25" height="24" viewBox="0 0 25 24" fill="none" xmlns="http://www.w3.org/2000/svg">
<path opacity="0.3" d="M18.75 21H6.75C5.093 21 3.75 19.657 3.75 18V8.76499C3.75 7.67499 4.341 6.67199 5.293 6.14299L11.293 2.80999C12.199 2.30699 13.301 2.30699 14.207 2.80999L20.207 6.14299C21.159 6.67199 21.75 7.67599 21.75 8.76499V18C21.75 19.657 20.407 21 18.75 21Z" fill="#ADB5BD"/>
<path d="M15.75 21H9.75V15C9.75 13.895 10.645 13 11.75 13H13.75C14.855 13 15.75 13.895 15.75 15V21Z" fill="#ADB5BD"/>
<path d="M21.249 9.23001C21.002 9.23001 20.753 9.16901 20.522 9.04101L13.683 5.24101C13.099 4.91701 12.403 4.91701 11.819 5.24101L4.97999 9.04101C4.25499 9.44301 3.34299 9.18301 2.93999 8.45801C2.53799 7.73401 2.79799 6.82101 3.52299 6.41801L10.362 2.61801C11.858 1.78601 13.644 1.78701 15.14 2.61801L21.979 6.41801C22.703 6.82001 22.964 7.73301 22.562 8.45801C22.287 8.95201 21.776 9.23001 21.249 9.23001Z" fill="#ADB5BD"/>
</svg>
