<svg width="25" height="24" viewBox="0 0 25 24" fill="none" xmlns="http://www.w3.org/2000/svg">
<path opacity="0.3" d="M18.5 21H6.5C4.843 21 3.5 19.657 3.5 18V7H21.5V18C21.5 19.657 20.157 21 18.5 21Z" fill="#495057"/>
<path d="M12.5 21H7.5V14C7.5 13.448 7.948 13 8.5 13H11.5C12.052 13 12.5 13.448 12.5 14V21Z" fill="#495057"/>
<path d="M17.5 17H15.5C14.948 17 14.5 16.552 14.5 16V14C14.5 13.448 14.948 13 15.5 13H17.5C18.052 13 18.5 13.448 18.5 14V16C18.5 16.552 18.052 17 17.5 17Z" fill="#495057"/>
<path d="M22.3946 8.553L21.4996 6.764V6C21.4996 4.343 20.1566 3 18.4996 3H6.49962C4.84262 3 3.49962 4.343 3.49962 6V6.764L2.60462 8.553C2.40262 8.957 2.49662 9.445 2.83362 9.746C2.97762 9.874 4.28662 11 5.99962 11C7.10762 11 8.04762 10.528 8.61162 10.161C9.38662 10.495 10.8316 11 12.4996 11C14.1676 11 15.6126 10.495 16.3876 10.161C16.9516 10.528 17.8916 11 18.9996 11C20.7126 11 22.0216 9.874 22.1656 9.746C22.5026 9.445 22.5966 8.957 22.3946 8.553Z" fill="#495057"/>
</svg>
