<svg width="40" height="41" viewBox="0 0 40 41" fill="none" xmlns="http://www.w3.org/2000/svg">
<mask id="mask0_6061_16252" style="mask-type:luminance" maskUnits="userSpaceOnUse" x="0" y="0" width="40" height="41">
<path d="M40 0.236816H0V40.2368H40V0.236816Z" fill="white"/>
</mask>
<g mask="url(#mask0_6061_16252)">
<path d="M20 40.2368C31.0457 40.2368 40 31.2826 40 20.2368C40 9.19112 31.0457 0.236816 20 0.236816C8.9543 0.236816 0 9.19112 0 20.2368C0 31.2826 8.9543 40.2368 20 40.2368Z" fill="url(#paint0_radial_6061_16252)"/>
<path opacity="0.15" d="M20 40.2368C8.97178 40.2368 0 31.2651 0 20.2368C0 9.20859 8.97178 0.236816 20 0.236816C31.0282 0.236816 40 9.20859 40 20.2368C40 31.2651 31.0282 40.2368 20 40.2368ZM20 1.57318C9.70484 1.57318 1.32987 9.94814 1.32987 20.2433C1.32987 30.5384 9.70484 38.9134 20 38.9134C30.2951 38.9134 38.6701 30.5319 38.6701 20.2368C38.6701 9.94165 30.2951 1.57318 20 1.57318Z" fill="black"/>
<path d="M28.2843 16.0066C28.654 16.1234 29.0303 16.2013 29.3546 16.3504C30.8726 17.0445 31.1321 18.8804 29.8865 20.113C29.2054 20.7876 28.3491 21.0925 27.4084 21.1509C26.4224 21.2093 25.5141 21.0148 24.6449 20.7163C23.6005 20.353 22.6274 19.8794 21.7063 19.3215C21.6933 19.315 21.6933 19.3021 21.6738 19.2761C22.0111 19.1789 22.3484 19.0945 22.6793 18.9908C23.86 18.6144 24.9888 18.1279 25.9034 17.2845C26.0138 17.1808 26.085 17.0445 26.1759 16.9213C26.0266 16.9083 25.884 16.8824 25.7348 16.8889C24.7746 16.9473 23.8729 17.2716 23.0036 17.6933C22.4716 17.9528 21.9721 18.2771 21.4596 18.569C21.4273 18.5885 21.3884 18.608 21.3559 18.6339C21.3364 18.6274 21.317 18.6209 21.291 18.6144C21.5051 17.9009 21.7063 17.1873 21.9463 16.4801C22.2706 15.5265 22.7118 14.6054 23.3669 13.7555C23.9833 12.9706 24.7551 12.3803 25.7866 12.1337C27.2916 11.7705 28.6929 12.5879 28.8875 13.9306C29.0043 14.6833 28.7578 15.3644 28.2843 16.0066Z" fill="#111111"/>
<path d="M12.7161 22.9872C12.3463 22.8705 11.9701 22.7926 11.6457 22.6435C10.1277 21.9492 9.86824 20.1135 11.1138 18.8809C11.7949 18.2062 12.6512 17.9012 13.5918 17.8429C14.578 17.7845 15.4861 17.9791 16.3555 18.2776C17.3998 18.6409 18.373 19.1144 19.2941 19.6722C19.3071 19.6787 19.3071 19.6917 19.3266 19.7177C18.9892 19.815 18.6518 19.8994 18.3211 20.0031C17.1403 20.3794 16.0116 20.866 15.097 21.7092C14.9866 21.8131 14.9152 21.9494 14.8245 22.0726C14.9736 22.0855 15.1163 22.1115 15.2656 22.105C16.2257 22.0466 17.1273 21.7222 17.9967 21.3006C18.5286 21.0411 19.0281 20.7167 19.5406 20.4249C19.5731 20.4054 19.612 20.3859 19.6445 20.36C19.6638 20.3665 19.6833 20.3729 19.7093 20.3794C19.4952 21.093 19.2941 21.8066 19.0541 22.5137C18.7297 23.4674 18.2886 24.3885 17.6333 25.2384C17.0171 26.0232 16.2451 26.6136 15.2137 26.8601C13.7086 27.2234 12.3074 26.406 12.1128 25.0631C11.9895 24.3106 12.2361 23.6295 12.7161 22.9872Z" fill="#111111"/>
<path d="M17.0081 11.7127C17.1248 11.3429 17.2027 10.9667 17.3518 10.6423C18.046 9.12431 19.8818 8.86482 21.1145 10.1104C21.7891 10.7915 22.094 11.6478 22.1523 12.5885C22.2108 13.5746 22.0162 14.4827 21.7177 15.3521C21.3545 16.3964 20.881 17.3696 20.323 18.2907C20.3165 18.3037 20.3036 18.3037 20.2776 18.3232C20.1803 17.9858 20.096 17.6484 19.9922 17.3176C19.616 16.1369 19.1293 15.0082 18.2861 14.0934C18.1822 13.9832 18.046 13.9118 17.9227 13.8211C17.9098 13.9702 17.8838 14.1129 17.8903 14.2622C17.9487 15.2223 18.2731 16.1239 18.6947 16.9933C18.9542 17.5252 19.2786 18.0247 19.5705 18.5372C19.59 18.5697 19.6095 18.6086 19.6353 18.6411C19.6288 18.6604 19.6223 18.6799 19.616 18.7059C18.9023 18.4918 18.1887 18.2907 17.4816 18.0507C16.528 17.7263 15.6068 17.2852 14.757 16.6299C13.9721 16.0137 13.3817 15.2417 13.1352 14.2103C12.772 12.7052 13.5893 11.304 14.9322 11.1094C15.6847 10.9926 16.3658 11.2391 17.0081 11.7127Z" fill="#111111"/>
<path d="M23.9828 27.2818C23.8661 27.6516 23.7882 28.0278 23.639 28.3522C22.9448 29.8702 21.109 30.1297 19.8765 28.8841C19.2017 28.2029 18.8968 27.3467 18.8385 26.4059C18.7801 25.4199 18.9747 24.5117 19.2731 23.6424C19.6365 22.5981 20.11 21.6249 20.6678 20.7037C20.6743 20.6908 20.6873 20.6908 20.7133 20.6713C20.8106 21.0087 20.895 21.3459 20.9987 21.6768C21.375 22.8574 21.8615 23.9863 22.7048 24.9009C22.8086 25.0112 22.9448 25.0826 23.0681 25.1734C23.0811 25.0242 23.1071 24.8814 23.1006 24.7323C23.0422 23.7722 22.7178 22.8704 22.2962 22.0012C22.0367 21.4692 21.7123 20.9697 21.4203 20.4572C21.401 20.4248 21.3815 20.3859 21.3555 20.3534C21.362 20.3339 21.3685 20.3146 21.375 20.2886C22.0886 20.5027 22.8022 20.7037 23.5092 20.9438C24.4628 21.2682 25.3841 21.7093 26.2338 22.3644C27.0188 22.9808 27.6092 23.7527 27.8557 24.7842C28.219 26.2892 27.4016 27.6904 26.0587 27.8851C25.3127 28.0018 24.6251 27.7553 23.9828 27.2818Z" fill="#111111"/>
<path d="M17.8865 25.783L15.0321 30.7781C14.8635 31.0766 15.0062 31.4592 15.337 31.5631L15.9598 31.7642C16.2517 31.8615 16.5631 31.6929 16.6475 31.4009L18.2433 25.9322C18.3082 25.7116 18.0032 25.5819 17.8865 25.783Z" fill="#111111"/>
</g>
<defs>
<radialGradient id="paint0_radial_6061_16252" cx="0" cy="0" r="1" gradientUnits="userSpaceOnUse" gradientTransform="translate(32.9412 29.9427) rotate(-135) scale(33.9689)">
<stop offset="0.2" stop-color="#7FFF47"/>
<stop offset="0.55" stop-color="#F9FF20"/>
<stop offset="0.8" stop-color="#FFDAC0"/>
<stop offset="1" stop-color="#FC76E3"/>
</radialGradient>
</defs>
</svg>
