<svg width="20" height="20" viewBox="0 0 20 20" fill="none" xmlns="http://www.w3.org/2000/svg">
<g clip-path="url(#clip0_5876_13514)">
<path opacity="0.3" d="M17.2697 15.8337C17.2697 14.8745 17.5063 14.0595 16.6663 13.7262V6.66699L11.6663 1.66699H5.83301C4.45217 1.66699 3.33301 2.78616 3.33301 4.16699V15.8337C3.33301 17.2145 4.45217 18.3337 5.83301 18.3337H14.9997L16.6663 17.5003C17.5063 17.1678 17.2697 16.7928 17.2697 15.8337Z" fill="#ADB5BD"/>
<path fill-rule="evenodd" clip-rule="evenodd" d="M15.0003 11.667C16.8412 11.667 18.3337 13.1595 18.3337 15.0003C18.3337 15.4619 18.2391 15.9017 18.0692 16.3016L19.6341 17.8674C20.1224 18.3549 20.1224 19.1458 19.6341 19.6341C19.3899 19.8783 19.0703 20.0003 18.7503 20.0003C18.4303 20.0003 18.1107 19.8783 17.8673 19.6341L16.3016 18.0692C15.9017 18.2391 15.4619 18.3337 15.0003 18.3337C13.1595 18.3337 11.667 16.8412 11.667 15.0003C11.667 13.1595 13.1595 11.667 15.0003 11.667ZM15.0003 13.3337C14.0795 13.3337 13.3337 14.0795 13.3337 15.0003C13.3337 15.9212 14.0795 16.667 15.0003 16.667C15.9212 16.667 16.667 15.9212 16.667 15.0003C16.667 14.0795 15.9212 13.3337 15.0003 13.3337Z" fill="#ADB5BD"/>
<path d="M16.667 6.66699H13.3337C12.4128 6.66699 11.667 5.92116 11.667 5.00033V1.66699L16.667 6.66699Z" fill="#ADB5BD"/>
</g>
<defs>
<clipPath id="clip0_5876_13514">
<rect width="20" height="20" fill="white"/>
</clipPath>
</defs>
</svg>
