<svg width="100" height="29" viewBox="0 0 100 29" fill="none" xmlns="http://www.w3.org/2000/svg">
<g clip-path="url(#clip0_6061_16540)">
<g clip-path="url(#clip1_6061_16540)">
<path d="M86 26.2368C92.6274 26.2368 98 20.8642 98 14.2368C98 7.6094 92.6274 2.23682 86 2.23682C79.3726 2.23682 74 7.6094 74 14.2368C74 20.8642 79.3726 26.2368 86 26.2368Z" fill="#8D8D8D"/>
<path fill-rule="evenodd" clip-rule="evenodd" d="M81.8203 16.6473L80.75 17.0628L81.266 14.9936L82.349 14.5586L83.9098 8.23682H87.7565L86.6172 12.8838L87.6747 12.4556L87.1647 14.5181L86.0945 14.9463L85.4585 17.5586H91.25L90.5953 20.2368H80.939L81.8203 16.6473Z" fill="white"/>
</g>
</g>
<rect x="73" y="1.23682" width="26" height="26" rx="13" stroke="white" stroke-width="2"/>
<g clip-path="url(#clip2_6061_16540)">
<g clip-path="url(#clip3_6061_16540)">
<path d="M68 26.2368C74.6274 26.2368 80 20.8642 80 14.2368C80 7.6094 74.6274 2.23682 68 2.23682C61.3726 2.23682 56 7.6094 56 14.2368C56 20.8642 61.3726 26.2368 68 26.2368Z" fill="#627EEA"/>
<path d="M68 5.23682V11.8893L73.6228 14.4018L68 5.23682Z" fill="white" fill-opacity="0.602"/>
<path d="M68.3735 5.23682L62.75 14.4018L68.3735 11.8893V5.23682Z" fill="white"/>
<path d="M68 19.0008V23.5211L73.6265 15.7368L68 19.0008Z" fill="white" fill-opacity="0.602"/>
<path d="M68.3735 23.5211V19.0001L62.75 15.7368L68.3735 23.5211Z" fill="white"/>
<path d="M68 17.7626L73.6228 14.4978L68 11.9868V17.7626Z" fill="white" fill-opacity="0.2"/>
<path d="M62.75 14.4978L68.3735 17.7626V11.9868L62.75 14.4978Z" fill="white" fill-opacity="0.602"/>
</g>
</g>
<rect x="55" y="1.23682" width="26" height="26" rx="13" stroke="white" stroke-width="2"/>
<g clip-path="url(#clip4_6061_16540)">
<g clip-path="url(#clip5_6061_16540)">
<path d="M50 26.2368C56.6274 26.2368 62 20.8642 62 14.2368C62 7.6094 56.6274 2.23682 50 2.23682C43.3726 2.23682 38 7.6094 38 14.2368C38 20.8642 43.3726 26.2368 50 26.2368Z" fill="#26A17B"/>
<path fill-rule="evenodd" clip-rule="evenodd" d="M51.2165 15.4098V15.4083C51.134 15.4143 50.7088 15.4398 49.76 15.4398C49.0025 15.4398 48.4693 15.4173 48.2818 15.4083V15.4106C45.3657 15.2823 43.1892 14.7746 43.1892 14.1671C43.1892 13.5603 45.3657 13.0526 48.2818 12.9221V14.9051C48.4723 14.9186 49.0183 14.9508 49.7728 14.9508C50.678 14.9508 51.1318 14.9133 51.2165 14.9058V12.9236C54.1265 13.0533 56.2978 13.5611 56.2978 14.1671C56.2978 14.7746 54.1265 15.2808 51.2165 15.4098V15.4098ZM51.2165 12.7173V10.9428H55.277V8.23682H44.2213V10.9428H48.2818V12.7166C44.9817 12.8681 42.5 13.5221 42.5 14.3051C42.5 15.0881 44.9817 15.7413 48.2818 15.8936V21.5801H51.2165V15.8921C54.5113 15.7406 56.987 15.0873 56.987 14.3051C56.987 13.5228 54.5113 12.8696 51.2165 12.7173" fill="white"/>
</g>
</g>
<rect x="37" y="1.23682" width="26" height="26" rx="13" stroke="white" stroke-width="2"/>
<g clip-path="url(#clip6_6061_16540)">
<g clip-path="url(#clip7_6061_16540)">
<path d="M32 26.2368C38.6274 26.2368 44 20.8642 44 14.2368C44 7.6094 38.6274 2.23682 32 2.23682C25.3726 2.23682 20 7.6094 20 14.2368C20 20.8642 25.3726 26.2368 32 26.2368Z" fill="#F7931A"/>
<path d="M37.274 12.7518C37.5095 11.1798 36.3118 10.3346 34.6753 9.77057L35.2063 7.64057L33.9103 7.31807L33.3928 9.39182C33.0523 9.30632 32.7028 9.22682 32.354 9.14732L32.8753 7.06007L31.5793 6.73682L31.0483 8.86607C30.7663 8.80157 30.4888 8.73857 30.2203 8.67107L30.2218 8.66432L28.4338 8.21807L28.0888 9.60257C28.0888 9.60257 29.051 9.82307 29.0308 9.83657C29.5558 9.96782 29.6503 10.3151 29.6345 10.5911L29.03 13.0173C29.066 13.0263 29.1125 13.0398 29.165 13.0601L29.0278 13.0263L28.1803 16.4253C28.1158 16.5843 27.953 16.8236 27.5855 16.7328C27.599 16.7516 26.6435 16.4981 26.6435 16.4981L26 17.9816L27.6875 18.4023C28.001 18.4811 28.3085 18.5636 28.6108 18.6408L28.0745 20.7948L29.3698 21.1173L29.9008 18.9873C30.2548 19.0826 30.5983 19.1711 30.9343 19.2551L30.4048 21.3761L31.7008 21.6986L32.237 19.5491C34.448 19.9676 36.11 19.7988 36.8098 17.7993C37.3738 16.1898 36.782 15.2606 35.6188 14.6553C36.4663 14.4603 37.1038 13.9031 37.274 12.7518V12.7518ZM34.3115 16.9053C33.9118 18.5156 31.2005 17.6448 30.3215 17.4266L31.034 14.5728C31.913 14.7926 34.7308 15.2268 34.3115 16.9053ZM34.7128 12.7286C34.3475 14.1933 32.0915 13.4486 31.3603 13.2663L32.0053 10.6788C32.7365 10.8611 35.0938 11.2008 34.7128 12.7286Z" fill="white"/>
</g>
</g>
<rect x="19" y="1.23682" width="26" height="26" rx="13" stroke="white" stroke-width="2"/>
<g clip-path="url(#clip8_6061_16540)">
<g clip-path="url(#clip9_6061_16540)">
<mask id="mask0_6061_16540" style="mask-type:luminance" maskUnits="userSpaceOnUse" x="2" y="2" width="24" height="25">
<path d="M26 2.23682H2V26.2368H26V2.23682Z" fill="white"/>
</mask>
<g mask="url(#mask0_6061_16540)">
<path d="M14 26.2368C20.6275 26.2368 26 20.8643 26 14.2368C26 7.6094 20.6275 2.23682 14 2.23682C7.37258 2.23682 2 7.6094 2 14.2368C2 20.8643 7.37258 26.2368 14 26.2368Z" fill="url(#paint0_radial_6061_16540)"/>
<path opacity="0.15" d="M14 26.2368C7.38306 26.2368 2 20.8538 2 14.2368C2 7.61988 7.38306 2.23682 14 2.23682C20.617 2.23682 26 7.61988 26 14.2368C26 20.8538 20.617 26.2368 14 26.2368ZM14 3.03863C7.8229 3.03863 2.79792 8.06361 2.79792 14.2407C2.79792 20.4178 7.8229 25.4428 14 25.4428C20.1771 25.4428 25.2021 20.4139 25.2021 14.2368C25.2021 8.05972 20.1771 3.03863 14 3.03863Z" fill="black"/>
<path d="M18.9694 11.6998C19.1912 11.7698 19.417 11.8166 19.6116 11.906C20.5224 12.3225 20.6781 13.424 19.9307 14.1636C19.5221 14.5684 19.0083 14.7513 18.4439 14.7863C17.8523 14.8214 17.3073 14.7047 16.7858 14.5256C16.1591 14.3076 15.5753 14.0234 15.0226 13.6887C15.0148 13.6848 15.0148 13.6771 15.0031 13.6615C15.2055 13.6031 15.4079 13.5525 15.6064 13.4903C16.3148 13.2644 16.9921 12.9725 17.5409 12.4665C17.6071 12.4043 17.6498 12.3225 17.7044 12.2486C17.6148 12.2408 17.5292 12.2252 17.4397 12.2291C16.8636 12.2642 16.3226 12.4588 15.801 12.7118C15.4818 12.8675 15.1821 13.0621 14.8746 13.2372C14.8552 13.2489 14.8319 13.2606 14.8124 13.2761C14.8007 13.2722 14.789 13.2683 14.7734 13.2644C14.9019 12.8363 15.0226 12.4082 15.1666 11.9839C15.3612 11.4117 15.6259 10.859 16.019 10.3491C16.3888 9.87819 16.8519 9.52396 17.4708 9.37605C18.3738 9.15808 19.2146 9.64852 19.3313 10.4542C19.4014 10.9058 19.2535 11.3144 18.9694 11.6998Z" fill="#111111"/>
<path d="M9.62966 15.8868C9.40781 15.8167 9.18205 15.77 8.98744 15.6805C8.07663 15.264 7.92094 14.1625 8.66827 13.423C9.07696 13.0182 9.59073 12.8352 10.1551 12.8002C10.7468 12.7651 11.2917 12.8819 11.8133 13.061C12.4399 13.279 13.0238 13.5631 13.5765 13.8978C13.5843 13.9017 13.5843 13.9095 13.596 13.9251C13.3935 13.9834 13.1911 14.0341 12.9927 14.0963C12.2842 14.3221 11.607 14.614 11.0582 15.12C10.992 15.1823 10.9491 15.2641 10.8947 15.338C10.9842 15.3457 11.0698 15.3613 11.1594 15.3574C11.7354 15.3224 12.2764 15.1278 12.798 14.8748C13.1172 14.7191 13.4169 14.5245 13.7244 14.3494C13.7439 14.3377 13.7672 14.326 13.7867 14.3104C13.7983 14.3143 13.81 14.3182 13.8256 14.3221C13.6971 14.7502 13.5765 15.1784 13.4325 15.6027C13.2378 16.1749 12.9732 16.7275 12.58 17.2375C12.2103 17.7084 11.7471 18.0626 11.1282 18.2105C10.2252 18.4285 9.38445 17.938 9.26769 17.1323C9.19373 16.6808 9.34164 16.2721 9.62966 15.8868Z" fill="#111111"/>
<path d="M12.2056 9.12332C12.2757 8.90146 12.3224 8.6757 12.4119 8.48109C12.8284 7.57029 13.9299 7.41459 14.6695 8.16192C15.0742 8.57061 15.2572 9.0844 15.2922 9.64878C15.3273 10.2404 15.2105 10.7853 15.0314 11.3069C14.8135 11.9336 14.5294 12.5174 14.1946 13.0701C14.1907 13.0779 14.1829 13.0779 14.1673 13.0896C14.109 12.8872 14.0584 12.6848 13.9961 12.4862C13.7704 11.7779 13.4784 11.1006 12.9724 10.5518C12.9101 10.4856 12.8284 10.4428 12.7544 10.3883C12.7467 10.4778 12.7311 10.5635 12.735 10.653C12.77 11.2291 12.9646 11.7701 13.2176 12.2917C13.3733 12.6108 13.5679 12.9105 13.7431 13.218C13.7548 13.2375 13.7665 13.2608 13.782 13.2803C13.7781 13.292 13.7742 13.3037 13.7704 13.3193C13.3422 13.1908 12.914 13.0701 12.4897 12.9261C11.9176 12.7315 11.3649 12.4668 10.855 12.0737C10.384 11.7039 10.0298 11.2407 9.8819 10.6219C9.66395 9.71885 10.1544 8.87811 10.9601 8.76134C11.4116 8.69127 11.8203 8.83918 12.2056 9.12332Z" fill="#111111"/>
<path d="M16.3917 18.4645C16.3216 18.6864 16.2749 18.9121 16.1853 19.1067C15.7689 20.0175 14.6673 20.1732 13.9278 19.4259C13.523 19.0172 13.3401 18.5034 13.305 17.939C13.27 17.3474 13.3868 16.8024 13.5658 16.2809C13.7838 15.6543 14.0679 15.0704 14.4027 14.5176C14.4066 14.5099 14.4144 14.5099 14.43 14.4982C14.4883 14.7006 14.5389 14.903 14.6012 15.1015C14.8269 15.8099 15.1188 16.4872 15.6249 17.036C15.6871 17.1021 15.7689 17.145 15.8428 17.1995C15.8506 17.1099 15.8662 17.0243 15.8623 16.9348C15.8273 16.3587 15.6327 15.8177 15.3797 15.2961C15.224 14.9769 15.0294 14.6772 14.8542 14.3697C14.8425 14.3503 14.8308 14.327 14.8152 14.3075C14.8191 14.2958 14.823 14.2842 14.8269 14.2686C15.2551 14.397 15.6833 14.5176 16.1075 14.6617C16.6797 14.8563 17.2324 15.121 17.7423 15.5141C18.2133 15.8839 18.5675 16.347 18.7154 16.9659C18.9333 17.8689 18.4429 18.7097 17.6372 18.8265C17.1896 18.8965 16.777 18.7486 16.3917 18.4645Z" fill="#111111"/>
<path d="M12.7319 17.5648L11.0193 20.5619C10.9181 20.741 11.0037 20.9706 11.2022 21.0329L11.5759 21.1536C11.751 21.2119 11.9379 21.1107 11.9885 20.9355L12.946 17.6544C12.9849 17.522 12.8019 17.4441 12.7319 17.5648Z" fill="#111111"/>
</g>
</g>
</g>
<rect x="1" y="1.23682" width="26" height="26" rx="13" stroke="white" stroke-width="2"/>
<defs>
<radialGradient id="paint0_radial_6061_16540" cx="0" cy="0" r="1" gradientUnits="userSpaceOnUse" gradientTransform="translate(21.7647 20.0603) rotate(-135) scale(20.3813)">
<stop offset="0.2" stop-color="#7FFF47"/>
<stop offset="0.55" stop-color="#F9FF20"/>
<stop offset="0.8" stop-color="#FFDAC0"/>
<stop offset="1" stop-color="#FC76E3"/>
</radialGradient>
<clipPath id="clip0_6061_16540">
<rect x="74" y="2.23682" width="24" height="24" rx="12" fill="white"/>
</clipPath>
<clipPath id="clip1_6061_16540">
<rect width="24" height="24" fill="white" transform="translate(74 2.23682)"/>
</clipPath>
<clipPath id="clip2_6061_16540">
<rect x="56" y="2.23682" width="24" height="24" rx="12" fill="white"/>
</clipPath>
<clipPath id="clip3_6061_16540">
<rect width="24" height="24" fill="white" transform="translate(56 2.23682)"/>
</clipPath>
<clipPath id="clip4_6061_16540">
<rect x="38" y="2.23682" width="24" height="24" rx="12" fill="white"/>
</clipPath>
<clipPath id="clip5_6061_16540">
<rect width="24" height="24" fill="white" transform="translate(38 2.23682)"/>
</clipPath>
<clipPath id="clip6_6061_16540">
<rect x="20" y="2.23682" width="24" height="24" rx="12" fill="white"/>
</clipPath>
<clipPath id="clip7_6061_16540">
<rect width="24" height="24" fill="white" transform="translate(20 2.23682)"/>
</clipPath>
<clipPath id="clip8_6061_16540">
<rect x="2" y="2.23682" width="24" height="24" rx="12" fill="white"/>
</clipPath>
<clipPath id="clip9_6061_16540">
<rect width="24" height="24" fill="white" transform="translate(2 2.23682)"/>
</clipPath>
</defs>
</svg>
