<svg width="212" height="213" viewBox="0 0 212 213" fill="none" xmlns="http://www.w3.org/2000/svg">
<path d="M51.7441 6.58496L45.8473 6.58496V2.69307C45.8473 1.58579 46.745 0.688155 47.8522 0.688155L51.7441 0.688155V6.58496Z" fill="black"/>
<path d="M57.4652 0.6875H51.5684V6.58431H57.4652V0.6875Z" fill="black"/>
<path d="M63.1859 0.6875H57.2891V6.58431H63.1859V0.6875Z" fill="black"/>
<path d="M68.9046 0.6875H63.0078V6.58431H68.9046V0.6875Z" fill="black"/>
<path d="M68.7285 6.58496V0.688155H72.6204C73.7277 0.688155 74.6253 1.58579 74.6253 2.69307V6.58496H68.7285Z" fill="black"/>
<path d="M85.8887 2.37399V4.90372C85.8887 5.83541 86.6435 6.58431 87.5752 6.58431H90.1049C91.0425 6.58431 91.7914 5.82951 91.7914 4.89782V2.37399C91.7855 1.43639 91.0307 0.6875 90.099 0.6875H87.5752C86.6435 0.6875 85.8887 1.44229 85.8887 2.37399Z" fill="black"/>
<path d="M103.225 6.58496L99.3327 6.58496C98.2254 6.58496 97.3278 5.68733 97.3278 4.58005V2.69307C97.3278 1.58579 98.2254 0.688155 99.3327 0.688155L103.225 0.688155V6.58496Z" fill="black"/>
<path d="M108.946 0.6875H103.049V6.58431H108.946V0.6875Z" fill="black"/>
<path d="M108.768 6.58496V0.688155H112.659C113.767 0.688155 114.664 1.58579 114.664 2.69307V6.58496H108.768Z" fill="black"/>
<path d="M126.104 6.58496L120.207 6.58496V2.69307C120.207 1.58579 121.104 0.688155 122.212 0.688155L126.104 0.688155V6.58496Z" fill="black"/>
<path d="M125.928 6.58496V0.688155H129.82C130.927 0.688155 131.825 1.58579 131.825 2.69307V6.58496H125.928Z" fill="black"/>
<path d="M143.264 6.58496L137.367 6.58496V2.69307C137.367 1.58579 138.264 0.688155 139.372 0.688155L143.264 0.688155V6.58496Z" fill="black"/>
<path d="M143.088 6.58496V2.69307C143.088 1.58579 143.986 0.688155 145.093 0.688155H146.98C148.087 0.688155 148.985 1.58579 148.985 2.69307V6.58496H143.088Z" fill="black"/>
<path d="M160.248 2.37399V4.90372C160.248 5.83541 161.003 6.58431 161.935 6.58431H164.464C165.402 6.58431 166.151 5.82951 166.151 4.89782V2.37399C166.145 1.43639 165.39 0.6875 164.458 0.6875H161.935C161.003 0.6875 160.248 1.44229 160.248 2.37399Z" fill="black"/>
<path d="M51.7464 6.40723H45.8496V12.304H51.7464V6.40723Z" fill="black"/>
<path d="M57.4652 6.40723H51.5684V12.304H57.4652V6.40723Z" fill="black"/>
<path d="M68.9043 6.40723V12.304H65.0124C63.9051 12.304 63.0075 11.4064 63.0075 10.2991V6.40723H68.9043Z" fill="black"/>
<path d="M74.6253 6.40723H68.7285V12.304H74.6253V6.40723Z" fill="black"/>
<path d="M78.5469 12.1864V12.3044H80.3454V10.5059H80.2275C80.2275 11.4376 79.4727 12.1864 78.5469 12.1864Z" fill="black"/>
<path d="M80.168 12.3047V8.4128C80.168 7.30551 81.0656 6.40788 82.1729 6.40788H84.0599C85.1671 6.40788 86.0648 7.30551 86.0648 8.4128V12.3047H80.168Z" fill="black"/>
<path d="M91.6074 8.09371V10.6234C91.6074 11.5551 92.3622 12.304 93.2939 12.304H95.8236C96.7612 12.304 97.5101 11.5492 97.5101 10.6175V8.09371C97.5042 7.15612 96.7494 6.40723 95.8177 6.40723H93.2939C92.3622 6.40723 91.6074 7.16202 91.6074 8.09371Z" fill="black"/>
<path d="M114.664 6.40723H108.768V12.304H114.664V6.40723Z" fill="black"/>
<path d="M118.586 12.1864V12.3044H120.384V10.5059H120.267C120.267 11.4376 119.512 12.1864 118.586 12.1864Z" fill="black"/>
<path d="M126.104 6.40723H120.207V12.304H126.104V6.40723Z" fill="black"/>
<path d="M125.928 6.40723H131.825V10.2991C131.825 11.4064 130.927 12.304 129.82 12.304H125.928V6.40723Z" fill="black"/>
<path d="M143.264 6.40723H137.367V12.304H143.264V6.40723Z" fill="black"/>
<path d="M154.703 12.3047H148.806V8.4128C148.806 7.30551 149.704 6.40788 150.811 6.40788L154.703 6.40788V12.3047Z" fill="black"/>
<path d="M154.527 12.3047V8.4128C154.527 7.30551 155.425 6.40788 156.532 6.40788H158.419C159.527 6.40788 160.424 7.30551 160.424 8.4128V12.3047H154.527Z" fill="black"/>
<path d="M51.7441 12.127V18.0238H47.8522C46.745 18.0238 45.8473 17.1261 45.8473 16.0188V12.127H51.7441Z" fill="black"/>
<path d="M51.5684 12.127H57.4652V16.0188C57.4652 17.1261 56.5675 18.0238 55.4603 18.0238H51.5684V12.127Z" fill="black"/>
<path d="M74.625 12.127V18.0238H70.7331C69.6258 18.0238 68.7282 17.1261 68.7282 16.0188V12.127H74.625Z" fill="black"/>
<path d="M80.346 12.127H74.4492V18.0238H80.346V12.127Z" fill="black"/>
<path d="M86.0648 12.127H80.168V18.0238H86.0648V12.127Z" fill="black"/>
<path d="M85.8887 18.0244V12.1276H89.7806C90.8878 12.1276 91.7855 13.0252 91.7855 14.1325V18.0244H85.8887Z" fill="black"/>
<path d="M114.664 12.127V18.0238H110.772C109.665 18.0238 108.767 17.1261 108.767 16.0188V12.127H114.664Z" fill="black"/>
<path d="M120.385 12.127H114.488V18.0238H120.385V12.127Z" fill="black"/>
<path d="M126.104 12.127H120.207V18.0238H126.104V12.127Z" fill="black"/>
<path d="M135.746 17.9062V18.0241H137.545V16.2256H137.427C137.427 17.1573 136.672 17.9062 135.746 17.9062Z" fill="black"/>
<path d="M143.264 12.127H137.367V18.0238H143.264V12.127Z" fill="black"/>
<path d="M154.705 12.127V16.0188C154.705 17.1261 153.807 18.0238 152.7 18.0238H150.813C149.706 18.0238 148.808 17.1261 148.808 16.0188V12.127H154.705Z" fill="black"/>
<path d="M158.625 17.9062V18.0241H160.424V16.2256H160.306C160.306 17.1573 159.551 17.9062 158.625 17.9062Z" fill="black"/>
<path d="M160.248 18.0244V14.1325C160.248 13.0252 161.146 12.1276 162.253 12.1276H164.14C165.247 12.1276 166.145 13.0252 166.145 14.1325V18.0244H160.248Z" fill="black"/>
<path d="M63.1855 23.7441H59.2937C58.1864 23.7441 57.2887 22.8465 57.2887 21.7392V19.8522C57.2887 18.745 58.1864 17.8473 59.2937 17.8473H63.1855V23.7441Z" fill="black"/>
<path d="M63.0078 23.7441V19.8522C63.0078 18.745 63.9054 17.8473 65.0127 17.8473H66.8997C68.007 17.8473 68.9046 18.745 68.9046 19.8522V23.7441H63.0078Z" fill="black"/>
<path d="M80.3438 17.8477V23.7445H76.4519C75.3446 23.7445 74.4469 22.8468 74.4469 21.7395V17.8477H80.3438Z" fill="black"/>
<path d="M86.0648 17.8477H80.168V23.7445H86.0648V17.8477Z" fill="black"/>
<path d="M91.7855 17.8477H85.8887V23.7445H91.7855V17.8477Z" fill="black"/>
<path d="M126.105 17.8477V21.7395C126.105 22.8468 125.208 23.7445 124.101 23.7445H122.214C121.106 23.7445 120.209 22.8468 120.209 21.7395V17.8477H126.105Z" fill="black"/>
<path d="M137.543 23.7441H133.651C132.544 23.7441 131.646 22.8465 131.646 21.7392V19.8522C131.646 18.745 132.544 17.8473 133.651 17.8473H137.543V23.7441Z" fill="black"/>
<path d="M143.264 17.8477H137.367V23.7445H143.264V17.8477Z" fill="black"/>
<path d="M143.088 23.7441V17.8473H146.98C148.087 17.8473 148.985 18.745 148.985 19.8522V23.7441H143.088Z" fill="black"/>
<path d="M160.424 23.7441H156.532C155.425 23.7441 154.527 22.8465 154.527 21.7392V19.8522C154.527 18.745 155.425 17.8473 156.532 17.8473H160.424V23.7441Z" fill="black"/>
<path d="M166.145 17.8477H160.248V23.7445H166.145V17.8477Z" fill="black"/>
<path d="M51.5684 25.2539V27.7836C51.5684 28.7153 52.3232 29.4642 53.2548 29.4642H55.7846C56.7222 29.4642 57.4711 28.7094 57.4711 27.7777V25.2539C57.4652 24.3163 56.7104 23.5674 55.7787 23.5674H53.2548C52.3232 23.5674 51.5684 24.3222 51.5684 25.2539Z" fill="black"/>
<path d="M68.7285 25.2539V27.7836C68.7285 28.7153 69.4833 29.4642 70.415 29.4642H72.9447C73.8823 29.4642 74.6312 28.7094 74.6312 27.7777V25.2539C74.6253 24.3163 73.8705 23.5674 72.9388 23.5674H70.415C69.4833 23.5674 68.7285 24.3222 68.7285 25.2539Z" fill="black"/>
<path d="M86.0645 23.5674V29.4642H82.1726C81.0653 29.4642 80.1676 28.5666 80.1676 27.4593V23.5674H86.0645Z" fill="black"/>
<path d="M91.7855 23.5674H85.8887V29.4642H91.7855V23.5674Z" fill="black"/>
<path d="M108.768 25.2539V27.7836C108.768 28.7153 109.522 29.4642 110.454 29.4642H112.984C113.921 29.4642 114.67 28.7094 114.67 27.7777V25.2539C114.664 24.3163 113.91 23.5674 112.978 23.5674H110.454C109.522 23.5674 108.768 24.3222 108.768 25.2539Z" fill="black"/>
<path d="M143.264 23.5674H137.367V29.4642H143.264V23.5674Z" fill="black"/>
<path d="M148.985 23.5674H143.088V29.4642H148.985V23.5674Z" fill="black"/>
<path d="M148.807 29.4639V23.5671H152.699C153.806 23.5671 154.703 24.4647 154.703 25.572V29.4639H148.807Z" fill="black"/>
<path d="M158.625 29.3456V29.4636H160.424V27.665H160.306C160.306 28.5967 159.551 29.3456 158.625 29.3456Z" fill="black"/>
<path d="M166.145 23.5674H160.248V29.4642H166.145V23.5674Z" fill="black"/>
<path d="M45.8496 35.1846V31.2927C45.8496 30.1854 46.7472 29.2878 47.8545 29.2878H49.7415C50.8488 29.2878 51.7464 30.1854 51.7464 31.2927V35.1846H45.8496Z" fill="black"/>
<path d="M63.1855 35.1846H57.2887V31.2927C57.2887 30.1854 58.1864 29.2878 59.2937 29.2878H63.1855V35.1846Z" fill="black"/>
<path d="M63.0078 35.1846V31.2927C63.0078 30.1854 63.9054 29.2878 65.0127 29.2878H66.8997C68.007 29.2878 68.9046 30.1854 68.9046 31.2927V35.1846H63.0078Z" fill="black"/>
<path d="M74.4492 30.9736V33.5033C74.4492 34.435 75.204 35.1839 76.1357 35.1839H78.6654C79.603 35.1839 80.3519 34.4291 80.3519 33.4974V30.9736C80.346 30.036 79.5912 29.2871 78.6595 29.2871H76.1357C75.204 29.2871 74.4492 30.0419 74.4492 30.9736Z" fill="black"/>
<path d="M91.7852 29.2871V35.1839H87.8933C86.786 35.1839 85.8884 34.2863 85.8884 33.179V29.2871H91.7852Z" fill="black"/>
<path d="M97.5042 29.2871H91.6074V35.1839H97.5042V29.2871Z" fill="black"/>
<path d="M103.225 29.2871H97.3281V35.1839H103.225V29.2871Z" fill="black"/>
<path d="M103.049 35.1846V29.2878H106.941C108.048 29.2878 108.946 30.1854 108.946 31.2927V35.1846H103.049Z" fill="black"/>
<path d="M137.543 35.1846H133.651C132.544 35.1846 131.646 34.2869 131.646 33.1797V31.2927C131.646 30.1854 132.544 29.2878 133.651 29.2878H137.543V35.1846Z" fill="black"/>
<path d="M143.264 29.2871H137.367V35.1839H143.264V29.2871Z" fill="black"/>
<path d="M148.985 29.2871H143.088V35.1839H148.985V29.2871Z" fill="black"/>
<path d="M154.703 29.2871H148.807V35.1839H154.703V29.2871Z" fill="black"/>
<path d="M160.424 29.2871H154.527V35.1839H160.424V29.2871Z" fill="black"/>
<path d="M166.145 29.2871H160.248V35.1839H166.145V29.2871Z" fill="black"/>
<path d="M51.7464 35.0068H45.8496V40.9036H51.7464V35.0068Z" fill="black"/>
<path d="M63.1855 35.0068V38.8987C63.1855 40.006 62.2879 40.9036 61.1806 40.9036H59.2937C58.1864 40.9036 57.2887 40.006 57.2887 38.8987V35.0068H63.1855Z" fill="black"/>
<path d="M68.7285 36.6933V39.2231C68.7285 40.1547 69.4833 40.9036 70.415 40.9036H72.9447C73.8823 40.9036 74.6312 40.1489 74.6312 39.2172V36.6933C74.6253 35.7557 73.8705 35.0068 72.9388 35.0068H70.415C69.4833 35.0068 68.7285 35.7616 68.7285 36.6933Z" fill="black"/>
<path d="M80.168 36.6933V39.2231C80.168 40.1547 80.9228 40.9036 81.8545 40.9036H84.3842C85.3218 40.9036 86.0707 40.1489 86.0707 39.2172V36.6933C86.0648 35.7557 85.31 35.0068 84.3783 35.0068H81.8545C80.9228 35.0068 80.168 35.7616 80.168 36.6933Z" fill="black"/>
<path d="M97.5042 35.0068H91.6074V40.9036H97.5042V35.0068Z" fill="black"/>
<path d="M108.946 35.0068H103.049V40.9036H108.946V35.0068Z" fill="black"/>
<path d="M114.488 36.6933V39.2231C114.488 40.1547 115.243 40.9036 116.175 40.9036H118.704C119.642 40.9036 120.391 40.1489 120.391 39.2172V36.6933C120.385 35.7557 119.63 35.0068 118.699 35.0068H116.175C115.243 35.0068 114.488 35.7616 114.488 36.6933Z" fill="black"/>
<path d="M125.928 36.6933V39.2231C125.928 40.1547 126.683 40.9036 127.614 40.9036H130.144C131.082 40.9036 131.83 40.1489 131.83 39.2172V36.6933C131.825 35.7557 131.07 35.0068 130.138 35.0068H127.614C126.683 35.0068 125.928 35.7616 125.928 36.6933Z" fill="black"/>
<path d="M143.264 35.0068H137.367V40.9036H143.264V35.0068Z" fill="black"/>
<path d="M154.705 35.0068V38.8987C154.705 40.006 153.807 40.9036 152.7 40.9036H150.813C149.706 40.9036 148.808 40.006 148.808 38.8987V35.0068H154.705Z" fill="black"/>
<path d="M166.145 35.0068V38.8987C166.145 40.006 165.247 40.9036 164.14 40.9036H162.253C161.145 40.9036 160.248 40.006 160.248 38.8987V35.0068H166.145Z" fill="black"/>
<path d="M51.7464 40.7266H45.8496V46.6234H51.7464V40.7266Z" fill="black"/>
<path d="M74.4492 42.413V44.9428C74.4492 45.8745 75.204 46.6234 76.1357 46.6234H78.6654C79.603 46.6234 80.3519 45.8686 80.3519 44.9369V42.413C80.346 41.4755 79.5912 40.7266 78.6595 40.7266H76.1357C75.204 40.7266 74.4492 41.4814 74.4492 42.413Z" fill="black"/>
<path d="M84.2676 46.5058V46.6237H86.0661V44.8252H85.9482C85.9482 45.7569 85.1934 46.5058 84.2676 46.5058Z" fill="black"/>
<path d="M91.7852 46.624H85.8884V42.7321C85.8884 41.6248 86.786 40.7272 87.8933 40.7272H91.7852V46.624Z" fill="black"/>
<path d="M91.6074 40.7266H97.5042V44.6185C97.5042 45.7257 96.6066 46.6234 95.4993 46.6234H91.6074V40.7266Z" fill="black"/>
<path d="M108.943 40.7266V44.6185C108.943 45.7257 108.046 46.6234 106.938 46.6234H105.051C103.944 46.6234 103.047 45.7257 103.047 44.6185V40.7266H108.943Z" fill="black"/>
<path d="M118.586 46.5058V46.6237H120.384V44.8252H120.267C120.267 45.7569 119.512 46.5058 118.586 46.5058Z" fill="black"/>
<path d="M120.207 46.624V42.7321C120.207 41.6248 121.105 40.7272 122.212 40.7272H124.099C125.206 40.7272 126.104 41.6248 126.104 42.7321V46.624H120.207Z" fill="black"/>
<path d="M143.264 40.7266H137.367V46.6234H143.264V40.7266Z" fill="black"/>
<path d="M143.088 46.624V42.7321C143.088 41.6248 143.986 40.7272 145.093 40.7272H146.98C148.087 40.7272 148.985 41.6248 148.985 42.7321V46.624H143.088Z" fill="black"/>
<path d="M9.9082 52.2255V52.3434H11.7067V50.5449H11.5888C11.5888 51.4766 10.834 52.2255 9.9082 52.2255Z" fill="black"/>
<path d="M17.4258 52.3438H11.529V48.4519C11.529 47.3446 12.4266 46.4469 13.5339 46.4469H17.4258V52.3438Z" fill="black"/>
<path d="M23.1468 46.4463H17.25V52.3431H23.1468V46.4463Z" fill="black"/>
<path d="M22.9688 52.3438V46.4469H26.8606C27.9679 46.4469 28.8656 47.3446 28.8656 48.4519V52.3438H22.9688Z" fill="black"/>
<path d="M34.4102 48.1328V50.6625C34.4102 51.5942 35.1649 52.3431 36.0966 52.3431H38.6264C39.564 52.3431 40.3129 51.5883 40.3129 50.6566V48.1328C40.307 47.1952 39.5522 46.4463 38.6205 46.4463H36.0966C35.1649 46.4463 34.4102 47.2011 34.4102 48.1328Z" fill="black"/>
<path d="M51.7441 46.4463V50.3382C51.7441 51.4455 50.8465 52.3431 49.7392 52.3431H47.8522C46.745 52.3431 45.8473 51.4455 45.8473 50.3382V46.4463H51.7441Z" fill="black"/>
<path d="M86.0645 52.3438H80.1676V48.4519C80.1676 47.3446 81.0653 46.4469 82.1726 46.4469H86.0645V52.3438Z" fill="black"/>
<path d="M91.7855 46.4463H85.8887V52.3431H91.7855V46.4463Z" fill="black"/>
<path d="M114.664 52.3438H110.772C109.665 52.3438 108.767 51.4461 108.767 50.3388V48.4519C108.767 47.3446 109.665 46.4469 110.772 46.4469H114.664V52.3438Z" fill="black"/>
<path d="M120.385 46.4463H114.488V52.3431H120.385V46.4463Z" fill="black"/>
<path d="M120.207 46.4463H126.104V50.3382C126.104 51.4455 125.206 52.3431 124.099 52.3431H120.207V46.4463Z" fill="black"/>
<path d="M143.264 46.4463H137.367V52.3431H143.264V46.4463Z" fill="black"/>
<path d="M148.807 48.1328V50.6625C148.807 51.5942 149.561 52.3431 150.493 52.3431H153.023C153.96 52.3431 154.709 51.5883 154.709 50.6566V48.1328C154.703 47.1952 153.949 46.4463 153.017 46.4463H150.493C149.561 46.4463 148.807 47.2011 148.807 48.1328Z" fill="black"/>
<path d="M171.863 52.3438H165.966V48.4519C165.966 47.3446 166.864 46.4469 167.971 46.4469H171.863V52.3438Z" fill="black"/>
<path d="M177.584 46.4463H171.688V52.3431H177.584V46.4463Z" fill="black"/>
<path d="M177.406 52.3438V46.4469H181.298C182.405 46.4469 183.303 47.3446 183.303 48.4519V52.3438H177.406Z" fill="black"/>
<path d="M200.463 52.3438H196.571C195.464 52.3438 194.566 51.4461 194.566 50.3388V48.4519C194.566 47.3446 195.464 46.4469 196.571 46.4469H200.463V52.3438Z" fill="black"/>
<path d="M206.184 46.4463H200.287V52.3431H206.184V46.4463Z" fill="black"/>
<path d="M206.006 52.3438V48.4519C206.006 47.3446 206.903 46.4469 208.011 46.4469H209.898C211.005 46.4469 211.903 47.3446 211.903 48.4519V52.3438H206.006Z" fill="black"/>
<path d="M4.1875 57.9452V58.0632H5.98603V56.2646H5.86809C5.86809 57.1963 5.1133 57.9452 4.1875 57.9452Z" fill="black"/>
<path d="M11.7051 58.0635H5.80827L5.80827 54.1716C5.80827 53.0643 6.7059 52.1667 7.81319 52.1667H11.7051V58.0635Z" fill="black"/>
<path d="M17.4261 52.167H11.5293V58.0638H17.4261V52.167Z" fill="black"/>
<path d="M23.1468 52.167H17.25V58.0638H23.1468V52.167Z" fill="black"/>
<path d="M28.8656 52.167H22.9688V58.0638H28.8656V52.167Z" fill="black"/>
<path d="M28.6895 58.0635V54.1716C28.6895 53.0643 29.5871 52.1667 30.6944 52.1667H32.5813C33.6886 52.1667 34.5863 53.0643 34.5863 54.1716V58.0635H28.6895Z" fill="black"/>
<path d="M57.2891 53.8535V56.3832C57.2891 57.3149 58.0439 58.0638 58.9755 58.0638H61.5053C62.4429 58.0638 63.1918 57.309 63.1918 56.3773V53.8535C63.1859 52.9159 62.4311 52.167 61.4994 52.167H58.9755C58.0439 52.167 57.2891 52.9218 57.2891 53.8535Z" fill="black"/>
<path d="M86.0645 52.167V58.0638H82.1726C81.0653 58.0638 80.1676 57.1662 80.1676 56.0589V52.167H86.0645Z" fill="black"/>
<path d="M85.8887 52.167H91.7855V56.0589C91.7855 57.1662 90.8878 58.0638 89.7806 58.0638H85.8887V52.167Z" fill="black"/>
<path d="M103.225 58.0635H97.3278V54.1716C97.3278 53.0643 98.2254 52.1667 99.3327 52.1667H103.225V58.0635Z" fill="black"/>
<path d="M103.049 58.0635V52.1667H106.941C108.048 52.1667 108.946 53.0643 108.946 54.1716V58.0635H103.049Z" fill="black"/>
<path d="M120.383 52.167V56.0589C120.383 57.1662 119.485 58.0638 118.378 58.0638H116.491C115.384 58.0638 114.486 57.1662 114.486 56.0589V52.167H120.383Z" fill="black"/>
<path d="M125.928 53.8535V56.3832C125.928 57.3149 126.683 58.0638 127.614 58.0638H130.144C131.082 58.0638 131.83 57.309 131.83 56.3773V53.8535C131.825 52.9159 131.07 52.167 130.138 52.167H127.614C126.683 52.167 125.928 52.9218 125.928 53.8535Z" fill="black"/>
<path d="M135.746 57.9452V58.0632H137.545V56.2646H137.427C137.427 57.1963 136.672 57.9452 135.746 57.9452Z" fill="black"/>
<path d="M143.264 52.167H137.367V58.0638H143.264V52.167Z" fill="black"/>
<path d="M154.527 58.0635V54.1716C154.527 53.0643 155.425 52.1667 156.532 52.1667H158.419C159.527 52.1667 160.424 53.0643 160.424 54.1716V58.0635H154.527Z" fill="black"/>
<path d="M171.865 52.167V56.0589C171.865 57.1662 170.968 58.0638 169.86 58.0638H167.973C166.866 58.0638 165.968 57.1662 165.968 56.0589V52.167H171.865Z" fill="black"/>
<path d="M183.303 52.167H177.406V58.0638H183.303V52.167Z" fill="black"/>
<path d="M188.846 53.8535V56.3832C188.846 57.3149 189.6 58.0638 190.532 58.0638H193.062C194 58.0638 194.748 57.309 194.748 56.3773V53.8535C194.743 52.9159 193.988 52.167 193.056 52.167H190.532C189.6 52.167 188.846 52.9218 188.846 53.8535Z" fill="black"/>
<path d="M5.98633 63.7832H2.09444C0.987153 63.7832 0.0895224 62.8856 0.0895224 61.7783L0.0895224 59.8913C0.0895224 58.784 0.987153 57.8864 2.09444 57.8864H5.98633L5.98633 63.7832Z" fill="black"/>
<path d="M11.7074 57.8867H5.81055V63.7835H11.7074V57.8867Z" fill="black"/>
<path d="M34.4102 59.5732V62.1029C34.4102 63.0346 35.1649 63.7835 36.0966 63.7835H38.6264C39.564 63.7835 40.3129 63.0287 40.3129 62.097V59.5732C40.307 58.6356 39.5522 57.8867 38.6205 57.8867H36.0966C35.1649 57.8867 34.4102 58.6415 34.4102 59.5732Z" fill="black"/>
<path d="M51.7441 63.7832H47.8522C46.745 63.7832 45.8473 62.8856 45.8473 61.7783V59.8913C45.8473 58.784 46.745 57.8864 47.8522 57.8864H51.7441V63.7832Z" fill="black"/>
<path d="M51.5684 63.7832V59.8913C51.5684 58.784 52.466 57.8864 53.5733 57.8864H55.4603C56.5675 57.8864 57.4652 58.784 57.4652 59.8913V63.7832H51.5684Z" fill="black"/>
<path d="M74.625 63.7832H70.7331C69.6258 63.7832 68.7282 62.8856 68.7282 61.7783V59.8913C68.7282 58.784 69.6258 57.8864 70.7331 57.8864H74.625V63.7832Z" fill="black"/>
<path d="M74.4492 63.7832V59.8913C74.4492 58.784 75.3468 57.8864 76.4541 57.8864H78.3411C79.4484 57.8864 80.346 58.784 80.346 59.8913V63.7832H74.4492Z" fill="black"/>
<path d="M95.707 63.665V63.7829H97.5056V61.9844H97.3876C97.3876 62.9161 96.6328 63.665 95.707 63.665Z" fill="black"/>
<path d="M103.225 57.8867H97.3281V63.7835H103.225V57.8867Z" fill="black"/>
<path d="M108.946 57.8867H103.049V63.7835H108.946V57.8867Z" fill="black"/>
<path d="M108.768 63.7832V57.8864H112.659C113.767 57.8864 114.664 58.784 114.664 59.8913V63.7832H108.768Z" fill="black"/>
<path d="M118.586 63.665V63.7829H120.384V61.9844H120.267C120.267 62.9161 119.512 63.665 118.586 63.665Z" fill="black"/>
<path d="M120.207 63.7832V59.8913C120.207 58.784 121.105 57.8864 122.212 57.8864H124.099C125.206 57.8864 126.104 58.784 126.104 59.8913V63.7832H120.207Z" fill="black"/>
<path d="M137.543 63.7842H133.651C132.544 63.7842 131.646 62.8865 131.646 61.7793V59.8923C131.646 58.785 132.544 57.8874 133.651 57.8874H137.543V63.7842Z" fill="black"/>
<path d="M143.264 57.8867H137.367V63.7835H143.264V57.8867Z" fill="black"/>
<path d="M160.426 57.8867V63.7835H156.534C155.427 63.7835 154.529 62.8859 154.529 61.7786V57.8867H160.426Z" fill="black"/>
<path d="M160.248 63.7832V57.8864H164.14C165.247 57.8864 166.145 58.784 166.145 59.8913V63.7832H160.248Z" fill="black"/>
<path d="M170.064 63.665V63.7829H171.863V61.9844H171.745C171.745 62.9161 170.99 63.665 170.064 63.665Z" fill="black"/>
<path d="M177.582 63.7842H171.685V59.8923C171.685 58.785 172.583 57.8874 173.69 57.8874H177.582V63.7842Z" fill="black"/>
<path d="M183.303 57.8867H177.406V63.7835H183.303V57.8867Z" fill="black"/>
<path d="M183.127 63.7832V59.8913C183.127 58.784 184.025 57.8864 185.132 57.8864H187.019C188.126 57.8864 189.024 58.784 189.024 59.8913V63.7832H183.127Z" fill="black"/>
<path d="M200.463 63.7842H196.571C195.464 63.7842 194.566 62.8865 194.566 61.7793V59.8923C194.566 58.785 195.464 57.8874 196.571 57.8874H200.463V63.7842Z" fill="black"/>
<path d="M206.184 57.8867H200.287V63.7835H206.184V57.8867Z" fill="black"/>
<path d="M206.006 63.7832V59.8913C206.006 58.784 206.903 57.8864 208.011 57.8864H209.898C211.005 57.8864 211.903 58.784 211.903 59.8913V63.7832H206.006Z" fill="black"/>
<path d="M11.7074 63.6064H5.81055V69.5033H11.7074V63.6064Z" fill="black"/>
<path d="M17.25 65.2929V67.8227C17.25 68.7544 18.0048 69.5033 18.9365 69.5033H21.4662C22.4038 69.5033 23.1527 68.7485 23.1527 67.8168V65.2929C23.1468 64.3553 22.392 63.6064 21.4603 63.6064H18.9365C18.0048 63.6064 17.25 64.3612 17.25 65.2929Z" fill="black"/>
<path d="M40.1289 65.2929V67.8227C40.1289 68.7544 40.8837 69.5033 41.8154 69.5033H44.3451C45.2827 69.5033 46.0316 68.7485 46.0316 67.8168V65.2929C46.0257 64.3553 45.2709 63.6064 44.3392 63.6064H41.8154C40.8837 63.6064 40.1289 64.3612 40.1289 65.2929Z" fill="black"/>
<path d="M61.3867 69.3857V69.5036H63.1852V67.7051H63.0673C63.0673 68.6368 62.3125 69.3857 61.3867 69.3857Z" fill="black"/>
<path d="M63.0078 69.5039V65.612C63.0078 64.5047 63.9054 63.6071 65.0127 63.6071H66.8997C68.007 63.6071 68.9046 64.5047 68.9046 65.612V69.5039H63.0078Z" fill="black"/>
<path d="M91.7852 69.5039H85.8884V65.612C85.8884 64.5047 86.786 63.6071 87.8933 63.6071H91.7852V69.5039Z" fill="black"/>
<path d="M97.5042 63.6064H91.6074V69.5033H97.5042V63.6064Z" fill="black"/>
<path d="M103.225 63.6064H97.3281V69.5033H103.225V63.6064Z" fill="black"/>
<path d="M108.946 63.6064H103.049V69.5033H108.946V63.6064Z" fill="black"/>
<path d="M114.664 63.6064H108.768V69.5033H114.664V63.6064Z" fill="black"/>
<path d="M120.385 63.6064H114.488V69.5033H120.385V63.6064Z" fill="black"/>
<path d="M126.104 63.6064H120.207V69.5033H126.104V63.6064Z" fill="black"/>
<path d="M143.266 63.6064V67.4983C143.266 68.6056 142.368 69.5033 141.261 69.5033H139.374C138.266 69.5033 137.369 68.6056 137.369 67.4983V63.6064H143.266Z" fill="black"/>
<path d="M148.807 65.2929V67.8227C148.807 68.7544 149.561 69.5033 150.493 69.5033H153.023C153.96 69.5033 154.709 68.7485 154.709 67.8168V65.2929C154.703 64.3553 153.949 63.6064 153.017 63.6064H150.493C149.561 63.6064 148.807 64.3612 148.807 65.2929Z" fill="black"/>
<path d="M166.145 63.6064V69.5033H162.253C161.145 69.5033 160.248 68.6056 160.248 67.4983V63.6064H166.145Z" fill="black"/>
<path d="M171.864 63.6064H165.967V69.5033H171.864V63.6064Z" fill="black"/>
<path d="M177.584 63.6064H171.688V69.5033H177.584V63.6064Z" fill="black"/>
<path d="M11.7051 69.3262V73.2181C11.7051 74.3253 10.8074 75.223 9.70016 75.223H7.81319C6.7059 75.223 5.80827 74.3253 5.80827 73.2181V69.3262H11.7051Z" fill="black"/>
<path d="M34.5859 75.2236H30.694C29.5868 75.2236 28.6891 74.326 28.6891 73.2187V71.3317C28.6891 70.2245 29.5868 69.3268 30.694 69.3268H34.5859V75.2236Z" fill="black"/>
<path d="M34.4102 75.2236V71.3317C34.4102 70.2245 35.3078 69.3268 36.4151 69.3268H38.302C39.4093 69.3268 40.307 70.2245 40.307 71.3317V75.2236H34.4102Z" fill="black"/>
<path d="M51.7441 75.2236H47.8522C46.745 75.2236 45.8473 74.326 45.8473 73.2187V71.3317C45.8473 70.2245 46.745 69.3268 47.8522 69.3268H51.7441V75.2236Z" fill="black"/>
<path d="M57.4652 69.3262H51.5684V75.223H57.4652V69.3262Z" fill="black"/>
<path d="M63.1859 69.3262H57.2891V75.223H63.1859V69.3262Z" fill="black"/>
<path d="M68.9046 69.3262H63.0078V75.223H68.9046V69.3262Z" fill="black"/>
<path d="M74.6253 69.3262H68.7285V75.223H74.6253V69.3262Z" fill="black"/>
<path d="M74.4492 75.2236V69.3268H78.3411C79.4484 69.3268 80.346 70.2245 80.346 71.3317V75.2236H74.4492Z" fill="black"/>
<path d="M91.7855 69.3262H85.8887V75.223H91.7855V69.3262Z" fill="black"/>
<path d="M103.225 69.3262V75.223H99.3327C98.2254 75.223 97.3278 74.3253 97.3278 73.2181V69.3262H103.225Z" fill="black"/>
<path d="M108.946 69.3262H103.049V75.223H108.946V69.3262Z" fill="black"/>
<path d="M108.768 69.3262H114.664V73.2181C114.664 74.3253 113.767 75.223 112.659 75.223H108.768V69.3262Z" fill="black"/>
<path d="M126.104 69.3262H120.207V75.223H126.104V69.3262Z" fill="black"/>
<path d="M131.648 71.0127V73.5424C131.648 74.4741 132.403 75.223 133.335 75.223H135.865C136.802 75.223 137.551 74.4682 137.551 73.5365V71.0127C137.545 70.0751 136.79 69.3262 135.859 69.3262H133.335C132.403 69.3262 131.648 70.081 131.648 71.0127Z" fill="black"/>
<path d="M143.088 71.0127V73.5424C143.088 74.4741 143.843 75.223 144.774 75.223H147.304C148.242 75.223 148.991 74.4682 148.991 73.5365V71.0127C148.985 70.0751 148.23 69.3262 147.298 69.3262H144.774C143.843 69.3262 143.088 70.081 143.088 71.0127Z" fill="black"/>
<path d="M154.527 71.0127V73.5424C154.527 74.4741 155.282 75.223 156.214 75.223H158.744C159.681 75.223 160.43 74.4682 160.43 73.5365V71.0127C160.424 70.0751 159.669 69.3262 158.738 69.3262H156.214C155.282 69.3262 154.527 70.081 154.527 71.0127Z" fill="black"/>
<path d="M171.865 69.3262V75.223H167.973C166.866 75.223 165.968 74.3253 165.968 73.2181V69.3262H171.865Z" fill="black"/>
<path d="M177.584 69.3262H171.688V75.223H177.584V69.3262Z" fill="black"/>
<path d="M183.303 69.3262H177.406V75.223H183.303V69.3262Z" fill="black"/>
<path d="M183.127 75.2236V71.3317C183.127 70.2245 184.025 69.3268 185.132 69.3268H187.019C188.126 69.3268 189.024 70.2245 189.024 71.3317V75.2236H183.127Z" fill="black"/>
<path d="M194.566 71.0127V73.5424C194.566 74.4741 195.321 75.223 196.253 75.223H198.783C199.72 75.223 200.469 74.4682 200.469 73.5365V71.0127C200.463 70.0751 199.708 69.3262 198.777 69.3262H196.253C195.321 69.3262 194.566 70.081 194.566 71.0127Z" fill="black"/>
<path d="M0.0898438 76.7324V79.2621C0.0898438 80.1938 0.844635 80.9427 1.77633 80.9427H4.30606C5.24365 80.9427 5.99255 80.1879 5.99255 79.2562V76.7324C5.98665 75.7948 5.23186 75.0459 4.30016 75.0459H1.77633C0.844635 75.0459 0.0898438 75.8007 0.0898438 76.7324Z" fill="black"/>
<path d="M17.4258 80.9434H13.5339C12.4266 80.9434 11.529 80.0457 11.529 78.9384V77.0515C11.529 75.9442 12.4266 75.0466 13.5339 75.0466H17.4258V80.9434Z" fill="black"/>
<path d="M17.25 80.9434V75.0466H21.1419C22.2492 75.0466 23.1468 75.9442 23.1468 77.0515V80.9434H17.25Z" fill="black"/>
<path d="M40.1289 76.7324V79.2621C40.1289 80.1938 40.8837 80.9427 41.8154 80.9427H44.3451C45.2827 80.9427 46.0316 80.1879 46.0316 79.2562V76.7324C46.0257 75.7948 45.2709 75.0459 44.3392 75.0459H41.8154C40.8837 75.0459 40.1289 75.8007 40.1289 76.7324Z" fill="black"/>
<path d="M74.625 75.0459V80.9427H70.7331C69.6258 80.9427 68.7282 80.0451 68.7282 78.9378V75.0459H74.625Z" fill="black"/>
<path d="M80.346 75.0459H74.4492V80.9427H80.346V75.0459Z" fill="black"/>
<path d="M84.2676 80.8251V80.9431H86.0661V79.1445H85.9482C85.9482 80.0762 85.1934 80.8251 84.2676 80.8251Z" fill="black"/>
<path d="M91.7855 75.0459H85.8887V80.9427H91.7855V75.0459Z" fill="black"/>
<path d="M108.946 75.0459H103.049V80.9427H108.946V75.0459Z" fill="black"/>
<path d="M120.383 80.9434H116.491C115.384 80.9434 114.486 80.0457 114.486 78.9384V77.0515C114.486 75.9442 115.384 75.0466 116.491 75.0466H120.383V80.9434Z" fill="black"/>
<path d="M126.104 75.0459H120.207V80.9427H126.104V75.0459Z" fill="black"/>
<path d="M147.186 80.8251V80.9431H148.984V79.1445H148.866C148.866 80.0762 148.111 80.8251 147.186 80.8251Z" fill="black"/>
<path d="M148.807 80.9434V77.0515C148.807 75.9442 149.704 75.0466 150.812 75.0466H152.699C153.806 75.0466 154.703 75.9442 154.703 77.0515V80.9434H148.807Z" fill="black"/>
<path d="M160.248 76.7324V79.2621C160.248 80.1938 161.003 80.9427 161.935 80.9427H164.464C165.402 80.9427 166.151 80.1879 166.151 79.2562V76.7324C166.145 75.7948 165.39 75.0459 164.458 75.0459H161.935C161.003 75.0459 160.248 75.8007 160.248 76.7324Z" fill="black"/>
<path d="M183.305 75.0459V78.9378C183.305 80.0451 182.407 80.9427 181.3 80.9427H179.413C178.306 80.9427 177.408 80.0451 177.408 78.9378V75.0459H183.305Z" fill="black"/>
<path d="M188.846 80.9434V77.0515C188.846 75.9442 189.743 75.0466 190.851 75.0466H192.738C193.845 75.0466 194.743 75.9442 194.743 77.0515V80.9434H188.846Z" fill="black"/>
<path d="M198.664 80.8251V80.9431H200.463V79.1445H200.345C200.345 80.0762 199.59 80.8251 198.664 80.8251Z" fill="black"/>
<path d="M200.287 80.9434V77.0515C200.287 75.9442 201.185 75.0466 202.292 75.0466H204.179C205.286 75.0466 206.184 75.9442 206.184 77.0515V80.9434H200.287Z" fill="black"/>
<path d="M23.1445 80.7666V86.6634H19.2526C18.1454 86.6634 17.2477 85.7658 17.2477 84.6585V80.7666H23.1445Z" fill="black"/>
<path d="M22.9688 86.6631V80.7663H26.8606C27.9679 80.7663 28.8656 81.6639 28.8656 82.7712V86.6631H22.9688Z" fill="black"/>
<path d="M34.4102 82.4531V84.9828C34.4102 85.9145 35.1649 86.6634 36.0966 86.6634H38.6264C39.564 86.6634 40.3129 85.9086 40.3129 84.9769V82.4531C40.307 81.5155 39.5522 80.7666 38.6205 80.7666H36.0966C35.1649 80.7666 34.4102 81.5214 34.4102 82.4531Z" fill="black"/>
<path d="M57.2891 86.6631V82.7712C57.2891 81.6639 58.1867 80.7663 59.294 80.7663H61.181C62.2882 80.7663 63.1859 81.6639 63.1859 82.7712V86.6631H57.2891Z" fill="black"/>
<path d="M80.346 80.7666H74.4492V86.6634H80.346V80.7666Z" fill="black"/>
<path d="M86.0648 80.7666H80.168V86.6634H86.0648V80.7666Z" fill="black"/>
<path d="M91.7855 80.7666H85.8887V86.6634H91.7855V80.7666Z" fill="black"/>
<path d="M91.6074 86.6631V80.7663H95.4993C96.6066 80.7663 97.5042 81.6639 97.5042 82.7712V86.6631H91.6074Z" fill="black"/>
<path d="M108.946 80.7666H103.049V86.6634H108.946V80.7666Z" fill="black"/>
<path d="M126.104 80.7666H120.207V86.6634H126.104V80.7666Z" fill="black"/>
<path d="M125.928 86.6631V82.7712C125.928 81.6639 126.825 80.7663 127.933 80.7663H129.82C130.927 80.7663 131.825 81.6639 131.825 82.7712V86.6631H125.928Z" fill="black"/>
<path d="M148.982 86.6631H145.091C143.983 86.6631 143.086 85.7655 143.086 84.6582V82.7712C143.086 81.6639 143.983 80.7663 145.091 80.7663H148.982V86.6631Z" fill="black"/>
<path d="M154.703 80.7666H148.807V86.6634H154.703V80.7666Z" fill="black"/>
<path d="M154.527 86.6631V80.7663H158.419C159.527 80.7663 160.424 81.6639 160.424 82.7712V86.6631H154.527Z" fill="black"/>
<path d="M171.863 86.6631H165.966V82.7712C165.966 81.6639 166.864 80.7663 167.971 80.7663H171.863V86.6631Z" fill="black"/>
<path d="M171.688 86.6631V80.7663H175.579C176.687 80.7663 177.584 81.6639 177.584 82.7712V86.6631H171.688Z" fill="black"/>
<path d="M194.744 80.7666V86.6634H190.852C189.745 86.6634 188.847 85.7658 188.847 84.6585V80.7666H194.744Z" fill="black"/>
<path d="M200.463 80.7666H194.566V86.6634H200.463V80.7666Z" fill="black"/>
<path d="M206.184 80.7666H200.287V86.6634H206.184V80.7666Z" fill="black"/>
<path d="M206.006 86.6631V82.7712C206.006 81.6639 206.903 80.7663 208.011 80.7663H209.898C211.005 80.7663 211.903 81.6639 211.903 82.7712V86.6631H206.006Z" fill="black"/>
<path d="M5.98633 92.3828H2.09444C0.987153 92.3828 0.0895224 91.4852 0.0895224 90.3779L0.0895224 88.4909C0.0895224 87.3836 0.987153 86.486 2.09444 86.486H5.98633L5.98633 92.3828Z" fill="black"/>
<path d="M11.7074 86.4863H5.81055V92.3831H11.7074V86.4863Z" fill="black"/>
<path d="M11.5293 92.3828V86.486H15.4212C16.5285 86.486 17.4261 87.3836 17.4261 88.4909V92.3828H11.5293Z" fill="black"/>
<path d="M28.8652 86.4863V92.3831H24.9733C23.8661 92.3831 22.9684 91.4855 22.9684 90.3782V86.4863H28.8652Z" fill="black"/>
<path d="M28.6895 92.3828V88.4909C28.6895 87.3836 29.5871 86.486 30.6944 86.486H32.5813C33.6886 86.486 34.5863 87.3836 34.5863 88.4909V92.3828H28.6895Z" fill="black"/>
<path d="M45.8496 92.3828V88.4909C45.8496 87.3836 46.7472 86.486 47.8545 86.486H49.7415C50.8488 86.486 51.7464 87.3836 51.7464 88.4909V92.3828H45.8496Z" fill="black"/>
<path d="M63.1859 86.4863H57.2891V92.3831H63.1859V86.4863Z" fill="black"/>
<path d="M80.3438 86.4863V92.3831H76.4519C75.3446 92.3831 74.4469 91.4855 74.4469 90.3782V86.4863H80.3438Z" fill="black"/>
<path d="M86.0648 86.4863H80.168V92.3831H86.0648V86.4863Z" fill="black"/>
<path d="M126.104 86.4863H120.207V92.3831H126.104V86.4863Z" fill="black"/>
<path d="M154.703 86.4863H148.807V92.3831H154.703V86.4863Z" fill="black"/>
<path d="M160.424 86.4863H154.527V92.3831H160.424V86.4863Z" fill="black"/>
<path d="M171.865 86.4863V92.3831H167.973C166.866 92.3831 165.968 91.4855 165.968 90.3782V86.4863H171.865Z" fill="black"/>
<path d="M177.584 86.4863H171.688V92.3831H177.584V86.4863Z" fill="black"/>
<path d="M177.406 92.3828V88.4909C177.406 87.3836 178.304 86.486 179.411 86.486H181.298C182.405 86.486 183.303 87.3836 183.303 88.4909V92.3828H177.406Z" fill="black"/>
<path d="M206.184 86.4863H200.287V92.3831H206.184V86.4863Z" fill="black"/>
<path d="M17.4261 92.2061H11.5293V98.1029H17.4261V92.2061Z" fill="black"/>
<path d="M34.4102 93.8925V96.4223C34.4102 97.354 35.1649 98.1029 36.0966 98.1029H38.6264C39.564 98.1029 40.3129 97.3481 40.3129 96.4164V93.8925C40.307 92.9549 39.5522 92.2061 38.6205 92.2061H36.0966C35.1649 92.2061 34.4102 92.9608 34.4102 93.8925Z" fill="black"/>
<path d="M44.2266 97.9853V98.1032H46.0251V96.3047H45.9072C45.9072 97.2364 45.1524 97.9853 44.2266 97.9853Z" fill="black"/>
<path d="M51.7464 92.2061H45.8496V98.1029H51.7464V92.2061Z" fill="black"/>
<path d="M55.668 97.9853V98.1032H57.4665V96.3047H57.3486C57.3486 97.2364 56.5938 97.9853 55.668 97.9853Z" fill="black"/>
<path d="M63.1859 92.2061H57.2891V98.1029H63.1859V92.2061Z" fill="black"/>
<path d="M68.9046 92.2061H63.0078V98.1029H68.9046V92.2061Z" fill="black"/>
<path d="M68.7285 98.1035V92.2067H72.6204C73.7277 92.2067 74.6253 93.1043 74.6253 94.2116V98.1035H68.7285Z" fill="black"/>
<path d="M86.0648 92.2061H80.168V98.1029H86.0648V92.2061Z" fill="black"/>
<path d="M131.825 92.2061H125.928V98.1029H131.825V92.2061Z" fill="black"/>
<path d="M131.648 98.1035V92.2067H135.54C136.648 92.2067 137.545 93.1043 137.545 94.2116V98.1035H131.648Z" fill="black"/>
<path d="M148.982 98.1035H145.091C143.983 98.1035 143.086 97.2059 143.086 96.0986V94.2116C143.086 93.1043 143.983 92.2067 145.091 92.2067H148.982V98.1035Z" fill="black"/>
<path d="M154.703 92.2061H148.807V98.1029H154.703V92.2061Z" fill="black"/>
<path d="M154.527 92.2061H160.424V96.0979C160.424 97.2052 159.527 98.1029 158.419 98.1029H154.527V92.2061Z" fill="black"/>
<path d="M177.584 92.2061V96.0979C177.584 97.2052 176.686 98.1029 175.579 98.1029H173.692C172.585 98.1029 171.687 97.2052 171.687 96.0979V92.2061H177.584Z" fill="black"/>
<path d="M189.023 98.1035H185.132C184.024 98.1035 183.127 97.2059 183.127 96.0986V94.2116C183.127 93.1043 184.024 92.2067 185.132 92.2067H189.023V98.1035Z" fill="black"/>
<path d="M194.743 92.2061H188.846V98.1029H194.743V92.2061Z" fill="black"/>
<path d="M200.463 92.2061H194.566V98.1029H200.463V92.2061Z" fill="black"/>
<path d="M206.184 92.2061H200.287V98.1029H206.184V92.2061Z" fill="black"/>
<path d="M206.006 98.1035V94.2116C206.006 93.1043 206.903 92.2067 208.011 92.2067H209.898C211.005 92.2067 211.903 93.1043 211.903 94.2116V98.1035H206.006Z" fill="black"/>
<path d="M17.4258 97.9258V103.823H13.5339C12.4266 103.823 11.529 102.925 11.529 101.818V97.9258H17.4258Z" fill="black"/>
<path d="M17.25 103.823V99.9314C17.25 98.8241 18.1476 97.9264 19.2549 97.9264H21.1419C22.2492 97.9264 23.1468 98.8241 23.1468 99.9314V103.823H17.25Z" fill="black"/>
<path d="M28.6895 99.6123V102.142C28.6895 103.074 29.4442 103.823 30.3759 103.823H32.9057C33.8433 103.823 34.5922 103.068 34.5922 102.136V99.6123C34.5863 98.6747 33.8315 97.9258 32.8998 97.9258H30.3759C29.4442 97.9258 28.6895 98.6806 28.6895 99.6123Z" fill="black"/>
<path d="M38.5078 103.705V103.823H40.3063V102.024H40.1884C40.1884 102.956 39.4336 103.705 38.5078 103.705Z" fill="black"/>
<path d="M46.0254 103.823H40.1286V99.9314C40.1286 98.8241 41.0262 97.9264 42.1335 97.9264H46.0254V103.823Z" fill="black"/>
<path d="M51.7464 97.9258H45.8496V103.823H51.7464V97.9258Z" fill="black"/>
<path d="M57.4652 97.9258H51.5684V103.823H57.4652V97.9258Z" fill="black"/>
<path d="M63.1859 97.9258H57.2891V103.823H63.1859V97.9258Z" fill="black"/>
<path d="M74.6253 97.9258H68.7285V103.823H74.6253V97.9258Z" fill="black"/>
<path d="M78.5469 103.705V103.823H80.3454V102.024H80.2275C80.2275 102.956 79.4727 103.705 78.5469 103.705Z" fill="black"/>
<path d="M86.0648 97.9258H80.168V103.823H86.0648V97.9258Z" fill="black"/>
<path d="M137.545 97.9258V103.823H133.653C132.546 103.823 131.648 102.925 131.648 101.818V97.9258H137.545Z" fill="black"/>
<path d="M137.367 103.823V97.9264H141.259C142.366 97.9264 143.264 98.8241 143.264 99.9314V103.823H137.367Z" fill="black"/>
<path d="M154.705 97.9258V101.818C154.705 102.925 153.807 103.823 152.7 103.823H150.813C149.706 103.823 148.808 102.925 148.808 101.818V97.9258H154.705Z" fill="black"/>
<path d="M166.143 103.823H162.251C161.143 103.823 160.246 102.926 160.246 101.818V99.9314C160.246 98.8241 161.143 97.9264 162.251 97.9264H166.143V103.823Z" fill="black"/>
<path d="M165.967 103.823V99.9314C165.967 98.8241 166.864 97.9264 167.972 97.9264H169.859C170.966 97.9264 171.864 98.8241 171.864 99.9314V103.823H165.967Z" fill="black"/>
<path d="M177.406 99.6123V102.142C177.406 103.074 178.161 103.823 179.093 103.823H181.622C182.56 103.823 183.309 103.068 183.309 102.136V99.6123C183.303 98.6747 182.548 97.9258 181.617 97.9258H179.093C178.161 97.9258 177.406 98.6806 177.406 99.6123Z" fill="black"/>
<path d="M194.744 97.9258V101.818C194.744 102.925 193.847 103.823 192.739 103.823H190.852C189.745 103.823 188.847 102.925 188.847 101.818V97.9258H194.744Z" fill="black"/>
<path d="M5.98633 109.543H2.09444C0.987153 109.543 0.0895224 108.645 0.0895224 107.538L0.0895224 105.651C0.0895224 104.544 0.987153 103.646 2.09444 103.646H5.98633L5.98633 109.543Z" fill="black"/>
<path d="M5.81055 109.543V103.646H9.70244C10.8097 103.646 11.7074 104.544 11.7074 105.651V109.543H5.81055Z" fill="black"/>
<path d="M40.3047 109.543H36.4128C35.3055 109.543 34.4079 108.645 34.4079 107.538V105.651C34.4079 104.544 35.3055 103.646 36.4128 103.646H40.3047V109.543Z" fill="black"/>
<path d="M46.0257 103.646H40.1289V109.542H46.0257V103.646Z" fill="black"/>
<path d="M51.7464 103.646H45.8496V109.542H51.7464V103.646Z" fill="black"/>
<path d="M57.4652 103.646H51.5684V109.542H57.4652V103.646Z" fill="black"/>
<path d="M63.1859 103.646H57.2891V109.542H63.1859V103.646Z" fill="black"/>
<path d="M68.9046 103.646H63.0078V109.542H68.9046V103.646Z" fill="black"/>
<path d="M74.6253 103.646H68.7285V109.542H74.6253V103.646Z" fill="black"/>
<path d="M80.346 103.646H74.4492V109.542H80.346V103.646Z" fill="black"/>
<path d="M143.266 103.646V109.542H139.374C138.266 109.542 137.369 108.645 137.369 107.537V103.646H143.266Z" fill="black"/>
<path d="M143.088 109.543V105.651C143.088 104.544 143.986 103.646 145.093 103.646H146.98C148.087 103.646 148.985 104.544 148.985 105.651V109.543H143.088Z" fill="black"/>
<path d="M154.527 105.332V107.862C154.527 108.793 155.282 109.542 156.214 109.542H158.744C159.681 109.542 160.43 108.788 160.43 107.856V105.332C160.424 104.394 159.669 103.646 158.738 103.646H156.214C155.282 103.646 154.527 104.4 154.527 105.332Z" fill="black"/>
<path d="M183.127 105.332V107.862C183.127 108.793 183.882 109.542 184.813 109.542H187.343C188.281 109.542 189.03 108.788 189.03 107.856V105.332C189.024 104.394 188.269 103.646 187.337 103.646H184.813C183.882 103.646 183.127 104.4 183.127 105.332Z" fill="black"/>
<path d="M200.463 109.543H196.571C195.464 109.543 194.566 108.645 194.566 107.538V105.651C194.566 104.544 195.464 103.646 196.571 103.646H200.463V109.543Z" fill="black"/>
<path d="M206.184 103.646H200.287V109.542H206.184V103.646Z" fill="black"/>
<path d="M206.006 109.543V103.646H209.898C211.005 103.646 211.903 104.544 211.903 105.651V109.543H206.006Z" fill="black"/>
<path d="M11.7074 109.365H5.81055V115.262H11.7074V109.365Z" fill="black"/>
<path d="M11.5293 115.263V111.371C11.5293 110.264 12.4269 109.366 13.5342 109.366H15.4212C16.5285 109.366 17.4261 110.264 17.4261 111.371V115.263H11.5293Z" fill="black"/>
<path d="M22.9688 115.263V111.371C22.9688 110.264 23.8664 109.366 24.9737 109.366H26.8606C27.9679 109.366 28.8656 110.264 28.8656 111.371V115.263H22.9688Z" fill="black"/>
<path d="M63.1855 109.365V115.262H59.2937C58.1864 115.262 57.2887 114.364 57.2887 113.257V109.365H63.1855Z" fill="black"/>
<path d="M63.0078 109.365H68.9046V113.257C68.9046 114.364 68.007 115.262 66.8997 115.262H63.0078V109.365Z" fill="black"/>
<path d="M131.648 111.052V113.581C131.648 114.513 132.403 115.262 133.335 115.262H135.865C136.802 115.262 137.551 114.507 137.551 113.576V111.052C137.545 110.114 136.79 109.365 135.859 109.365H133.335C132.403 109.365 131.648 110.12 131.648 111.052Z" fill="black"/>
<path d="M160.248 111.052V113.581C160.248 114.513 161.003 115.262 161.935 115.262H164.464C165.402 115.262 166.151 114.507 166.151 113.576V111.052C166.145 110.114 165.39 109.365 164.458 109.365H161.935C161.003 109.365 160.248 110.12 160.248 111.052Z" fill="black"/>
<path d="M211.904 109.365V113.257C211.904 114.364 211.007 115.262 209.899 115.262H208.012C206.905 115.262 206.007 114.364 206.007 113.257V109.365H211.904Z" fill="black"/>
<path d="M5.98633 120.982H0.0895224L0.0895224 117.091C0.0895224 115.983 0.987153 115.086 2.09444 115.086H5.98633L5.98633 120.982Z" fill="black"/>
<path d="M11.7074 115.086H5.81055V120.983H11.7074V115.086Z" fill="black"/>
<path d="M28.8656 115.086H22.9688V120.983H28.8656V115.086Z" fill="black"/>
<path d="M40.3047 120.982H36.4128C35.3055 120.982 34.4079 120.085 34.4079 118.978V117.091C34.4079 115.983 35.3055 115.086 36.4128 115.086H40.3047V120.982Z" fill="black"/>
<path d="M40.1289 120.982V115.086H44.0208C45.1281 115.086 46.0257 115.983 46.0257 117.091V120.982H40.1289Z" fill="black"/>
<path d="M51.5684 116.772V119.302C51.5684 120.234 52.3232 120.983 53.2548 120.983H55.7846C56.7222 120.983 57.4711 120.228 57.4711 119.296V116.772C57.4652 115.835 56.7104 115.086 55.7787 115.086H53.2548C52.3232 115.086 51.5684 115.841 51.5684 116.772Z" fill="black"/>
<path d="M72.8262 120.864V120.982H74.6247V119.184H74.5068C74.5068 120.115 73.752 120.864 72.8262 120.864Z" fill="black"/>
<path d="M80.3438 120.982H74.4469V117.091C74.4469 115.983 75.3446 115.086 76.4519 115.086H80.3438V120.982Z" fill="black"/>
<path d="M86.0648 115.086H80.168V120.983H86.0648V115.086Z" fill="black"/>
<path d="M125.928 120.982V115.086H129.82C130.927 115.086 131.825 115.983 131.825 117.091V120.982H125.928Z" fill="black"/>
<path d="M143.264 120.982H139.372C138.264 120.982 137.367 120.085 137.367 118.978V117.091C137.367 115.983 138.264 115.086 139.372 115.086H143.264V120.982Z" fill="black"/>
<path d="M148.985 115.086H143.088V120.983H148.985V115.086Z" fill="black"/>
<path d="M154.703 115.086H148.807V120.983H154.703V115.086Z" fill="black"/>
<path d="M154.527 120.982V117.091C154.527 115.983 155.425 115.086 156.532 115.086H158.419C159.527 115.086 160.424 115.983 160.424 117.091V120.982H154.527Z" fill="black"/>
<path d="M171.863 120.982H167.971C166.864 120.982 165.966 120.085 165.966 118.978V117.091C165.966 115.983 166.864 115.086 167.971 115.086H171.863V120.982Z" fill="black"/>
<path d="M177.584 115.086H171.688V120.983H177.584V115.086Z" fill="black"/>
<path d="M183.303 115.086H177.406V120.983H183.303V115.086Z" fill="black"/>
<path d="M189.024 115.086H183.127V120.983H189.024V115.086Z" fill="black"/>
<path d="M194.743 115.086H188.846V120.983H194.743V115.086Z" fill="black"/>
<path d="M194.566 120.982V117.091C194.566 115.983 195.464 115.086 196.571 115.086H198.458C199.566 115.086 200.463 115.983 200.463 117.091V120.982H194.566Z" fill="black"/>
<path d="M5.98665 120.806H0.0898438V126.702H5.98665V120.806Z" fill="black"/>
<path d="M5.81055 120.806H11.7074V124.698C11.7074 125.805 10.8097 126.702 9.70244 126.702H5.81055V120.806Z" fill="black"/>
<path d="M21.3477 126.584V126.702H23.1462V124.903H23.0282C23.0282 125.835 22.2735 126.584 21.3477 126.584Z" fill="black"/>
<path d="M28.8656 120.806H22.9688V126.702H28.8656V120.806Z" fill="black"/>
<path d="M46.0257 120.806H40.1289V126.702H46.0257V120.806Z" fill="black"/>
<path d="M45.8496 126.702V122.81C45.8496 121.703 46.7472 120.805 47.8545 120.805H49.7415C50.8488 120.805 51.7464 121.703 51.7464 122.81V126.702H45.8496Z" fill="black"/>
<path d="M74.625 126.702H68.7282V122.81C68.7282 121.703 69.6258 120.805 70.7331 120.805H74.625V126.702Z" fill="black"/>
<path d="M80.346 120.806H74.4492V126.702H80.346V120.806Z" fill="black"/>
<path d="M86.0648 120.806H80.168V126.702H86.0648V120.806Z" fill="black"/>
<path d="M85.8887 120.806H91.7855V124.698C91.7855 125.805 90.8878 126.702 89.7806 126.702H85.8887V120.806Z" fill="black"/>
<path d="M131.825 120.806H125.928V126.702H131.825V120.806Z" fill="black"/>
<path d="M154.705 120.806V124.698C154.705 125.805 153.807 126.702 152.7 126.702H150.813C149.706 126.702 148.808 125.805 148.808 124.698V120.806H154.705Z" fill="black"/>
<path d="M160.248 122.492V125.022C160.248 125.954 161.003 126.702 161.935 126.702H164.464C165.402 126.702 166.151 125.948 166.151 125.016V122.492C166.145 121.555 165.39 120.806 164.458 120.806H161.935C161.003 120.806 160.248 121.56 160.248 122.492Z" fill="black"/>
<path d="M183.303 120.806H177.406V126.702H183.303V120.806Z" fill="black"/>
<path d="M200.287 126.702V122.81C200.287 121.703 201.185 120.805 202.292 120.805H204.179C205.286 120.805 206.184 121.703 206.184 122.81V126.702H200.287Z" fill="black"/>
<path d="M5.98633 126.525V130.417C5.98633 131.525 5.0887 132.422 3.98141 132.422H2.09444C0.987153 132.422 0.0895224 131.525 0.0895224 130.417V126.525H5.98633Z" fill="black"/>
<path d="M23.1445 132.423H19.2526C18.1454 132.423 17.2477 131.525 17.2477 130.418V128.531C17.2477 127.424 18.1454 126.526 19.2526 126.526H23.1445V132.423Z" fill="black"/>
<path d="M28.8656 126.525H22.9688V132.422H28.8656V126.525Z" fill="black"/>
<path d="M40.3047 132.423H36.4128C35.3055 132.423 34.4079 131.525 34.4079 130.418V128.531C34.4079 127.424 35.3055 126.526 36.4128 126.526H40.3047V132.423Z" fill="black"/>
<path d="M46.0257 126.525H40.1289V132.422H46.0257V126.525Z" fill="black"/>
<path d="M51.5684 128.212V130.742C51.5684 131.673 52.3232 132.422 53.2548 132.422H55.7846C56.7222 132.422 57.4711 131.667 57.4711 130.736V128.212C57.4652 127.274 56.7104 126.525 55.7787 126.525H53.2548C52.3232 126.525 51.5684 127.28 51.5684 128.212Z" fill="black"/>
<path d="M74.625 126.525V130.417C74.625 131.525 73.7274 132.422 72.6201 132.422H70.7331C69.6258 132.422 68.7282 131.525 68.7282 130.417V126.525H74.625Z" fill="black"/>
<path d="M120.385 126.525H114.488V132.422H120.385V126.525Z" fill="black"/>
<path d="M126.104 126.525H120.207V132.422H126.104V126.525Z" fill="black"/>
<path d="M131.825 126.525H125.928V132.422H131.825V126.525Z" fill="black"/>
<path d="M131.648 132.423V126.526H135.54C136.648 126.526 137.545 127.424 137.545 128.531V132.423H131.648Z" fill="black"/>
<path d="M152.906 132.305V132.423H154.705V130.624H154.587C154.587 131.556 153.832 132.305 152.906 132.305Z" fill="black"/>
<path d="M154.527 132.423V128.531C154.527 127.424 155.425 126.526 156.532 126.526H158.419C159.527 126.526 160.424 127.424 160.424 128.531V132.423H154.527Z" fill="black"/>
<path d="M177.582 132.423H173.69C172.583 132.423 171.685 131.525 171.685 130.418V128.531C171.685 127.424 172.583 126.526 173.69 126.526H177.582V132.423Z" fill="black"/>
<path d="M177.406 126.525H183.303V130.417C183.303 131.525 182.405 132.422 181.298 132.422H177.406V126.525Z" fill="black"/>
<path d="M206.184 126.525H200.287V132.422H206.184V126.525Z" fill="black"/>
<path d="M206.006 132.423V128.531C206.006 127.424 206.903 126.526 208.011 126.526H209.898C211.005 126.526 211.903 127.424 211.903 128.531V132.423H206.006Z" fill="black"/>
<path d="M11.5293 133.932V136.461C11.5293 137.393 12.2841 138.142 13.2158 138.142H15.7455C16.6831 138.142 17.432 137.387 17.432 136.455V133.932C17.4261 132.994 16.6713 132.245 15.7396 132.245H13.2158C12.2841 132.245 11.5293 133 11.5293 133.932Z" fill="black"/>
<path d="M28.8652 132.245V138.142H24.9733C23.8661 138.142 22.9684 137.244 22.9684 136.137V132.245H28.8652Z" fill="black"/>
<path d="M28.6895 138.143V134.251C28.6895 133.143 29.5871 132.246 30.6944 132.246H32.5813C33.6886 132.246 34.5863 133.143 34.5863 134.251V138.143H28.6895Z" fill="black"/>
<path d="M46.0257 132.245H40.1289V138.142H46.0257V132.245Z" fill="black"/>
<path d="M45.8496 138.143V132.246H49.7415C50.8488 132.246 51.7464 133.143 51.7464 134.251V138.143H45.8496Z" fill="black"/>
<path d="M74.4492 138.143V134.251C74.4492 133.143 75.3468 132.246 76.4541 132.246H78.3411C79.4484 132.246 80.346 133.143 80.346 134.251V138.143H74.4492Z" fill="black"/>
<path d="M84.2676 138.024V138.142H86.0661V136.344H85.9482C85.9482 137.275 85.1934 138.024 84.2676 138.024Z" fill="black"/>
<path d="M91.7852 138.143H85.8884V134.251C85.8884 133.143 86.786 132.246 87.8933 132.246H91.7852V138.143Z" fill="black"/>
<path d="M97.5042 132.245H91.6074V138.142H97.5042V132.245Z" fill="black"/>
<path d="M103.225 132.245H97.3281V138.142H103.225V132.245Z" fill="black"/>
<path d="M108.946 132.245H103.049V138.142H108.946V132.245Z" fill="black"/>
<path d="M114.664 132.245H108.768V138.142H114.664V132.245Z" fill="black"/>
<path d="M126.105 132.245V136.137C126.105 137.244 125.208 138.142 124.101 138.142H122.214C121.106 138.142 120.209 137.244 120.209 136.137V132.245H126.105Z" fill="black"/>
<path d="M137.545 132.245H131.648V138.142H137.545V132.245Z" fill="black"/>
<path d="M154.703 138.143H150.811C149.704 138.143 148.806 137.245 148.806 136.138V134.251C148.806 133.143 149.704 132.246 150.811 132.246H154.703V138.143Z" fill="black"/>
<path d="M160.424 132.245H154.527V138.142H160.424V132.245Z" fill="black"/>
<path d="M166.145 132.245H160.248V138.142H166.145V132.245Z" fill="black"/>
<path d="M165.967 138.143V132.246H169.859C170.966 132.246 171.864 133.143 171.864 134.251V138.143H165.967Z" fill="black"/>
<path d="M198.664 138.024V138.142H200.463V136.344H200.345C200.345 137.275 199.59 138.024 198.664 138.024Z" fill="black"/>
<path d="M206.184 132.245H200.287V138.142H206.184V132.245Z" fill="black"/>
<path d="M40.3047 143.862H36.4128C35.3055 143.862 34.4079 142.965 34.4079 141.857V139.97C34.4079 138.863 35.3055 137.965 36.4128 137.965H40.3047V143.862Z" fill="black"/>
<path d="M46.0257 137.965H40.1289V143.862H46.0257V137.965Z" fill="black"/>
<path d="M45.8496 137.965H51.7464V141.857C51.7464 142.964 50.8488 143.862 49.7415 143.862H45.8496V137.965Z" fill="black"/>
<path d="M57.2891 143.862V139.97C57.2891 138.863 58.1867 137.965 59.294 137.965H61.181C62.2882 137.965 63.1859 138.863 63.1859 139.97V143.862H57.2891Z" fill="black"/>
<path d="M72.8262 143.744V143.862H74.6247V142.063H74.5068C74.5068 142.995 73.752 143.744 72.8262 143.744Z" fill="black"/>
<path d="M80.346 137.965H74.4492V143.862H80.346V137.965Z" fill="black"/>
<path d="M86.0648 137.965H80.168V143.862H86.0648V137.965Z" fill="black"/>
<path d="M91.7855 137.965H85.8887V143.862H91.7855V137.965Z" fill="black"/>
<path d="M97.5042 137.965H91.6074V143.862H97.5042V137.965Z" fill="black"/>
<path d="M114.664 137.965V143.862H110.772C109.665 143.862 108.767 142.964 108.767 141.857V137.965H114.664Z" fill="black"/>
<path d="M114.488 143.862V137.965H118.38C119.487 137.965 120.385 138.863 120.385 139.97V143.862H114.488Z" fill="black"/>
<path d="M137.545 137.965V141.857C137.545 142.964 136.647 143.862 135.54 143.862H133.653C132.546 143.862 131.648 142.964 131.648 141.857V137.965H137.545Z" fill="black"/>
<path d="M160.426 137.965V143.862H156.534C155.427 143.862 154.529 142.964 154.529 141.857V137.965H160.426Z" fill="black"/>
<path d="M166.145 137.965H160.248V143.862H166.145V137.965Z" fill="black"/>
<path d="M171.864 137.965H165.967V143.862H171.864V137.965Z" fill="black"/>
<path d="M177.584 137.965H171.688V143.862H177.584V137.965Z" fill="black"/>
<path d="M183.303 137.965H177.406V143.862H183.303V137.965Z" fill="black"/>
<path d="M183.127 143.862V139.97C183.127 138.863 184.025 137.965 185.132 137.965H187.019C188.126 137.965 189.024 138.863 189.024 139.97V143.862H183.127Z" fill="black"/>
<path d="M192.945 143.744V143.862H194.744V142.063H194.626C194.626 142.995 193.871 143.744 192.945 143.744Z" fill="black"/>
<path d="M200.463 143.862H194.566V139.97C194.566 138.863 195.464 137.965 196.571 137.965H200.463V143.862Z" fill="black"/>
<path d="M206.184 137.965H200.287V143.862H206.184V137.965Z" fill="black"/>
<path d="M206.006 143.862V139.97C206.006 138.863 206.903 137.965 208.011 137.965H209.898C211.005 137.965 211.903 138.863 211.903 139.97V143.862H206.006Z" fill="black"/>
<path d="M0.0898438 149.582L0.0898438 145.69C0.0898438 144.583 0.987474 143.685 2.09476 143.685H3.98174C5.08902 143.685 5.98665 144.583 5.98665 145.69V149.582H0.0898438Z" fill="black"/>
<path d="M21.3477 149.464V149.582H23.1462V147.783H23.0282C23.0282 148.715 22.2735 149.464 21.3477 149.464Z" fill="black"/>
<path d="M28.8652 149.582H22.9684V145.69C22.9684 144.583 23.8661 143.685 24.9733 143.685H28.8652V149.582Z" fill="black"/>
<path d="M28.6895 149.582V143.685H32.5813C33.6886 143.685 34.5863 144.583 34.5863 145.69V149.582H28.6895Z" fill="black"/>
<path d="M55.668 149.464V149.582H57.4665V147.783H57.3486C57.3486 148.715 56.5938 149.464 55.668 149.464Z" fill="black"/>
<path d="M63.1859 143.685H57.2891V149.581H63.1859V143.685Z" fill="black"/>
<path d="M68.9046 143.685H63.0078V149.581H68.9046V143.685Z" fill="black"/>
<path d="M74.6253 143.685H68.7285V149.581H74.6253V143.685Z" fill="black"/>
<path d="M80.346 143.685H74.4492V149.581H80.346V143.685Z" fill="black"/>
<path d="M86.0648 143.685H80.168V149.581H86.0648V143.685Z" fill="black"/>
<path d="M91.7855 143.685H85.8887V149.581H91.7855V143.685Z" fill="black"/>
<path d="M97.5042 143.685H91.6074V149.581H97.5042V143.685Z" fill="black"/>
<path d="M120.383 143.685V147.576C120.383 148.684 119.485 149.581 118.378 149.581H116.491C115.384 149.581 114.486 148.684 114.486 147.576V143.685H120.383Z" fill="black"/>
<path d="M125.928 149.582V145.69C125.928 144.583 126.825 143.685 127.933 143.685H129.82C130.927 143.685 131.825 144.583 131.825 145.69V149.582H125.928Z" fill="black"/>
<path d="M137.367 145.371V147.901C137.367 148.832 138.122 149.581 139.054 149.581H141.583C142.521 149.581 143.27 148.827 143.27 147.895V145.371C143.264 144.433 142.509 143.685 141.578 143.685H139.054C138.122 143.685 137.367 144.439 137.367 145.371Z" fill="black"/>
<path d="M148.807 149.582V145.69C148.807 144.583 149.704 143.685 150.812 143.685H152.699C153.806 143.685 154.703 144.583 154.703 145.69V149.582H148.807Z" fill="black"/>
<path d="M158.625 149.464V149.582H160.424V147.783H160.306C160.306 148.715 159.551 149.464 158.625 149.464Z" fill="black"/>
<path d="M166.145 143.685H160.248V149.581H166.145V143.685Z" fill="black"/>
<path d="M194.742 149.582H188.845V145.69C188.845 144.583 189.743 143.685 190.85 143.685H194.742V149.582Z" fill="black"/>
<path d="M200.463 143.685H194.566V149.581H200.463V143.685Z" fill="black"/>
<path d="M5.98665 149.405H0.0898438V155.302H5.98665V149.405Z" fill="black"/>
<path d="M17.4258 155.302H11.529V151.41C11.529 150.303 12.4266 149.405 13.5339 149.405H17.4258V155.302Z" fill="black"/>
<path d="M23.1468 149.405H17.25V155.302H23.1468V149.405Z" fill="black"/>
<path d="M28.8656 149.405H22.9688V155.302H28.8656V149.405Z" fill="black"/>
<path d="M34.5863 149.405H28.6895V155.302H34.5863V149.405Z" fill="black"/>
<path d="M40.307 149.405H34.4102V155.302H40.307V149.405Z" fill="black"/>
<path d="M40.1289 155.302V151.41C40.1289 150.303 41.0265 149.405 42.1338 149.405H44.0208C45.1281 149.405 46.0257 150.303 46.0257 151.41V155.302H40.1289Z" fill="black"/>
<path d="M57.4648 155.302H53.573C52.4657 155.302 51.568 154.404 51.568 153.297V151.41C51.568 150.303 52.4657 149.405 53.573 149.405H57.4648V155.302Z" fill="black"/>
<path d="M63.1859 149.405H57.2891V155.302H63.1859V149.405Z" fill="black"/>
<path d="M68.9046 149.405H63.0078V155.302H68.9046V149.405Z" fill="black"/>
<path d="M74.6253 149.405H68.7285V155.302H74.6253V149.405Z" fill="black"/>
<path d="M97.5042 149.405H91.6074V155.302H97.5042V149.405Z" fill="black"/>
<path d="M103.049 151.092V153.621C103.049 154.553 103.804 155.302 104.735 155.302H107.265C108.203 155.302 108.952 154.547 108.952 153.616V151.092C108.946 150.154 108.191 149.405 107.259 149.405H104.735C103.804 149.405 103.049 150.16 103.049 151.092Z" fill="black"/>
<path d="M124.307 155.184V155.301H126.105V153.503H125.987C125.987 154.435 125.232 155.184 124.307 155.184Z" fill="black"/>
<path d="M131.825 149.405H125.928V155.302H131.825V149.405Z" fill="black"/>
<path d="M154.703 149.405H148.807V155.302H154.703V149.405Z" fill="black"/>
<path d="M160.424 149.405H154.527V155.302H160.424V149.405Z" fill="black"/>
<path d="M166.145 149.405H160.248V155.302H166.145V149.405Z" fill="black"/>
<path d="M165.967 155.302V149.405H169.859C170.966 149.405 171.864 150.303 171.864 151.41V155.302H165.967Z" fill="black"/>
<path d="M175.785 155.184V155.301H177.584V153.503H177.466C177.466 154.435 176.711 155.184 175.785 155.184Z" fill="black"/>
<path d="M177.406 155.302V151.41C177.406 150.303 178.304 149.405 179.411 149.405H181.298C182.405 149.405 183.303 150.303 183.303 151.41V155.302H177.406Z" fill="black"/>
<path d="M194.743 149.405H188.846V155.302H194.743V149.405Z" fill="black"/>
<path d="M200.463 149.405H194.566V155.302H200.463V149.405Z" fill="black"/>
<path d="M206.184 149.405H200.287V155.302H206.184V149.405Z" fill="black"/>
<path d="M206.006 155.302V151.41C206.006 150.303 206.903 149.405 208.011 149.405H209.898C211.005 149.405 211.903 150.303 211.903 151.41V155.302H206.006Z" fill="black"/>
<path d="M5.98665 155.125H0.0898438V161.022H5.98665V155.125Z" fill="black"/>
<path d="M17.4261 155.125H11.5293V161.022H17.4261V155.125Z" fill="black"/>
<path d="M28.8656 155.125H22.9688V161.022H28.8656V155.125Z" fill="black"/>
<path d="M45.8496 161.022V157.131C45.8496 156.023 46.7472 155.126 47.8545 155.126H49.7415C50.8488 155.126 51.7464 156.023 51.7464 157.131V161.022H45.8496Z" fill="black"/>
<path d="M63.1855 155.125V161.022H59.2937C58.1864 161.022 57.2887 160.124 57.2887 159.017V155.125H63.1855Z" fill="black"/>
<path d="M68.9046 155.125H63.0078V161.022H68.9046V155.125Z" fill="black"/>
<path d="M74.6253 155.125H68.7285V161.022H74.6253V155.125Z" fill="black"/>
<path d="M80.346 155.125H74.4492V161.022H80.346V155.125Z" fill="black"/>
<path d="M86.0648 155.125H80.168V161.022H86.0648V155.125Z" fill="black"/>
<path d="M91.7855 155.125H85.8887V161.022H91.7855V155.125Z" fill="black"/>
<path d="M91.6074 155.125H97.5042V159.017C97.5042 160.124 96.6066 161.022 95.4993 161.022H91.6074V155.125Z" fill="black"/>
<path d="M114.664 161.022H110.772C109.665 161.022 108.767 160.125 108.767 159.018V157.131C108.767 156.023 109.665 155.126 110.772 155.126H114.664V161.022Z" fill="black"/>
<path d="M120.385 155.125H114.488V161.022H120.385V155.125Z" fill="black"/>
<path d="M126.104 155.125H120.207V161.022H126.104V155.125Z" fill="black"/>
<path d="M131.825 155.125H125.928V161.022H131.825V155.125Z" fill="black"/>
<path d="M137.367 156.811V159.341C137.367 160.273 138.122 161.022 139.054 161.022H141.583C142.521 161.022 143.27 160.267 143.27 159.335V156.811C143.264 155.874 142.509 155.125 141.578 155.125H139.054C138.122 155.125 137.367 155.88 137.367 156.811Z" fill="black"/>
<path d="M147.186 160.903V161.021H148.984V159.223H148.866C148.866 160.154 148.111 160.903 147.186 160.903Z" fill="black"/>
<path d="M154.703 155.125H148.807V161.022H154.703V155.125Z" fill="black"/>
<path d="M171.864 155.125H165.967V161.022H171.864V155.125Z" fill="black"/>
<path d="M177.584 155.125H171.688V161.022H177.584V155.125Z" fill="black"/>
<path d="M183.303 155.125H177.406V161.022H183.303V155.125Z" fill="black"/>
<path d="M194.744 155.125V159.017C194.744 160.124 193.847 161.022 192.739 161.022H190.852C189.745 161.022 188.847 160.124 188.847 159.017V155.125H194.744Z" fill="black"/>
<path d="M5.98633 160.845V164.737C5.98633 165.844 5.0887 166.742 3.98141 166.742H2.09444C0.987153 166.742 0.0895224 165.844 0.0895224 164.737V160.845H5.98633Z" fill="black"/>
<path d="M17.4258 160.845V166.742H13.5339C12.4266 166.742 11.529 165.844 11.529 164.737V160.845H17.4258Z" fill="black"/>
<path d="M23.1468 160.845H17.25V166.742H23.1468V160.845Z" fill="black"/>
<path d="M22.9688 160.845H28.8656V164.737C28.8656 165.844 27.9679 166.742 26.8606 166.742H22.9688V160.845Z" fill="black"/>
<path d="M34.4102 162.531V165.061C34.4102 165.993 35.1649 166.742 36.0966 166.742H38.6264C39.564 166.742 40.3129 165.987 40.3129 165.055V162.531C40.307 161.594 39.5522 160.845 38.6205 160.845H36.0966C35.1649 160.845 34.4102 161.6 34.4102 162.531Z" fill="black"/>
<path d="M51.7464 160.845H45.8496V166.742H51.7464V160.845Z" fill="black"/>
<path d="M68.9043 160.845V166.742H65.0124C63.9051 166.742 63.0075 165.844 63.0075 164.737V160.845H68.9043Z" fill="black"/>
<path d="M74.6253 160.845H68.7285V166.742H74.6253V160.845Z" fill="black"/>
<path d="M80.346 160.845H74.4492V166.742H80.346V160.845Z" fill="black"/>
<path d="M91.7852 160.845V164.737C91.7852 165.844 90.8875 166.742 89.7802 166.742H87.8933C86.786 166.742 85.8884 165.844 85.8884 164.737V160.845H91.7852Z" fill="black"/>
<path d="M131.825 160.845H125.928V166.742H131.825V160.845Z" fill="black"/>
<path d="M148.982 166.742H145.091C143.983 166.742 143.086 165.845 143.086 164.737V162.85C143.086 161.743 143.983 160.845 145.091 160.845H148.982V166.742Z" fill="black"/>
<path d="M154.703 160.845H148.807V166.742H154.703V160.845Z" fill="black"/>
<path d="M160.424 160.845H154.527V166.742H160.424V160.845Z" fill="black"/>
<path d="M166.145 160.845H160.248V166.742H166.145V160.845Z" fill="black"/>
<path d="M171.864 160.845H165.967V166.742H171.864V160.845Z" fill="black"/>
<path d="M177.584 160.845H171.688V166.742H177.584V160.845Z" fill="black"/>
<path d="M183.303 160.845H177.406V166.742H183.303V160.845Z" fill="black"/>
<path d="M183.127 166.742V160.845H187.019C188.126 160.845 189.024 161.743 189.024 162.85V166.742H183.127Z" fill="black"/>
<path d="M194.566 162.531V165.061C194.566 165.993 195.321 166.742 196.253 166.742H198.783C199.72 166.742 200.469 165.987 200.469 165.055V162.531C200.463 161.594 199.708 160.845 198.777 160.845H196.253C195.321 160.845 194.566 161.6 194.566 162.531Z" fill="black"/>
<path d="M51.7441 166.564V170.456C51.7441 171.564 50.8465 172.461 49.7392 172.461H47.8522C46.745 172.461 45.8473 171.564 45.8473 170.456V166.564H51.7441Z" fill="black"/>
<path d="M57.2891 172.462V168.57C57.2891 167.463 58.1867 166.565 59.294 166.565H61.181C62.2882 166.565 63.1859 167.463 63.1859 168.57V172.462H57.2891Z" fill="black"/>
<path d="M74.6253 166.564H68.7285V172.461H74.6253V166.564Z" fill="black"/>
<path d="M80.346 166.564H74.4492V172.461H80.346V166.564Z" fill="black"/>
<path d="M80.168 172.462V166.565H84.0599C85.1671 166.565 86.0648 167.463 86.0648 168.57V172.462H80.168Z" fill="black"/>
<path d="M89.9863 172.344V172.462H91.7849V170.663H91.6669C91.6669 171.595 90.9121 172.344 89.9863 172.344Z" fill="black"/>
<path d="M91.6074 172.462V168.57C91.6074 167.463 92.5051 166.565 93.6123 166.565H95.4993C96.6066 166.565 97.5042 167.463 97.5042 168.57V172.462H91.6074Z" fill="black"/>
<path d="M108.943 172.462H105.051C103.944 172.462 103.047 171.564 103.047 170.457V168.57C103.047 167.463 103.944 166.565 105.051 166.565H108.943V172.462Z" fill="black"/>
<path d="M108.768 172.462V166.565H112.659C113.767 166.565 114.664 167.463 114.664 168.57V172.462H108.768Z" fill="black"/>
<path d="M124.307 172.344V172.462H126.105V170.663H125.987C125.987 171.595 125.232 172.344 124.307 172.344Z" fill="black"/>
<path d="M131.825 166.564H125.928V172.461H131.825V166.564Z" fill="black"/>
<path d="M131.648 172.462V168.57C131.648 167.463 132.546 166.565 133.653 166.565H135.54C136.648 166.565 137.545 167.463 137.545 168.57V172.462H131.648Z" fill="black"/>
<path d="M166.145 166.564H160.248V172.461H166.145V166.564Z" fill="black"/>
<path d="M189.024 166.564H183.127V172.461H189.024V166.564Z" fill="black"/>
<path d="M188.846 172.462V168.57C188.846 167.463 189.743 166.565 190.851 166.565H192.738C193.845 166.565 194.743 167.463 194.743 168.57V172.462H188.846Z" fill="black"/>
<path d="M200.287 168.251V170.781C200.287 171.712 201.042 172.461 201.974 172.461H204.503C205.441 172.461 206.19 171.706 206.19 170.775V168.251C206.184 167.313 205.429 166.564 204.497 166.564H201.974C201.042 166.564 200.287 167.319 200.287 168.251Z" fill="black"/>
<path d="M63.1855 172.284V176.176C63.1855 177.283 62.2879 178.181 61.1806 178.181H59.2937C58.1864 178.181 57.2887 177.283 57.2887 176.176V172.284H63.1855Z" fill="black"/>
<path d="M74.625 172.284V178.181H70.7331C69.6258 178.181 68.7282 177.283 68.7282 176.176V172.284H74.625Z" fill="black"/>
<path d="M80.346 172.284H74.4492V178.181H80.346V172.284Z" fill="black"/>
<path d="M86.0648 172.284H80.168V178.181H86.0648V172.284Z" fill="black"/>
<path d="M91.7855 172.284H85.8887V178.181H91.7855V172.284Z" fill="black"/>
<path d="M97.5042 172.284H91.6074V178.181H97.5042V172.284Z" fill="black"/>
<path d="M97.3281 178.182V174.29C97.3281 173.182 98.2258 172.285 99.333 172.285H101.22C102.327 172.285 103.225 173.182 103.225 174.29V178.182H97.3281Z" fill="black"/>
<path d="M114.664 172.284H108.768V178.181H114.664V172.284Z" fill="black"/>
<path d="M126.104 178.182H122.212C121.104 178.182 120.207 177.284 120.207 176.177V174.29C120.207 173.182 121.104 172.285 122.212 172.285H126.104V178.182Z" fill="black"/>
<path d="M131.825 172.284H125.928V178.181H131.825V172.284Z" fill="black"/>
<path d="M148.982 178.182H145.091C143.983 178.182 143.086 177.284 143.086 176.177V174.29C143.086 173.182 143.983 172.285 145.091 172.285H148.982V178.182Z" fill="black"/>
<path d="M148.807 178.182V172.285H152.699C153.806 172.285 154.703 173.182 154.703 174.29V178.182H148.807Z" fill="black"/>
<path d="M158.625 178.063V178.181H160.424V176.383H160.306C160.306 177.315 159.551 178.063 158.625 178.063Z" fill="black"/>
<path d="M166.145 172.284H160.248V178.181H166.145V172.284Z" fill="black"/>
<path d="M171.688 173.971V176.5C171.688 177.432 172.442 178.181 173.374 178.181H175.904C176.841 178.181 177.59 177.426 177.59 176.494V173.971C177.584 173.033 176.83 172.284 175.898 172.284H173.374C172.442 172.284 171.688 173.039 171.688 173.971Z" fill="black"/>
<path d="M189.024 172.284H183.127V178.181H189.024V172.284Z" fill="black"/>
<path d="M194.566 173.971V176.5C194.566 177.432 195.321 178.181 196.253 178.181H198.783C199.72 178.181 200.469 177.426 200.469 176.494V173.971C200.463 173.033 199.708 172.284 198.777 172.284H196.253C195.321 172.284 194.566 173.039 194.566 173.971Z" fill="black"/>
<path d="M206.006 173.971V176.5C206.006 177.432 206.761 178.181 207.692 178.181H210.222C211.16 178.181 211.909 177.426 211.909 176.494V173.971C211.903 173.033 211.148 172.284 210.216 172.284H207.692C206.761 172.284 206.006 173.039 206.006 173.971Z" fill="black"/>
<path d="M49.9473 183.783V183.901H51.7458V182.103H51.6279C51.6279 183.034 50.8731 183.783 49.9473 183.783Z" fill="black"/>
<path d="M51.5684 183.901V180.009C51.5684 178.902 52.466 178.005 53.5733 178.005H55.4603C56.5675 178.005 57.4652 178.902 57.4652 180.009V183.901H51.5684Z" fill="black"/>
<path d="M63.0078 183.901V180.009C63.0078 178.902 63.9054 178.005 65.0127 178.005H66.8997C68.007 178.005 68.9046 178.902 68.9046 180.009V183.901H63.0078Z" fill="black"/>
<path d="M86.0648 178.005H80.168V183.902H86.0648V178.005Z" fill="black"/>
<path d="M108.943 183.901H103.047V180.009C103.047 178.902 103.944 178.005 105.051 178.005H108.943V183.901Z" fill="black"/>
<path d="M114.664 178.005H108.768V183.902H114.664V178.005Z" fill="black"/>
<path d="M114.488 183.901V180.009C114.488 178.902 115.386 178.005 116.493 178.005H118.38C119.487 178.005 120.385 178.902 120.385 180.009V183.901H114.488Z" fill="black"/>
<path d="M131.825 178.005H125.928V183.902H131.825V178.005Z" fill="black"/>
<path d="M137.545 178.005H131.648V183.902H137.545V178.005Z" fill="black"/>
<path d="M137.367 183.901V178.005H141.259C142.366 178.005 143.264 178.902 143.264 180.009V183.901H137.367Z" fill="black"/>
<path d="M147.186 183.783V183.901H148.984V182.103H148.866C148.866 183.034 148.111 183.783 147.186 183.783Z" fill="black"/>
<path d="M154.703 178.005H148.807V183.902H154.703V178.005Z" fill="black"/>
<path d="M160.424 178.005H154.527V183.902H160.424V178.005Z" fill="black"/>
<path d="M166.145 178.005H160.248V183.902H166.145V178.005Z" fill="black"/>
<path d="M181.506 183.783V183.901H183.304V182.103H183.186C183.186 183.034 182.432 183.783 181.506 183.783Z" fill="black"/>
<path d="M189.024 178.005H183.127V183.902H189.024V178.005Z" fill="black"/>
<path d="M188.846 183.901V180.009C188.846 178.902 189.743 178.005 190.851 178.005H192.738C193.845 178.005 194.743 178.902 194.743 180.009V183.901H188.846Z" fill="black"/>
<path d="M198.664 183.783V183.901H200.463V182.103H200.345C200.345 183.034 199.59 183.783 198.664 183.783Z" fill="black"/>
<path d="M200.287 183.901V180.009C200.287 178.902 201.185 178.005 202.292 178.005H204.179C205.286 178.005 206.184 178.902 206.184 180.009V183.901H200.287Z" fill="black"/>
<path d="M51.7441 189.621H45.8473V185.729C45.8473 184.622 46.745 183.724 47.8522 183.724H51.7441V189.621Z" fill="black"/>
<path d="M51.5684 183.725H57.4652V187.617C57.4652 188.724 56.5675 189.621 55.4603 189.621H51.5684V183.725Z" fill="black"/>
<path d="M68.9043 183.725V187.617C68.9043 188.724 68.0067 189.621 66.8994 189.621H65.0124C63.9051 189.621 63.0075 188.724 63.0075 187.617V183.725H68.9043Z" fill="black"/>
<path d="M86.0645 183.725V187.617C86.0645 188.724 85.1668 189.621 84.0595 189.621H82.1726C81.0653 189.621 80.1676 188.724 80.1676 187.617V183.725H86.0645Z" fill="black"/>
<path d="M91.6074 185.411V187.941C91.6074 188.873 92.3622 189.621 93.2939 189.621H95.8236C96.7612 189.621 97.5101 188.867 97.5101 187.935V185.411C97.5042 184.474 96.7494 183.725 95.8177 183.725H93.2939C92.3622 183.725 91.6074 184.479 91.6074 185.411Z" fill="black"/>
<path d="M108.943 183.725V187.617C108.943 188.724 108.046 189.621 106.938 189.621H105.051C103.944 189.621 103.047 188.724 103.047 187.617V183.725H108.943Z" fill="black"/>
<path d="M131.826 183.725V187.617C131.826 188.724 130.929 189.621 129.821 189.621H127.934C126.827 189.621 125.929 188.724 125.929 187.617V183.725H131.826Z" fill="black"/>
<path d="M143.266 183.725V189.621H139.374C138.266 189.621 137.369 188.724 137.369 187.617V183.725H143.266Z" fill="black"/>
<path d="M148.985 183.725H143.088V189.621H148.985V183.725Z" fill="black"/>
<path d="M154.703 183.725H148.807V189.621H154.703V183.725Z" fill="black"/>
<path d="M160.424 183.725H154.527V189.621H160.424V183.725Z" fill="black"/>
<path d="M166.145 183.725H160.248V189.621H166.145V183.725Z" fill="black"/>
<path d="M171.864 183.725H165.967V189.621H171.864V183.725Z" fill="black"/>
<path d="M177.584 183.725H171.688V189.621H177.584V183.725Z" fill="black"/>
<path d="M183.303 183.725H177.406V189.621H183.303V183.725Z" fill="black"/>
<path d="M189.024 183.725H183.127V189.621H189.024V183.725Z" fill="black"/>
<path d="M200.463 189.621H196.571C195.464 189.621 194.566 188.723 194.566 187.616V185.729C194.566 184.622 195.464 183.724 196.571 183.724H200.463V189.621Z" fill="black"/>
<path d="M206.184 183.725H200.287V189.621H206.184V183.725Z" fill="black"/>
<path d="M206.006 189.621V185.729C206.006 184.622 206.903 183.724 208.011 183.724H209.898C211.005 183.724 211.903 184.622 211.903 185.729V189.621H206.006Z" fill="black"/>
<path d="M51.7464 189.444H45.8496V195.341H51.7464V189.444Z" fill="black"/>
<path d="M74.625 195.342H70.7331C69.6258 195.342 68.7282 194.444 68.7282 193.337V191.45C68.7282 190.343 69.6258 189.445 70.7331 189.445H74.625V195.342Z" fill="black"/>
<path d="M74.4492 195.342V191.45C74.4492 190.343 75.3468 189.445 76.4541 189.445H78.3411C79.4484 189.445 80.346 190.343 80.346 191.45V195.342H74.4492Z" fill="black"/>
<path d="M114.664 195.342H110.772C109.665 195.342 108.767 194.444 108.767 193.337V191.45C108.767 190.343 109.665 189.445 110.772 189.445H114.664V195.342Z" fill="black"/>
<path d="M114.488 195.342V189.445H118.38C119.487 189.445 120.385 190.343 120.385 191.45V195.342H114.488Z" fill="black"/>
<path d="M154.703 189.444H148.807V195.341H154.703V189.444Z" fill="black"/>
<path d="M160.424 189.444H154.527V195.341H160.424V189.444Z" fill="black"/>
<path d="M166.145 189.444H160.248V195.341H166.145V189.444Z" fill="black"/>
<path d="M171.864 189.444H165.967V195.341H171.864V189.444Z" fill="black"/>
<path d="M177.584 189.444H171.688V195.341H177.584V189.444Z" fill="black"/>
<path d="M183.303 189.444H177.406V195.341H183.303V189.444Z" fill="black"/>
<path d="M189.024 189.444H183.127V195.341H189.024V189.444Z" fill="black"/>
<path d="M188.846 195.342V191.45C188.846 190.343 189.743 189.445 190.851 189.445H192.738C193.845 189.445 194.743 190.343 194.743 191.45V195.342H188.846Z" fill="black"/>
<path d="M51.7441 195.164V199.056C51.7441 200.163 50.8465 201.061 49.7392 201.061H47.8522C46.745 201.061 45.8473 200.163 45.8473 199.056V195.164H51.7441Z" fill="black"/>
<path d="M57.2891 196.851V199.38C57.2891 200.312 58.0439 201.061 58.9755 201.061H61.5053C62.4429 201.061 63.1918 200.306 63.1918 199.374V196.851C63.1859 195.913 62.4311 195.164 61.4994 195.164H58.9755C58.0439 195.164 57.2891 195.919 57.2891 196.851Z" fill="black"/>
<path d="M103.049 196.851V199.38C103.049 200.312 103.804 201.061 104.735 201.061H107.265C108.203 201.061 108.952 200.306 108.952 199.374V196.851C108.946 195.913 108.191 195.164 107.259 195.164H104.735C103.804 195.164 103.049 195.919 103.049 196.851Z" fill="black"/>
<path d="M120.385 195.164H114.488V201.061H120.385V195.164Z" fill="black"/>
<path d="M130.025 200.943V201.061H131.824V199.263H131.706C131.706 200.194 130.951 200.943 130.025 200.943Z" fill="black"/>
<path d="M137.543 201.062H131.646V197.17C131.646 196.062 132.544 195.165 133.651 195.165H137.543V201.062Z" fill="black"/>
<path d="M143.264 195.164H137.367V201.061H143.264V195.164Z" fill="black"/>
<path d="M148.985 195.164H143.088V201.061H148.985V195.164Z" fill="black"/>
<path d="M148.807 195.164H154.703V199.056C154.703 200.163 153.806 201.061 152.699 201.061H148.807V195.164Z" fill="black"/>
<path d="M166.145 195.164H160.248V201.061H166.145V195.164Z" fill="black"/>
<path d="M165.967 195.164H171.864V199.056C171.864 200.163 170.966 201.061 169.859 201.061H165.967V195.164Z" fill="black"/>
<path d="M183.305 195.164V199.056C183.305 200.163 182.407 201.061 181.3 201.061H179.413C178.306 201.061 177.408 200.163 177.408 199.056V195.164H183.305Z" fill="black"/>
<path d="M194.566 196.851V199.38C194.566 200.312 195.321 201.061 196.253 201.061H198.783C199.72 201.061 200.469 200.306 200.469 199.374V196.851C200.463 195.913 199.708 195.164 198.777 195.164H196.253C195.321 195.164 194.566 195.919 194.566 196.851Z" fill="black"/>
<path d="M206.006 201.062V197.17C206.006 196.062 206.903 195.165 208.011 195.165H209.898C211.005 195.165 211.903 196.062 211.903 197.17V201.062H206.006Z" fill="black"/>
<path d="M61.3867 206.663V206.781H63.1852V204.982H63.0673C63.0673 205.914 62.3125 206.663 61.3867 206.663Z" fill="black"/>
<path d="M68.9043 206.781H63.0075V202.889C63.0075 201.782 63.9051 200.884 65.0124 200.884H68.9043V206.781Z" fill="black"/>
<path d="M74.6253 200.884H68.7285V206.781H74.6253V200.884Z" fill="black"/>
<path d="M80.346 200.884H74.4492V206.781H80.346V200.884Z" fill="black"/>
<path d="M80.168 206.781V200.884H84.0599C85.1671 200.884 86.0648 201.782 86.0648 202.889V206.781H80.168Z" fill="black"/>
<path d="M97.3281 206.781V202.889C97.3281 201.782 98.2258 200.884 99.333 200.884H101.22C102.327 200.884 103.225 201.782 103.225 202.889V206.781H97.3281Z" fill="black"/>
<path d="M114.664 206.781H110.772C109.665 206.781 108.767 205.884 108.767 204.776V202.889C108.767 201.782 109.665 200.884 110.772 200.884H114.664V206.781Z" fill="black"/>
<path d="M120.385 200.884H114.488V206.781H120.385V200.884Z" fill="black"/>
<path d="M126.104 200.884H120.207V206.781H126.104V200.884Z" fill="black"/>
<path d="M131.825 200.884H125.928V206.781H131.825V200.884Z" fill="black"/>
<path d="M137.545 200.884H131.648V206.781H137.545V200.884Z" fill="black"/>
<path d="M166.145 200.884V204.776C166.145 205.883 165.247 206.781 164.14 206.781H162.253C161.145 206.781 160.248 205.883 160.248 204.776V200.884H166.145Z" fill="black"/>
<path d="M171.688 206.781V202.889C171.688 201.782 172.585 200.884 173.692 200.884H175.579C176.687 200.884 177.584 201.782 177.584 202.889V206.781H171.688Z" fill="black"/>
<path d="M204.385 206.663V206.781H206.183V204.982H206.065C206.065 205.914 205.311 206.663 204.385 206.663Z" fill="black"/>
<path d="M211.903 200.884H206.006V206.781H211.903V200.884Z" fill="black"/>
<path d="M63.1855 212.501H59.2937C58.1864 212.501 57.2887 211.603 57.2887 210.496V208.609C57.2887 207.502 58.1864 206.604 59.2937 206.604H63.1855V212.501Z" fill="black"/>
<path d="M63.0078 206.604H68.9046V210.495C68.9046 211.603 68.007 212.5 66.8997 212.5H63.0078V206.604Z" fill="black"/>
<path d="M86.0645 206.604V210.495C86.0645 211.603 85.1668 212.5 84.0595 212.5H82.1726C81.0653 212.5 80.1676 211.603 80.1676 210.495V206.604H86.0645Z" fill="black"/>
<path d="M103.225 206.604V212.5H99.3327C98.2254 212.5 97.3278 211.603 97.3278 210.495V206.604H103.225Z" fill="black"/>
<path d="M103.049 212.501V208.609C103.049 207.502 103.946 206.604 105.054 206.604H106.941C108.048 206.604 108.946 207.502 108.946 208.609V212.501H103.049Z" fill="black"/>
<path d="M137.545 206.604V210.495C137.545 211.603 136.647 212.5 135.54 212.5H133.653C132.546 212.5 131.648 211.603 131.648 210.495V206.604H137.545Z" fill="black"/>
<path d="M148.982 212.501H145.091C143.983 212.501 143.086 211.603 143.086 210.496V208.609C143.086 207.502 143.983 206.604 145.091 206.604H148.982V212.501Z" fill="black"/>
<path d="M154.703 206.604H148.807V212.5H154.703V206.604Z" fill="black"/>
<path d="M154.527 212.501V208.609C154.527 207.502 155.425 206.604 156.532 206.604H158.419C159.527 206.604 160.424 207.502 160.424 208.609V212.501H154.527Z" fill="black"/>
<path d="M177.584 206.604V210.495C177.584 211.603 176.686 212.5 175.579 212.5H173.692C172.585 212.5 171.687 211.603 171.687 210.495V206.604H177.584Z" fill="black"/>
<path d="M183.127 208.29V210.82C183.127 211.751 183.882 212.5 184.813 212.5H187.343C188.281 212.5 189.03 211.746 189.03 210.814V208.29C189.024 207.352 188.269 206.604 187.337 206.604H184.813C183.882 206.604 183.127 207.358 183.127 208.29Z" fill="black"/>
<path d="M200.463 212.501H196.571C195.464 212.501 194.566 211.603 194.566 210.496V208.609C194.566 207.502 195.464 206.604 196.571 206.604H200.463V212.501Z" fill="black"/>
<path d="M206.184 206.604H200.287V212.5H206.184V206.604Z" fill="black"/>
<path d="M206.006 206.604H211.903V210.495C211.903 211.603 211.005 212.5 209.898 212.5H206.006V206.604Z" fill="black"/>
<path d="M35.4708 27.6553V14.9966C35.4708 9.37776 34.7064 8.00678 34.3777 7.6773C34.0482 7.34856 32.6772 6.5842 27.0577 6.5842H14.3997C8.78011 6.5842 7.40912 7.34856 7.08038 7.6773C6.75164 8.00678 5.98654 9.37776 5.98654 14.9966V27.6553C5.98654 33.2749 6.75164 34.6459 7.08038 34.9753C7.40912 35.3033 8.78011 36.0684 14.3997 36.0684H27.0577C32.6772 36.0684 34.0482 35.3033 34.3777 34.9753C34.7064 34.6459 35.4708 33.2749 35.4708 27.6553ZM27.0577 0.6875C38.6159 0.6875 41.3675 3.43905 41.3675 14.9966C41.3675 26.5549 41.3675 16.0978 41.3675 27.6553C41.3675 39.2136 38.6159 41.9651 27.0577 41.9651C15.5001 41.9651 25.9572 41.9651 14.3997 41.9651C2.84139 41.9651 0.0898438 39.2136 0.0898438 27.6553C0.0898438 16.0978 0.0898438 21.4513 0.0898438 14.9966C0.0898438 3.43905 2.84139 0.6875 14.3997 0.6875C25.9572 0.6875 15.5001 0.6875 27.0577 0.6875ZM23.441 12.4811C28.3948 12.4811 29.5739 13.661 29.5739 18.6133C29.5739 23.567 29.5739 19.0856 29.5739 24.0387C29.5739 28.9917 28.3948 30.1715 23.441 30.1715C18.488 30.1715 22.9694 30.1715 18.0163 30.1715C13.0633 30.1715 11.8835 28.9917 11.8835 24.0387C11.8835 19.0856 11.8835 21.3797 11.8835 18.6133C11.8835 13.661 13.0633 12.4811 18.0163 12.4811C22.9694 12.4811 18.488 12.4811 23.441 12.4811Z" fill="black"/>
<path d="M205.299 27.6553V14.9966C205.299 9.37776 204.535 8.00678 204.206 7.6773C203.876 7.34856 202.505 6.5842 196.886 6.5842H184.228C178.608 6.5842 177.237 7.34856 176.909 7.6773C176.58 8.00678 175.815 9.37776 175.815 14.9966V27.6553C175.815 33.2749 176.58 34.6459 176.909 34.9753C177.237 35.3033 178.608 36.0684 184.228 36.0684H196.886C202.505 36.0684 203.876 35.3033 204.206 34.9753C204.535 34.6459 205.299 33.2749 205.299 27.6553ZM196.886 0.6875C208.444 0.6875 211.196 3.43905 211.196 14.9966C211.196 26.5549 211.196 16.0978 211.196 27.6553C211.196 39.2136 208.444 41.9651 196.886 41.9651C185.328 41.9651 195.785 41.9651 184.228 41.9651C172.67 41.9651 169.918 39.2136 169.918 27.6553C169.918 16.0978 169.918 21.4513 169.918 14.9966C169.918 3.43905 172.67 0.6875 184.228 0.6875C195.785 0.6875 185.328 0.6875 196.886 0.6875ZM193.269 12.4811C198.223 12.4811 199.402 13.661 199.402 18.6133C199.402 23.567 199.402 19.0856 199.402 24.0387C199.402 28.9917 198.223 30.1715 193.269 30.1715C188.316 30.1715 192.797 30.1715 187.844 30.1715C182.891 30.1715 181.712 28.9917 181.712 24.0387C181.712 19.0856 181.712 21.3797 181.712 18.6133C181.712 13.661 182.891 12.4811 187.844 12.4811C192.797 12.4811 188.316 12.4811 193.269 12.4811Z" fill="black"/>
<path d="M35.4708 197.483V184.825C35.4708 179.206 34.7064 177.835 34.3777 177.505C34.0482 177.177 32.6772 176.412 27.0577 176.412H14.3997C8.78011 176.412 7.40912 177.177 7.08038 177.505C6.75164 177.835 5.98654 179.206 5.98654 184.825V197.483C5.98654 203.103 6.75164 204.474 7.08038 204.803C7.40912 205.131 8.78011 205.897 14.3997 205.897H27.0577C32.6772 205.897 34.0482 205.131 34.3777 204.803C34.7064 204.474 35.4708 203.103 35.4708 197.483ZM27.0577 170.516C38.6159 170.516 41.3675 173.267 41.3675 184.825C41.3675 196.383 41.3675 185.926 41.3675 197.483C41.3675 209.042 38.6159 211.793 27.0577 211.793C15.5001 211.793 25.9572 211.793 14.3997 211.793C2.84139 211.793 0.0898438 209.042 0.0898438 197.483C0.0898438 185.926 0.0898438 191.279 0.0898438 184.825C0.0898438 173.267 2.84139 170.516 14.3997 170.516C25.9572 170.516 15.5001 170.516 27.0577 170.516ZM23.441 182.309C28.3948 182.309 29.5739 183.489 29.5739 188.441C29.5739 193.395 29.5739 188.914 29.5739 193.867C29.5739 198.82 28.3948 200 23.441 200C18.488 200 22.9694 200 18.0163 200C13.0633 200 11.8835 198.82 11.8835 193.867C11.8835 188.914 11.8835 191.208 11.8835 188.441C11.8835 183.489 13.0633 182.309 18.0163 182.309C22.9694 182.309 18.488 182.309 23.441 182.309Z" fill="black"/>
<mask id="mask0_6071_17019" style="mask-type:luminance" maskUnits="userSpaceOnUse" x="86" y="86" width="40" height="41">
<path d="M126 86.6875H86V126.688H126V86.6875Z" fill="white"/>
</mask>
<g mask="url(#mask0_6071_17019)">
<path d="M106 126.688C117.046 126.688 126 117.733 126 106.688C126 95.6418 117.046 86.6875 106 86.6875C94.9543 86.6875 86 95.6418 86 106.688C86 117.733 94.9543 126.688 106 126.688Z" fill="url(#paint0_radial_6071_17019)"/>
<path opacity="0.15" d="M106 126.688C94.9718 126.688 86 117.716 86 106.688C86 95.6593 94.9718 86.6875 106 86.6875C117.028 86.6875 126 95.6593 126 106.688C126 117.716 117.028 126.688 106 126.688ZM106 88.0239C95.7048 88.0239 87.3299 96.3988 87.3299 106.694C87.3299 116.989 95.7048 125.364 106 125.364C116.295 125.364 124.67 116.983 124.67 106.688C124.67 96.3923 116.295 88.0239 106 88.0239Z" fill="black"/>
<path d="M114.284 102.457C114.654 102.574 115.03 102.652 115.355 102.801C116.873 103.495 117.132 105.331 115.887 106.564C115.205 107.238 114.349 107.543 113.408 107.602C112.422 107.66 111.514 107.465 110.645 107.167C109.601 106.804 108.627 106.33 107.706 105.772C107.693 105.766 107.693 105.753 107.674 105.727C108.011 105.63 108.348 105.545 108.679 105.441C109.86 105.065 110.989 104.579 111.903 103.735C112.014 103.631 112.085 103.495 112.176 103.372C112.027 103.359 111.884 103.333 111.735 103.34C110.775 103.398 109.873 103.722 109.004 104.144C108.472 104.403 107.972 104.728 107.46 105.02C107.427 105.039 107.388 105.059 107.356 105.085C107.336 105.078 107.317 105.072 107.291 105.065C107.505 104.352 107.706 103.638 107.946 102.931C108.271 101.977 108.712 101.056 109.367 100.206C109.983 99.4213 110.755 98.831 111.787 98.5844C113.292 98.2212 114.693 99.0385 114.888 100.381C115.004 101.134 114.758 101.815 114.284 102.457Z" fill="#111111"/>
<path d="M98.7161 109.438C98.3463 109.321 97.9701 109.243 97.6457 109.094C96.1277 108.4 95.8682 106.564 97.1138 105.332C97.7949 104.657 98.6512 104.352 99.5918 104.294C100.578 104.235 101.486 104.43 102.355 104.728C103.4 105.092 104.373 105.565 105.294 106.123C105.307 106.129 105.307 106.142 105.327 106.168C104.989 106.266 104.652 106.35 104.321 106.454C103.14 106.83 102.012 107.317 101.097 108.16C100.987 108.264 100.915 108.4 100.824 108.523C100.974 108.536 101.116 108.562 101.266 108.556C102.226 108.497 103.127 108.173 103.997 107.751C104.529 107.492 105.028 107.167 105.541 106.876C105.573 106.856 105.612 106.837 105.644 106.811C105.664 106.817 105.683 106.824 105.709 106.83C105.495 107.544 105.294 108.257 105.054 108.964C104.73 109.918 104.289 110.839 103.633 111.689C103.017 112.474 102.245 113.064 101.214 113.311C99.7086 113.674 98.3074 112.857 98.1128 111.514C97.9895 110.761 98.2361 110.08 98.7161 109.438Z" fill="#111111"/>
<path d="M103.008 98.1634C103.125 97.7936 103.203 97.4174 103.352 97.093C104.046 95.575 105.882 95.3155 107.114 96.5611C107.789 97.2422 108.094 98.0985 108.152 99.0392C108.211 100.025 108.016 100.933 107.718 101.803C107.354 102.847 106.881 103.82 106.323 104.741C106.316 104.754 106.304 104.754 106.278 104.774C106.18 104.437 106.096 104.099 105.992 103.768C105.616 102.588 105.129 101.459 104.286 100.544C104.182 100.434 104.046 100.363 103.923 100.272C103.91 100.421 103.884 100.564 103.89 100.713C103.949 101.673 104.273 102.575 104.695 103.444C104.954 103.976 105.279 104.475 105.57 104.988C105.59 105.02 105.609 105.059 105.635 105.092C105.629 105.111 105.622 105.131 105.616 105.157C104.902 104.943 104.189 104.741 103.482 104.501C102.528 104.177 101.607 103.736 100.757 103.081C99.9721 102.464 99.3817 101.692 99.1352 100.661C98.772 99.1559 99.5893 97.7547 100.932 97.5601C101.685 97.4433 102.366 97.6898 103.008 98.1634Z" fill="#111111"/>
<path d="M109.983 113.733C109.866 114.102 109.788 114.479 109.639 114.803C108.945 116.321 107.109 116.58 105.876 115.335C105.202 114.654 104.897 113.797 104.838 112.857C104.78 111.871 104.975 110.962 105.273 110.093C105.636 109.049 106.11 108.076 106.668 107.154C106.674 107.142 106.687 107.142 106.713 107.122C106.811 107.459 106.895 107.797 106.999 108.128C107.375 109.308 107.861 110.437 108.705 111.352C108.809 111.462 108.945 111.533 109.068 111.624C109.081 111.475 109.107 111.332 109.101 111.183C109.042 110.223 108.718 109.321 108.296 108.452C108.037 107.92 107.712 107.42 107.42 106.908C107.401 106.876 107.381 106.837 107.355 106.804C107.362 106.785 107.368 106.765 107.375 106.739C108.089 106.953 108.802 107.154 109.509 107.395C110.463 107.719 111.384 108.16 112.234 108.815C113.019 109.432 113.609 110.203 113.856 111.235C114.219 112.74 113.402 114.141 112.059 114.336C111.313 114.453 110.625 114.206 109.983 113.733Z" fill="#111111"/>
<path d="M103.886 112.234L101.032 117.229C100.863 117.527 101.006 117.91 101.337 118.014L101.96 118.215C102.252 118.312 102.563 118.144 102.647 117.852L104.243 112.383C104.308 112.162 104.003 112.033 103.886 112.234Z" fill="#111111"/>
</g>
<defs>
<radialGradient id="paint0_radial_6071_17019" cx="0" cy="0" r="1" gradientUnits="userSpaceOnUse" gradientTransform="translate(118.941 116.393) rotate(-135) scale(33.9689)">
<stop offset="0.2" stop-color="#7FFF47"/>
<stop offset="0.55" stop-color="#F9FF20"/>
<stop offset="0.8" stop-color="#FFDAC0"/>
<stop offset="1" stop-color="#FC76E3"/>
</radialGradient>
</defs>
</svg>
