<svg width="28" height="29" viewBox="0 0 28 29" fill="none" xmlns="http://www.w3.org/2000/svg">
<g clip-path="url(#clip0_6071_18350)">
<g clip-path="url(#clip1_6071_18350)">
<path d="M14 28.7363C21.732 28.7363 28 22.4683 28 14.7363C28 7.00434 21.732 0.736328 14 0.736328C6.26801 0.736328 0 7.00434 0 14.7363C0 22.4683 6.26801 28.7363 14 28.7363Z" fill="#26A17B"/>
<path fill-rule="evenodd" clip-rule="evenodd" d="M15.4193 16.1048V16.1031C15.323 16.1101 14.8269 16.1398 13.72 16.1398C12.8362 16.1398 12.2141 16.1136 11.9954 16.1031V16.1057C8.59337 15.9561 6.05412 15.3637 6.05412 14.655C6.05412 13.9471 8.59337 13.3547 11.9954 13.2025V15.516C12.2176 15.5317 12.8546 15.5693 13.7349 15.5693C14.791 15.5693 15.3204 15.5256 15.4193 15.5168V13.2042C18.8143 13.3556 21.3474 13.948 21.3474 14.655C21.3474 15.3637 18.8143 15.9543 15.4193 16.1048ZM15.4193 12.9636V10.8933H20.1565V7.73633H7.25813V10.8933H11.9954V12.9627C8.14537 13.1395 5.25 13.9025 5.25 14.816C5.25 15.7295 8.14537 16.4916 11.9954 16.6692V23.3035H15.4193V16.6675C19.2631 16.4907 22.1515 15.7286 22.1515 14.816C22.1515 13.9033 19.2631 13.1412 15.4193 12.9636Z" fill="white"/>
</g>
<g clip-path="url(#clip2_6071_18350)">
<path d="M22.1673 28.736C25.389 28.736 28.0007 26.1243 28.0007 22.9027C28.0007 19.681 25.389 17.0693 22.1673 17.0693C18.9457 17.0693 16.334 19.681 16.334 22.9027C16.334 26.1243 18.9457 28.736 22.1673 28.736Z" fill="#EF0027"/>
<path d="M24.1484 20.5894L18.8867 19.6211L21.6557 26.589L25.5141 21.8881L24.1484 20.5894ZM24.0638 21.016L24.8688 21.7813L22.6674 22.1797L24.0638 21.016ZM22.1891 22.0999L19.8689 20.1756L23.6613 20.8734L22.1891 22.0999ZM22.024 22.4404L21.6455 25.5685L19.6057 20.4341L22.024 22.4401V22.4404ZM22.374 22.6063L24.8119 22.1652L22.0156 25.5715L22.374 22.6063Z" fill="white"/>
</g>
</g>
<defs>
<clipPath id="clip0_6071_18350">
<rect width="28" height="28" fill="white" transform="translate(0 0.736328)"/>
</clipPath>
<clipPath id="clip1_6071_18350">
<rect width="28" height="28" fill="white" transform="translate(0 0.736328)"/>
</clipPath>
<clipPath id="clip2_6071_18350">
<rect width="11.6667" height="11.6667" fill="white" transform="translate(16.334 17.0693)"/>
</clipPath>
</defs>
</svg>
