<svg width="24" height="24" viewBox="0 0 24 24" fill="none" xmlns="http://www.w3.org/2000/svg">
<path opacity="0.3" d="M7 2C9.761 2 12 3.119 12 4.5V8.5C12 7.119 14.239 6 17 6C19.761 6 22 7.119 22 8.5V17.5C22 18.881 19.761 20 17 20C14.239 20 12 18.881 12 17.5V19.5C12 20.881 9.761 22 7 22C4.239 22 2 20.881 2 19.5V4.5C2 3.119 4.239 2 7 2Z" fill="#E7E7E7"/>
<path d="M22 17.5C22 18.881 19.761 20 17 20C14.239 20 12 18.881 12 17.5V19.5C12 20.881 9.761 22 7 22C4.239 22 2 20.881 2 19.5V16.5C2 17.881 4.239 19 7 19C9.761 19 12 17.881 12 16.5V14.5C12 15.881 14.239 17 17 17C19.761 17 22 15.881 22 14.5V17.5Z" fill="#E7E7E7"/>
<path d="M22 11.5C22 12.881 19.761 14 17 14C14.239 14 12 12.881 12 11.5V13.5C12 14.881 9.761 16 7 16C4.239 16 2 14.881 2 13.5V10.5C2 11.881 4.239 13 7 13C9.761 13 12 11.881 12 10.5V8.5C12 9.881 14.239 11 17 11C19.761 11 22 9.881 22 8.5V11.5Z" fill="#E7E7E7"/>
<path d="M12 7.5C12 8.881 9.761 10 7 10C4.239 10 2 8.881 2 7.5V4.5C2 5.881 4.239 7 7 7C9.761 7 12 5.881 12 4.5V7.5Z" fill="#E7E7E7"/>
</svg>
