<svg width="28" height="29" viewBox="0 0 28 29" fill="none" xmlns="http://www.w3.org/2000/svg">
<g clip-path="url(#clip0_6071_18345)">
<g clip-path="url(#clip1_6071_18345)">
<path d="M14 28.7363C21.732 28.7363 28 22.4683 28 14.7363C28 7.00434 21.732 0.736328 14 0.736328C6.26801 0.736328 0 7.00434 0 14.7363C0 22.4683 6.26801 28.7363 14 28.7363Z" fill="#F7931A"/>
<path d="M20.153 13.0038C20.4277 11.1698 19.0304 10.1837 17.1211 9.5257L17.7406 7.0407L16.2286 6.66445L15.6249 9.08383C15.2276 8.98408 14.8199 8.89133 14.413 8.79858L15.0211 6.36345L13.5091 5.98633L12.8896 8.47045C12.5606 8.3952 12.2369 8.3217 11.9236 8.24295L11.9254 8.23508L9.83938 7.71445L9.43688 9.3297C9.43688 9.3297 10.5595 9.58695 10.5359 9.6027C11.1484 9.75583 11.2586 10.161 11.2403 10.483L10.535 13.3136C10.577 13.3241 10.6313 13.3398 10.6925 13.3635L10.5324 13.3241L9.54363 17.2896C9.46838 17.4751 9.2785 17.7542 8.84975 17.6483C8.8655 17.6702 7.75075 17.3745 7.75075 17.3745L7 19.1052L8.96875 19.5961C9.3345 19.688 9.69325 19.7842 10.0459 19.8743L9.42025 22.3873L10.9314 22.7636L11.5509 20.2786C11.9639 20.3897 12.3646 20.493 12.7566 20.591L12.1389 23.0655L13.6509 23.4417L14.2765 20.934C16.856 21.4222 18.795 21.2253 19.6114 18.8926C20.2694 17.0148 19.579 15.9307 18.2219 15.2246C19.2106 14.9971 19.9544 14.347 20.153 13.0038V13.0038ZM16.6968 17.8496C16.2304 19.7282 13.0673 18.7123 12.0418 18.4577L12.873 15.1283C13.8985 15.3847 17.1859 15.8913 16.6968 17.8496ZM17.1649 12.9767C16.7388 14.6856 14.1068 13.8167 13.2536 13.6041L14.0061 10.5853C14.8592 10.798 17.6094 11.1943 17.1649 12.9767Z" fill="white"/>
</g>
</g>
<defs>
<clipPath id="clip0_6071_18345">
<rect width="28" height="28" fill="white" transform="translate(0 0.736328)"/>
</clipPath>
<clipPath id="clip1_6071_18345">
<rect width="28" height="28" fill="white" transform="translate(0 0.736328)"/>
</clipPath>
</defs>
</svg>
