<svg width="28" height="29" viewBox="0 0 28 29" fill="none" xmlns="http://www.w3.org/2000/svg">
<g clip-path="url(#clip0_6071_18370)">
<g clip-path="url(#clip1_6071_18370)">
<path d="M14 28.7363C21.732 28.7363 28 22.4683 28 14.7363C28 7.00434 21.732 0.736328 14 0.736328C6.26801 0.736328 0 7.00434 0 14.7363C0 22.4683 6.26801 28.7363 14 28.7363Z" fill="#EF0027"/>
<path d="M18.753 9.18533L6.125 6.86133L12.7706 23.5843L22.0308 12.3021L18.753 9.18533ZM18.55 10.2091L20.482 12.0457L15.1988 13.0021L18.55 10.2091V10.2091ZM14.0508 12.8105L8.48225 8.1922L17.584 9.86695L14.0508 12.8105V12.8105ZM13.6544 13.6277L12.7461 21.1352L7.8505 8.81258L13.6544 13.6268V13.6277ZM14.4944 14.0258L20.3455 12.9671L13.6343 21.1422L14.4944 14.0258Z" fill="white"/>
</g>
</g>
<defs>
<clipPath id="clip0_6071_18370">
<rect width="28" height="28" fill="white" transform="translate(0 0.736328)"/>
</clipPath>
<clipPath id="clip1_6071_18370">
<rect width="28" height="28" fill="white" transform="translate(0 0.736328)"/>
</clipPath>
</defs>
</svg>
