<svg width="28" height="29" viewBox="0 0 28 29" fill="none" xmlns="http://www.w3.org/2000/svg">
<g clip-path="url(#clip0_6071_18333)">
<g clip-path="url(#clip1_6071_18333)">
<mask id="mask0_6071_18333" style="mask-type:luminance" maskUnits="userSpaceOnUse" x="0" y="0" width="28" height="29">
<path d="M28 0.736328H0V28.7363H28V0.736328Z" fill="white"/>
</mask>
<g mask="url(#mask0_6071_18333)">
<path d="M14 28.7363C21.732 28.7363 28 22.4684 28 14.7363C28 7.00434 21.732 0.736328 14 0.736328C6.26801 0.736328 0 7.00434 0 14.7363C0 22.4684 6.26801 28.7363 14 28.7363Z" fill="url(#paint0_radial_6071_18333)"/>
<path opacity="0.15" d="M14 28.7363C6.28024 28.7363 0 22.4561 0 14.7363C0 7.01657 6.28024 0.736328 14 0.736328C21.7198 0.736328 28 7.01657 28 14.7363C28 22.4561 21.7198 28.7363 14 28.7363ZM14 1.67178C6.79339 1.67178 0.930912 7.53425 0.930912 14.7409C0.930912 21.9475 6.79339 27.81 14 27.81C21.2066 27.81 27.0691 21.9429 27.0691 14.7363C27.0691 7.52971 21.2066 1.67178 14 1.67178Z" fill="black"/>
<path d="M19.7976 11.7764C20.0564 11.8581 20.3198 11.9126 20.5469 12.017C21.6095 12.5029 21.7911 13.788 20.9192 14.6508C20.4424 15.1231 19.843 15.3365 19.1845 15.3774C18.4943 15.4182 17.8585 15.2821 17.2501 15.0731C16.519 14.8188 15.8378 14.4873 15.193 14.0968C15.1839 14.0922 15.1839 14.0832 15.1703 14.065C15.4064 13.997 15.6425 13.9379 15.8741 13.8653C16.7006 13.6018 17.4908 13.2613 18.131 12.6709C18.2083 12.5983 18.2581 12.5029 18.3218 12.4166C18.2173 12.4075 18.1174 12.3894 18.013 12.394C17.3409 12.4348 16.7097 12.6619 16.1012 12.957C15.7288 13.1387 15.3791 13.3657 15.0204 13.57C14.9977 13.5837 14.9705 13.5973 14.9478 13.6155C14.9341 13.6109 14.9205 13.6064 14.9023 13.6018C15.0522 13.1024 15.193 12.6028 15.361 12.1078C15.5881 11.4403 15.8969 10.7955 16.3555 10.2006C16.7869 9.65118 17.3272 9.23792 18.0493 9.06535C19.1028 8.81106 20.0837 9.38323 20.2199 10.3232C20.3016 10.85 20.1291 11.3268 19.7976 11.7764Z" fill="#111111"/>
<path d="M8.90029 16.662C8.64147 16.5803 8.37808 16.5258 8.15104 16.4214C7.08843 15.9354 6.90679 14.6504 7.77867 13.7876C8.25548 13.3153 8.85488 13.1018 9.51332 13.061C10.2036 13.0201 10.8393 13.1563 11.4479 13.3653C12.1789 13.6196 12.8601 13.951 13.5049 14.3415C13.514 14.3461 13.514 14.3552 13.5276 14.3734C13.2915 14.4414 13.0553 14.5005 12.8238 14.5731C11.9973 14.8365 11.2071 15.1771 10.5669 15.7674C10.4896 15.8401 10.4397 15.9355 10.3762 16.0218C10.4805 16.0308 10.5805 16.049 10.6849 16.0444C11.357 16.0036 11.9882 15.7765 12.5967 15.4814C12.969 15.2997 13.3187 15.0727 13.6774 14.8684C13.7002 14.8547 13.7274 14.8411 13.7502 14.8229C13.7637 14.8275 13.7774 14.832 13.7956 14.8365C13.6457 15.336 13.5049 15.8356 13.3369 16.3306C13.1098 16.9981 12.801 17.6429 12.3424 18.2378C11.911 18.7872 11.3706 19.2005 10.6486 19.373C9.59504 19.6273 8.61422 19.0551 8.47799 18.1151C8.39171 17.5884 8.56427 17.1116 8.90029 16.662Z" fill="#111111"/>
<path d="M11.9062 8.77042C11.988 8.51159 12.0425 8.2482 12.1469 8.02115C12.6328 6.95855 13.9179 6.77691 14.7807 7.64879C15.2529 8.1256 15.4664 8.72501 15.5072 9.38346C15.5482 10.0737 15.4119 10.7094 15.203 11.318C14.9487 12.049 14.6173 12.7302 14.2267 13.375C14.2221 13.3841 14.2131 13.3841 14.1949 13.3978C14.1268 13.1616 14.0678 12.9254 13.9951 12.6938C13.7318 11.8674 13.3911 11.0773 12.8008 10.4369C12.7281 10.3598 12.6328 10.3098 12.5465 10.2463C12.5375 10.3507 12.5193 10.4506 12.5238 10.5551C12.5647 11.2272 12.7917 11.8583 13.0869 12.4669C13.2685 12.8392 13.4956 13.1888 13.6999 13.5476C13.7136 13.5703 13.7272 13.5975 13.7453 13.6203C13.7408 13.6338 13.7362 13.6475 13.7318 13.6657C13.2322 13.5158 12.7327 13.375 12.2377 13.207C11.5702 12.98 10.9254 12.6712 10.3305 12.2125C9.78104 11.7811 9.36778 11.2407 9.19523 10.5188C8.94095 9.4652 9.51312 8.48434 10.4531 8.34811C10.9799 8.26637 11.4567 8.43893 11.9062 8.77042Z" fill="#111111"/>
<path d="M16.7899 19.6687C16.7082 19.9275 16.6537 20.1909 16.5492 20.418C16.0633 21.4806 14.7782 21.6622 13.9155 20.7903C13.4432 20.3135 13.2297 19.7141 13.1889 19.0556C13.148 18.3654 13.2843 17.7296 13.4931 17.1211C13.7475 16.3901 14.0789 15.7089 14.4694 15.064C14.474 15.055 14.4831 15.055 14.5013 15.0414C14.5694 15.2775 14.6284 15.5136 14.7011 15.7452C14.9644 16.5716 15.305 17.3619 15.8953 18.0021C15.968 18.0793 16.0633 18.1292 16.1496 18.1928C16.1587 18.0884 16.1769 17.9885 16.1724 17.8841C16.1315 17.212 15.9044 16.5807 15.6093 15.9723C15.4277 15.5999 15.2006 15.2502 14.9962 14.8915C14.9826 14.8688 14.969 14.8416 14.9508 14.8188C14.9553 14.8052 14.9599 14.7916 14.9644 14.7734C15.464 14.9233 15.9635 15.064 16.4584 15.2321C17.1259 15.4592 17.7708 15.768 18.3656 16.2265C18.9151 16.658 19.3284 17.1983 19.501 17.9204C19.7552 18.9739 19.1831 19.9547 18.2431 20.091C17.7209 20.1727 17.2395 20.0002 16.7899 19.6687Z" fill="#111111"/>
<path d="M12.5205 18.6197L10.5225 22.1163C10.4044 22.3253 10.5044 22.5931 10.7359 22.6658L11.1719 22.8066C11.3762 22.8747 11.5942 22.7566 11.6532 22.5522L12.7703 18.7242C12.8158 18.5698 12.6023 18.4789 12.5205 18.6197Z" fill="#111111"/>
</g>
</g>
</g>
<defs>
<radialGradient id="paint0_radial_6071_18333" cx="0" cy="0" r="1" gradientUnits="userSpaceOnUse" gradientTransform="translate(23.0588 21.5304) rotate(-135) scale(23.7782)">
<stop offset="0.2" stop-color="#7FFF47"/>
<stop offset="0.55" stop-color="#F9FF20"/>
<stop offset="0.8" stop-color="#FFDAC0"/>
<stop offset="1" stop-color="#FC76E3"/>
</radialGradient>
<clipPath id="clip0_6071_18333">
<rect width="28" height="28" fill="white" transform="translate(0 0.736328)"/>
</clipPath>
<clipPath id="clip1_6071_18333">
<rect width="28" height="28" fill="white" transform="translate(0 0.736328)"/>
</clipPath>
</defs>
</svg>
