<svg width="36" height="62" viewBox="0 0 36 62" fill="none" xmlns="http://www.w3.org/2000/svg">
<rect x="1" y="26.2368" width="34" height="34" rx="17" fill="#E9ECEF"/>
<rect x="1" y="26.2368" width="34" height="34" rx="17" stroke="white" stroke-width="2"/>
<path d="M11.1914 38.3579L13.2255 42.0985V44.3801L11.1938 48.1134L11.1914 38.3579Z" fill="#5B57A2"/>
<path d="M19.002 40.7374L20.908 39.5355L24.8088 39.5317L19.002 43.1915V40.7374Z" fill="#D90751"/>
<path d="M18.991 38.3361L19.0018 43.2885L16.9629 41.9997V34.5967L18.991 38.3361Z" fill="#FAB718"/>
<path d="M24.8087 39.5319L20.9077 39.5357L18.991 38.3361L16.9629 34.5967L24.8087 39.5319Z" fill="#ED6F26"/>
<path d="M19.0018 48.1344V45.7317L16.9629 44.4673L16.964 51.8776L19.0018 48.1344Z" fill="#63B22F"/>
<path d="M20.9029 46.9432L13.2254 42.0985L11.1914 38.3579L24.8003 46.9383L20.9029 46.9432Z" fill="#1487C9"/>
<path d="M16.9629 51.8775L19.0004 48.1343L20.9017 46.9434L24.799 46.9385L16.9629 51.8775Z" fill="#017F36"/>
<path d="M11.1953 48.1133L16.9809 44.4671L15.0358 43.2393L13.2271 44.3801L11.1953 48.1133Z" fill="#984995"/>
<rect x="1" y="1.23682" width="34" height="34" rx="17" fill="#E9ECEF"/>
<rect x="1" y="1.23682" width="34" height="34" rx="17" stroke="white" stroke-width="2"/>
<g opacity="0.3">
<path d="M14.6667 18.8333C16.0475 18.8333 17.1667 19.9525 17.1667 21.3333V23C17.1667 24.3808 16.0475 25.5 14.6667 25.5H13C11.6192 25.5 10.5 24.3808 10.5 23V21.3333C10.5 19.9525 11.6192 18.8333 13 18.8333H14.6667Z" fill="#282828"/>
<path d="M14.6667 10.5C16.0475 10.5 17.1667 11.6192 17.1667 13V14.6667C17.1667 16.0475 16.0475 17.1667 14.6667 17.1667H13C11.6192 17.1667 10.5 16.0475 10.5 14.6667V13C10.5 11.6192 11.6192 10.5 13 10.5H14.6667Z" fill="#282828"/>
<path d="M23 10.5C24.3808 10.5 25.5 11.6192 25.5 13V14.6667C25.5 16.0475 24.3808 17.1667 23 17.1667H21.3333C19.9525 17.1667 18.8333 16.0475 18.8333 14.6667V13C18.8333 11.6192 19.9525 10.5 21.3333 10.5H23Z" fill="#282828"/>
</g>
<path d="M21.3327 23.8332C21.7927 23.8332 22.166 24.2065 22.166 24.6665C22.166 25.1265 21.7927 25.4998 21.3327 25.4998C20.8727 25.4998 20.4993 25.1265 20.4993 24.6665C20.4993 24.2065 20.8727 23.8332 21.3327 23.8332Z" fill="#282828"/>
<path d="M24.666 23.8332C25.126 23.8332 25.4993 24.2065 25.4993 24.6665C25.4993 25.1265 25.126 25.4998 24.666 25.4998C24.206 25.4998 23.8327 25.1265 23.8327 24.6665C23.8327 24.2065 24.206 23.8332 24.666 23.8332Z" fill="#282828"/>
<path d="M14.666 20.4998C15.126 20.4998 15.4993 20.8732 15.4993 21.3332V22.9998C15.4993 23.4598 15.126 23.8332 14.666 23.8332H12.9993C12.5393 23.8332 12.166 23.4598 12.166 22.9998V21.3332C12.166 20.8732 12.5393 20.4998 12.9993 20.4998H14.666Z" fill="#282828"/>
<path d="M19.666 22.1665C20.126 22.1665 20.4993 22.5398 20.4993 22.9998C20.4993 23.4598 20.126 23.8332 19.666 23.8332C19.206 23.8332 18.8327 23.4598 18.8327 22.9998C18.8327 22.5398 19.206 22.1665 19.666 22.1665Z" fill="#282828"/>
<path d="M22.9993 22.1665C23.4593 22.1665 23.8327 22.5398 23.8327 22.9998C23.8327 23.4598 23.4593 23.8332 22.9993 23.8332C22.5393 23.8332 22.166 23.4598 22.166 22.9998C22.166 22.5398 22.5393 22.1665 22.9993 22.1665Z" fill="#282828"/>
<path d="M21.3327 20.4998C21.7927 20.4998 22.166 20.8732 22.166 21.3332C22.166 21.7932 21.7927 22.1665 21.3327 22.1665C20.8727 22.1665 20.4993 21.7932 20.4993 21.3332C20.4993 20.8732 20.8727 20.4998 21.3327 20.4998Z" fill="#282828"/>
<path d="M24.666 20.4998C25.126 20.4998 25.4993 20.8732 25.4993 21.3332C25.4993 21.7932 25.126 22.1665 24.666 22.1665C24.206 22.1665 23.8327 21.7932 23.8327 21.3332C23.8327 20.8732 24.206 20.4998 24.666 20.4998Z" fill="#282828"/>
<path d="M19.666 18.8332C20.126 18.8332 20.4993 19.2065 20.4993 19.6665C20.4993 20.1265 20.126 20.4998 19.666 20.4998C19.206 20.4998 18.8327 20.1265 18.8327 19.6665C18.8327 19.2065 19.206 18.8332 19.666 18.8332Z" fill="#282828"/>
<path d="M22.9993 18.8332C23.4593 18.8332 23.8327 19.2065 23.8327 19.6665C23.8327 20.1265 23.4593 20.4998 22.9993 20.4998C22.5393 20.4998 22.166 20.1265 22.166 19.6665C22.166 19.2065 22.5393 18.8332 22.9993 18.8332Z" fill="#282828"/>
<path d="M14.666 12.1665C15.126 12.1665 15.4993 12.5398 15.4993 12.9998V14.6665C15.4993 15.1265 15.126 15.4998 14.666 15.4998H12.9993C12.5393 15.4998 12.166 15.1265 12.166 14.6665V12.9998C12.166 12.5398 12.5393 12.1665 12.9993 12.1665H14.666Z" fill="#282828"/>
<path d="M22.9993 12.1665C23.4593 12.1665 23.8327 12.5398 23.8327 12.9998V14.6665C23.8327 15.1265 23.4593 15.4998 22.9993 15.4998H21.3327C20.8727 15.4998 20.4993 15.1265 20.4993 14.6665V12.9998C20.4993 12.5398 20.8727 12.1665 21.3327 12.1665H22.9993Z" fill="#282828"/>
</svg>
