<svg width="36" height="37" viewBox="0 0 36 37" fill="none" xmlns="http://www.w3.org/2000/svg">
<rect x="1" y="1.23682" width="34" height="34" rx="17" fill="#E9ECEF"/>
<rect x="1" y="1.23682" width="34" height="34" rx="17" stroke="white" stroke-width="2"/>
<path opacity="0.3" d="M26.5685 13.4777L23.9819 10.9152C23.6177 10.5552 22.9993 10.8135 22.9993 11.3252V12.4035H11.3327C10.4118 12.4035 9.66602 13.1493 9.66602 14.0702C9.66602 14.991 10.4118 15.7368 11.3327 15.7368H22.9993V16.8152C22.9993 17.3277 23.6177 17.5852 23.981 17.2243L26.5677 14.6618C26.8977 14.336 26.8977 13.8043 26.5685 13.4777Z" fill="#282828"/>
<path d="M9.91289 22.9952L12.4996 25.5577C12.8637 25.9186 13.4812 25.6602 13.4812 25.1486V24.0702H25.1479C26.0687 24.0702 26.8146 23.3244 26.8146 22.4036C26.8146 21.4827 26.0687 20.7369 25.1479 20.7369H13.4812V19.6586C13.4812 19.1461 12.8629 18.8886 12.4996 19.2494L9.91289 21.8119C9.58372 22.1378 9.58372 22.6694 9.91289 22.9952Z" fill="#282828"/>
</svg>
