<svg width="40" height="40" viewBox="0 0 40 40" fill="none" xmlns="http://www.w3.org/2000/svg">
<rect width="40" height="40" rx="20" fill="#282828" fill-opacity="0.04"/>
<path opacity="0.35" d="M27 18H13V23H27V18Z" fill="#6C757D"/>
<path d="M26 13H24V16H16V13H14C12.343 13 11 14.343 11 16V25H29V16C29 14.343 27.657 13 26 13ZM16 20C15.448 20 15 19.552 15 19C15 18.448 15.448 18 16 18C16.552 18 17 18.448 17 19C17 19.552 16.552 20 16 20ZM20 20C19.448 20 19 19.552 19 19C19 18.448 19.448 18 20 18C20.552 18 21 18.448 21 19C21 19.552 20.552 20 20 20ZM24 20C23.448 20 23 19.552 23 19C23 18.448 23.448 18 24 18C24.552 18 25 18.448 25 19C25 19.552 24.552 20 24 20ZM16 23C15.448 23 15 22.552 15 22C15 21.448 15.448 21 16 21C16.552 21 17 21.448 17 22C17 22.552 16.552 23 16 23ZM20 23C19.448 23 19 22.552 19 22C19 21.448 19.448 21 20 21C20.552 21 21 21.448 21 22C21 22.552 20.552 23 20 23ZM24 23C23.448 23 23 22.552 23 22C23 21.448 23.448 21 24 21C24.552 21 25 21.448 25 22C25 22.552 24.552 23 24 23Z" fill="#6C757D"/>
<path opacity="0.3" d="M21 25C21 25.552 20.552 26 20 26C19.448 26 19 25.552 19 25H11V26C11 27.657 12.343 29 14 29H26C27.657 29 29 27.657 29 26V25H21Z" fill="#282828"/>
<path opacity="0.3" d="M16 16.9998V11.7078C16 10.9228 16.826 10.4128 17.528 10.7638C17.825 10.9128 18.175 10.9128 18.472 10.7638L19.528 10.2358C19.825 10.0868 20.175 10.0868 20.472 10.2358L21.528 10.7638C21.825 10.9128 22.175 10.9128 22.472 10.7638C23.174 10.4128 24 10.9228 24 11.7078V16.9998H16Z" fill="#282828"/>
<path d="M20 26C20.5523 26 21 25.5523 21 25C21 24.4477 20.5523 24 20 24C19.4477 24 19 24.4477 19 25C19 25.5523 19.4477 26 20 26Z" fill="#282828"/>
</svg>
