<svg width="40" height="40" viewBox="0 0 40 40" fill="none" xmlns="http://www.w3.org/2000/svg">
<rect width="40" height="40" rx="20" fill="#DC3545" fill-opacity="0.12"/>
<path d="M23.5343 14.7019C24.017 14.2192 24.8021 14.2192 25.2848 14.7019L25.2983 14.7154C25.781 15.198 25.7809 15.982 25.2983 16.4647L21.7629 19.9989L25.2983 23.5343C25.781 24.017 25.781 24.8021 25.2983 25.2848L25.2848 25.2983C24.8021 25.781 24.017 25.781 23.5343 25.2983L19.9989 21.7629L16.4647 25.2983C15.9819 25.7807 15.198 25.7809 14.7154 25.2983L14.7019 25.2848C14.2192 24.8021 14.2192 24.017 14.7019 23.5343L18.2361 19.9989L14.7019 16.4647C14.2193 15.982 14.2192 15.198 14.7019 14.7154L14.7154 14.7019C15.198 14.2192 15.982 14.2193 16.4647 14.7019L19.9989 18.2361L23.5343 14.7019Z" fill="#DC3545"/>
</svg>
