<svg width="25" height="24" viewBox="0 0 25 24" fill="none" xmlns="http://www.w3.org/2000/svg">
<path opacity="0.3" d="M12.5 22C18.0228 22 22.5 17.5228 22.5 12C22.5 6.47715 18.0228 2 12.5 2C6.97715 2 2.5 6.47715 2.5 12C2.5 17.5228 6.97715 22 12.5 22Z" fill="#E7E7E7"/>
<path d="M17.5 13H7.5C6.948 13 6.5 12.552 6.5 12C6.5 11.448 6.948 11 7.5 11H17.5C18.052 11 18.5 11.448 18.5 12C18.5 12.552 18.052 13 17.5 13Z" fill="#E7E7E7"/>
<path d="M11.5 17V7C11.5 6.448 11.948 6 12.5 6C13.052 6 13.5 6.448 13.5 7V17C13.5 17.552 13.052 18 12.5 18C11.948 18 11.5 17.552 11.5 17Z" fill="#E7E7E7"/>
</svg>
