<svg width="24" height="24" viewBox="0 0 24 24" fill="none" xmlns="http://www.w3.org/2000/svg">
<rect width="24" height="24" rx="7" fill="#F05160"/>
<g opacity="0.5">
<path d="M16.0837 15.5002H7.91699C6.95041 15.5002 6.16699 14.7167 6.16699 13.7502V9.0835C6.16699 8.11691 6.95041 7.3335 7.91699 7.3335H16.0837C17.0502 7.3335 17.8337 8.11691 17.8337 9.0835V13.7502C17.8337 14.7167 17.0502 15.5002 16.0837 15.5002Z" fill="white"/>
<path d="M16.0837 15.5002H7.91699C6.95041 15.5002 6.16699 14.7167 6.16699 13.7502V9.0835C6.16699 8.11691 6.95041 7.3335 7.91699 7.3335H16.0837C17.0502 7.3335 17.8337 8.11691 17.8337 9.0835V13.7502C17.8337 14.7167 17.0502 15.5002 16.0837 15.5002Z" fill="white" fill-opacity="0.2"/>
<path d="M16.0837 15.5002H7.91699C6.95041 15.5002 6.16699 14.7167 6.16699 13.7502V9.0835C6.16699 8.11691 6.95041 7.3335 7.91699 7.3335H16.0837C17.0502 7.3335 17.8337 8.11691 17.8337 9.0835V13.7502C17.8337 14.7167 17.0502 15.5002 16.0837 15.5002Z" fill="white" fill-opacity="0.2"/>
</g>
<path d="M17.5413 15.5C17.4387 15.5 6.56067 15.5 6.45801 15.5C5.97501 15.5 5.58301 15.892 5.58301 16.375C5.58301 16.858 5.97501 17.25 6.45801 17.25C6.56067 17.25 17.4387 17.25 17.5413 17.25C18.0243 17.25 18.4163 16.858 18.4163 16.375C18.4163 15.892 18.0243 15.5 17.5413 15.5Z" fill="white"/>
<path d="M17.5413 15.5C17.4387 15.5 6.56067 15.5 6.45801 15.5C5.97501 15.5 5.58301 15.892 5.58301 16.375C5.58301 16.858 5.97501 17.25 6.45801 17.25C6.56067 17.25 17.4387 17.25 17.5413 17.25C18.0243 17.25 18.4163 16.858 18.4163 16.375C18.4163 15.892 18.0243 15.5 17.5413 15.5Z" fill="white" fill-opacity="0.2"/>
<path d="M17.5413 15.5C17.4387 15.5 6.56067 15.5 6.45801 15.5C5.97501 15.5 5.58301 15.892 5.58301 16.375C5.58301 16.858 5.97501 17.25 6.45801 17.25C6.56067 17.25 17.4387 17.25 17.5413 17.25C18.0243 17.25 18.4163 16.858 18.4163 16.375C18.4163 15.892 18.0243 15.5 17.5413 15.5Z" fill="white" fill-opacity="0.2"/>
<path d="M13.7695 11.6162L11.3213 9.168C11.141 8.98775 10.833 9.11491 10.833 9.36983V12.8803C10.833 13.1125 11.0903 13.2525 11.2857 13.1265L12.009 12.6581L12.4547 13.5267C12.5591 13.7297 12.8082 13.8096 13.0112 13.7052C13.2142 13.6007 13.2941 13.3517 13.1897 13.1487L12.7516 12.297L13.6225 12.1109C13.8506 12.0613 13.9334 11.7807 13.7695 11.6162Z" fill="white"/>
<path d="M13.7695 11.6162L11.3213 9.168C11.141 8.98775 10.833 9.11491 10.833 9.36983V12.8803C10.833 13.1125 11.0903 13.2525 11.2857 13.1265L12.009 12.6581L12.4547 13.5267C12.5591 13.7297 12.8082 13.8096 13.0112 13.7052C13.2142 13.6007 13.2941 13.3517 13.1897 13.1487L12.7516 12.297L13.6225 12.1109C13.8506 12.0613 13.9334 11.7807 13.7695 11.6162Z" fill="white" fill-opacity="0.2"/>
<path d="M13.7695 11.6162L11.3213 9.168C11.141 8.98775 10.833 9.11491 10.833 9.36983V12.8803C10.833 13.1125 11.0903 13.2525 11.2857 13.1265L12.009 12.6581L12.4547 13.5267C12.5591 13.7297 12.8082 13.8096 13.0112 13.7052C13.2142 13.6007 13.2941 13.3517 13.1897 13.1487L12.7516 12.297L13.6225 12.1109C13.8506 12.0613 13.9334 11.7807 13.7695 11.6162Z" fill="white" fill-opacity="0.2"/>
</svg>
