<svg width="24" height="24" viewBox="0 0 24 24" fill="none" xmlns="http://www.w3.org/2000/svg">
<rect width="24" height="24" rx="7" fill="#8A8A8A"/>
<g opacity="0.5">
<path d="M14.3335 16.0412C14.729 15.8131 15.1846 15.7938 15.5789 15.9455C15.9079 16.0721 16.2842 15.9671 16.5076 15.6947C16.906 15.2088 17.2274 14.6575 17.4532 14.0584C17.5821 13.716 17.4602 13.3398 17.1807 13.1029C16.8663 12.8381 16.6668 12.4438 16.6668 11.9998C16.6668 11.5559 16.8663 11.1616 17.1802 10.8956C17.4596 10.6588 17.5821 10.2831 17.4526 9.94009C17.2268 9.34159 16.906 8.78975 16.507 8.30384C16.2836 8.03142 15.9073 7.92642 15.5783 8.053C15.1846 8.20584 14.729 8.18659 14.3335 7.9585C13.9368 7.72925 13.6918 7.3425 13.6277 6.92309C13.5752 6.58009 13.3033 6.30592 12.9609 6.24759C12.6482 6.1945 12.3274 6.1665 12.0002 6.1665C11.6729 6.1665 11.3521 6.1945 11.0394 6.24759C10.697 6.30592 10.4257 6.58009 10.3727 6.92309C10.3085 7.3425 10.0635 7.72925 9.66683 7.9585C9.27133 8.18659 8.81575 8.20584 8.42141 8.05359C8.09241 7.927 7.71616 8.032 7.49275 8.30442C7.09433 8.79034 6.7735 9.34159 6.54775 9.94067C6.41825 10.2831 6.54075 10.6593 6.82016 10.8956C7.134 11.1616 7.3335 11.5559 7.3335 11.9998C7.3335 12.4438 7.134 12.8381 6.82016 13.1041C6.54075 13.3409 6.41825 13.7166 6.54775 14.0596C6.7735 14.6581 7.09433 15.2099 7.49333 15.6958C7.71675 15.9683 8.093 16.0733 8.422 15.9467C8.81575 15.7938 9.27133 15.8131 9.66683 16.0412C10.0635 16.2704 10.3085 16.6572 10.3727 17.0766C10.4252 17.4196 10.697 17.6938 11.0394 17.7521C11.3521 17.8052 11.6729 17.8332 12.0002 17.8332C12.3274 17.8332 12.6482 17.8052 12.9609 17.7521C13.3033 17.6943 13.5752 17.4202 13.6277 17.0766C13.6918 16.6572 13.9368 16.2704 14.3335 16.0412Z" fill="white"/>
<path d="M14.3335 16.0412C14.729 15.8131 15.1846 15.7938 15.5789 15.9455C15.9079 16.0721 16.2842 15.9671 16.5076 15.6947C16.906 15.2088 17.2274 14.6575 17.4532 14.0584C17.5821 13.716 17.4602 13.3398 17.1807 13.1029C16.8663 12.8381 16.6668 12.4438 16.6668 11.9998C16.6668 11.5559 16.8663 11.1616 17.1802 10.8956C17.4596 10.6588 17.5821 10.2831 17.4526 9.94009C17.2268 9.34159 16.906 8.78975 16.507 8.30384C16.2836 8.03142 15.9073 7.92642 15.5783 8.053C15.1846 8.20584 14.729 8.18659 14.3335 7.9585C13.9368 7.72925 13.6918 7.3425 13.6277 6.92309C13.5752 6.58009 13.3033 6.30592 12.9609 6.24759C12.6482 6.1945 12.3274 6.1665 12.0002 6.1665C11.6729 6.1665 11.3521 6.1945 11.0394 6.24759C10.697 6.30592 10.4257 6.58009 10.3727 6.92309C10.3085 7.3425 10.0635 7.72925 9.66683 7.9585C9.27133 8.18659 8.81575 8.20584 8.42141 8.05359C8.09241 7.927 7.71616 8.032 7.49275 8.30442C7.09433 8.79034 6.7735 9.34159 6.54775 9.94067C6.41825 10.2831 6.54075 10.6593 6.82016 10.8956C7.134 11.1616 7.3335 11.5559 7.3335 11.9998C7.3335 12.4438 7.134 12.8381 6.82016 13.1041C6.54075 13.3409 6.41825 13.7166 6.54775 14.0596C6.7735 14.6581 7.09433 15.2099 7.49333 15.6958C7.71675 15.9683 8.093 16.0733 8.422 15.9467C8.81575 15.7938 9.27133 15.8131 9.66683 16.0412C10.0635 16.2704 10.3085 16.6572 10.3727 17.0766C10.4252 17.4196 10.697 17.6938 11.0394 17.7521C11.3521 17.8052 11.6729 17.8332 12.0002 17.8332C12.3274 17.8332 12.6482 17.8052 12.9609 17.7521C13.3033 17.6943 13.5752 17.4202 13.6277 17.0766C13.6918 16.6572 13.9368 16.2704 14.3335 16.0412Z" fill="white" fill-opacity="0.2"/>
<path d="M14.3335 16.0412C14.729 15.8131 15.1846 15.7938 15.5789 15.9455C15.9079 16.0721 16.2842 15.9671 16.5076 15.6947C16.906 15.2088 17.2274 14.6575 17.4532 14.0584C17.5821 13.716 17.4602 13.3398 17.1807 13.1029C16.8663 12.8381 16.6668 12.4438 16.6668 11.9998C16.6668 11.5559 16.8663 11.1616 17.1802 10.8956C17.4596 10.6588 17.5821 10.2831 17.4526 9.94009C17.2268 9.34159 16.906 8.78975 16.507 8.30384C16.2836 8.03142 15.9073 7.92642 15.5783 8.053C15.1846 8.20584 14.729 8.18659 14.3335 7.9585C13.9368 7.72925 13.6918 7.3425 13.6277 6.92309C13.5752 6.58009 13.3033 6.30592 12.9609 6.24759C12.6482 6.1945 12.3274 6.1665 12.0002 6.1665C11.6729 6.1665 11.3521 6.1945 11.0394 6.24759C10.697 6.30592 10.4257 6.58009 10.3727 6.92309C10.3085 7.3425 10.0635 7.72925 9.66683 7.9585C9.27133 8.18659 8.81575 8.20584 8.42141 8.05359C8.09241 7.927 7.71616 8.032 7.49275 8.30442C7.09433 8.79034 6.7735 9.34159 6.54775 9.94067C6.41825 10.2831 6.54075 10.6593 6.82016 10.8956C7.134 11.1616 7.3335 11.5559 7.3335 11.9998C7.3335 12.4438 7.134 12.8381 6.82016 13.1041C6.54075 13.3409 6.41825 13.7166 6.54775 14.0596C6.7735 14.6581 7.09433 15.2099 7.49333 15.6958C7.71675 15.9683 8.093 16.0733 8.422 15.9467C8.81575 15.7938 9.27133 15.8131 9.66683 16.0412C10.0635 16.2704 10.3085 16.6572 10.3727 17.0766C10.4252 17.4196 10.697 17.6938 11.0394 17.7521C11.3521 17.8052 11.6729 17.8332 12.0002 17.8332C12.3274 17.8332 12.6482 17.8052 12.9609 17.7521C13.3033 17.6943 13.5752 17.4202 13.6277 17.0766C13.6918 16.6572 13.9368 16.2704 14.3335 16.0412Z" fill="white" fill-opacity="0.2"/>
</g>
<path d="M12.0003 9.6665C10.7117 9.6665 9.66699 10.7113 9.66699 11.9998C9.66699 13.2884 10.7117 14.3332 12.0003 14.3332C13.2889 14.3332 14.3337 13.2884 14.3337 11.9998C14.3337 10.7113 13.2889 9.6665 12.0003 9.6665Z" fill="white"/>
<path d="M12.0003 9.6665C10.7117 9.6665 9.66699 10.7113 9.66699 11.9998C9.66699 13.2884 10.7117 14.3332 12.0003 14.3332C13.2889 14.3332 14.3337 13.2884 14.3337 11.9998C14.3337 10.7113 13.2889 9.6665 12.0003 9.6665Z" fill="white" fill-opacity="0.2"/>
<path d="M12.0003 9.6665C10.7117 9.6665 9.66699 10.7113 9.66699 11.9998C9.66699 13.2884 10.7117 14.3332 12.0003 14.3332C13.2889 14.3332 14.3337 13.2884 14.3337 11.9998C14.3337 10.7113 13.2889 9.6665 12.0003 9.6665Z" fill="white" fill-opacity="0.2"/>
</svg>
