<svg width="24" height="24" viewBox="0 0 24 24" fill="none" xmlns="http://www.w3.org/2000/svg">
<rect width="24" height="24" rx="7" fill="#51B8EB"/>
<path opacity="0.5" d="M17.6883 13.313L16.6692 14.2422L16.633 15.6206C16.6272 15.9082 16.4172 16.148 16.1354 16.1958L14.7751 16.4233L14.0022 17.5678C13.8406 17.8076 13.5349 17.8974 13.2707 17.7836L12.0002 17.2388L10.7297 17.7842C10.466 17.898 10.1603 17.8081 9.99817 17.5684L9.22526 16.4239L7.86492 16.1964C7.58317 16.1486 7.37376 15.9088 7.36734 15.6212L7.33117 14.2428L6.31209 13.3136C6.09626 13.1216 6.05426 12.8043 6.20417 12.5581L6.92342 11.3775L6.56409 10.0463C6.49176 9.77039 6.62359 9.47697 6.88142 9.35097L8.12217 8.74547L8.54159 7.43297C8.63142 7.15705 8.90151 6.98964 9.18267 7.01939L10.5558 7.18739L11.6169 6.30655C11.8386 6.12047 12.1623 6.12047 12.384 6.30655L13.4451 7.18739L14.8177 7.01939C15.0994 6.98964 15.3689 7.15705 15.4588 7.43297L15.8782 8.74547L17.1189 9.35097C17.3768 9.47697 17.5086 9.77039 17.4368 10.0463L17.0769 11.3769L17.7962 12.5576C17.9461 12.8031 17.9041 13.1211 17.6883 13.313Z" fill="white"/>
<path d="M11.6078 14.3335C11.4217 14.3335 11.2351 14.274 11.077 14.1509L9.66124 13.049C9.28382 12.7556 9.21616 12.2119 9.50957 11.8351C9.80241 11.4583 10.3467 11.39 10.7235 11.6834L11.4906 12.2802L12.9845 10.5494C13.2972 10.1878 13.8432 10.1487 14.2048 10.4596C14.5665 10.7717 14.6062 11.3183 14.2947 11.6799L12.2635 14.0331C12.0932 14.2309 11.8511 14.3335 11.6078 14.3335Z" fill="white"/>
</svg>
