<svg width="24" height="24" viewBox="0 0 24 24" fill="none" xmlns="http://www.w3.org/2000/svg">
<rect width="24" height="24" rx="7" fill="#44B37A"/>
<g clip-path="url(#clip0_5869_12272)">
<path d="M11.1257 17.2499C11.0692 17.2499 11.0114 17.2441 10.9537 17.2324C10.48 17.1379 10.1726 16.6765 10.2671 16.2028L12.0171 7.45285C12.1116 6.97918 12.5718 6.66943 13.0467 6.76627C13.5203 6.86077 13.8277 7.32218 13.7332 7.79585L11.9832 16.5458C11.8998 16.9623 11.5347 17.2499 11.1257 17.2499Z" fill="white"/>
<path d="M11.1257 17.2499C11.0692 17.2499 11.0114 17.2441 10.9537 17.2324C10.48 17.1379 10.1726 16.6765 10.2671 16.2028L12.0171 7.45285C12.1116 6.97918 12.5718 6.66943 13.0467 6.76627C13.5203 6.86077 13.8277 7.32218 13.7332 7.79585L11.9832 16.5458C11.8998 16.9623 11.5347 17.2499 11.1257 17.2499Z" fill="white" fill-opacity="0.2"/>
<path d="M11.1257 17.2499C11.0692 17.2499 11.0114 17.2441 10.9537 17.2324C10.48 17.1379 10.1726 16.6765 10.2671 16.2028L12.0171 7.45285C12.1116 6.97918 12.5718 6.66943 13.0467 6.76627C13.5203 6.86077 13.8277 7.32218 13.7332 7.79585L11.9832 16.5458C11.8998 16.9623 11.5347 17.2499 11.1257 17.2499Z" fill="white" fill-opacity="0.2"/>
<g opacity="0.5">
<path d="M16.3743 15.5001C16.2075 15.5001 16.0389 15.4523 15.8895 15.3531C15.4876 15.0854 15.3791 14.5417 15.6469 14.1398L17.0731 12.0001L15.6469 9.86046C15.3791 9.45855 15.4876 8.91488 15.8895 8.64713C16.2915 8.3788 16.8345 8.48788 17.1029 8.8898L18.8529 11.5148C19.0489 11.8088 19.0489 12.1915 18.8529 12.4855L17.1029 15.1105C16.9343 15.3636 16.6566 15.5001 16.3743 15.5001Z" fill="white"/>
<path d="M16.3743 15.5001C16.2075 15.5001 16.0389 15.4523 15.8895 15.3531C15.4876 15.0854 15.3791 14.5417 15.6469 14.1398L17.0731 12.0001L15.6469 9.86046C15.3791 9.45855 15.4876 8.91488 15.8895 8.64713C16.2915 8.3788 16.8345 8.48788 17.1029 8.8898L18.8529 11.5148C19.0489 11.8088 19.0489 12.1915 18.8529 12.4855L17.1029 15.1105C16.9343 15.3636 16.6566 15.5001 16.3743 15.5001Z" fill="white" fill-opacity="0.2"/>
<path d="M16.3743 15.5001C16.2075 15.5001 16.0389 15.4523 15.8895 15.3531C15.4876 15.0854 15.3791 14.5417 15.6469 14.1398L17.0731 12.0001L15.6469 9.86046C15.3791 9.45855 15.4876 8.91488 15.8895 8.64713C16.2915 8.3788 16.8345 8.48788 17.1029 8.8898L18.8529 11.5148C19.0489 11.8088 19.0489 12.1915 18.8529 12.4855L17.1029 15.1105C16.9343 15.3636 16.6566 15.5001 16.3743 15.5001Z" fill="white" fill-opacity="0.2"/>
</g>
<g opacity="0.5">
<path d="M7.62519 15.5001C7.34227 15.5001 7.06519 15.3636 6.89602 15.1105L5.14602 12.4855C4.95002 12.1915 4.95002 11.8088 5.14602 11.5148L6.89602 8.8898C7.16377 8.48788 7.70686 8.3788 8.10936 8.64713C8.51127 8.91488 8.61977 9.45855 8.35202 9.86046L6.92636 12.0001L8.35261 14.1398C8.62036 14.5417 8.51186 15.0854 8.10994 15.3531C7.96061 15.4523 7.79202 15.5001 7.62519 15.5001Z" fill="white"/>
<path d="M7.62519 15.5001C7.34227 15.5001 7.06519 15.3636 6.89602 15.1105L5.14602 12.4855C4.95002 12.1915 4.95002 11.8088 5.14602 11.5148L6.89602 8.8898C7.16377 8.48788 7.70686 8.3788 8.10936 8.64713C8.51127 8.91488 8.61977 9.45855 8.35202 9.86046L6.92636 12.0001L8.35261 14.1398C8.62036 14.5417 8.51186 15.0854 8.10994 15.3531C7.96061 15.4523 7.79202 15.5001 7.62519 15.5001Z" fill="white" fill-opacity="0.2"/>
<path d="M7.62519 15.5001C7.34227 15.5001 7.06519 15.3636 6.89602 15.1105L5.14602 12.4855C4.95002 12.1915 4.95002 11.8088 5.14602 11.5148L6.89602 8.8898C7.16377 8.48788 7.70686 8.3788 8.10936 8.64713C8.51127 8.91488 8.61977 9.45855 8.35202 9.86046L6.92636 12.0001L8.35261 14.1398C8.62036 14.5417 8.51186 15.0854 8.10994 15.3531C7.96061 15.4523 7.79202 15.5001 7.62519 15.5001Z" fill="white" fill-opacity="0.2"/>
</g>
</g>
<defs>
<clipPath id="clip0_5869_12272">
<rect width="14" height="14" fill="white" transform="translate(5 5)"/>
</clipPath>
</defs>
</svg>
