<svg width="24" height="24" viewBox="0 0 24 24" fill="none" xmlns="http://www.w3.org/2000/svg">
<rect width="24" height="24" rx="7" fill="#F4973F"/>
<path opacity="0.5" d="M16.0833 7.33333H14.3333C14.3333 6.0465 13.2868 5 12 5C10.7132 5 9.66667 6.0465 9.66667 7.33333H7.91667C7.27208 7.33333 6.75 7.85542 6.75 8.5V16.0833C6.75 17.0499 7.53342 17.8333 8.5 17.8333H15.5C16.4666 17.8333 17.25 17.0499 17.25 16.0833V8.5C17.25 7.85542 16.7279 7.33333 16.0833 7.33333ZM10.8333 7.33333C10.8333 6.68992 11.3566 6.16667 12 6.16667C12.6434 6.16667 13.1667 6.68992 13.1667 7.33333H10.8333Z" fill="white"/>
<path d="M14.042 10.8335C14.5252 10.8335 14.917 10.4417 14.917 9.9585C14.917 9.47525 14.5252 9.0835 14.042 9.0835C13.5587 9.0835 13.167 9.47525 13.167 9.9585C13.167 10.4417 13.5587 10.8335 14.042 10.8335Z" fill="white"/>
<path d="M9.95801 10.8335C10.4413 10.8335 10.833 10.4417 10.833 9.9585C10.833 9.47525 10.4413 9.0835 9.95801 9.0835C9.47476 9.0835 9.08301 9.47525 9.08301 9.9585C9.08301 10.4417 9.47476 10.8335 9.95801 10.8335Z" fill="white"/>
</svg>
