<svg width="212" height="212" viewBox="0 0 212 212" fill="none" xmlns="http://www.w3.org/2000/svg">
<path d="M51.7471 5.89697L45.8503 5.89697V2.00508C45.8503 0.897798 46.7479 0.000166893 47.8552 0.000166893L51.7471 0.000166893V5.89697Z" fill="black"/>
<path d="M57.4666 0H51.5698V5.89681H57.4666V0Z" fill="black"/>
<path d="M63.1868 0H57.29V5.89681H63.1868V0Z" fill="black"/>
<path d="M68.9066 0H63.0098V5.89681H68.9066V0Z" fill="black"/>
<path d="M68.7295 5.89697V0.000166893H72.6214C73.7287 0.000166893 74.6263 0.897798 74.6263 2.00508V5.89697H68.7295Z" fill="black"/>
<path d="M85.8892 1.68649V4.21622C85.8892 5.14791 86.644 5.89681 87.5756 5.89681H90.1054C91.043 5.89681 91.7919 5.14201 91.7919 4.21032V1.68649C91.786 0.748894 91.0312 0 90.0995 0H87.5756C86.644 0 85.8892 0.754791 85.8892 1.68649Z" fill="black"/>
<path d="M103.226 5.89697L99.3342 5.89697C98.2269 5.89697 97.3293 4.99934 97.3293 3.89206V2.00508C97.3293 0.897798 98.2269 0.000166893 99.3342 0.000166893L103.226 0.000166893V5.89697Z" fill="black"/>
<path d="M108.946 0H103.049V5.89681H108.946V0Z" fill="black"/>
<path d="M108.769 5.89697V0.000166893H112.661C113.768 0.000166893 114.666 0.897798 114.666 2.00508V5.89697H108.769Z" fill="black"/>
<path d="M126.105 5.89648L120.209 5.89648V2.00459C120.209 0.897309 121.106 -0.000321388 122.214 -0.000321388L126.105 -0.000321388V5.89648Z" fill="black"/>
<path d="M125.929 5.89697V0.000166893H129.821C130.928 0.000166893 131.826 0.897798 131.826 2.00508V5.89697H125.929Z" fill="black"/>
<path d="M143.265 5.89648L137.368 5.89648V2.00459C137.368 0.897309 138.266 -0.000321388 139.373 -0.000321388L143.265 -0.000321388V5.89648Z" fill="black"/>
<path d="M143.088 5.89697V2.00508C143.088 0.897798 143.986 0.000166893 145.093 0.000166893H146.98C148.088 0.000166893 148.985 0.897798 148.985 2.00508V5.89697H143.088Z" fill="black"/>
<path d="M160.248 1.68649V4.21622C160.248 5.14791 161.003 5.89681 161.935 5.89681H164.464C165.402 5.89681 166.151 5.14201 166.151 4.21032V1.68649C166.145 0.748894 165.39 0 164.458 0H161.935C161.003 0 160.248 0.754791 160.248 1.68649Z" fill="black"/>
<path d="M51.7469 5.71973H45.8501V11.6165H51.7469V5.71973Z" fill="black"/>
<path d="M57.4666 5.71973H51.5698V11.6165H57.4666V5.71973Z" fill="black"/>
<path d="M68.9062 5.71973V11.6165H65.0144C63.9071 11.6165 63.0094 10.7189 63.0094 9.61162V5.71973H68.9062Z" fill="black"/>
<path d="M74.6263 5.71973H68.7295V11.6165H74.6263V5.71973Z" fill="black"/>
<path d="M78.5479 11.4989V11.6169H80.3464V9.81836H80.2284C80.2284 10.7501 79.4737 11.4989 78.5479 11.4989Z" fill="black"/>
<path d="M80.1694 11.6167V7.72481C80.1694 6.61752 81.0671 5.71989 82.1743 5.71989H84.0613C85.1686 5.71989 86.0662 6.61752 86.0662 7.72481V11.6167H80.1694Z" fill="black"/>
<path d="M91.6094 7.40621V9.93594C91.6094 10.8676 92.3642 11.6165 93.2959 11.6165H95.8256C96.7632 11.6165 97.5121 10.8617 97.5121 9.93005V7.40621C97.5062 6.46862 96.7514 5.71973 95.8197 5.71973H93.2959C92.3642 5.71973 91.6094 6.47452 91.6094 7.40621Z" fill="black"/>
<path d="M114.666 5.71973H108.769V11.6165H114.666V5.71973Z" fill="black"/>
<path d="M118.587 11.4989V11.6169H120.385V9.81836H120.268C120.268 10.7501 119.513 11.4989 118.587 11.4989Z" fill="black"/>
<path d="M126.106 5.71973H120.209V11.6165H126.106V5.71973Z" fill="black"/>
<path d="M125.929 5.71973H131.826V9.61162C131.826 10.7189 130.928 11.6165 129.821 11.6165H125.929V5.71973Z" fill="black"/>
<path d="M143.265 5.71973H137.369V11.6165H143.265V5.71973Z" fill="black"/>
<path d="M154.705 11.6167H148.808V7.72481C148.808 6.61752 149.706 5.71989 150.813 5.71989L154.705 5.71989V11.6167Z" fill="black"/>
<path d="M154.528 11.6167V7.72481C154.528 6.61752 155.426 5.71989 156.533 5.71989H158.42C159.527 5.71989 160.425 6.61752 160.425 7.72481V11.6167H154.528Z" fill="black"/>
<path d="M51.7466 11.4399V17.3367H47.8547C46.7474 17.3367 45.8498 16.4391 45.8498 15.3318V11.4399H51.7466Z" fill="black"/>
<path d="M51.5698 11.4399H57.4666V15.3318C57.4666 16.4391 56.569 17.3367 55.4617 17.3367H51.5698V11.4399Z" fill="black"/>
<path d="M74.6265 11.4399V17.3367H70.7346C69.6273 17.3367 68.7297 16.4391 68.7297 15.3318V11.4399H74.6265Z" fill="black"/>
<path d="M80.3465 11.4399H74.4497V17.3367H80.3465V11.4399Z" fill="black"/>
<path d="M86.0662 11.4399H80.1694V17.3367H86.0662V11.4399Z" fill="black"/>
<path d="M85.8892 17.3369V11.4401H89.7811C90.8883 11.4401 91.786 12.3377 91.786 13.445V17.3369H85.8892Z" fill="black"/>
<path d="M114.666 11.4399V17.3367H110.774C109.666 17.3367 108.769 16.4391 108.769 15.3318V11.4399H114.666Z" fill="black"/>
<path d="M120.386 11.4399H114.489V17.3367H120.386V11.4399Z" fill="black"/>
<path d="M126.106 11.4399H120.209V17.3367H126.106V11.4399Z" fill="black"/>
<path d="M135.747 17.2187V17.3366H137.546V15.5381H137.428C137.428 16.4698 136.673 17.2187 135.747 17.2187Z" fill="black"/>
<path d="M143.265 11.4399H137.369V17.3367H143.265V11.4399Z" fill="black"/>
<path d="M154.705 11.4399V15.3318C154.705 16.4391 153.807 17.3367 152.7 17.3367H150.813C149.706 17.3367 148.808 16.4391 148.808 15.3318V11.4399H154.705Z" fill="black"/>
<path d="M158.626 17.2187V17.3366H160.425V15.5381H160.307C160.307 16.4698 159.552 17.2187 158.626 17.2187Z" fill="black"/>
<path d="M160.248 17.3369V13.445C160.248 12.3377 161.146 11.4401 162.253 11.4401H164.14C165.247 11.4401 166.145 12.3377 166.145 13.445V17.3369H160.248Z" fill="black"/>
<path d="M63.1865 23.0566H59.2946C58.1873 23.0566 57.2897 22.159 57.2897 21.0517V19.1647C57.2897 18.0575 58.1873 17.1598 59.2946 17.1598H63.1865V23.0566Z" fill="black"/>
<path d="M63.0098 23.0566V19.1647C63.0098 18.0575 63.9074 17.1598 65.0147 17.1598H66.9017C68.0089 17.1598 68.9066 18.0575 68.9066 19.1647V23.0566H63.0098Z" fill="black"/>
<path d="M80.3462 17.1597V23.0565H76.4543C75.347 23.0565 74.4494 22.1588 74.4494 21.0516V17.1597H80.3462Z" fill="black"/>
<path d="M86.0662 17.1597H80.1694V23.0565H86.0662V17.1597Z" fill="black"/>
<path d="M91.786 17.1597H85.8892V23.0565H91.786V17.1597Z" fill="black"/>
<path d="M126.106 17.1597V21.0516C126.106 22.1588 125.208 23.0565 124.101 23.0565H122.214C121.107 23.0565 120.209 22.1588 120.209 21.0516V17.1597H126.106Z" fill="black"/>
<path d="M137.545 23.0562H133.654C132.546 23.0562 131.649 22.1585 131.649 21.0512V19.1643C131.649 18.057 132.546 17.1593 133.654 17.1593H137.545V23.0562Z" fill="black"/>
<path d="M143.265 17.1597H137.369V23.0565H143.265V17.1597Z" fill="black"/>
<path d="M143.088 23.0566V17.1598H146.98C148.088 17.1598 148.985 18.0575 148.985 19.1647V23.0566H143.088Z" fill="black"/>
<path d="M160.425 23.0562H156.533C155.426 23.0562 154.528 22.1585 154.528 21.0512V19.1643C154.528 18.057 155.426 17.1593 156.533 17.1593H160.425V23.0562Z" fill="black"/>
<path d="M166.145 17.1597H160.248V23.0565H166.145V17.1597Z" fill="black"/>
<path d="M51.5698 24.5659V27.0956C51.5698 28.0273 52.3246 28.7762 53.2563 28.7762H55.786C56.7236 28.7762 57.4725 28.0214 57.4725 27.0897V24.5659C57.4666 23.6283 56.7118 22.8794 55.7801 22.8794H53.2563C52.3246 22.8794 51.5698 23.6342 51.5698 24.5659Z" fill="black"/>
<path d="M68.7295 24.5659V27.0956C68.7295 28.0273 69.4843 28.7762 70.416 28.7762H72.9457C73.8833 28.7762 74.6322 28.0214 74.6322 27.0897V24.5659C74.6263 23.6283 73.8715 22.8794 72.9398 22.8794H70.416C69.4843 22.8794 68.7295 23.6342 68.7295 24.5659Z" fill="black"/>
<path d="M86.0659 22.8794V28.7762H82.174C81.0667 28.7762 80.1691 27.8786 80.1691 26.7713V22.8794H86.0659Z" fill="black"/>
<path d="M91.786 22.8794H85.8892V28.7762H91.786V22.8794Z" fill="black"/>
<path d="M108.769 24.5659V27.0956C108.769 28.0273 109.524 28.7762 110.456 28.7762H112.985C113.923 28.7762 114.672 28.0214 114.672 27.0897V24.5659C114.666 23.6283 113.911 22.8794 112.979 22.8794H110.456C109.524 22.8794 108.769 23.6342 108.769 24.5659Z" fill="black"/>
<path d="M143.265 22.8794H137.369V28.7762H143.265V22.8794Z" fill="black"/>
<path d="M148.985 22.8794H143.088V28.7762H148.985V22.8794Z" fill="black"/>
<path d="M148.808 28.7764V22.8796H152.7C153.807 22.8796 154.705 23.7772 154.705 24.8845V28.7764H148.808Z" fill="black"/>
<path d="M158.626 28.6586V28.7766H160.425V26.978H160.307C160.307 27.9097 159.552 28.6586 158.626 28.6586Z" fill="black"/>
<path d="M166.145 22.8794H160.248V28.7762H166.145V22.8794Z" fill="black"/>
<path d="M45.8501 34.4966V30.6047C45.8501 29.4974 46.7477 28.5998 47.855 28.5998H49.742C50.8493 28.5998 51.7469 29.4974 51.7469 30.6047V34.4966H45.8501Z" fill="black"/>
<path d="M63.1865 34.4961H57.2897V30.6042C57.2897 29.4969 58.1873 28.5993 59.2946 28.5993H63.1865V34.4961Z" fill="black"/>
<path d="M63.0098 34.4966V30.6047C63.0098 29.4974 63.9074 28.5998 65.0147 28.5998H66.9017C68.0089 28.5998 68.9066 29.4974 68.9066 30.6047V34.4966H63.0098Z" fill="black"/>
<path d="M74.4497 30.2861V32.8158C74.4497 33.7475 75.2045 34.4964 76.1362 34.4964H78.6659C79.6035 34.4964 80.3524 33.7416 80.3524 32.8099V30.2861C80.3465 29.3485 79.5917 28.5996 78.66 28.5996H76.1362C75.2045 28.5996 74.4497 29.3544 74.4497 30.2861Z" fill="black"/>
<path d="M91.7861 28.5996V34.4964H87.8942C86.787 34.4964 85.8893 33.5988 85.8893 32.4915V28.5996H91.7861Z" fill="black"/>
<path d="M97.5062 28.5996H91.6094V34.4964H97.5062V28.5996Z" fill="black"/>
<path d="M103.226 28.5996H97.3291V34.4964H103.226V28.5996Z" fill="black"/>
<path d="M103.049 34.4966V28.5998H106.941C108.048 28.5998 108.946 29.4974 108.946 30.6047V34.4966H103.049Z" fill="black"/>
<path d="M137.545 34.4961H133.654C132.546 34.4961 131.649 33.5985 131.649 32.4912V30.6042C131.649 29.4969 132.546 28.5993 133.654 28.5993H137.545V34.4961Z" fill="black"/>
<path d="M143.265 28.5996H137.369V34.4964H143.265V28.5996Z" fill="black"/>
<path d="M148.985 28.5996H143.088V34.4964H148.985V28.5996Z" fill="black"/>
<path d="M154.705 28.5996H148.808V34.4964H154.705V28.5996Z" fill="black"/>
<path d="M160.425 28.5996H154.528V34.4964H160.425V28.5996Z" fill="black"/>
<path d="M166.145 28.5996H160.248V34.4964H166.145V28.5996Z" fill="black"/>
<path d="M51.7469 34.3193H45.8501V40.2161H51.7469V34.3193Z" fill="black"/>
<path d="M63.1865 34.3193V38.2112C63.1865 39.3185 62.2889 40.2161 61.1816 40.2161H59.2946C58.1873 40.2161 57.2897 39.3185 57.2897 38.2112V34.3193H63.1865Z" fill="black"/>
<path d="M68.7295 36.0058V38.5356C68.7295 39.4672 69.4843 40.2161 70.416 40.2161H72.9457C73.8833 40.2161 74.6322 39.4614 74.6322 38.5297V36.0058C74.6263 35.0682 73.8715 34.3193 72.9398 34.3193H70.416C69.4843 34.3193 68.7295 35.0741 68.7295 36.0058Z" fill="black"/>
<path d="M80.1694 36.0058V38.5356C80.1694 39.4672 80.9242 40.2161 81.8559 40.2161H84.3856C85.3232 40.2161 86.0721 39.4614 86.0721 38.5297V36.0058C86.0662 35.0682 85.3114 34.3193 84.3798 34.3193H81.8559C80.9242 34.3193 80.1694 35.0741 80.1694 36.0058Z" fill="black"/>
<path d="M97.5062 34.3193H91.6094V40.2161H97.5062V34.3193Z" fill="black"/>
<path d="M108.946 34.3193H103.049V40.2161H108.946V34.3193Z" fill="black"/>
<path d="M114.489 36.0058V38.5356C114.489 39.4672 115.244 40.2161 116.175 40.2161H118.705C119.643 40.2161 120.391 39.4614 120.391 38.5297V36.0058C120.386 35.0682 119.631 34.3193 118.699 34.3193H116.175C115.244 34.3193 114.489 35.0741 114.489 36.0058Z" fill="black"/>
<path d="M125.929 36.0058V38.5356C125.929 39.4672 126.684 40.2161 127.615 40.2161H130.145C131.083 40.2161 131.831 39.4614 131.831 38.5297V36.0058C131.826 35.0682 131.071 34.3193 130.139 34.3193H127.615C126.684 34.3193 125.929 35.0741 125.929 36.0058Z" fill="black"/>
<path d="M143.265 34.3193H137.369V40.2161H143.265V34.3193Z" fill="black"/>
<path d="M154.705 34.3193V38.2112C154.705 39.3185 153.807 40.2161 152.7 40.2161H150.813C149.706 40.2161 148.808 39.3185 148.808 38.2112V34.3193H154.705Z" fill="black"/>
<path d="M166.145 34.3193V38.2112C166.145 39.3185 165.247 40.2161 164.14 40.2161H162.253C161.145 40.2161 160.248 39.3185 160.248 38.2112V34.3193H166.145Z" fill="black"/>
<path d="M51.7469 40.0396H45.8501V45.9364H51.7469V40.0396Z" fill="black"/>
<path d="M74.4497 41.726V44.2558C74.4497 45.1875 75.2045 45.9364 76.1362 45.9364H78.6659C79.6035 45.9364 80.3524 45.1816 80.3524 44.2499V41.726C80.3465 40.7884 79.5917 40.0396 78.66 40.0396H76.1362C75.2045 40.0396 74.4497 40.7943 74.4497 41.726Z" fill="black"/>
<path d="M84.2676 45.8183V45.9362H86.0661V44.1377H85.9482C85.9482 45.0694 85.1934 45.8183 84.2676 45.8183Z" fill="black"/>
<path d="M91.7861 45.936H85.8893V42.0441C85.8893 40.9369 86.787 40.0392 87.8942 40.0392H91.7861V45.936Z" fill="black"/>
<path d="M91.6094 40.0396H97.5062V43.9314C97.5062 45.0387 96.6086 45.9364 95.5013 45.9364H91.6094V40.0396Z" fill="black"/>
<path d="M108.946 40.0396V43.9314C108.946 45.0387 108.048 45.9364 106.941 45.9364H105.054C103.947 45.9364 103.049 45.0387 103.049 43.9314V40.0396H108.946Z" fill="black"/>
<path d="M118.587 45.8183V45.9362H120.385V44.1377H120.268C120.268 45.0694 119.513 45.8183 118.587 45.8183Z" fill="black"/>
<path d="M120.209 45.9365V42.0446C120.209 40.9373 121.107 40.0397 122.214 40.0397H124.101C125.208 40.0397 126.106 40.9373 126.106 42.0446V45.9365H120.209Z" fill="black"/>
<path d="M143.265 40.0396H137.369V45.9364H143.265V40.0396Z" fill="black"/>
<path d="M143.088 45.9365V42.0446C143.088 40.9373 143.986 40.0397 145.093 40.0397H146.98C148.088 40.0397 148.985 40.9373 148.985 42.0446V45.9365H143.088Z" fill="black"/>
<path d="M9.90918 51.538V51.6559H11.7077V49.8574H11.5898C11.5898 50.7891 10.835 51.538 9.90918 51.538Z" fill="black"/>
<path d="M17.4272 51.6562H11.5304V47.7644C11.5304 46.6571 12.4281 45.7594 13.5354 45.7594H17.4272V51.6562Z" fill="black"/>
<path d="M23.1473 45.7593H17.2505V51.6561H23.1473V45.7593Z" fill="black"/>
<path d="M22.9702 51.6562V45.7594H26.8621C27.9694 45.7594 28.867 46.6571 28.867 47.7644V51.6562H22.9702Z" fill="black"/>
<path d="M34.4102 47.4458V49.9755C34.4102 50.9072 35.1649 51.6561 36.0966 51.6561H38.6264C39.564 51.6561 40.3129 50.9013 40.3129 49.9696V47.4458C40.307 46.5082 39.5522 45.7593 38.6205 45.7593H36.0966C35.1649 45.7593 34.4102 46.5141 34.4102 47.4458Z" fill="black"/>
<path d="M51.7466 45.7593V49.6512C51.7466 50.7585 50.849 51.6561 49.7417 51.6561H47.8547C46.7474 51.6561 45.8498 50.7585 45.8498 49.6512V45.7593H51.7466Z" fill="black"/>
<path d="M86.0664 51.6562H80.1696V47.7644C80.1696 46.6571 81.0672 45.7594 82.1745 45.7594H86.0664V51.6562Z" fill="black"/>
<path d="M91.786 45.7593H85.8892V51.6561H91.786V45.7593Z" fill="black"/>
<path d="M114.666 51.6562H110.774C109.666 51.6562 108.769 50.7586 108.769 49.6513V47.7644C108.769 46.6571 109.666 45.7594 110.774 45.7594H114.666V51.6562Z" fill="black"/>
<path d="M120.386 45.7593H114.489V51.6561H120.386V45.7593Z" fill="black"/>
<path d="M120.209 45.7593H126.106V49.6512C126.106 50.7585 125.208 51.6561 124.101 51.6561H120.209V45.7593Z" fill="black"/>
<path d="M143.265 45.7593H137.369V51.6561H143.265V45.7593Z" fill="black"/>
<path d="M148.808 47.4458V49.9755C148.808 50.9072 149.563 51.6561 150.495 51.6561H153.024C153.962 51.6561 154.711 50.9013 154.711 49.9696V47.4458C154.705 46.5082 153.95 45.7593 153.018 45.7593H150.495C149.563 45.7593 148.808 46.5141 148.808 47.4458Z" fill="black"/>
<path d="M171.864 51.6558H165.967V47.7639C165.967 46.6566 166.865 45.759 167.972 45.759H171.864V51.6558Z" fill="black"/>
<path d="M177.584 45.7593H171.688V51.6561H177.584V45.7593Z" fill="black"/>
<path d="M177.408 51.6562V45.7594H181.3C182.407 45.7594 183.305 46.6571 183.305 47.7644V51.6562H177.408Z" fill="black"/>
<path d="M200.464 51.6558H196.572C195.465 51.6558 194.567 50.7581 194.567 49.6508V47.7639C194.567 46.6566 195.465 45.759 196.572 45.759H200.464V51.6558Z" fill="black"/>
<path d="M206.184 45.7593H200.287V51.6561H206.184V45.7593Z" fill="black"/>
<path d="M206.007 51.6562V47.7644C206.007 46.6571 206.904 45.7594 208.012 45.7594H209.899C211.006 45.7594 211.904 46.6571 211.904 47.7644V51.6562H206.007Z" fill="black"/>
<path d="M4.18896 57.2582V57.3762H5.98749V55.5776H5.86955C5.86955 56.5093 5.11476 57.2582 4.18896 57.2582Z" fill="black"/>
<path d="M11.7075 57.376H5.81071L5.81071 53.4841C5.81071 52.3768 6.70834 51.4792 7.81563 51.4792H11.7075V57.376Z" fill="black"/>
<path d="M17.4276 51.479H11.5308V57.3758H17.4276V51.479Z" fill="black"/>
<path d="M23.1473 51.479H17.2505V57.3758H23.1473V51.479Z" fill="black"/>
<path d="M28.867 51.479H22.9702V57.3758H28.867V51.479Z" fill="black"/>
<path d="M28.6904 57.376V53.4841C28.6904 52.3768 29.5881 51.4792 30.6953 51.4792H32.5823C33.6896 51.4792 34.5872 52.3768 34.5872 53.4841V57.376H28.6904Z" fill="black"/>
<path d="M57.29 53.1655V55.6952C57.29 56.6269 58.0448 57.3758 58.9765 57.3758H61.5063C62.4438 57.3758 63.1927 56.621 63.1927 55.6893V53.1655C63.1868 52.2279 62.4321 51.479 61.5004 51.479H58.9765C58.0448 51.479 57.29 52.2338 57.29 53.1655Z" fill="black"/>
<path d="M86.0659 51.479V57.3758H82.174C81.0667 57.3758 80.1691 56.4782 80.1691 55.3709V51.479H86.0659Z" fill="black"/>
<path d="M85.8892 51.479H91.786V55.3709C91.786 56.4782 90.8883 57.3758 89.7811 57.3758H85.8892V51.479Z" fill="black"/>
<path d="M103.226 57.376H97.3293V53.4841C97.3293 52.3768 98.2269 51.4792 99.3342 51.4792H103.226V57.376Z" fill="black"/>
<path d="M103.049 57.376V51.4792H106.941C108.048 51.4792 108.946 52.3768 108.946 53.4841V57.376H103.049Z" fill="black"/>
<path d="M120.386 51.479V55.3709C120.386 56.4782 119.488 57.3758 118.381 57.3758H116.494C115.387 57.3758 114.489 56.4782 114.489 55.3709V51.479H120.386Z" fill="black"/>
<path d="M125.929 53.1655V55.6952C125.929 56.6269 126.684 57.3758 127.615 57.3758H130.145C131.083 57.3758 131.831 56.621 131.831 55.6893V53.1655C131.826 52.2279 131.071 51.479 130.139 51.479H127.615C126.684 51.479 125.929 52.2338 125.929 53.1655Z" fill="black"/>
<path d="M135.747 57.2582V57.3762H137.546V55.5776H137.428C137.428 56.5093 136.673 57.2582 135.747 57.2582Z" fill="black"/>
<path d="M143.265 51.479H137.369V57.3758H143.265V51.479Z" fill="black"/>
<path d="M154.528 57.376V53.4841C154.528 52.3768 155.426 51.4792 156.533 51.4792H158.42C159.527 51.4792 160.425 52.3768 160.425 53.4841V57.376H154.528Z" fill="black"/>
<path d="M171.864 51.479V55.3709C171.864 56.4782 170.967 57.3758 169.859 57.3758H167.972C166.865 57.3758 165.967 56.4782 165.967 55.3709V51.479H171.864Z" fill="black"/>
<path d="M183.305 51.479H177.408V57.3758H183.305V51.479Z" fill="black"/>
<path d="M188.848 53.1655V55.6952C188.848 56.6269 189.602 57.3758 190.534 57.3758H193.064C194.001 57.3758 194.75 56.621 194.75 55.6893V53.1655C194.744 52.2279 193.99 51.479 193.058 51.479H190.534C189.602 51.479 188.848 52.2338 188.848 53.1655Z" fill="black"/>
<path d="M5.98779 63.0957H2.0959C0.988618 63.0957 0.0909872 62.1981 0.0909872 61.0908L0.0909872 59.2038C0.0909872 58.0965 0.988618 57.1989 2.0959 57.1989H5.98779L5.98779 63.0957Z" fill="black"/>
<path d="M11.7074 57.1992H5.81055V63.096H11.7074V57.1992Z" fill="black"/>
<path d="M34.4102 58.8857V61.4154C34.4102 62.3471 35.1649 63.096 36.0966 63.096H38.6264C39.564 63.096 40.3129 62.3412 40.3129 61.4095V58.8857C40.307 57.9481 39.5522 57.1992 38.6205 57.1992H36.0966C35.1649 57.1992 34.4102 57.954 34.4102 58.8857Z" fill="black"/>
<path d="M51.7471 63.0957H47.8552C46.7479 63.0957 45.8503 62.1981 45.8503 61.0908V59.2038C45.8503 58.0965 46.7479 57.1989 47.8552 57.1989H51.7471V63.0957Z" fill="black"/>
<path d="M51.5698 63.0962V59.2043C51.5698 58.097 52.4675 57.1994 53.5747 57.1994H55.4617C56.569 57.1994 57.4666 58.097 57.4666 59.2043V63.0962H51.5698Z" fill="black"/>
<path d="M74.6265 63.0957H70.7346C69.6273 63.0957 68.7297 62.1981 68.7297 61.0908V59.2038C68.7297 58.0965 69.6273 57.1989 70.7346 57.1989H74.6265V63.0957Z" fill="black"/>
<path d="M74.4497 63.0962V59.2043C74.4497 58.097 75.3473 57.1994 76.4546 57.1994H78.3416C79.4489 57.1994 80.3465 58.097 80.3465 59.2043V63.0962H74.4497Z" fill="black"/>
<path d="M95.7075 62.978V63.0959H97.506V61.2974H97.3881C97.3881 62.2291 96.6333 62.978 95.7075 62.978Z" fill="black"/>
<path d="M103.226 57.1992H97.3291V63.096H103.226V57.1992Z" fill="black"/>
<path d="M108.946 57.1992H103.049V63.096H108.946V57.1992Z" fill="black"/>
<path d="M108.769 63.0962V57.1994H112.661C113.768 57.1994 114.666 58.097 114.666 59.2043V63.0962H108.769Z" fill="black"/>
<path d="M118.587 62.978V63.0959H120.385V61.2974H120.268C120.268 62.2291 119.513 62.978 118.587 62.978Z" fill="black"/>
<path d="M120.209 63.0962V59.2043C120.209 58.097 121.107 57.1994 122.214 57.1994H124.101C125.208 57.1994 126.106 58.097 126.106 59.2043V63.0962H120.209Z" fill="black"/>
<path d="M137.545 63.0957H133.654C132.546 63.0957 131.649 62.1981 131.649 61.0908V59.2038C131.649 58.0965 132.546 57.1989 133.654 57.1989H137.545V63.0957Z" fill="black"/>
<path d="M143.265 57.1992H137.369V63.096H143.265V57.1992Z" fill="black"/>
<path d="M160.425 57.1992V63.096H156.533C155.426 63.096 154.528 62.1984 154.528 61.0911V57.1992H160.425Z" fill="black"/>
<path d="M160.248 63.0962V57.1994H164.14C165.247 57.1994 166.145 58.097 166.145 59.2043V63.0962H160.248Z" fill="black"/>
<path d="M170.066 62.978V63.0959H171.865V61.2974H171.747C171.747 62.2291 170.992 62.978 170.066 62.978Z" fill="black"/>
<path d="M177.585 63.0957H171.688V59.2038C171.688 58.0965 172.586 57.1989 173.693 57.1989H177.585V63.0957Z" fill="black"/>
<path d="M183.305 57.1992H177.408V63.096H183.305V57.1992Z" fill="black"/>
<path d="M183.128 63.0962V59.2043C183.128 58.097 184.026 57.1994 185.133 57.1994H187.02C188.127 57.1994 189.025 58.097 189.025 59.2043V63.0962H183.128Z" fill="black"/>
<path d="M200.464 63.0957H196.572C195.465 63.0957 194.567 62.1981 194.567 61.0908V59.2038C194.567 58.0965 195.465 57.1989 196.572 57.1989H200.464V63.0957Z" fill="black"/>
<path d="M206.184 57.1992H200.287V63.096H206.184V57.1992Z" fill="black"/>
<path d="M206.007 63.0962V59.2043C206.007 58.097 206.904 57.1994 208.012 57.1994H209.899C211.006 57.1994 211.904 58.097 211.904 59.2043V63.0962H206.007Z" fill="black"/>
<path d="M11.7074 62.9189H5.81055V68.8158H11.7074V62.9189Z" fill="black"/>
<path d="M17.2505 64.6054V67.1352C17.2505 68.0669 18.0053 68.8158 18.937 68.8158H21.4667C22.4043 68.8158 23.1532 68.061 23.1532 67.1293V64.6054C23.1473 63.6678 22.3925 62.9189 21.4608 62.9189H18.937C18.0053 62.9189 17.2505 63.6737 17.2505 64.6054Z" fill="black"/>
<path d="M40.1304 64.6054V67.1352C40.1304 68.0669 40.8852 68.8158 41.8169 68.8158H44.3466C45.2842 68.8158 46.0331 68.061 46.0331 67.1293V64.6054C46.0272 63.6678 45.2724 62.9189 44.3407 62.9189H41.8169C40.8852 62.9189 40.1304 63.6737 40.1304 64.6054Z" fill="black"/>
<path d="M61.3882 68.6977V68.8156H63.1867V67.0171H63.0688C63.0688 67.9488 62.314 68.6977 61.3882 68.6977Z" fill="black"/>
<path d="M63.0098 68.8159V64.924C63.0098 63.8167 63.9074 62.9191 65.0147 62.9191H66.9017C68.0089 62.9191 68.9066 63.8167 68.9066 64.924V68.8159H63.0098Z" fill="black"/>
<path d="M91.7861 68.8159H85.8893V64.924C85.8893 63.8167 86.787 62.9191 87.8942 62.9191H91.7861V68.8159Z" fill="black"/>
<path d="M97.5062 62.9189H91.6094V68.8158H97.5062V62.9189Z" fill="black"/>
<path d="M103.226 62.9189H97.3291V68.8158H103.226V62.9189Z" fill="black"/>
<path d="M108.946 62.9189H103.049V68.8158H108.946V62.9189Z" fill="black"/>
<path d="M114.666 62.9189H108.769V68.8158H114.666V62.9189Z" fill="black"/>
<path d="M120.386 62.9189H114.489V68.8158H120.386V62.9189Z" fill="black"/>
<path d="M126.106 62.9189H120.209V68.8158H126.106V62.9189Z" fill="black"/>
<path d="M143.266 62.9189V66.8108C143.266 67.9181 142.368 68.8158 141.261 68.8158H139.374C138.266 68.8158 137.369 67.9181 137.369 66.8108V62.9189H143.266Z" fill="black"/>
<path d="M148.808 64.6054V67.1352C148.808 68.0669 149.563 68.8158 150.495 68.8158H153.024C153.962 68.8158 154.711 68.061 154.711 67.1293V64.6054C154.705 63.6678 153.95 62.9189 153.018 62.9189H150.495C149.563 62.9189 148.808 63.6737 148.808 64.6054Z" fill="black"/>
<path d="M166.145 62.9189V68.8158H162.253C161.145 68.8158 160.248 67.9181 160.248 66.8108V62.9189H166.145Z" fill="black"/>
<path d="M171.865 62.9189H165.968V68.8158H171.865V62.9189Z" fill="black"/>
<path d="M177.584 62.9189H171.688V68.8158H177.584V62.9189Z" fill="black"/>
<path d="M11.7075 68.6387V72.5306C11.7075 73.6378 10.8099 74.5355 9.70261 74.5355H7.81563C6.70834 74.5355 5.81071 73.6378 5.81071 72.5306V68.6387H11.7075Z" fill="black"/>
<path d="M34.5869 74.5356H30.695C29.5877 74.5356 28.6901 73.638 28.6901 72.5307V70.6438C28.6901 69.5365 29.5877 68.6388 30.695 68.6388H34.5869V74.5356Z" fill="black"/>
<path d="M34.4102 74.5356V70.6438C34.4102 69.5365 35.3078 68.6388 36.4151 68.6388H38.302C39.4093 68.6388 40.307 69.5365 40.307 70.6438V74.5356H34.4102Z" fill="black"/>
<path d="M51.7471 74.5356H47.8552C46.7479 74.5356 45.8503 73.638 45.8503 72.5307V70.6438C45.8503 69.5365 46.7479 68.6388 47.8552 68.6388H51.7471V74.5356Z" fill="black"/>
<path d="M57.4666 68.6387H51.5698V74.5355H57.4666V68.6387Z" fill="black"/>
<path d="M63.1868 68.6387H57.29V74.5355H63.1868V68.6387Z" fill="black"/>
<path d="M68.9066 68.6387H63.0098V74.5355H68.9066V68.6387Z" fill="black"/>
<path d="M74.6263 68.6387H68.7295V74.5355H74.6263V68.6387Z" fill="black"/>
<path d="M74.4497 74.5356V68.6388H78.3416C79.4489 68.6388 80.3465 69.5365 80.3465 70.6438V74.5356H74.4497Z" fill="black"/>
<path d="M91.786 68.6387H85.8892V74.5355H91.786V68.6387Z" fill="black"/>
<path d="M103.226 68.6387V74.5355H99.3337C98.2264 74.5355 97.3288 73.6378 97.3288 72.5306V68.6387H103.226Z" fill="black"/>
<path d="M108.946 68.6387H103.049V74.5355H108.946V68.6387Z" fill="black"/>
<path d="M108.769 68.6387H114.666V72.5306C114.666 73.6378 113.768 74.5355 112.661 74.5355H108.769V68.6387Z" fill="black"/>
<path d="M126.106 68.6387H120.209V74.5355H126.106V68.6387Z" fill="black"/>
<path d="M131.648 70.3252V72.8549C131.648 73.7866 132.403 74.5355 133.335 74.5355H135.865C136.802 74.5355 137.551 73.7807 137.551 72.849V70.3252C137.545 69.3876 136.79 68.6387 135.859 68.6387H133.335C132.403 68.6387 131.648 69.3935 131.648 70.3252Z" fill="black"/>
<path d="M143.088 70.3252V72.8549C143.088 73.7866 143.843 74.5355 144.775 74.5355H147.305C148.242 74.5355 148.991 73.7807 148.991 72.849V70.3252C148.985 69.3876 148.23 68.6387 147.299 68.6387H144.775C143.843 68.6387 143.088 69.3935 143.088 70.3252Z" fill="black"/>
<path d="M154.528 70.3252V72.8549C154.528 73.7866 155.283 74.5355 156.215 74.5355H158.745C159.682 74.5355 160.431 73.7807 160.431 72.849V70.3252C160.425 69.3876 159.67 68.6387 158.739 68.6387H156.215C155.283 68.6387 154.528 69.3935 154.528 70.3252Z" fill="black"/>
<path d="M171.864 68.6387V74.5355H167.972C166.865 74.5355 165.967 73.6378 165.967 72.5306V68.6387H171.864Z" fill="black"/>
<path d="M177.584 68.6387H171.688V74.5355H177.584V68.6387Z" fill="black"/>
<path d="M183.305 68.6387H177.408V74.5355H183.305V68.6387Z" fill="black"/>
<path d="M183.128 74.5356V70.6438C183.128 69.5365 184.026 68.6388 185.133 68.6388H187.02C188.127 68.6388 189.025 69.5365 189.025 70.6438V74.5356H183.128Z" fill="black"/>
<path d="M194.567 70.3252V72.8549C194.567 73.7866 195.322 74.5355 196.254 74.5355H198.784C199.721 74.5355 200.47 73.7807 200.47 72.849V70.3252C200.464 69.3876 199.709 68.6387 198.778 68.6387H196.254C195.322 68.6387 194.567 69.3935 194.567 70.3252Z" fill="black"/>
<path d="M0.0908203 76.0454V78.5751C0.0908203 79.5068 0.845612 80.2557 1.77731 80.2557H4.30704C5.24463 80.2557 5.99352 79.5009 5.99352 78.5692V76.0454C5.98763 75.1078 5.23284 74.3589 4.30114 74.3589H1.77731C0.845612 74.3589 0.0908203 75.1137 0.0908203 76.0454Z" fill="black"/>
<path d="M17.4272 80.2554H13.5354C12.4281 80.2554 11.5304 79.3577 11.5304 78.2505V76.3635C11.5304 75.2562 12.4281 74.3586 13.5354 74.3586H17.4272V80.2554Z" fill="black"/>
<path d="M17.2505 80.2559V74.3591H21.1424C22.2497 74.3591 23.1473 75.2567 23.1473 76.364V80.2559H17.2505Z" fill="black"/>
<path d="M40.1304 76.0454V78.5751C40.1304 79.5068 40.8852 80.2557 41.8169 80.2557H44.3466C45.2842 80.2557 46.0331 79.5009 46.0331 78.5692V76.0454C46.0272 75.1078 45.2724 74.3589 44.3407 74.3589H41.8169C40.8852 74.3589 40.1304 75.1137 40.1304 76.0454Z" fill="black"/>
<path d="M74.6265 74.3589V80.2557H70.7346C69.6273 80.2557 68.7297 79.3581 68.7297 78.2508V74.3589H74.6265Z" fill="black"/>
<path d="M80.3465 74.3589H74.4497V80.2557H80.3465V74.3589Z" fill="black"/>
<path d="M84.2676 80.1376V80.2556H86.0661V78.457H85.9482C85.9482 79.3887 85.1934 80.1376 84.2676 80.1376Z" fill="black"/>
<path d="M91.786 74.3589H85.8892V80.2557H91.786V74.3589Z" fill="black"/>
<path d="M108.946 74.3589H103.049V80.2557H108.946V74.3589Z" fill="black"/>
<path d="M120.386 80.2554H116.494C115.387 80.2554 114.489 79.3577 114.489 78.2505V76.3635C114.489 75.2562 115.387 74.3586 116.494 74.3586H120.386V80.2554Z" fill="black"/>
<path d="M126.106 74.3589H120.209V80.2557H126.106V74.3589Z" fill="black"/>
<path d="M147.187 80.1376V80.2556H148.985V78.457H148.867C148.867 79.3887 148.112 80.1376 147.187 80.1376Z" fill="black"/>
<path d="M148.808 80.2559V76.364C148.808 75.2567 149.706 74.3591 150.813 74.3591H152.7C153.807 74.3591 154.705 75.2567 154.705 76.364V80.2559H148.808Z" fill="black"/>
<path d="M160.248 76.0454V78.5751C160.248 79.5068 161.003 80.2557 161.935 80.2557H164.464C165.402 80.2557 166.151 79.5009 166.151 78.5692V76.0454C166.145 75.1078 165.39 74.3589 164.458 74.3589H161.935C161.003 74.3589 160.248 75.1137 160.248 76.0454Z" fill="black"/>
<path d="M183.305 74.3589V78.2508C183.305 79.3581 182.407 80.2557 181.3 80.2557H179.413C178.306 80.2557 177.408 79.3581 177.408 78.2508V74.3589H183.305Z" fill="black"/>
<path d="M188.848 80.2559V76.364C188.848 75.2567 189.745 74.3591 190.853 74.3591H192.74C193.847 74.3591 194.744 75.2567 194.744 76.364V80.2559H188.848Z" fill="black"/>
<path d="M198.666 80.1376V80.2556H200.465V78.457H200.347C200.347 79.3887 199.592 80.1376 198.666 80.1376Z" fill="black"/>
<path d="M200.287 80.2559V76.364C200.287 75.2567 201.185 74.3591 202.292 74.3591H204.179C205.286 74.3591 206.184 75.2567 206.184 76.364V80.2559H200.287Z" fill="black"/>
<path d="M23.147 80.0786V85.9754H19.2551C18.1478 85.9754 17.2502 85.0778 17.2502 83.9705V80.0786H23.147Z" fill="black"/>
<path d="M22.9702 85.9756V80.0788H26.8621C27.9694 80.0788 28.867 80.9764 28.867 82.0837V85.9756H22.9702Z" fill="black"/>
<path d="M34.4102 81.7651V84.2948C34.4102 85.2265 35.1649 85.9754 36.0966 85.9754H38.6264C39.564 85.9754 40.3129 85.2206 40.3129 84.2889V81.7651C40.307 80.8275 39.5522 80.0786 38.6205 80.0786H36.0966C35.1649 80.0786 34.4102 80.8334 34.4102 81.7651Z" fill="black"/>
<path d="M57.29 85.9756V82.0837C57.29 80.9764 58.1877 80.0788 59.295 80.0788H61.1819C62.2892 80.0788 63.1868 80.9764 63.1868 82.0837V85.9756H57.29Z" fill="black"/>
<path d="M80.3465 80.0786H74.4497V85.9754H80.3465V80.0786Z" fill="black"/>
<path d="M86.0662 80.0786H80.1694V85.9754H86.0662V80.0786Z" fill="black"/>
<path d="M91.786 80.0786H85.8892V85.9754H91.786V80.0786Z" fill="black"/>
<path d="M91.6094 85.9756V80.0788H95.5013C96.6086 80.0788 97.5062 80.9764 97.5062 82.0837V85.9756H91.6094Z" fill="black"/>
<path d="M108.946 80.0786H103.049V85.9754H108.946V80.0786Z" fill="black"/>
<path d="M126.106 80.0786H120.209V85.9754H126.106V80.0786Z" fill="black"/>
<path d="M125.929 85.9756V82.0837C125.929 80.9764 126.826 80.0788 127.934 80.0788H129.821C130.928 80.0788 131.826 80.9764 131.826 82.0837V85.9756H125.929Z" fill="black"/>
<path d="M148.985 85.9751H145.093C143.986 85.9751 143.088 85.0775 143.088 83.9702V82.0832C143.088 80.9759 143.986 80.0783 145.093 80.0783H148.985V85.9751Z" fill="black"/>
<path d="M154.705 80.0786H148.808V85.9754H154.705V80.0786Z" fill="black"/>
<path d="M154.528 85.9756V80.0788H158.42C159.527 80.0788 160.425 80.9764 160.425 82.0837V85.9756H154.528Z" fill="black"/>
<path d="M171.864 85.9751H165.967V82.0832C165.967 80.9759 166.865 80.0783 167.972 80.0783H171.864V85.9751Z" fill="black"/>
<path d="M171.688 85.9756V80.0788H175.579C176.687 80.0788 177.584 80.9764 177.584 82.0837V85.9756H171.688Z" fill="black"/>
<path d="M194.744 80.0786V85.9754H190.852C189.745 85.9754 188.847 85.0778 188.847 83.9705V80.0786H194.744Z" fill="black"/>
<path d="M200.464 80.0786H194.567V85.9754H200.464V80.0786Z" fill="black"/>
<path d="M206.184 80.0786H200.287V85.9754H206.184V80.0786Z" fill="black"/>
<path d="M206.007 85.9756V82.0837C206.007 80.9764 206.904 80.0788 208.012 80.0788H209.899C211.006 80.0788 211.904 80.9764 211.904 82.0837V85.9756H206.007Z" fill="black"/>
<path d="M5.98779 91.6953H2.0959C0.988618 91.6953 0.0909872 90.7977 0.0909872 89.6904L0.0909872 87.8034C0.0909872 86.6961 0.988618 85.7985 2.0959 85.7985H5.98779L5.98779 91.6953Z" fill="black"/>
<path d="M11.7074 85.7983H5.81055V91.6951H11.7074V85.7983Z" fill="black"/>
<path d="M11.5308 91.6953V85.7985H15.4227C16.5299 85.7985 17.4276 86.6961 17.4276 87.8034V91.6953H11.5308Z" fill="black"/>
<path d="M28.8672 85.7983V91.6951H24.9753C23.868 91.6951 22.9704 90.7975 22.9704 89.6902V85.7983H28.8672Z" fill="black"/>
<path d="M28.6904 91.6953V87.8034C28.6904 86.6961 29.5881 85.7985 30.6953 85.7985H32.5823C33.6896 85.7985 34.5872 86.6961 34.5872 87.8034V91.6953H28.6904Z" fill="black"/>
<path d="M45.8501 91.6953V87.8034C45.8501 86.6961 46.7477 85.7985 47.855 85.7985H49.742C50.8493 85.7985 51.7469 86.6961 51.7469 87.8034V91.6953H45.8501Z" fill="black"/>
<path d="M63.1868 85.7983H57.29V91.6951H63.1868V85.7983Z" fill="black"/>
<path d="M80.3462 85.7983V91.6951H76.4543C75.347 91.6951 74.4494 90.7975 74.4494 89.6902V85.7983H80.3462Z" fill="black"/>
<path d="M86.0662 85.7983H80.1694V91.6951H86.0662V85.7983Z" fill="black"/>
<path d="M126.106 85.7983H120.209V91.6951H126.106V85.7983Z" fill="black"/>
<path d="M154.705 85.7983H148.808V91.6951H154.705V85.7983Z" fill="black"/>
<path d="M160.425 85.7983H154.528V91.6951H160.425V85.7983Z" fill="black"/>
<path d="M171.864 85.7983V91.6951H167.972C166.865 91.6951 165.967 90.7975 165.967 89.6902V85.7983H171.864Z" fill="black"/>
<path d="M177.584 85.7983H171.688V91.6951H177.584V85.7983Z" fill="black"/>
<path d="M177.408 91.6953V87.8034C177.408 86.6961 178.306 85.7985 179.413 85.7985H181.3C182.407 85.7985 183.305 86.6961 183.305 87.8034V91.6953H177.408Z" fill="black"/>
<path d="M206.184 85.7983H200.287V91.6951H206.184V85.7983Z" fill="black"/>
<path d="M17.4276 91.5186H11.5308V97.4154H17.4276V91.5186Z" fill="black"/>
<path d="M34.4102 93.205V95.7348C34.4102 96.6665 35.1649 97.4154 36.0966 97.4154H38.6264C39.564 97.4154 40.3129 96.6606 40.3129 95.7289V93.205C40.307 92.2674 39.5522 91.5186 38.6205 91.5186H36.0966C35.1649 91.5186 34.4102 92.2733 34.4102 93.205Z" fill="black"/>
<path d="M44.2285 97.2973V97.4152H46.027V95.6167H45.9091C45.9091 96.5484 45.1543 97.2973 44.2285 97.2973Z" fill="black"/>
<path d="M51.7469 91.5186H45.8501V97.4154H51.7469V91.5186Z" fill="black"/>
<path d="M55.6685 97.2973V97.4152H57.467V95.6167H57.349C57.349 96.5484 56.5943 97.2973 55.6685 97.2973Z" fill="black"/>
<path d="M63.1868 91.5186H57.29V97.4154H63.1868V91.5186Z" fill="black"/>
<path d="M68.9066 91.5186H63.0098V97.4154H68.9066V91.5186Z" fill="black"/>
<path d="M68.7295 97.4155V91.5187H72.6214C73.7287 91.5187 74.6263 92.4164 74.6263 93.5236V97.4155H68.7295Z" fill="black"/>
<path d="M86.0662 91.5186H80.1694V97.4154H86.0662V91.5186Z" fill="black"/>
<path d="M131.826 91.5186H125.929V97.4154H131.826V91.5186Z" fill="black"/>
<path d="M131.648 97.4155V91.5187H135.54C136.648 91.5187 137.545 92.4164 137.545 93.5236V97.4155H131.648Z" fill="black"/>
<path d="M148.985 97.415H145.093C143.986 97.415 143.088 96.5174 143.088 95.4101V93.5231C143.088 92.4159 143.986 91.5182 145.093 91.5182H148.985V97.415Z" fill="black"/>
<path d="M154.705 91.5186H148.808V97.4154H154.705V91.5186Z" fill="black"/>
<path d="M154.528 91.5186H160.425V95.4104C160.425 96.5177 159.527 97.4154 158.42 97.4154H154.528V91.5186Z" fill="black"/>
<path d="M177.584 91.5186V95.4104C177.584 96.5177 176.686 97.4154 175.579 97.4154H173.692C172.585 97.4154 171.687 96.5177 171.687 95.4104V91.5186H177.584Z" fill="black"/>
<path d="M189.024 97.415H185.133C184.025 97.415 183.128 96.5174 183.128 95.4101V93.5231C183.128 92.4159 184.025 91.5182 185.133 91.5182H189.024V97.415Z" fill="black"/>
<path d="M194.744 91.5186H188.848V97.4154H194.744V91.5186Z" fill="black"/>
<path d="M200.464 91.5186H194.567V97.4154H200.464V91.5186Z" fill="black"/>
<path d="M206.184 91.5186H200.287V97.4154H206.184V91.5186Z" fill="black"/>
<path d="M206.007 97.4155V93.5236C206.007 92.4164 206.904 91.5187 208.012 91.5187H209.899C211.006 91.5187 211.904 92.4164 211.904 93.5236V97.4155H206.007Z" fill="black"/>
<path d="M17.4272 97.2383V103.135H13.5354C12.4281 103.135 11.5304 102.237 11.5304 101.13V97.2383H17.4272Z" fill="black"/>
<path d="M17.2505 103.135V99.2434C17.2505 98.1361 18.1481 97.2384 19.2554 97.2384H21.1424C22.2497 97.2384 23.1473 98.1361 23.1473 99.2434V103.135H17.2505Z" fill="black"/>
<path d="M28.6904 98.9248V101.454C28.6904 102.386 29.4452 103.135 30.3769 103.135H32.9066C33.8442 103.135 34.5931 102.38 34.5931 101.449V98.9248C34.5872 97.9872 33.8324 97.2383 32.9007 97.2383H30.3769C29.4452 97.2383 28.6904 97.9931 28.6904 98.9248Z" fill="black"/>
<path d="M38.5083 103.017V103.135H40.3068V101.336H40.1889C40.1889 102.268 39.4341 103.017 38.5083 103.017Z" fill="black"/>
<path d="M46.0269 103.135H40.13V99.2434C40.13 98.1361 41.0277 97.2384 42.135 97.2384H46.0269V103.135Z" fill="black"/>
<path d="M51.7469 97.2383H45.8501V103.135H51.7469V97.2383Z" fill="black"/>
<path d="M57.4666 97.2383H51.5698V103.135H57.4666V97.2383Z" fill="black"/>
<path d="M63.1868 97.2383H57.29V103.135H63.1868V97.2383Z" fill="black"/>
<path d="M74.6263 97.2383H68.7295V103.135H74.6263V97.2383Z" fill="black"/>
<path d="M78.5479 103.017V103.135H80.3464V101.336H80.2284C80.2284 102.268 79.4737 103.017 78.5479 103.017Z" fill="black"/>
<path d="M86.0662 97.2383H80.1694V103.135H86.0662V97.2383Z" fill="black"/>
<path d="M137.545 97.2383V103.135H133.654C132.546 103.135 131.649 102.237 131.649 101.13V97.2383H137.545Z" fill="black"/>
<path d="M137.369 103.135V97.2384H141.261C142.368 97.2384 143.265 98.1361 143.265 99.2434V103.135H137.369Z" fill="black"/>
<path d="M154.705 97.2383V101.13C154.705 102.237 153.807 103.135 152.7 103.135H150.813C149.706 103.135 148.808 102.237 148.808 101.13V97.2383H154.705Z" fill="black"/>
<path d="M166.145 103.135H162.253C161.145 103.135 160.248 102.237 160.248 101.13V99.2429C160.248 98.1356 161.145 97.238 162.253 97.238H166.145V103.135Z" fill="black"/>
<path d="M165.968 103.135V99.2434C165.968 98.1361 166.865 97.2384 167.973 97.2384H169.86C170.967 97.2384 171.865 98.1361 171.865 99.2434V103.135H165.968Z" fill="black"/>
<path d="M177.408 98.9248V101.454C177.408 102.386 178.163 103.135 179.095 103.135H181.624C182.562 103.135 183.311 102.38 183.311 101.449V98.9248C183.305 97.9872 182.55 97.2383 181.619 97.2383H179.095C178.163 97.2383 177.408 97.9931 177.408 98.9248Z" fill="black"/>
<path d="M194.744 97.2383V101.13C194.744 102.237 193.847 103.135 192.739 103.135H190.852C189.745 103.135 188.847 102.237 188.847 101.13V97.2383H194.744Z" fill="black"/>
<path d="M5.98779 108.855H2.0959C0.988618 108.855 0.0909872 107.957 0.0909872 106.85L0.0909872 104.963C0.0909872 103.856 0.988618 102.958 2.0959 102.958H5.98779L5.98779 108.855Z" fill="black"/>
<path d="M5.81055 108.855V102.958H9.70244C10.8097 102.958 11.7074 103.856 11.7074 104.963V108.855H5.81055Z" fill="black"/>
<path d="M40.3071 108.855H36.4152C35.308 108.855 34.4103 107.957 34.4103 106.85V104.963C34.4103 103.856 35.308 102.958 36.4152 102.958H40.3071V108.855Z" fill="black"/>
<path d="M46.0272 102.958H40.1304V108.855H46.0272V102.958Z" fill="black"/>
<path d="M51.7469 102.958H45.8501V108.855H51.7469V102.958Z" fill="black"/>
<path d="M57.4666 102.958H51.5698V108.855H57.4666V102.958Z" fill="black"/>
<path d="M63.1868 102.958H57.29V108.855H63.1868V102.958Z" fill="black"/>
<path d="M68.9066 102.958H63.0098V108.855H68.9066V102.958Z" fill="black"/>
<path d="M74.6263 102.958H68.7295V108.855H74.6263V102.958Z" fill="black"/>
<path d="M80.3465 102.958H74.4497V108.855H80.3465V102.958Z" fill="black"/>
<path d="M143.266 102.958V108.855H139.374C138.266 108.855 137.369 107.957 137.369 106.85V102.958H143.266Z" fill="black"/>
<path d="M143.088 108.855V104.963C143.088 103.856 143.986 102.958 145.093 102.958H146.98C148.088 102.958 148.985 103.856 148.985 104.963V108.855H143.088Z" fill="black"/>
<path d="M154.528 104.644V107.174C154.528 108.106 155.283 108.855 156.215 108.855H158.745C159.682 108.855 160.431 108.1 160.431 107.168V104.644C160.425 103.707 159.67 102.958 158.739 102.958H156.215C155.283 102.958 154.528 103.713 154.528 104.644Z" fill="black"/>
<path d="M183.128 104.644V107.174C183.128 108.106 183.883 108.855 184.814 108.855H187.344C188.282 108.855 189.031 108.1 189.031 107.168V104.644C189.025 103.707 188.27 102.958 187.338 102.958H184.814C183.883 102.958 183.128 103.713 183.128 104.644Z" fill="black"/>
<path d="M200.464 108.855H196.572C195.465 108.855 194.567 107.957 194.567 106.85V104.963C194.567 103.856 195.465 102.958 196.572 102.958H200.464V108.855Z" fill="black"/>
<path d="M206.184 102.958H200.287V108.855H206.184V102.958Z" fill="black"/>
<path d="M206.007 108.855V102.958H209.899C211.006 102.958 211.904 103.856 211.904 104.963V108.855H206.007Z" fill="black"/>
<path d="M11.7074 108.678H5.81055V114.575H11.7074V108.678Z" fill="black"/>
<path d="M11.5308 114.575V110.683C11.5308 109.576 12.4284 108.678 13.5357 108.678H15.4227C16.5299 108.678 17.4276 109.576 17.4276 110.683V114.575H11.5308Z" fill="black"/>
<path d="M22.9702 114.575V110.683C22.9702 109.576 23.8678 108.678 24.9751 108.678H26.8621C27.9694 108.678 28.867 109.576 28.867 110.683V114.575H22.9702Z" fill="black"/>
<path d="M63.1865 108.678V114.575H59.2946C58.1873 114.575 57.2897 113.677 57.2897 112.57V108.678H63.1865Z" fill="black"/>
<path d="M63.0098 108.678H68.9066V112.57C68.9066 113.677 68.0089 114.575 66.9017 114.575H63.0098V108.678Z" fill="black"/>
<path d="M131.648 110.365V112.894C131.648 113.826 132.403 114.575 133.335 114.575H135.865C136.802 114.575 137.551 113.82 137.551 112.889V110.365C137.545 109.427 136.79 108.678 135.859 108.678H133.335C132.403 108.678 131.648 109.433 131.648 110.365Z" fill="black"/>
<path d="M160.248 110.365V112.894C160.248 113.826 161.003 114.575 161.935 114.575H164.464C165.402 114.575 166.151 113.82 166.151 112.889V110.365C166.145 109.427 165.39 108.678 164.458 108.678H161.935C161.003 108.678 160.248 109.433 160.248 110.365Z" fill="black"/>
<path d="M211.903 108.678V112.57C211.903 113.677 211.006 114.575 209.898 114.575H208.011C206.904 114.575 206.007 113.677 206.007 112.57V108.678H211.903Z" fill="black"/>
<path d="M5.98779 120.295H0.0909872L0.0909872 116.403C0.0909872 115.296 0.988618 114.398 2.0959 114.398H5.98779L5.98779 120.295Z" fill="black"/>
<path d="M11.7074 114.398H5.81055V120.295H11.7074V114.398Z" fill="black"/>
<path d="M28.867 114.398H22.9702V120.295H28.867V114.398Z" fill="black"/>
<path d="M40.3071 120.295H36.4152C35.308 120.295 34.4103 119.397 34.4103 118.29V116.403C34.4103 115.296 35.308 114.398 36.4152 114.398H40.3071V120.295Z" fill="black"/>
<path d="M40.1304 120.295V114.398H44.0223C45.1295 114.398 46.0272 115.296 46.0272 116.403V120.295H40.1304Z" fill="black"/>
<path d="M51.5698 116.084V118.614C51.5698 119.546 52.3246 120.295 53.2563 120.295H55.786C56.7236 120.295 57.4725 119.54 57.4725 118.608V116.084C57.4666 115.147 56.7118 114.398 55.7801 114.398H53.2563C52.3246 114.398 51.5698 115.153 51.5698 116.084Z" fill="black"/>
<path d="M72.8281 120.177V120.295H74.6267V118.496H74.5087C74.5087 119.428 73.7539 120.177 72.8281 120.177Z" fill="black"/>
<path d="M80.3462 120.295H74.4494V116.403C74.4494 115.296 75.347 114.398 76.4543 114.398H80.3462V120.295Z" fill="black"/>
<path d="M86.0662 114.398H80.1694V120.295H86.0662V114.398Z" fill="black"/>
<path d="M125.929 120.295V114.398H129.821C130.928 114.398 131.826 115.296 131.826 116.403V120.295H125.929Z" fill="black"/>
<path d="M143.265 120.295H139.373C138.266 120.295 137.368 119.397 137.368 118.29V116.403C137.368 115.296 138.266 114.398 139.373 114.398H143.265V120.295Z" fill="black"/>
<path d="M148.985 114.398H143.088V120.295H148.985V114.398Z" fill="black"/>
<path d="M154.705 114.398H148.808V120.295H154.705V114.398Z" fill="black"/>
<path d="M154.528 120.295V116.403C154.528 115.296 155.426 114.398 156.533 114.398H158.42C159.527 114.398 160.425 115.296 160.425 116.403V120.295H154.528Z" fill="black"/>
<path d="M171.864 120.295H167.972C166.865 120.295 165.967 119.397 165.967 118.29V116.403C165.967 115.296 166.865 114.398 167.972 114.398H171.864V120.295Z" fill="black"/>
<path d="M177.584 114.398H171.688V120.295H177.584V114.398Z" fill="black"/>
<path d="M183.305 114.398H177.408V120.295H183.305V114.398Z" fill="black"/>
<path d="M189.025 114.398H183.128V120.295H189.025V114.398Z" fill="black"/>
<path d="M194.744 114.398H188.848V120.295H194.744V114.398Z" fill="black"/>
<path d="M194.567 120.295V116.403C194.567 115.296 195.465 114.398 196.572 114.398H198.459C199.567 114.398 200.464 115.296 200.464 116.403V120.295H194.567Z" fill="black"/>
<path d="M5.98763 120.118H0.0908203V126.015H5.98763V120.118Z" fill="black"/>
<path d="M5.81055 120.118H11.7074V124.01C11.7074 125.117 10.8097 126.015 9.70244 126.015H5.81055V120.118Z" fill="black"/>
<path d="M21.3486 125.897V126.015H23.1472V124.216H23.0292C23.0292 125.148 22.2744 125.897 21.3486 125.897Z" fill="black"/>
<path d="M28.867 120.118H22.9702V126.015H28.867V120.118Z" fill="black"/>
<path d="M46.0272 120.118H40.1304V126.015H46.0272V120.118Z" fill="black"/>
<path d="M45.8501 126.015V122.123C45.8501 121.016 46.7477 120.118 47.855 120.118H49.742C50.8493 120.118 51.7469 121.016 51.7469 122.123V126.015H45.8501Z" fill="black"/>
<path d="M74.6265 126.015H68.7297V122.123C68.7297 121.015 69.6273 120.118 70.7346 120.118H74.6265V126.015Z" fill="black"/>
<path d="M80.3465 120.118H74.4497V126.015H80.3465V120.118Z" fill="black"/>
<path d="M86.0662 120.118H80.1694V126.015H86.0662V120.118Z" fill="black"/>
<path d="M85.8892 120.118H91.786V124.01C91.786 125.117 90.8883 126.015 89.7811 126.015H85.8892V120.118Z" fill="black"/>
<path d="M131.826 120.118H125.929V126.015H131.826V120.118Z" fill="black"/>
<path d="M154.705 120.118V124.01C154.705 125.117 153.807 126.015 152.7 126.015H150.813C149.706 126.015 148.808 125.117 148.808 124.01V120.118H154.705Z" fill="black"/>
<path d="M160.248 121.805V124.334C160.248 125.266 161.003 126.015 161.935 126.015H164.464C165.402 126.015 166.151 125.26 166.151 124.328V121.805C166.145 120.867 165.39 120.118 164.458 120.118H161.935C161.003 120.118 160.248 120.873 160.248 121.805Z" fill="black"/>
<path d="M183.305 120.118H177.408V126.015H183.305V120.118Z" fill="black"/>
<path d="M200.287 126.015V122.123C200.287 121.016 201.185 120.118 202.292 120.118H204.179C205.286 120.118 206.184 121.016 206.184 122.123V126.015H200.287Z" fill="black"/>
<path d="M5.9873 125.838V129.73C5.9873 130.837 5.08967 131.735 3.98239 131.735H2.09541C0.98813 131.735 0.0904989 130.837 0.0904989 129.73V125.838H5.9873Z" fill="black"/>
<path d="M23.1475 131.735H19.2556C18.1483 131.735 17.2507 130.837 17.2507 129.73V127.843C17.2507 126.736 18.1483 125.838 19.2556 125.838H23.1475V131.735Z" fill="black"/>
<path d="M28.867 125.838H22.9702V131.735H28.867V125.838Z" fill="black"/>
<path d="M40.3071 131.735H36.4152C35.308 131.735 34.4103 130.837 34.4103 129.73V127.843C34.4103 126.736 35.308 125.838 36.4152 125.838H40.3071V131.735Z" fill="black"/>
<path d="M46.0272 125.838H40.1304V131.735H46.0272V125.838Z" fill="black"/>
<path d="M51.5698 127.524V130.054C51.5698 130.986 52.3246 131.735 53.2563 131.735H55.786C56.7236 131.735 57.4725 130.98 57.4725 130.048V127.524C57.4666 126.587 56.7118 125.838 55.7801 125.838H53.2563C52.3246 125.838 51.5698 126.593 51.5698 127.524Z" fill="black"/>
<path d="M74.6265 125.838V129.73C74.6265 130.837 73.7288 131.735 72.6216 131.735H70.7346C69.6273 131.735 68.7297 130.837 68.7297 129.73V125.838H74.6265Z" fill="black"/>
<path d="M120.386 125.838H114.489V131.735H120.386V125.838Z" fill="black"/>
<path d="M126.106 125.838H120.209V131.735H126.106V125.838Z" fill="black"/>
<path d="M131.826 125.838H125.929V131.735H131.826V125.838Z" fill="black"/>
<path d="M131.648 131.735V125.838H135.54C136.648 125.838 137.545 126.736 137.545 127.843V131.735H131.648Z" fill="black"/>
<path d="M152.906 131.617V131.735H154.705V129.936H154.587C154.587 130.868 153.832 131.617 152.906 131.617Z" fill="black"/>
<path d="M154.528 131.735V127.843C154.528 126.736 155.426 125.838 156.533 125.838H158.42C159.527 125.838 160.425 126.736 160.425 127.843V131.735H154.528Z" fill="black"/>
<path d="M177.585 131.734H173.693C172.586 131.734 171.688 130.837 171.688 129.729V127.842C171.688 126.735 172.586 125.838 173.693 125.838H177.585V131.734Z" fill="black"/>
<path d="M177.408 125.838H183.305V129.73C183.305 130.837 182.407 131.735 181.3 131.735H177.408V125.838Z" fill="black"/>
<path d="M206.184 125.838H200.287V131.735H206.184V125.838Z" fill="black"/>
<path d="M206.007 131.735V127.843C206.007 126.736 206.904 125.838 208.012 125.838H209.899C211.006 125.838 211.904 126.736 211.904 127.843V131.735H206.007Z" fill="black"/>
<path d="M11.5308 133.244V135.774C11.5308 136.706 12.2856 137.454 13.2172 137.454H15.747C16.6846 137.454 17.4335 136.7 17.4335 135.768V133.244C17.4276 132.307 16.6728 131.558 15.7411 131.558H13.2172C12.2856 131.558 11.5308 132.312 11.5308 133.244Z" fill="black"/>
<path d="M28.8672 131.558V137.454H24.9753C23.868 137.454 22.9704 136.557 22.9704 135.45V131.558H28.8672Z" fill="black"/>
<path d="M28.6904 137.455V133.563C28.6904 132.455 29.5881 131.558 30.6953 131.558H32.5823C33.6896 131.558 34.5872 132.455 34.5872 133.563V137.455H28.6904Z" fill="black"/>
<path d="M46.0272 131.558H40.1304V137.454H46.0272V131.558Z" fill="black"/>
<path d="M45.8501 137.455V131.558H49.742C50.8493 131.558 51.7469 132.455 51.7469 133.563V137.455H45.8501Z" fill="black"/>
<path d="M74.4497 137.455V133.563C74.4497 132.455 75.3473 131.558 76.4546 131.558H78.3416C79.4489 131.558 80.3465 132.455 80.3465 133.563V137.455H74.4497Z" fill="black"/>
<path d="M84.2676 137.337V137.455H86.0661V135.656H85.9482C85.9482 136.588 85.1934 137.337 84.2676 137.337Z" fill="black"/>
<path d="M91.7861 137.455H85.8893V133.563C85.8893 132.455 86.787 131.558 87.8942 131.558H91.7861V137.455Z" fill="black"/>
<path d="M97.5062 131.558H91.6094V137.454H97.5062V131.558Z" fill="black"/>
<path d="M103.226 131.558H97.3291V137.454H103.226V131.558Z" fill="black"/>
<path d="M108.946 131.558H103.049V137.454H108.946V131.558Z" fill="black"/>
<path d="M114.666 131.558H108.769V137.454H114.666V131.558Z" fill="black"/>
<path d="M126.106 131.558V135.45C126.106 136.557 125.208 137.454 124.101 137.454H122.214C121.107 137.454 120.209 136.557 120.209 135.45V131.558H126.106Z" fill="black"/>
<path d="M137.545 131.558H131.648V137.454H137.545V131.558Z" fill="black"/>
<path d="M154.705 137.455H150.813C149.706 137.455 148.808 136.557 148.808 135.45V133.563C148.808 132.455 149.706 131.558 150.813 131.558H154.705V137.455Z" fill="black"/>
<path d="M160.425 131.558H154.528V137.454H160.425V131.558Z" fill="black"/>
<path d="M166.145 131.558H160.248V137.454H166.145V131.558Z" fill="black"/>
<path d="M165.968 137.455V131.558H169.86C170.967 131.558 171.865 132.455 171.865 133.563V137.455H165.968Z" fill="black"/>
<path d="M198.666 137.337V137.455H200.465V135.656H200.347C200.347 136.588 199.592 137.337 198.666 137.337Z" fill="black"/>
<path d="M206.184 131.558H200.287V137.454H206.184V131.558Z" fill="black"/>
<path d="M40.3071 143.174H36.4152C35.308 143.174 34.4103 142.277 34.4103 141.169V139.282C34.4103 138.175 35.308 137.278 36.4152 137.278H40.3071V143.174Z" fill="black"/>
<path d="M46.0272 137.278H40.1304V143.175H46.0272V137.278Z" fill="black"/>
<path d="M45.8501 137.278H51.7469V141.17C51.7469 142.277 50.8493 143.175 49.742 143.175H45.8501V137.278Z" fill="black"/>
<path d="M57.29 143.175V139.283C57.29 138.176 58.1877 137.278 59.295 137.278H61.1819C62.2892 137.278 63.1868 138.176 63.1868 139.283V143.175H57.29Z" fill="black"/>
<path d="M72.8281 143.057V143.175H74.6267V141.376H74.5087C74.5087 142.308 73.7539 143.057 72.8281 143.057Z" fill="black"/>
<path d="M80.3465 137.278H74.4497V143.175H80.3465V137.278Z" fill="black"/>
<path d="M86.0662 137.278H80.1694V143.175H86.0662V137.278Z" fill="black"/>
<path d="M91.786 137.278H85.8892V143.175H91.786V137.278Z" fill="black"/>
<path d="M97.5062 137.278H91.6094V143.175H97.5062V137.278Z" fill="black"/>
<path d="M114.666 137.278V143.175H110.774C109.666 143.175 108.769 142.277 108.769 141.17V137.278H114.666Z" fill="black"/>
<path d="M114.489 143.175V137.278H118.381C119.488 137.278 120.386 138.176 120.386 139.283V143.175H114.489Z" fill="black"/>
<path d="M137.545 137.278V141.17C137.545 142.277 136.648 143.175 135.54 143.175H133.654C132.546 143.175 131.649 142.277 131.649 141.17V137.278H137.545Z" fill="black"/>
<path d="M160.425 137.278V143.175H156.533C155.426 143.175 154.528 142.277 154.528 141.17V137.278H160.425Z" fill="black"/>
<path d="M166.145 137.278H160.248V143.175H166.145V137.278Z" fill="black"/>
<path d="M171.865 137.278H165.968V143.175H171.865V137.278Z" fill="black"/>
<path d="M177.584 137.278H171.688V143.175H177.584V137.278Z" fill="black"/>
<path d="M183.305 137.278H177.408V143.175H183.305V137.278Z" fill="black"/>
<path d="M183.128 143.175V139.283C183.128 138.176 184.026 137.278 185.133 137.278H187.02C188.127 137.278 189.025 138.176 189.025 139.283V143.175H183.128Z" fill="black"/>
<path d="M192.946 143.057V143.175H194.745V141.376H194.627C194.627 142.308 193.872 143.057 192.946 143.057Z" fill="black"/>
<path d="M200.464 143.174H194.567V139.282C194.567 138.175 195.465 137.278 196.572 137.278H200.464V143.174Z" fill="black"/>
<path d="M206.184 137.278H200.287V143.175H206.184V137.278Z" fill="black"/>
<path d="M206.007 143.175V139.283C206.007 138.176 206.904 137.278 208.012 137.278H209.899C211.006 137.278 211.904 138.176 211.904 139.283V143.175H206.007Z" fill="black"/>
<path d="M0.0908203 148.895L0.0908203 145.003C0.0908203 143.895 0.988451 142.998 2.09573 142.998H3.98271C5.09 142.998 5.98763 143.895 5.98763 145.003V148.895H0.0908203Z" fill="black"/>
<path d="M21.3486 148.776V148.894H23.1472V147.096H23.0292C23.0292 148.027 22.2744 148.776 21.3486 148.776Z" fill="black"/>
<path d="M28.8672 148.895H22.9704V145.003C22.9704 143.895 23.868 142.998 24.9753 142.998H28.8672V148.895Z" fill="black"/>
<path d="M28.6904 148.895V142.998H32.5823C33.6896 142.998 34.5872 143.895 34.5872 145.003V148.895H28.6904Z" fill="black"/>
<path d="M55.6685 148.776V148.894H57.467V147.096H57.349C57.349 148.027 56.5943 148.776 55.6685 148.776Z" fill="black"/>
<path d="M63.1868 142.998H57.29V148.894H63.1868V142.998Z" fill="black"/>
<path d="M68.9066 142.998H63.0098V148.894H68.9066V142.998Z" fill="black"/>
<path d="M74.6263 142.998H68.7295V148.894H74.6263V142.998Z" fill="black"/>
<path d="M80.3465 142.998H74.4497V148.894H80.3465V142.998Z" fill="black"/>
<path d="M86.0662 142.998H80.1694V148.894H86.0662V142.998Z" fill="black"/>
<path d="M91.786 142.998H85.8892V148.894H91.786V142.998Z" fill="black"/>
<path d="M97.5062 142.998H91.6094V148.894H97.5062V142.998Z" fill="black"/>
<path d="M120.386 142.998V146.889C120.386 147.997 119.488 148.894 118.381 148.894H116.494C115.387 148.894 114.489 147.997 114.489 146.889V142.998H120.386Z" fill="black"/>
<path d="M125.929 148.895V145.003C125.929 143.895 126.826 142.998 127.934 142.998H129.821C130.928 142.998 131.826 143.895 131.826 145.003V148.895H125.929Z" fill="black"/>
<path d="M137.369 144.684V147.214C137.369 148.145 138.123 148.894 139.055 148.894H141.585C142.522 148.894 143.271 148.14 143.271 147.208V144.684C143.265 143.746 142.511 142.998 141.579 142.998H139.055C138.123 142.998 137.369 143.752 137.369 144.684Z" fill="black"/>
<path d="M148.808 148.895V145.003C148.808 143.895 149.706 142.998 150.813 142.998H152.7C153.807 142.998 154.705 143.895 154.705 145.003V148.895H148.808Z" fill="black"/>
<path d="M158.626 148.776V148.894H160.425V147.096H160.307C160.307 148.027 159.552 148.776 158.626 148.776Z" fill="black"/>
<path d="M166.145 142.998H160.248V148.894H166.145V142.998Z" fill="black"/>
<path d="M194.744 148.894H188.847V145.002C188.847 143.895 189.745 142.997 190.852 142.997H194.744V148.894Z" fill="black"/>
<path d="M200.464 142.998H194.567V148.894H200.464V142.998Z" fill="black"/>
<path d="M5.98763 148.717H0.0908203V154.614H5.98763V148.717Z" fill="black"/>
<path d="M17.4272 154.614H11.5304V150.722C11.5304 149.615 12.4281 148.717 13.5354 148.717H17.4272V154.614Z" fill="black"/>
<path d="M23.1473 148.717H17.2505V154.614H23.1473V148.717Z" fill="black"/>
<path d="M28.867 148.717H22.9702V154.614H28.867V148.717Z" fill="black"/>
<path d="M34.5872 148.717H28.6904V154.614H34.5872V148.717Z" fill="black"/>
<path d="M40.307 148.717H34.4102V154.614H40.307V148.717Z" fill="black"/>
<path d="M40.1304 154.614V150.722C40.1304 149.615 41.028 148.717 42.1353 148.717H44.0223C45.1295 148.717 46.0272 149.615 46.0272 150.722V154.614H40.1304Z" fill="black"/>
<path d="M57.4668 154.614H53.5749C52.4676 154.614 51.57 153.717 51.57 152.609V150.722C51.57 149.615 52.4676 148.717 53.5749 148.717H57.4668V154.614Z" fill="black"/>
<path d="M63.1868 148.717H57.29V154.614H63.1868V148.717Z" fill="black"/>
<path d="M68.9066 148.717H63.0098V154.614H68.9066V148.717Z" fill="black"/>
<path d="M74.6263 148.717H68.7295V154.614H74.6263V148.717Z" fill="black"/>
<path d="M97.5062 148.717H91.6094V154.614H97.5062V148.717Z" fill="black"/>
<path d="M103.049 150.404V152.934C103.049 153.865 103.804 154.614 104.735 154.614H107.265C108.203 154.614 108.952 153.859 108.952 152.928V150.404C108.946 149.466 108.191 148.717 107.259 148.717H104.735C103.804 148.717 103.049 149.472 103.049 150.404Z" fill="black"/>
<path d="M124.307 154.497V154.614H126.106V152.816H125.988C125.988 153.748 125.233 154.497 124.307 154.497Z" fill="black"/>
<path d="M131.826 148.717H125.929V154.614H131.826V148.717Z" fill="black"/>
<path d="M154.705 148.717H148.808V154.614H154.705V148.717Z" fill="black"/>
<path d="M160.425 148.717H154.528V154.614H160.425V148.717Z" fill="black"/>
<path d="M166.145 148.717H160.248V154.614H166.145V148.717Z" fill="black"/>
<path d="M165.968 154.614V148.717H169.86C170.967 148.717 171.865 149.615 171.865 150.722V154.614H165.968Z" fill="black"/>
<path d="M175.786 154.497V154.614H177.585V152.816H177.467C177.467 153.748 176.712 154.497 175.786 154.497Z" fill="black"/>
<path d="M177.408 154.614V150.722C177.408 149.615 178.306 148.717 179.413 148.717H181.3C182.407 148.717 183.305 149.615 183.305 150.722V154.614H177.408Z" fill="black"/>
<path d="M194.744 148.717H188.848V154.614H194.744V148.717Z" fill="black"/>
<path d="M200.464 148.717H194.567V154.614H200.464V148.717Z" fill="black"/>
<path d="M206.184 148.717H200.287V154.614H206.184V148.717Z" fill="black"/>
<path d="M206.007 154.614V150.722C206.007 149.615 206.904 148.717 208.012 148.717H209.899C211.006 148.717 211.904 149.615 211.904 150.722V154.614H206.007Z" fill="black"/>
<path d="M5.98763 154.438H0.0908203V160.334H5.98763V154.438Z" fill="black"/>
<path d="M17.4276 154.438H11.5308V160.334H17.4276V154.438Z" fill="black"/>
<path d="M28.867 154.438H22.9702V160.334H28.867V154.438Z" fill="black"/>
<path d="M45.8501 160.334V156.443C45.8501 155.335 46.7477 154.438 47.855 154.438H49.742C50.8493 154.438 51.7469 155.335 51.7469 156.443V160.334H45.8501Z" fill="black"/>
<path d="M63.1865 154.438V160.334H59.2946C58.1873 160.334 57.2897 159.437 57.2897 158.329V154.438H63.1865Z" fill="black"/>
<path d="M68.9066 154.438H63.0098V160.334H68.9066V154.438Z" fill="black"/>
<path d="M74.6263 154.438H68.7295V160.334H74.6263V154.438Z" fill="black"/>
<path d="M80.3465 154.438H74.4497V160.334H80.3465V154.438Z" fill="black"/>
<path d="M86.0662 154.438H80.1694V160.334H86.0662V154.438Z" fill="black"/>
<path d="M91.786 154.438H85.8892V160.334H91.786V154.438Z" fill="black"/>
<path d="M91.6094 154.438H97.5062V158.329C97.5062 159.437 96.6086 160.334 95.5013 160.334H91.6094V154.438Z" fill="black"/>
<path d="M114.666 160.334H110.774C109.666 160.334 108.769 159.436 108.769 158.329V156.442C108.769 155.335 109.666 154.437 110.774 154.437H114.666V160.334Z" fill="black"/>
<path d="M120.386 154.438H114.489V160.334H120.386V154.438Z" fill="black"/>
<path d="M126.106 154.438H120.209V160.334H126.106V154.438Z" fill="black"/>
<path d="M131.826 154.438H125.929V160.334H131.826V154.438Z" fill="black"/>
<path d="M137.369 156.124V158.654C137.369 159.585 138.123 160.334 139.055 160.334H141.585C142.522 160.334 143.271 159.58 143.271 158.648V156.124C143.265 155.186 142.511 154.438 141.579 154.438H139.055C138.123 154.438 137.369 155.192 137.369 156.124Z" fill="black"/>
<path d="M147.187 160.216V160.334H148.985V158.536H148.867C148.867 159.467 148.112 160.216 147.187 160.216Z" fill="black"/>
<path d="M154.705 154.438H148.808V160.334H154.705V154.438Z" fill="black"/>
<path d="M171.865 154.438H165.968V160.334H171.865V154.438Z" fill="black"/>
<path d="M177.584 154.438H171.688V160.334H177.584V154.438Z" fill="black"/>
<path d="M183.305 154.438H177.408V160.334H183.305V154.438Z" fill="black"/>
<path d="M194.744 154.438V158.329C194.744 159.437 193.847 160.334 192.739 160.334H190.852C189.745 160.334 188.847 159.437 188.847 158.329V154.438H194.744Z" fill="black"/>
<path d="M5.9873 160.157V164.049C5.9873 165.156 5.08967 166.054 3.98239 166.054H2.09541C0.98813 166.054 0.0904989 165.156 0.0904989 164.049V160.157H5.9873Z" fill="black"/>
<path d="M17.4272 160.157V166.054H13.5354C12.4281 166.054 11.5304 165.156 11.5304 164.049V160.157H17.4272Z" fill="black"/>
<path d="M23.1473 160.157H17.2505V166.054H23.1473V160.157Z" fill="black"/>
<path d="M22.9702 160.157H28.867V164.049C28.867 165.156 27.9694 166.054 26.8621 166.054H22.9702V160.157Z" fill="black"/>
<path d="M34.4102 161.844V164.373C34.4102 165.305 35.1649 166.054 36.0966 166.054H38.6264C39.564 166.054 40.3129 165.299 40.3129 164.368V161.844C40.307 160.906 39.5522 160.157 38.6205 160.157H36.0966C35.1649 160.157 34.4102 160.912 34.4102 161.844Z" fill="black"/>
<path d="M51.7469 160.157H45.8501V166.054H51.7469V160.157Z" fill="black"/>
<path d="M68.9062 160.157V166.054H65.0144C63.9071 166.054 63.0094 165.156 63.0094 164.049V160.157H68.9062Z" fill="black"/>
<path d="M74.6263 160.157H68.7295V166.054H74.6263V160.157Z" fill="black"/>
<path d="M80.3465 160.157H74.4497V166.054H80.3465V160.157Z" fill="black"/>
<path d="M91.7861 160.157V164.049C91.7861 165.156 90.8885 166.054 89.7812 166.054H87.8942C86.787 166.054 85.8893 165.156 85.8893 164.049V160.157H91.7861Z" fill="black"/>
<path d="M131.826 160.157H125.929V166.054H131.826V160.157Z" fill="black"/>
<path d="M148.985 166.054H145.093C143.986 166.054 143.088 165.156 143.088 164.049V162.162C143.088 161.055 143.986 160.157 145.093 160.157H148.985V166.054Z" fill="black"/>
<path d="M154.705 160.157H148.808V166.054H154.705V160.157Z" fill="black"/>
<path d="M160.425 160.157H154.528V166.054H160.425V160.157Z" fill="black"/>
<path d="M166.145 160.157H160.248V166.054H166.145V160.157Z" fill="black"/>
<path d="M171.865 160.157H165.968V166.054H171.865V160.157Z" fill="black"/>
<path d="M177.584 160.157H171.688V166.054H177.584V160.157Z" fill="black"/>
<path d="M183.305 160.157H177.408V166.054H183.305V160.157Z" fill="black"/>
<path d="M183.128 166.054V160.157H187.02C188.127 160.157 189.025 161.055 189.025 162.162V166.054H183.128Z" fill="black"/>
<path d="M194.567 161.844V164.373C194.567 165.305 195.322 166.054 196.254 166.054H198.784C199.721 166.054 200.47 165.299 200.47 164.368V161.844C200.464 160.906 199.709 160.157 198.778 160.157H196.254C195.322 160.157 194.567 160.912 194.567 161.844Z" fill="black"/>
<path d="M51.7466 165.877V169.769C51.7466 170.876 50.849 171.774 49.7417 171.774H47.8547C46.7474 171.774 45.8498 170.876 45.8498 169.769V165.877H51.7466Z" fill="black"/>
<path d="M57.29 171.774V167.882C57.29 166.775 58.1877 165.877 59.295 165.877H61.1819C62.2892 165.877 63.1868 166.775 63.1868 167.882V171.774H57.29Z" fill="black"/>
<path d="M74.6263 165.877H68.7295V171.774H74.6263V165.877Z" fill="black"/>
<path d="M80.3465 165.877H74.4497V171.774H80.3465V165.877Z" fill="black"/>
<path d="M80.1694 171.774V165.877H84.0613C85.1686 165.877 86.0662 166.775 86.0662 167.882V171.774H80.1694Z" fill="black"/>
<path d="M89.9878 171.656V171.774H91.7863V169.976H91.6684C91.6684 170.907 90.9136 171.656 89.9878 171.656Z" fill="black"/>
<path d="M91.6094 171.774V167.882C91.6094 166.775 92.507 165.877 93.6143 165.877H95.5013C96.6086 165.877 97.5062 166.775 97.5062 167.882V171.774H91.6094Z" fill="black"/>
<path d="M108.946 171.774H105.054C103.947 171.774 103.049 170.876 103.049 169.769V167.882C103.049 166.775 103.947 165.877 105.054 165.877H108.946V171.774Z" fill="black"/>
<path d="M108.769 171.774V165.877H112.661C113.768 165.877 114.666 166.775 114.666 167.882V171.774H108.769Z" fill="black"/>
<path d="M124.307 171.656V171.774H126.106V169.976H125.988C125.988 170.907 125.233 171.656 124.307 171.656Z" fill="black"/>
<path d="M131.826 165.877H125.929V171.774H131.826V165.877Z" fill="black"/>
<path d="M131.648 171.774V167.882C131.648 166.775 132.546 165.877 133.653 165.877H135.54C136.648 165.877 137.545 166.775 137.545 167.882V171.774H131.648Z" fill="black"/>
<path d="M166.145 165.877H160.248V171.774H166.145V165.877Z" fill="black"/>
<path d="M189.025 165.877H183.128V171.774H189.025V165.877Z" fill="black"/>
<path d="M188.848 171.774V167.882C188.848 166.775 189.745 165.877 190.853 165.877H192.74C193.847 165.877 194.744 166.775 194.744 167.882V171.774H188.848Z" fill="black"/>
<path d="M200.287 167.563V170.093C200.287 171.025 201.042 171.774 201.974 171.774H204.503C205.441 171.774 206.19 171.019 206.19 170.087V167.563C206.184 166.626 205.429 165.877 204.497 165.877H201.974C201.042 165.877 200.287 166.632 200.287 167.563Z" fill="black"/>
<path d="M63.1865 171.597V175.489C63.1865 176.596 62.2889 177.494 61.1816 177.494H59.2946C58.1873 177.494 57.2897 176.596 57.2897 175.489V171.597H63.1865Z" fill="black"/>
<path d="M74.6265 171.597V177.494H70.7346C69.6273 177.494 68.7297 176.596 68.7297 175.489V171.597H74.6265Z" fill="black"/>
<path d="M80.3465 171.597H74.4497V177.494H80.3465V171.597Z" fill="black"/>
<path d="M86.0662 171.597H80.1694V177.494H86.0662V171.597Z" fill="black"/>
<path d="M91.786 171.597H85.8892V177.494H91.786V171.597Z" fill="black"/>
<path d="M97.5062 171.597H91.6094V177.494H97.5062V171.597Z" fill="black"/>
<path d="M97.3291 177.494V173.602C97.3291 172.495 98.2267 171.597 99.334 171.597H101.221C102.328 171.597 103.226 172.495 103.226 173.602V177.494H97.3291Z" fill="black"/>
<path d="M114.666 171.597H108.769V177.494H114.666V171.597Z" fill="black"/>
<path d="M126.105 177.494H122.214C121.106 177.494 120.209 176.596 120.209 175.489V173.602C120.209 172.494 121.106 171.597 122.214 171.597H126.105V177.494Z" fill="black"/>
<path d="M131.826 171.597H125.929V177.494H131.826V171.597Z" fill="black"/>
<path d="M148.985 177.494H145.093C143.986 177.494 143.088 176.596 143.088 175.489V173.602C143.088 172.494 143.986 171.597 145.093 171.597H148.985V177.494Z" fill="black"/>
<path d="M148.808 177.494V171.597H152.7C153.807 171.597 154.705 172.495 154.705 173.602V177.494H148.808Z" fill="black"/>
<path d="M158.626 177.376V177.494H160.425V175.695H160.307C160.307 176.627 159.552 177.376 158.626 177.376Z" fill="black"/>
<path d="M166.145 171.597H160.248V177.494H166.145V171.597Z" fill="black"/>
<path d="M171.688 173.284V175.813C171.688 176.745 172.442 177.494 173.374 177.494H175.904C176.841 177.494 177.59 176.739 177.59 175.807V173.284C177.584 172.346 176.83 171.597 175.898 171.597H173.374C172.442 171.597 171.688 172.352 171.688 173.284Z" fill="black"/>
<path d="M189.025 171.597H183.128V177.494H189.025V171.597Z" fill="black"/>
<path d="M194.567 173.284V175.813C194.567 176.745 195.322 177.494 196.254 177.494H198.784C199.721 177.494 200.47 176.739 200.47 175.807V173.284C200.464 172.346 199.709 171.597 198.778 171.597H196.254C195.322 171.597 194.567 172.352 194.567 173.284Z" fill="black"/>
<path d="M206.007 173.284V175.813C206.007 176.745 206.762 177.494 207.693 177.494H210.223C211.161 177.494 211.91 176.739 211.91 175.807V173.284C211.904 172.346 211.149 171.597 210.217 171.597H207.693C206.762 171.597 206.007 172.352 206.007 173.284Z" fill="black"/>
<path d="M49.9482 183.096V183.214H51.7468V181.415H51.6288C51.6288 182.347 50.874 183.096 49.9482 183.096Z" fill="black"/>
<path d="M51.5698 183.214V179.322C51.5698 178.215 52.4675 177.317 53.5747 177.317H55.4617C56.569 177.317 57.4666 178.215 57.4666 179.322V183.214H51.5698Z" fill="black"/>
<path d="M63.0098 183.214V179.322C63.0098 178.215 63.9074 177.317 65.0147 177.317H66.9017C68.0089 177.317 68.9066 178.215 68.9066 179.322V183.214H63.0098Z" fill="black"/>
<path d="M86.0662 177.317H80.1694V183.214H86.0662V177.317Z" fill="black"/>
<path d="M108.946 183.214H103.049V179.322C103.049 178.215 103.947 177.317 105.054 177.317H108.946V183.214Z" fill="black"/>
<path d="M114.666 177.317H108.769V183.214H114.666V177.317Z" fill="black"/>
<path d="M114.489 183.214V179.322C114.489 178.215 115.386 177.317 116.494 177.317H118.381C119.488 177.317 120.386 178.215 120.386 179.322V183.214H114.489Z" fill="black"/>
<path d="M131.826 177.317H125.929V183.214H131.826V177.317Z" fill="black"/>
<path d="M137.545 177.317H131.648V183.214H137.545V177.317Z" fill="black"/>
<path d="M137.369 183.214V177.317H141.261C142.368 177.317 143.265 178.215 143.265 179.322V183.214H137.369Z" fill="black"/>
<path d="M147.187 183.096V183.214H148.985V181.415H148.867C148.867 182.347 148.112 183.096 147.187 183.096Z" fill="black"/>
<path d="M154.705 177.317H148.808V183.214H154.705V177.317Z" fill="black"/>
<path d="M160.425 177.317H154.528V183.214H160.425V177.317Z" fill="black"/>
<path d="M166.145 177.317H160.248V183.214H166.145V177.317Z" fill="black"/>
<path d="M181.506 183.096V183.214H183.304V181.415H183.186C183.186 182.347 182.432 183.096 181.506 183.096Z" fill="black"/>
<path d="M189.025 177.317H183.128V183.214H189.025V177.317Z" fill="black"/>
<path d="M188.848 183.214V179.322C188.848 178.215 189.745 177.317 190.853 177.317H192.74C193.847 177.317 194.744 178.215 194.744 179.322V183.214H188.848Z" fill="black"/>
<path d="M198.666 183.096V183.214H200.465V181.415H200.347C200.347 182.347 199.592 183.096 198.666 183.096Z" fill="black"/>
<path d="M200.287 183.214V179.322C200.287 178.215 201.185 177.317 202.292 177.317H204.179C205.286 177.317 206.184 178.215 206.184 179.322V183.214H200.287Z" fill="black"/>
<path d="M51.7471 188.934H45.8503V185.042C45.8503 183.934 46.7479 183.037 47.8552 183.037H51.7471V188.934Z" fill="black"/>
<path d="M51.5698 183.037H57.4666V186.929C57.4666 188.036 56.569 188.933 55.4617 188.933H51.5698V183.037Z" fill="black"/>
<path d="M68.9062 183.037V186.929C68.9062 188.036 68.0086 188.933 66.9013 188.933H65.0144C63.9071 188.933 63.0094 188.036 63.0094 186.929V183.037H68.9062Z" fill="black"/>
<path d="M86.0659 183.037V186.929C86.0659 188.036 85.1683 188.933 84.061 188.933H82.174C81.0667 188.933 80.1691 188.036 80.1691 186.929V183.037H86.0659Z" fill="black"/>
<path d="M91.6094 184.723V187.253C91.6094 188.185 92.3642 188.933 93.2959 188.933H95.8256C96.7632 188.933 97.5121 188.179 97.5121 187.247V184.723C97.5062 183.786 96.7514 183.037 95.8197 183.037H93.2959C92.3642 183.037 91.6094 183.791 91.6094 184.723Z" fill="black"/>
<path d="M108.946 183.037V186.929C108.946 188.036 108.048 188.933 106.941 188.933H105.054C103.947 188.933 103.049 188.036 103.049 186.929V183.037H108.946Z" fill="black"/>
<path d="M131.826 183.037V186.929C131.826 188.036 130.928 188.933 129.821 188.933H127.934C126.827 188.933 125.929 188.036 125.929 186.929V183.037H131.826Z" fill="black"/>
<path d="M143.266 183.037V188.933H139.374C138.266 188.933 137.369 188.036 137.369 186.929V183.037H143.266Z" fill="black"/>
<path d="M148.985 183.037H143.088V188.933H148.985V183.037Z" fill="black"/>
<path d="M154.705 183.037H148.808V188.933H154.705V183.037Z" fill="black"/>
<path d="M160.425 183.037H154.528V188.933H160.425V183.037Z" fill="black"/>
<path d="M166.145 183.037H160.248V188.933H166.145V183.037Z" fill="black"/>
<path d="M171.865 183.037H165.968V188.933H171.865V183.037Z" fill="black"/>
<path d="M177.584 183.037H171.688V188.933H177.584V183.037Z" fill="black"/>
<path d="M183.305 183.037H177.408V188.933H183.305V183.037Z" fill="black"/>
<path d="M189.025 183.037H183.128V188.933H189.025V183.037Z" fill="black"/>
<path d="M200.464 188.934H196.572C195.465 188.934 194.567 188.036 194.567 186.929V185.042C194.567 183.934 195.465 183.037 196.572 183.037H200.464V188.934Z" fill="black"/>
<path d="M206.184 183.037H200.287V188.933H206.184V183.037Z" fill="black"/>
<path d="M206.007 188.934V185.042C206.007 183.934 206.904 183.037 208.012 183.037H209.899C211.006 183.037 211.904 183.934 211.904 185.042V188.934H206.007Z" fill="black"/>
<path d="M51.7469 188.757H45.8501V194.654H51.7469V188.757Z" fill="black"/>
<path d="M74.6265 194.654H70.7346C69.6273 194.654 68.7297 193.756 68.7297 192.649V190.762C68.7297 189.655 69.6273 188.757 70.7346 188.757H74.6265V194.654Z" fill="black"/>
<path d="M74.4497 194.654V190.762C74.4497 189.655 75.3473 188.757 76.4546 188.757H78.3416C79.4489 188.757 80.3465 189.655 80.3465 190.762V194.654H74.4497Z" fill="black"/>
<path d="M114.666 194.654H110.774C109.666 194.654 108.769 193.756 108.769 192.649V190.762C108.769 189.655 109.666 188.757 110.774 188.757H114.666V194.654Z" fill="black"/>
<path d="M114.489 194.654V188.757H118.381C119.488 188.757 120.386 189.655 120.386 190.762V194.654H114.489Z" fill="black"/>
<path d="M154.705 188.757H148.808V194.654H154.705V188.757Z" fill="black"/>
<path d="M160.425 188.757H154.528V194.654H160.425V188.757Z" fill="black"/>
<path d="M166.145 188.757H160.248V194.654H166.145V188.757Z" fill="black"/>
<path d="M171.865 188.757H165.968V194.654H171.865V188.757Z" fill="black"/>
<path d="M177.584 188.757H171.688V194.654H177.584V188.757Z" fill="black"/>
<path d="M183.305 188.757H177.408V194.654H183.305V188.757Z" fill="black"/>
<path d="M189.025 188.757H183.128V194.654H189.025V188.757Z" fill="black"/>
<path d="M188.848 194.654V190.762C188.848 189.655 189.745 188.757 190.853 188.757H192.74C193.847 188.757 194.744 189.655 194.744 190.762V194.654H188.848Z" fill="black"/>
<path d="M51.7466 194.477V198.368C51.7466 199.476 50.849 200.373 49.7417 200.373H47.8547C46.7474 200.373 45.8498 199.476 45.8498 198.368V194.477H51.7466Z" fill="black"/>
<path d="M57.29 196.163V198.693C57.29 199.624 58.0448 200.373 58.9765 200.373H61.5063C62.4438 200.373 63.1927 199.619 63.1927 198.687V196.163C63.1868 195.225 62.4321 194.477 61.5004 194.477H58.9765C58.0448 194.477 57.29 195.231 57.29 196.163Z" fill="black"/>
<path d="M103.049 196.163V198.693C103.049 199.624 103.804 200.373 104.735 200.373H107.265C108.203 200.373 108.952 199.619 108.952 198.687V196.163C108.946 195.225 108.191 194.477 107.259 194.477H104.735C103.804 194.477 103.049 195.231 103.049 196.163Z" fill="black"/>
<path d="M120.386 194.477H114.489V200.373H120.386V194.477Z" fill="black"/>
<path d="M130.027 200.255V200.373H131.825V198.575H131.707C131.707 199.506 130.953 200.255 130.027 200.255Z" fill="black"/>
<path d="M137.545 200.374H131.649V196.482C131.649 195.374 132.546 194.477 133.654 194.477H137.545V200.374Z" fill="black"/>
<path d="M143.265 194.477H137.369V200.373H143.265V194.477Z" fill="black"/>
<path d="M148.985 194.477H143.088V200.373H148.985V194.477Z" fill="black"/>
<path d="M148.808 194.477H154.705V198.368C154.705 199.476 153.807 200.373 152.7 200.373H148.808V194.477Z" fill="black"/>
<path d="M166.145 194.477H160.248V200.373H166.145V194.477Z" fill="black"/>
<path d="M165.968 194.477H171.865V198.368C171.865 199.476 170.967 200.373 169.86 200.373H165.968V194.477Z" fill="black"/>
<path d="M183.305 194.477V198.368C183.305 199.476 182.407 200.373 181.3 200.373H179.413C178.306 200.373 177.408 199.476 177.408 198.368V194.477H183.305Z" fill="black"/>
<path d="M194.567 196.163V198.693C194.567 199.624 195.322 200.373 196.254 200.373H198.784C199.721 200.373 200.47 199.619 200.47 198.687V196.163C200.464 195.225 199.709 194.477 198.778 194.477H196.254C195.322 194.477 194.567 195.231 194.567 196.163Z" fill="black"/>
<path d="M206.007 200.374V196.482C206.007 195.374 206.904 194.477 208.012 194.477H209.899C211.006 194.477 211.904 195.374 211.904 196.482V200.374H206.007Z" fill="black"/>
<path d="M61.3882 205.976V206.093H63.1867V204.295H63.0688C63.0688 205.227 62.314 205.976 61.3882 205.976Z" fill="black"/>
<path d="M68.9067 206.093H63.0099V202.201C63.0099 201.094 63.9076 200.196 65.0148 200.196H68.9067V206.093Z" fill="black"/>
<path d="M74.6263 200.197H68.7295V206.094H74.6263V200.197Z" fill="black"/>
<path d="M80.3465 200.197H74.4497V206.094H80.3465V200.197Z" fill="black"/>
<path d="M80.1694 206.094V200.197H84.0613C85.1686 200.197 86.0662 201.095 86.0662 202.202V206.094H80.1694Z" fill="black"/>
<path d="M97.3291 206.094V202.202C97.3291 201.095 98.2267 200.197 99.334 200.197H101.221C102.328 200.197 103.226 201.095 103.226 202.202V206.094H97.3291Z" fill="black"/>
<path d="M114.666 206.093H110.774C109.666 206.093 108.769 205.196 108.769 204.088V202.201C108.769 201.094 109.666 200.196 110.774 200.196H114.666V206.093Z" fill="black"/>
<path d="M120.386 200.197H114.489V206.094H120.386V200.197Z" fill="black"/>
<path d="M126.106 200.197H120.209V206.094H126.106V200.197Z" fill="black"/>
<path d="M131.826 200.197H125.929V206.094H131.826V200.197Z" fill="black"/>
<path d="M137.545 200.197H131.648V206.094H137.545V200.197Z" fill="black"/>
<path d="M166.145 200.197V204.089C166.145 205.196 165.247 206.094 164.14 206.094H162.253C161.145 206.094 160.248 205.196 160.248 204.089V200.197H166.145Z" fill="black"/>
<path d="M171.688 206.094V202.202C171.688 201.095 172.585 200.197 173.692 200.197H175.579C176.687 200.197 177.584 201.095 177.584 202.202V206.094H171.688Z" fill="black"/>
<path d="M204.386 205.976V206.093H206.184V204.295H206.066C206.066 205.227 205.312 205.976 204.386 205.976Z" fill="black"/>
<path d="M211.904 200.197H206.007V206.094H211.904V200.197Z" fill="black"/>
<path d="M63.1865 211.813H59.2946C58.1873 211.813 57.2897 210.916 57.2897 209.809V207.922C57.2897 206.814 58.1873 205.917 59.2946 205.917H63.1865V211.813Z" fill="black"/>
<path d="M63.0098 205.917H68.9066V209.808C68.9066 210.916 68.0089 211.813 66.9017 211.813H63.0098V205.917Z" fill="black"/>
<path d="M86.0659 205.917V209.808C86.0659 210.916 85.1683 211.813 84.061 211.813H82.174C81.0667 211.813 80.1691 210.916 80.1691 209.808V205.917H86.0659Z" fill="black"/>
<path d="M103.226 205.917V211.813H99.3337C98.2264 211.813 97.3288 210.916 97.3288 209.808V205.917H103.226Z" fill="black"/>
<path d="M103.049 211.813V207.922C103.049 206.814 103.946 205.917 105.054 205.917H106.941C108.048 205.917 108.946 206.814 108.946 207.922V211.813H103.049Z" fill="black"/>
<path d="M137.545 205.917V209.808C137.545 210.916 136.648 211.813 135.54 211.813H133.654C132.546 211.813 131.649 210.916 131.649 209.808V205.917H137.545Z" fill="black"/>
<path d="M148.985 211.813H145.093C143.986 211.813 143.088 210.915 143.088 209.808V207.921C143.088 206.814 143.986 205.916 145.093 205.916H148.985V211.813Z" fill="black"/>
<path d="M154.705 205.917H148.808V211.813H154.705V205.917Z" fill="black"/>
<path d="M154.528 211.813V207.922C154.528 206.814 155.426 205.917 156.533 205.917H158.42C159.527 205.917 160.425 206.814 160.425 207.922V211.813H154.528Z" fill="black"/>
<path d="M177.584 205.917V209.808C177.584 210.916 176.686 211.813 175.579 211.813H173.692C172.585 211.813 171.687 210.916 171.687 209.808V205.917H177.584Z" fill="black"/>
<path d="M183.128 207.603V210.133C183.128 211.064 183.883 211.813 184.814 211.813H187.344C188.282 211.813 189.031 211.059 189.031 210.127V207.603C189.025 206.665 188.27 205.917 187.338 205.917H184.814C183.883 205.917 183.128 206.671 183.128 207.603Z" fill="black"/>
<path d="M200.464 211.813H196.572C195.465 211.813 194.567 210.915 194.567 209.808V207.921C194.567 206.814 195.465 205.916 196.572 205.916H200.464V211.813Z" fill="black"/>
<path d="M206.184 205.917H200.287V211.813H206.184V205.917Z" fill="black"/>
<path d="M206.007 205.917H211.904V209.808C211.904 210.916 211.006 211.813 209.899 211.813H206.007V205.917Z" fill="black"/>
<path d="M35.4718 26.9678V14.3091C35.4718 8.69026 34.7074 7.31928 34.3787 6.9898C34.0492 6.66106 32.6782 5.8967 27.0586 5.8967H14.4006C8.78108 5.8967 7.4101 6.66106 7.08136 6.9898C6.75262 7.31928 5.98752 8.69026 5.98752 14.3091V26.9678C5.98752 32.5874 6.75262 33.9584 7.08136 34.2878C7.4101 34.6158 8.78108 35.3809 14.4006 35.3809H27.0586C32.6782 35.3809 34.0492 34.6158 34.3787 34.2878C34.7074 33.9584 35.4718 32.5874 35.4718 26.9678ZM27.0586 0C38.6169 0 41.3685 2.75155 41.3685 14.3091C41.3685 25.8674 41.3685 15.4103 41.3685 26.9678C41.3685 38.5261 38.6169 41.2776 27.0586 41.2776C15.5011 41.2776 25.9582 41.2776 14.4006 41.2776C2.84237 41.2776 0.0908203 38.5261 0.0908203 26.9678C0.0908203 15.4103 0.0908203 20.7638 0.0908203 14.3091C0.0908203 2.75155 2.84237 0 14.4006 0C25.9582 0 15.5011 0 27.0586 0ZM23.442 11.7936C28.3957 11.7936 29.5749 12.9735 29.5749 17.9258C29.5749 22.8795 29.5749 18.3981 29.5749 23.3512C29.5749 28.3042 28.3957 29.484 23.442 29.484C18.489 29.484 22.9703 29.484 18.0173 29.484C13.0643 29.484 11.8844 28.3042 11.8844 23.3512C11.8844 18.3981 11.8844 20.6922 11.8844 17.9258C11.8844 12.9735 13.0643 11.7936 18.0173 11.7936C22.9703 11.7936 18.489 11.7936 23.442 11.7936Z" fill="black"/>
<path d="M205.3 26.9678V14.3091C205.3 8.69026 204.536 7.31928 204.207 6.9898C203.877 6.66106 202.506 5.8967 196.887 5.8967H184.229C178.609 5.8967 177.238 6.66106 176.909 6.9898C176.581 7.31928 175.816 8.69026 175.816 14.3091V26.9678C175.816 32.5874 176.581 33.9584 176.909 34.2878C177.238 34.6158 178.609 35.3809 184.229 35.3809H196.887C202.506 35.3809 203.877 34.6158 204.207 34.2878C204.536 33.9584 205.3 32.5874 205.3 26.9678ZM196.887 0C208.445 0 211.197 2.75155 211.197 14.3091C211.197 25.8674 211.197 15.4103 211.197 26.9678C211.197 38.5261 208.445 41.2776 196.887 41.2776C185.329 41.2776 195.786 41.2776 184.229 41.2776C172.67 41.2776 169.919 38.5261 169.919 26.9678C169.919 15.4103 169.919 20.7638 169.919 14.3091C169.919 2.75155 172.67 0 184.229 0C195.786 0 185.329 0 196.887 0ZM193.27 11.7936C198.224 11.7936 199.403 12.9735 199.403 17.9258C199.403 22.8795 199.403 18.3981 199.403 23.3512C199.403 28.3042 198.224 29.484 193.27 29.484C188.317 29.484 192.798 29.484 187.845 29.484C182.892 29.484 181.713 28.3042 181.713 23.3512C181.713 18.3981 181.713 20.6922 181.713 17.9258C181.713 12.9735 182.892 11.7936 187.845 11.7936C192.798 11.7936 188.317 11.7936 193.27 11.7936Z" fill="black"/>
<path d="M35.4718 196.796V184.137C35.4718 178.518 34.7074 177.147 34.3787 176.818C34.0492 176.489 32.6782 175.725 27.0586 175.725H14.4006C8.78108 175.725 7.4101 176.489 7.08136 176.818C6.75262 177.147 5.98752 178.518 5.98752 184.137V196.796C5.98752 202.416 6.75262 203.786 7.08136 204.116C7.4101 204.444 8.78108 205.209 14.4006 205.209H27.0586C32.6782 205.209 34.0492 204.444 34.3787 204.116C34.7074 203.786 35.4718 202.416 35.4718 196.796ZM27.0586 169.828C38.6169 169.828 41.3685 172.58 41.3685 184.137C41.3685 195.695 41.3685 185.238 41.3685 196.796C41.3685 208.354 38.6169 211.106 27.0586 211.106C15.5011 211.106 25.9582 211.106 14.4006 211.106C2.84237 211.106 0.0908203 208.354 0.0908203 196.796C0.0908203 185.238 0.0908203 190.592 0.0908203 184.137C0.0908203 172.58 2.84237 169.828 14.4006 169.828C25.9582 169.828 15.5011 169.828 27.0586 169.828ZM23.442 181.622C28.3957 181.622 29.5749 182.802 29.5749 187.754C29.5749 192.708 29.5749 188.226 29.5749 193.179C29.5749 198.132 28.3957 199.312 23.442 199.312C18.489 199.312 22.9703 199.312 18.0173 199.312C13.0643 199.312 11.8844 198.132 11.8844 193.179C11.8844 188.226 11.8844 190.52 11.8844 187.754C11.8844 182.802 13.0643 181.622 18.0173 181.622C22.9703 181.622 18.489 181.622 23.442 181.622Z" fill="black"/>
<g clip-path="url(#clip0_5738_11174)">
<path d="M106 126C117.046 126 126 117.046 126 106C126 94.9543 117.046 86 106 86C94.9543 86 86 94.9543 86 106C86 117.046 94.9543 126 106 126Z" fill="#F7931A"/>
<path d="M114.79 103.525C115.182 100.905 113.186 99.4963 110.459 98.5563L111.344 95.0062L109.184 94.4688L108.321 97.925C107.754 97.7825 107.171 97.65 106.59 97.5175L107.459 94.0388L105.299 93.5L104.414 97.0487C103.944 96.9412 103.481 96.8363 103.034 96.7238L103.036 96.7125L100.056 95.9687L99.4813 98.2763C99.4813 98.2763 101.085 98.6438 101.051 98.6663C101.926 98.885 102.084 99.4637 102.058 99.9237L101.05 103.967C101.11 103.982 101.188 104.005 101.275 104.039L101.046 103.982L99.6338 109.647C99.5263 109.912 99.255 110.311 98.6425 110.16C98.665 110.191 97.0725 109.769 97.0725 109.769L96 112.241L98.8125 112.943C99.335 113.074 99.8475 113.211 100.351 113.34L99.4575 116.93L101.616 117.467L102.501 113.917C103.091 114.076 103.664 114.224 104.224 114.364L103.341 117.899L105.501 118.436L106.395 114.854C110.08 115.551 112.85 115.27 114.016 111.938C114.956 109.255 113.97 107.706 112.031 106.698C113.444 106.373 114.506 105.444 114.79 103.525V103.525ZM109.853 110.448C109.186 113.131 104.668 111.68 103.203 111.316L104.39 106.56C105.855 106.926 110.551 107.65 109.853 110.448ZM110.521 103.486C109.913 105.928 106.153 104.686 104.934 104.383L106.009 100.07C107.227 100.374 111.156 100.94 110.521 103.486Z" fill="white"/>
</g>
<defs>
<clipPath id="clip0_5738_11174">
<rect width="40" height="40" fill="white" transform="translate(86 86)"/>
</clipPath>
</defs>
</svg>
