<svg width="20" height="20" viewBox="0 0 20 20" fill="none" xmlns="http://www.w3.org/2000/svg">
<path opacity="0.3" d="M13.3335 15.7737C13.8985 15.4478 14.5493 15.4203 15.1127 15.637C15.5827 15.8178 16.1202 15.6678 16.4393 15.2787C17.0085 14.5845 17.4677 13.797 17.7902 12.9412C17.9743 12.452 17.8002 11.9145 17.401 11.5762C16.9518 11.1978 16.6668 10.6345 16.6668 10.0003C16.6668 9.36616 16.9518 8.80283 17.4002 8.42283C17.7993 8.08449 17.9743 7.54783 17.7893 7.05783C17.4668 6.20283 17.0085 5.41449 16.4385 4.72033C16.1193 4.33116 15.5818 4.18116 15.1118 4.36199C14.5493 4.58033 13.8985 4.55283 13.3335 4.22699C12.7668 3.89949 12.4168 3.34699 12.3252 2.74783C12.2502 2.25783 11.8618 1.86616 11.3727 1.78283C10.926 1.70699 10.4677 1.66699 10.0002 1.66699C9.53267 1.66699 9.07433 1.70699 8.62767 1.78283C8.1385 1.86616 7.751 2.25783 7.67517 2.74783C7.5835 3.34699 7.2335 3.89949 6.66683 4.22699C6.10183 4.55283 5.451 4.58033 4.88767 4.36283C4.41767 4.18199 3.88017 4.33199 3.561 4.72116C2.99183 5.41533 2.5335 6.20283 2.211 7.05866C2.026 7.54783 2.201 8.08533 2.60017 8.42283C3.0485 8.80283 3.3335 9.36616 3.3335 10.0003C3.3335 10.6345 3.0485 11.1978 2.60017 11.5778C2.201 11.9162 2.026 12.4528 2.211 12.9428C2.5335 13.7978 2.99183 14.5862 3.56183 15.2803C3.881 15.6695 4.4185 15.8195 4.8885 15.6387C5.451 15.4203 6.10183 15.4478 6.66683 15.7737C7.2335 16.1012 7.5835 16.6537 7.67517 17.2528C7.75017 17.7428 8.1385 18.1345 8.62767 18.2178C9.07433 18.2937 9.53267 18.3337 10.0002 18.3337C10.4677 18.3337 10.926 18.2937 11.3727 18.2178C11.8618 18.1353 12.2502 17.7437 12.3252 17.2528C12.4168 16.6537 12.7668 16.1012 13.3335 15.7737Z" fill="#E7E7E7"/>
<path d="M9.99984 6.66699C8.159 6.66699 6.6665 8.15949 6.6665 10.0003C6.6665 11.8412 8.159 13.3337 9.99984 13.3337C11.8407 13.3337 13.3332 11.8412 13.3332 10.0003C13.3332 8.15949 11.8407 6.66699 9.99984 6.66699Z" fill="#E7E7E7"/>
</svg>
