<svg width="25" height="25" viewBox="0 0 25 25" fill="none" xmlns="http://www.w3.org/2000/svg">
<g opacity="0.3">
<path d="M8.5 13.5C10.157 13.5 11.5 14.843 11.5 16.5V18.5C11.5 20.157 10.157 21.5 8.5 21.5H6.5C4.843 21.5 3.5 20.157 3.5 18.5V16.5C3.5 14.843 4.843 13.5 6.5 13.5H8.5Z" fill="#282828"/>
<path d="M8.5 3.5C10.157 3.5 11.5 4.843 11.5 6.5V8.5C11.5 10.157 10.157 11.5 8.5 11.5H6.5C4.843 11.5 3.5 10.157 3.5 8.5V6.5C3.5 4.843 4.843 3.5 6.5 3.5H8.5Z" fill="#282828"/>
<path d="M18.5 3.5C20.157 3.5 21.5 4.843 21.5 6.5V8.5C21.5 10.157 20.157 11.5 18.5 11.5H16.5C14.843 11.5 13.5 10.157 13.5 8.5V6.5C13.5 4.843 14.843 3.5 16.5 3.5H18.5Z" fill="#282828"/>
</g>
<path d="M16.5 19.5C17.052 19.5 17.5 19.948 17.5 20.5C17.5 21.052 17.052 21.5 16.5 21.5C15.948 21.5 15.5 21.052 15.5 20.5C15.5 19.948 15.948 19.5 16.5 19.5Z" fill="#282828"/>
<path d="M20.5 19.5C21.052 19.5 21.5 19.948 21.5 20.5C21.5 21.052 21.052 21.5 20.5 21.5C19.948 21.5 19.5 21.052 19.5 20.5C19.5 19.948 19.948 19.5 20.5 19.5Z" fill="#282828"/>
<path d="M8.5 15.5C9.052 15.5 9.5 15.948 9.5 16.5V18.5C9.5 19.052 9.052 19.5 8.5 19.5H6.5C5.948 19.5 5.5 19.052 5.5 18.5V16.5C5.5 15.948 5.948 15.5 6.5 15.5H8.5Z" fill="#282828"/>
<path d="M14.5 17.5C15.052 17.5 15.5 17.948 15.5 18.5C15.5 19.052 15.052 19.5 14.5 19.5C13.948 19.5 13.5 19.052 13.5 18.5C13.5 17.948 13.948 17.5 14.5 17.5Z" fill="#282828"/>
<path d="M18.5 17.5C19.052 17.5 19.5 17.948 19.5 18.5C19.5 19.052 19.052 19.5 18.5 19.5C17.948 19.5 17.5 19.052 17.5 18.5C17.5 17.948 17.948 17.5 18.5 17.5Z" fill="#282828"/>
<path d="M16.5 15.5C17.052 15.5 17.5 15.948 17.5 16.5C17.5 17.052 17.052 17.5 16.5 17.5C15.948 17.5 15.5 17.052 15.5 16.5C15.5 15.948 15.948 15.5 16.5 15.5Z" fill="#282828"/>
<path d="M20.5 15.5C21.052 15.5 21.5 15.948 21.5 16.5C21.5 17.052 21.052 17.5 20.5 17.5C19.948 17.5 19.5 17.052 19.5 16.5C19.5 15.948 19.948 15.5 20.5 15.5Z" fill="#282828"/>
<path d="M14.5 13.5C15.052 13.5 15.5 13.948 15.5 14.5C15.5 15.052 15.052 15.5 14.5 15.5C13.948 15.5 13.5 15.052 13.5 14.5C13.5 13.948 13.948 13.5 14.5 13.5Z" fill="#282828"/>
<path d="M18.5 13.5C19.052 13.5 19.5 13.948 19.5 14.5C19.5 15.052 19.052 15.5 18.5 15.5C17.948 15.5 17.5 15.052 17.5 14.5C17.5 13.948 17.948 13.5 18.5 13.5Z" fill="#282828"/>
<path d="M8.5 5.5C9.052 5.5 9.5 5.948 9.5 6.5V8.5C9.5 9.052 9.052 9.5 8.5 9.5H6.5C5.948 9.5 5.5 9.052 5.5 8.5V6.5C5.5 5.948 5.948 5.5 6.5 5.5H8.5Z" fill="#282828"/>
<path d="M18.5 5.5C19.052 5.5 19.5 5.948 19.5 6.5V8.5C19.5 9.052 19.052 9.5 18.5 9.5H16.5C15.948 9.5 15.5 9.052 15.5 8.5V6.5C15.5 5.948 15.948 5.5 16.5 5.5H18.5Z" fill="#282828"/>
</svg>
