<svg width="24" height="25" viewBox="0 0 24 25" fill="none" xmlns="http://www.w3.org/2000/svg">
<path opacity="0.3" d="M17.1401 9.03906H15.4269V11.6089H16.7118C16.9688 11.6089 17.1401 11.7802 17.1401 12.0372V18.0334C17.1401 18.2904 16.9688 18.4618 16.7118 18.4618H7.28914C7.03216 18.4618 6.86084 18.2904 6.86084 18.0334V12.0372C6.86084 11.7802 7.03216 11.6089 7.28914 11.6089H8.57406V9.03906H6.86084C5.40461 9.03906 4.29102 10.1527 4.29102 11.6089V18.4618C4.29102 19.918 5.40461 21.0316 6.86084 21.0316H17.1401C18.5964 21.0316 19.71 19.918 19.71 18.4618V11.6089C19.71 10.1527 18.5964 9.03906 17.1401 9.03906Z" fill="#E7E7E7"/>
<path d="M14.8258 7.32649C15.3398 7.32649 15.5968 6.72686 15.2541 6.29856L12.77 3.81439C12.3417 3.38609 11.6564 3.38609 11.2281 3.81439L8.74391 6.29856C8.40126 6.72686 8.65825 7.32649 9.17221 7.32649H14.8258Z" fill="#E7E7E7"/>
<path d="M13.7135 15.0358V6.46973H10.2871V15.0358C10.2871 15.5498 10.6298 15.8924 11.1437 15.8924H12.8569C13.3709 15.8924 13.7135 15.5498 13.7135 15.0358Z" fill="#E7E7E7"/>
</svg>
