<svg width="14" height="18" viewBox="0 0 14 18" fill="none" xmlns="http://www.w3.org/2000/svg">
<path d="M0 4.12109L2.03413 7.86168V10.1433L0.00237959 13.8766L0 4.12109Z" fill="#5B57A2"/>
<path d="M7.81055 6.50055L9.71659 5.29867L13.6174 5.29492L7.81055 8.95472V6.50055Z" fill="#D90751"/>
<path d="M7.79959 4.0993L7.81037 9.0517L5.77148 7.76284V0.359863L7.79959 4.0993Z" fill="#FAB718"/>
<path d="M13.6173 5.29513L9.71628 5.29888L7.79959 4.0993L5.77148 0.359863L13.6173 5.29513Z" fill="#ED6F26"/>
<path d="M7.81037 13.8976V11.4949L5.77148 10.2305L5.7726 17.6408L7.81037 13.8976Z" fill="#63B22F"/>
<path d="M9.7115 12.7064L2.03399 7.86168L0 4.12109L13.6088 12.7015L9.7115 12.7064Z" fill="#1487C9"/>
<path d="M5.77148 17.6407L7.80897 13.8975L9.71026 12.7066L13.6076 12.7017L5.77148 17.6407Z" fill="#017F36"/>
<path d="M0.00390625 13.8765L5.78952 10.2302L3.84442 9.00244L2.03565 10.1433L0.00390625 13.8765Z" fill="#984995"/>
</svg>
