<svg width="20" height="20" viewBox="0 0 20 20" fill="none" xmlns="http://www.w3.org/2000/svg">
<g clip-path="url(#clip0_6076_27961)">
<g clip-path="url(#clip1_6076_27961)">
<path d="M10 20C15.5228 20 20 15.5228 20 10C20 4.47715 15.5228 0 10 0C4.47715 0 0 4.47715 0 10C0 15.5228 4.47715 20 10 20Z" fill="#F7931A"/>
<path d="M14.395 8.7625C14.5912 7.4525 13.5931 6.74813 12.2294 6.27813L12.6719 4.50312L11.5919 4.23438L11.1606 5.9625C10.8769 5.89125 10.5856 5.825 10.295 5.75875L10.7294 4.01938L9.64938 3.75L9.20687 5.52437C8.97187 5.47062 8.74063 5.41813 8.51688 5.36188L8.51813 5.35625L7.02813 4.98437L6.74063 6.13813C6.74063 6.13813 7.5425 6.32188 7.52563 6.33313C7.96313 6.4425 8.04188 6.73187 8.02875 6.96187L7.525 8.98375C7.555 8.99125 7.59375 9.0025 7.6375 9.01937L7.52313 8.99125L6.81688 11.8237C6.76313 11.9562 6.6275 12.1556 6.32125 12.08C6.3325 12.0956 5.53625 11.8844 5.53625 11.8844L5 13.1206L6.40625 13.4713C6.6675 13.5369 6.92375 13.6056 7.17562 13.67L6.72875 15.465L7.80813 15.7337L8.25063 13.9587C8.54563 14.0381 8.83188 14.1119 9.11188 14.1819L8.67063 15.9494L9.75063 16.2181L10.1975 14.4269C12.04 14.7756 13.425 14.635 14.0081 12.9688C14.4781 11.6275 13.985 10.8531 13.0156 10.3488C13.7219 10.1863 14.2531 9.72188 14.395 8.7625V8.7625ZM11.9263 12.2238C11.5931 13.5656 9.33375 12.84 8.60125 12.6581L9.195 10.28C9.9275 10.4631 12.2756 10.825 11.9263 12.2238ZM12.2606 8.74313C11.9563 9.96375 10.0763 9.34313 9.46688 9.19125L10.0044 7.035C10.6137 7.18687 12.5781 7.47 12.2606 8.74313Z" fill="white"/>
</g>
</g>
<defs>
<clipPath id="clip0_6076_27961">
<rect width="20" height="20" fill="white"/>
</clipPath>
<clipPath id="clip1_6076_27961">
<rect width="20" height="20" fill="white"/>
</clipPath>
</defs>
</svg>
