<svg width="20" height="20" viewBox="0 0 20 20" fill="none" xmlns="http://www.w3.org/2000/svg">
<path opacity="0.3" d="M3.33398 15.8332V4.1665C3.33398 2.78567 4.45315 1.6665 5.83398 1.6665H11.6673L16.6673 6.6665V15.8332C16.6673 17.214 15.5482 18.3332 14.1673 18.3332H5.83398C4.45315 18.3332 3.33398 17.214 3.33398 15.8332Z" fill="#6C757D"/>
<path d="M11.666 4.99984V1.6665L16.666 6.6665H13.3327C12.4118 6.6665 11.666 5.92067 11.666 4.99984Z" fill="#6C757D"/>
<path d="M18.0518 16.1785C18.2209 15.7785 18.3151 15.3385 18.3151 14.8768C18.3151 13.0343 16.8243 11.5435 14.9818 11.5435C13.1426 11.5435 11.6484 13.0343 11.6484 14.8768C11.6484 16.7193 13.1426 18.2101 14.9818 18.2101C15.4443 18.2101 15.8834 18.116 16.2834 17.9468L17.8493 19.5126C18.0901 19.7568 18.4126 19.8776 18.7318 19.8776C19.0509 19.8776 19.3734 19.7568 19.6168 19.5126C20.1018 19.0243 20.1018 18.2301 19.6168 17.7418L18.0518 16.1785ZM14.9826 16.5426C14.0618 16.5426 13.3159 15.7968 13.3159 14.876C13.3159 13.9551 14.0618 13.2093 14.9826 13.2093C15.9034 13.2093 16.6493 13.9551 16.6493 14.876C16.6493 15.7968 15.9034 16.5426 14.9826 16.5426Z" fill="#6C757D"/>
<path d="M9.58398 7.5C10.2743 7.5 10.834 6.94036 10.834 6.25C10.834 5.55964 10.2743 5 9.58398 5C8.89363 5 8.33398 5.55964 8.33398 6.25C8.33398 6.94036 8.89363 7.5 9.58398 7.5Z" fill="#6C757D"/>
<path d="M10.8333 10.0002H8.33333C7.87333 10.0002 7.5 9.62683 7.5 9.16683C7.5 8.70683 7.87333 8.3335 8.33333 8.3335H10.8333C11.2933 8.3335 11.6667 8.70683 11.6667 9.16683C11.6667 9.62683 11.2933 10.0002 10.8333 10.0002Z" fill="#6C757D"/>
<path d="M6.66732 11.6665C6.20732 11.6665 5.83398 12.0398 5.83398 12.4998C5.83398 12.9598 6.20732 13.3332 6.66732 13.3332H10.2915C10.5115 12.7115 10.8498 12.1473 11.2815 11.6665H6.66732Z" fill="#6C757D"/>
<path d="M6.66732 15C6.20732 15 5.83398 15.3733 5.83398 15.8333C5.83398 16.2933 6.20732 16.6667 6.66732 16.6667H10.2915C10.1065 16.145 10.0007 15.585 10.0007 15H6.66732Z" fill="#6C757D"/>
</svg>
