<svg width="24" height="24" viewBox="0 0 24 24" fill="none" xmlns="http://www.w3.org/2000/svg">
<g opacity="0.3">
<path d="M21.1972 6.165L20.4552 6.636C20.3662 6.497 20.2562 6.369 20.1602 6.234C20.1412 6.204 20.1282 6.172 20.1072 6.143C20.0652 6.085 20.0142 6.034 19.9712 5.977C19.8172 5.775 19.6582 5.578 19.4882 5.387C19.3622 5.245 19.2302 5.11 19.0972 4.976C18.9562 4.835 18.8162 4.695 18.6662 4.562C18.4602 4.378 18.2452 4.209 18.0262 4.044C17.9312 3.973 17.8422 3.899 17.7442 3.831C16.0782 2.662 14.0782 2 12.0012 2C9.78924 2 7.67524 2.829 5.71824 4.466C4.87024 5.174 4.75824 6.436 5.46724 7.283C6.17524 8.13 7.43724 8.243 8.28424 7.534C9.51924 6.502 10.7342 6 12.0012 6C12.1652 6 12.3272 6.016 12.4892 6.029C12.5292 6.035 12.5652 6.05 12.6052 6.054C12.9832 6.089 13.3612 6.16 13.7342 6.268C13.7372 6.269 13.7402 6.27 13.7442 6.271C13.9082 6.319 14.0712 6.377 14.2332 6.44C14.3442 6.485 14.4542 6.534 14.5622 6.585C14.6282 6.615 14.6952 6.643 14.7602 6.676C14.9392 6.769 15.1122 6.872 15.2812 6.982C15.3032 6.996 15.3252 7.008 15.3472 7.022C15.9292 7.413 16.4472 7.906 16.8672 8.488C16.8932 8.524 16.9282 8.55 16.9562 8.584C17.0002 8.647 17.0512 8.705 17.0922 8.769L16.3142 9.263C15.8582 9.552 15.9782 10.247 16.5042 10.368L20.2432 11.223C20.7192 11.332 21.1922 11.032 21.2962 10.555L22.1152 6.808C22.2312 6.281 21.6532 5.876 21.1972 6.165Z" fill="#E7E7E7"/>
<path d="M19.1742 15.38C18.2792 14.732 17.0282 14.932 16.3812 15.827C15.2782 17.351 13.9682 18 12.0012 18C11.7262 18 11.4582 17.962 11.1902 17.926C11.1762 17.924 11.1632 17.917 11.1482 17.915C10.9682 17.891 10.7882 17.858 10.6092 17.817C10.4052 17.768 10.2022 17.715 10.0032 17.645C9.64224 17.521 9.28724 17.362 8.94424 17.164C8.01424 16.627 7.28624 15.879 6.77824 15.016L7.57624 14.555C8.04324 14.285 7.95324 13.586 7.43224 13.443L3.73224 12.433C3.26124 12.304 2.77624 12.585 2.65224 13.057L1.67724 16.767C1.54024 17.289 2.10124 17.717 2.56824 17.447L3.33024 17.006C4.17724 18.455 5.39524 19.713 6.95324 20.613C7.30724 20.818 7.67024 20.991 8.03724 21.148C8.14724 21.218 8.26624 21.279 8.39224 21.328C9.54424 21.773 10.7582 22 12.0012 22C15.2642 22 17.7562 20.748 19.6212 18.173C20.2692 17.278 20.0682 16.027 19.1742 15.38Z" fill="#E7E7E7"/>
</g>
<path d="M10.291 15.457C10.156 15.457 10.02 15.415 9.904 15.328C9.619 15.114 9.56 14.709 9.775 14.425L13.65 9.259C13.864 8.974 14.269 8.916 14.553 9.13C14.838 9.344 14.897 9.749 14.682 10.033L10.807 15.199C10.682 15.368 10.488 15.457 10.291 15.457Z" fill="#E7E7E7"/>
<path d="M15 15C15.5523 15 16 14.5523 16 14C16 13.4477 15.5523 13 15 13C14.4477 13 14 13.4477 14 14C14 14.5523 14.4477 15 15 15Z" fill="#E7E7E7"/>
<path d="M10 11C10.5523 11 11 10.5523 11 10C11 9.44772 10.5523 9 10 9C9.44772 9 9 9.44772 9 10C9 10.5523 9.44772 11 10 11Z" fill="#E7E7E7"/>
</svg>
