<svg width="25" height="24" viewBox="0 0 25 24" fill="none" xmlns="http://www.w3.org/2000/svg">
<path opacity="0.3" d="M21.9274 12.015L20.1974 9.909C19.7154 5.505 16.5004 2 11.5004 2C5.86344 2 2.52344 5.928 2.52344 11C2.52344 14.638 4.41044 16.297 5.17944 18.832C5.56744 20.11 6.72244 21 8.05744 21H16.6854C18.1144 21 19.3454 19.991 19.6264 18.59L20.1504 15.976L21.2744 15.365C22.4954 14.7 22.8094 13.089 21.9274 12.015Z" fill="#282828"/>
<path d="M10.5 1C11.052 1 11.5 1.448 11.5 2V10.1738C12.6647 10.5859 13.5 11.6941 13.5 13C13.5 13.4626 13.3911 13.8988 13.2041 14.29L15.6211 16.707C15.8081 16.8939 16.0652 17 16.3281 17H16.7695C17.1155 16.4027 17.7601 16 18.5 16C19.6046 16 20.5 16.8954 20.5 18C20.5 19.1046 19.6046 20 18.5 20C17.7601 20 17.1155 19.5973 16.7695 19H16.3281C15.5272 19 14.773 18.688 14.207 18.1211L11.79 15.7041C11.3988 15.8911 10.9626 16 10.5 16C8.84315 16 7.5 14.6569 7.5 13C7.5 11.6941 8.33532 10.5859 9.5 10.1738V2C9.5 1.448 9.948 1 10.5 1Z" fill="#282828"/>
</svg>
