<svg width="20" height="20" viewBox="0 0 20 20" fill="none" xmlns="http://www.w3.org/2000/svg">
<path opacity="0.3" d="M18.6941 7.43033C18.2974 6.94449 17.7099 6.66699 17.0832 6.66699H2.91657C2.28991 6.66699 1.70241 6.94449 1.30574 7.43033C0.908241 7.91533 0.750741 8.54533 0.874074 9.15949L1.84074 13.9878C2.15157 15.5403 3.52574 16.667 5.10907 16.667H14.8907C16.4732 16.667 17.8482 15.5403 18.1591 13.9878L19.1257 9.15949C19.2491 8.54449 19.0916 7.91449 18.6941 7.43033Z" fill="#6C757D"/>
<path d="M13.3337 10.0003C13.3337 9.54033 12.9603 9.16699 12.5003 9.16699C12.0403 9.16699 11.667 9.54033 11.667 10.0003C11.667 10.2145 11.667 13.1195 11.667 13.3337C11.667 13.7937 12.0403 14.167 12.5003 14.167C12.9603 14.167 13.3337 13.7937 13.3337 13.3337C13.3337 13.1195 13.3337 10.2145 13.3337 10.0003Z" fill="#6C757D"/>
<path d="M8.33366 10.0003C8.33366 9.54033 7.96033 9.16699 7.50033 9.16699C7.04033 9.16699 6.66699 9.54033 6.66699 10.0003C6.66699 10.2145 6.66699 13.1195 6.66699 13.3337C6.66699 13.7937 7.04033 14.167 7.50033 14.167C7.96033 14.167 8.33366 13.7937 8.33366 13.3337C8.33366 13.1195 8.33366 10.2145 8.33366 10.0003Z" fill="#6C757D"/>
<path d="M7.27583 6.66699L9.33 3.69366C9.48833 3.46449 9.73 3.35033 10.0183 3.33366C10.2967 3.33366 10.5475 3.46699 10.7042 3.69699L12.7325 6.66699H14.7508L12.08 2.75616C11.615 2.07616 10.8458 1.66866 10.0217 1.66699C9.2225 1.67199 8.42667 2.06783 7.95833 2.74616L5.25 6.66699H7.27583Z" fill="#6C757D"/>
</svg>
