<svg width="20" height="20" viewBox="0 0 20 20" fill="none" xmlns="http://www.w3.org/2000/svg">
<path opacity="0.3" d="M17.8565 10.0123L16.4149 8.25734C16.0132 4.58734 13.334 1.6665 9.16736 1.6665C4.46986 1.6665 1.68652 4.93984 1.68652 9.1665C1.68652 12.1982 3.25902 13.5807 3.89986 15.6932C4.22319 16.7582 5.18569 17.4998 6.29819 17.4998H13.4882C14.679 17.4998 15.7049 16.659 15.939 15.4915L16.3757 13.3132L17.3124 12.804C18.3299 12.2498 18.5915 10.9073 17.8565 10.0123Z" fill="#6C757D"/>
<path d="M8.33301 0.833496C8.79301 0.833496 9.16634 1.20683 9.16634 1.66683V8.47835C10.1369 8.82178 10.833 9.74529 10.833 10.8335C10.833 11.219 10.7423 11.5825 10.5864 11.9085L12.6006 13.9227C12.7564 14.0784 12.9707 14.1668 13.1898 14.1668H13.5576C13.8459 13.6691 14.3831 13.3335 14.9997 13.3335C15.9201 13.3335 16.6663 14.0797 16.6663 15.0002C16.6663 15.9206 15.9201 16.6668 14.9997 16.6668C14.3831 16.6668 13.8459 16.3313 13.5576 15.8335H13.1898C12.5223 15.8335 11.8938 15.5735 11.4222 15.1011L9.40804 13.0869C9.08197 13.2428 8.71851 13.3335 8.33301 13.3335C6.9523 13.3335 5.83301 12.2142 5.83301 10.8335C5.83301 9.74529 6.52911 8.82178 7.49967 8.47835V1.66683C7.49967 1.20683 7.87301 0.833496 8.33301 0.833496Z" fill="#6C757D"/>
</svg>
