<svg width="40" height="40" viewBox="0 0 40 40" fill="none" xmlns="http://www.w3.org/2000/svg">
<rect x="0.5" y="0.5" width="39" height="39" rx="11.5" fill="url(#paint0_linear_5865_12846)" fill-opacity="0.25"/>
<rect x="0.5" y="0.5" width="39" height="39" rx="11.5" stroke="url(#paint1_linear_5865_12846)"/>
<path d="M25.8337 23.333H14.167V26.6663H25.8337V23.333Z" fill="#E7E7E7"/>
<path opacity="0.3" d="M22.2567 16.4922L20 13.333L17.7433 16.4922C17.28 17.1405 16.435 17.3897 15.6942 17.0963L12.5 15.833L13.3333 24.9997H26.6667L27.5 15.833L24.3058 17.0972C23.565 17.3897 22.72 17.1405 22.2567 16.4922Z" fill="#E7E7E7"/>
<path d="M19.9997 15.0003C20.9201 15.0003 21.6663 14.2541 21.6663 13.3337C21.6663 12.4132 20.9201 11.667 19.9997 11.667C19.0792 11.667 18.333 12.4132 18.333 13.3337C18.333 14.2541 19.0792 15.0003 19.9997 15.0003Z" fill="#E7E7E7"/>
<path d="M27.4997 17.5003C28.4201 17.5003 29.1663 16.7541 29.1663 15.8337C29.1663 14.9132 28.4201 14.167 27.4997 14.167C26.5792 14.167 25.833 14.9132 25.833 15.8337C25.833 16.7541 26.5792 17.5003 27.4997 17.5003Z" fill="#E7E7E7"/>
<path d="M12.4997 17.5003C13.4201 17.5003 14.1663 16.7541 14.1663 15.8337C14.1663 14.9132 13.4201 14.167 12.4997 14.167C11.5792 14.167 10.833 14.9132 10.833 15.8337C10.833 16.7541 11.5792 17.5003 12.4997 17.5003Z" fill="#E7E7E7"/>
<path d="M25.8337 26.6663C26.7541 26.6663 27.5003 25.9201 27.5003 24.9997C27.5003 24.0792 26.7541 23.333 25.8337 23.333C24.9132 23.333 24.167 24.0792 24.167 24.9997C24.167 25.9201 24.9132 26.6663 25.8337 26.6663Z" fill="#E7E7E7"/>
<path d="M14.1667 26.6663C15.0871 26.6663 15.8333 25.9201 15.8333 24.9997C15.8333 24.0792 15.0871 23.333 14.1667 23.333C13.2462 23.333 12.5 24.0792 12.5 24.9997C12.5 25.9201 13.2462 26.6663 14.1667 26.6663Z" fill="#E7E7E7"/>
<defs>
<linearGradient id="paint0_linear_5865_12846" x1="0" y1="0" x2="40" y2="40" gradientUnits="userSpaceOnUse">
<stop stop-color="#F9FF20"/>
<stop offset="0.3" stop-color="#7FFF47"/>
<stop offset="0.55" stop-color="#F9FF20"/>
<stop offset="0.8" stop-color="#FFDAC0"/>
<stop offset="1" stop-color="#FC76E3"/>
</linearGradient>
<linearGradient id="paint1_linear_5865_12846" x1="1.14034e-08" y1="19.7101" x2="40" y2="19.7101" gradientUnits="userSpaceOnUse">
<stop stop-color="#F9FF20"/>
<stop offset="0.3" stop-color="#7FFF47"/>
<stop offset="0.55" stop-color="#F9FF20"/>
<stop offset="0.8" stop-color="#FFDAC0"/>
<stop offset="1" stop-color="#FC76E3"/>
</linearGradient>
</defs>
</svg>
