<svg width="40" height="40" viewBox="0 0 40 40" fill="none" xmlns="http://www.w3.org/2000/svg">
<rect width="40" height="40" rx="12" fill="#458CFF" fill-opacity="0.12"/>
<g opacity="0.3">
<path d="M26.667 16.6668H13.3337C12.4128 16.6668 11.667 17.4127 11.667 18.3335V23.3335H28.3337V18.3335C28.3337 17.4127 27.5878 16.6668 26.667 16.6668Z" fill="#282828"/>
<path d="M26.667 13.3335H13.3337C12.4128 13.3335 11.667 14.0793 11.667 15.0002V16.6668C11.667 15.746 12.4128 15.0002 13.3337 15.0002H26.667C27.5878 15.0002 28.3337 15.746 28.3337 16.6668V15.0002C28.3337 14.0793 27.5878 13.3335 26.667 13.3335Z" fill="#282828"/>
</g>
<path d="M17.5003 20C17.5003 21.3808 18.6195 22.5 20.0003 22.5C21.3812 22.5 22.5003 21.3808 22.5003 20H28.3337V24.1667C28.3337 25.5475 27.2145 26.6667 25.8337 26.6667H14.167C12.7862 26.6667 11.667 25.5475 11.667 24.1667V20H17.5003Z" fill="#282828"/>
<path d="M26.667 15C27.5878 15 28.3337 15.7458 28.3337 16.6667V18.3333C28.3337 17.4125 27.5878 16.6667 26.667 16.6667H13.3337C12.4128 16.6667 11.667 17.4125 11.667 18.3333V16.6667C11.667 15.7458 12.4128 15 13.3337 15H26.667Z" fill="#282828"/>
</svg>
