<svg width="40" height="40" viewBox="0 0 40 40" fill="none" xmlns="http://www.w3.org/2000/svg">
<rect width="40" height="40" rx="12" fill="#75D94C" fill-opacity="0.16"/>
<g opacity="0.3">
<path d="M15.0003 23.3337C15.9212 23.3337 16.667 24.0795 16.667 25.0003V25.8337C16.667 26.7545 15.9212 27.5003 15.0003 27.5003H13.3337C12.4128 27.5003 11.667 26.7545 11.667 25.8337V25.0003C11.667 24.0795 12.4128 23.3337 13.3337 23.3337H15.0003Z" fill="#E7E7E7"/>
<path d="M20.8337 19.167C21.7545 19.167 22.5003 19.9128 22.5003 20.8337V25.8337C22.5003 26.7545 21.7545 27.5003 20.8337 27.5003H19.167C18.2462 27.5003 17.5003 26.7545 17.5003 25.8337V20.8337C17.5003 19.9128 18.2462 19.167 19.167 19.167H20.8337Z" fill="#E7E7E7"/>
<path d="M26.667 11.667C27.5878 11.667 28.3337 12.4128 28.3337 13.3337V25.8337C28.3337 26.7545 27.5878 27.5003 26.667 27.5003H25.0003C24.0795 27.5003 23.3337 26.7545 23.3337 25.8337V13.3337C23.3337 12.4128 24.0795 11.667 25.0003 11.667H26.667Z" fill="#E7E7E7"/>
</g>
<path d="M19.2655 11.667C19.6721 11.6653 20.0027 11.9953 20.0012 12.4019L19.98 16.8363C19.9774 17.4279 19.2622 17.7217 18.8439 17.3034L17.6509 16.1104L14.1963 19.5658C13.9071 19.8549 13.5281 20.0003 13.149 20.0003C12.7699 20.0003 12.3907 19.8549 12.1016 19.5658C11.5235 18.9874 11.5233 18.0493 12.1016 17.471L15.5562 14.0156L14.3631 12.8226C13.9451 12.4042 14.2395 11.6898 14.8311 11.6873L19.2655 11.667Z" fill="#E7E7E7"/>
</svg>
