<svg width="40" height="40" viewBox="0 0 40 40" fill="none" xmlns="http://www.w3.org/2000/svg">
<rect width="40" height="40" rx="12" fill="#458CFF" fill-opacity="0.12"/>
<g opacity="0.3">
<path d="M26.667 16.6663H13.3337C12.4128 16.6663 11.667 17.4122 11.667 18.333V23.333H28.3337V18.333C28.3337 17.4122 27.5878 16.6663 26.667 16.6663Z" fill="#E7E7E7"/>
<path d="M26.667 13.333H13.3337C12.4128 13.333 11.667 14.0788 11.667 14.9997V16.6663C11.667 15.7455 12.4128 14.9997 13.3337 14.9997H26.667C27.5878 14.9997 28.3337 15.7455 28.3337 16.6663V14.9997C28.3337 14.0788 27.5878 13.333 26.667 13.333Z" fill="#E7E7E7"/>
</g>
<path d="M17.5003 20C17.5003 21.3808 18.6195 22.5 20.0003 22.5C21.3812 22.5 22.5003 21.3808 22.5003 20H28.3337V24.1667C28.3337 25.5475 27.2145 26.6667 25.8337 26.6667H14.167C12.7862 26.6667 11.667 25.5475 11.667 24.1667V20H17.5003Z" fill="#E7E7E7"/>
<path d="M26.667 15C27.5878 15 28.3337 15.7458 28.3337 16.6667V18.3333C28.3337 17.4125 27.5878 16.6667 26.667 16.6667H13.3337C12.4128 16.6667 11.667 17.4125 11.667 18.3333V16.6667C11.667 15.7458 12.4128 15 13.3337 15H26.667Z" fill="#E7E7E7"/>
</svg>
