<svg width="20" height="20" viewBox="0 0 20 20" fill="none" xmlns="http://www.w3.org/2000/svg">
<path opacity="0.3" d="M14.9285 4.52344H4.59514C3.37212 4.52344 2.38086 5.5147 2.38086 6.73772V10.4282C2.38086 11.6512 3.37212 12.6425 4.59514 12.6425H14.9285C16.1515 12.6425 17.1428 11.6512 17.1428 10.4282V6.73772C17.1428 5.5147 16.1515 4.52344 14.9285 4.52344Z" fill="#6C757D"/>
<path d="M9.76242 10.7973C10.3739 10.7973 10.8696 10.3016 10.8696 9.69015C10.8696 9.07869 10.3739 8.58301 9.76242 8.58301C9.15096 8.58301 8.65527 9.07869 8.65527 9.69015C8.65527 10.3016 9.15096 10.7973 9.76242 10.7973Z" fill="#6C757D"/>
<path d="M14.9285 12.643H4.59514C3.37212 12.643 2.38086 11.6517 2.38086 10.4287V14.8573C2.38086 16.0803 3.37212 17.0716 4.59514 17.0716H14.9285C16.1515 17.0716 17.1428 16.0803 17.1428 14.8573V10.4287C17.1428 11.6517 16.1515 12.643 14.9285 12.643Z" fill="#6C757D"/>
<path d="M10.5002 3.04785C10.2301 3.04785 9.29419 3.04785 9.02404 3.04785C8.20845 3.04785 7.54785 3.70845 7.54785 4.52404H11.9764C11.9764 3.70845 11.3158 3.04785 10.5002 3.04785Z" fill="#6C757D"/>
</svg>
