<svg width="20" height="20" viewBox="0 0 20 20" fill="none" xmlns="http://www.w3.org/2000/svg">
<path opacity="0.3" d="M10.0003 18.3337C14.6027 18.3337 18.3337 14.6027 18.3337 10.0003C18.3337 5.39795 14.6027 1.66699 10.0003 1.66699C5.39795 1.66699 1.66699 5.39795 1.66699 10.0003C1.66699 14.6027 5.39795 18.3337 10.0003 18.3337Z" fill="#ADB5BD"/>
<path d="M9.16699 14.167V10.0003C9.16699 9.54033 9.54033 9.16699 10.0003 9.16699C10.4603 9.16699 10.8337 9.54033 10.8337 10.0003V14.167C10.8337 14.627 10.4603 15.0003 10.0003 15.0003C9.54033 15.0003 9.16699 14.627 9.16699 14.167Z" fill="#ADB5BD"/>
<path d="M10 7.5C10.6904 7.5 11.25 6.94036 11.25 6.25C11.25 5.55964 10.6904 5 10 5C9.30964 5 8.75 5.55964 8.75 6.25C8.75 6.94036 9.30964 7.5 10 7.5Z" fill="#ADB5BD"/>
</svg>
