<svg width="20" height="20" viewBox="0 0 20 20" fill="none" xmlns="http://www.w3.org/2000/svg">
<path opacity="0.3" d="M18.1126 15.0205L11.4326 3.44971C11.1376 2.93805 10.5909 2.62305 10.0009 2.62305C9.41089 2.62305 8.86422 2.93805 8.56922 3.44971L1.88922 15.0205C1.59422 15.5322 1.59422 16.1614 1.88922 16.6739C2.18422 17.1847 2.73005 17.4997 3.32089 17.4997H16.6817C17.2717 17.4997 17.8184 17.1847 18.1134 16.673C18.4084 16.1614 18.4084 15.5322 18.1126 15.0205Z" fill="#DC3545"/>
<path d="M10.9826 14.7881C10.9826 15.0823 10.8117 15.8331 9.99508 15.8331C9.17841 15.8331 9.01758 15.0814 9.01758 14.7881C9.01758 14.5006 9.19925 13.7306 9.99508 13.7306C10.7909 13.7306 10.9826 14.5006 10.9826 14.7881ZM9.09924 11.5989V7.9731C9.09924 7.4756 9.50258 7.07227 10.0001 7.07227C10.4976 7.07227 10.9009 7.4756 10.9009 7.9731V11.5998C10.9009 12.0964 10.4976 12.4998 10.0001 12.4998C9.50258 12.4998 9.09924 12.0964 9.09924 11.5989Z" fill="#DC3545"/>
</svg>
