<svg width="25" height="24" viewBox="0 0 25 24" fill="none" xmlns="http://www.w3.org/2000/svg">
<path opacity="0.3" d="M12.5 22C18.0228 22 22.5 17.5228 22.5 12C22.5 6.47715 18.0228 2 12.5 2C6.97715 2 2.5 6.47715 2.5 12C2.5 17.5228 6.97715 22 12.5 22Z" fill="#ADB5BD"/>
<path d="M11.5 17V12C11.5 11.448 11.948 11 12.5 11C13.052 11 13.5 11.448 13.5 12V17C13.5 17.552 13.052 18 12.5 18C11.948 18 11.5 17.552 11.5 17Z" fill="#ADB5BD"/>
<path d="M12.5 9C13.3284 9 14 8.32843 14 7.5C14 6.67157 13.3284 6 12.5 6C11.6716 6 11 6.67157 11 7.5C11 8.32843 11.6716 9 12.5 9Z" fill="#ADB5BD"/>
</svg>
