<svg width="20" height="20" viewBox="0 0 20 20" fill="none" xmlns="http://www.w3.org/2000/svg">
<path opacity="0.3" d="M18.1126 15.0205L11.4326 3.44971C11.1376 2.93805 10.5909 2.62305 10.0009 2.62305C9.41089 2.62305 8.86422 2.93805 8.56922 3.44971L1.88922 15.0205C1.59422 15.5322 1.59422 16.1614 1.88922 16.6739C2.18422 17.1847 2.73005 17.4997 3.32089 17.4997H16.6817C17.2717 17.4997 17.8184 17.1847 18.1134 16.673C18.4084 16.1614 18.4084 15.5322 18.1126 15.0205Z" fill="#DC3545"/>
<path d="M10.9826 14.7886C10.9826 15.0828 10.8117 15.8336 9.99508 15.8336C9.17841 15.8336 9.01758 15.0819 9.01758 14.7886C9.01758 14.5011 9.19925 13.7311 9.99508 13.7311C10.7909 13.7311 10.9826 14.5011 10.9826 14.7886ZM9.09924 11.5994V7.97359C9.09924 7.47609 9.50258 7.07275 10.0001 7.07275C10.4976 7.07275 10.9009 7.47609 10.9009 7.97359V11.6003C10.9009 12.0969 10.4976 12.5003 10.0001 12.5003C9.50258 12.5003 9.09924 12.0969 9.09924 11.5994Z" fill="#DC3545"/>
</svg>
