<svg width="25" height="25" viewBox="0 0 25 25" fill="none" xmlns="http://www.w3.org/2000/svg">
<path opacity="0.3" d="M12.5 22.7632C18.0228 22.7632 22.5 18.286 22.5 12.7632C22.5 7.24034 18.0228 2.76318 12.5 2.76318C6.97715 2.76318 2.5 7.24034 2.5 12.7632C2.5 18.286 6.97715 22.7632 12.5 22.7632Z" fill="#282828"/>
<path d="M11.5 17.7632V12.7632C11.5 12.2112 11.948 11.7632 12.5 11.7632C13.052 11.7632 13.5 12.2112 13.5 12.7632V17.7632C13.5 18.3152 13.052 18.7632 12.5 18.7632C11.948 18.7632 11.5 18.3152 11.5 17.7632Z" fill="#282828"/>
<path d="M12.5 9.76318C13.3284 9.76318 14 9.09161 14 8.26318C14 7.43476 13.3284 6.76318 12.5 6.76318C11.6716 6.76318 11 7.43476 11 8.26318C11 9.09161 11.6716 9.76318 12.5 9.76318Z" fill="#282828"/>
</svg>
